%TF.GenerationSoftware,KiCad,Pcbnew,10.0.1*%
%TF.CreationDate,2026-04-28T23:59:49+10:00*%
%TF.ProjectId,Driver_Control_PCB,44726976-6572-45f4-936f-6e74726f6c5f,rev?*%
%TF.SameCoordinates,Original*%
%TF.FileFunction,Paste,Top*%
%TF.FilePolarity,Positive*%
%FSLAX46Y46*%
G04 Gerber Fmt 4.6, Leading zero omitted, Abs format (unit mm)*
G04 Created by KiCad (PCBNEW 10.0.1) date 2026-04-28 23:59:49*
%MOMM*%
%LPD*%
G01*
G04 APERTURE LIST*
G04 Aperture macros list*
%AMRoundRect*
0 Rectangle with rounded corners*
0 $1 Rounding radius*
0 $2 $3 $4 $5 $6 $7 $8 $9 X,Y pos of 4 corners*
0 Add a 4 corners polygon primitive as box body*
4,1,4,$2,$3,$4,$5,$6,$7,$8,$9,$2,$3,0*
0 Add four circle primitives for the rounded corners*
1,1,$1+$1,$2,$3*
1,1,$1+$1,$4,$5*
1,1,$1+$1,$6,$7*
1,1,$1+$1,$8,$9*
0 Add four rect primitives between the rounded corners*
20,1,$1+$1,$2,$3,$4,$5,0*
20,1,$1+$1,$4,$5,$6,$7,0*
20,1,$1+$1,$6,$7,$8,$9,0*
20,1,$1+$1,$8,$9,$2,$3,0*%
G04 Aperture macros list end*
%ADD10RoundRect,0.250000X0.262500X0.450000X-0.262500X0.450000X-0.262500X-0.450000X0.262500X-0.450000X0*%
%ADD11RoundRect,0.250000X-0.450000X0.262500X-0.450000X-0.262500X0.450000X-0.262500X0.450000X0.262500X0*%
%ADD12RoundRect,0.250000X0.450000X-0.262500X0.450000X0.262500X-0.450000X0.262500X-0.450000X-0.262500X0*%
%ADD13RoundRect,0.150000X-0.150000X-0.700000X0.150000X-0.700000X0.150000X0.700000X-0.150000X0.700000X0*%
%ADD14RoundRect,0.250000X-0.250000X-1.100000X0.250000X-1.100000X0.250000X1.100000X-0.250000X1.100000X0*%
%ADD15RoundRect,0.250000X0.250000X0.475000X-0.250000X0.475000X-0.250000X-0.475000X0.250000X-0.475000X0*%
%ADD16RoundRect,0.150000X-0.700000X0.150000X-0.700000X-0.150000X0.700000X-0.150000X0.700000X0.150000X0*%
%ADD17RoundRect,0.250000X-1.100000X0.250000X-1.100000X-0.250000X1.100000X-0.250000X1.100000X0.250000X0*%
%ADD18RoundRect,0.150000X0.150000X0.700000X-0.150000X0.700000X-0.150000X-0.700000X0.150000X-0.700000X0*%
%ADD19RoundRect,0.250000X0.250000X1.100000X-0.250000X1.100000X-0.250000X-1.100000X0.250000X-1.100000X0*%
%ADD20R,0.300000X1.600000*%
%ADD21RoundRect,0.250000X-0.475000X0.250000X-0.475000X-0.250000X0.475000X-0.250000X0.475000X0.250000X0*%
%ADD22RoundRect,0.250000X-0.262500X-0.450000X0.262500X-0.450000X0.262500X0.450000X-0.262500X0.450000X0*%
%ADD23RoundRect,0.150000X-0.825000X-0.150000X0.825000X-0.150000X0.825000X0.150000X-0.825000X0.150000X0*%
%ADD24RoundRect,0.250000X0.475000X-0.250000X0.475000X0.250000X-0.475000X0.250000X-0.475000X-0.250000X0*%
G04 APERTURE END LIST*
D10*
%TO.C,R_term1*%
X253000000Y-67500000D03*
X251175000Y-67500000D03*
%TD*%
D11*
%TO.C,R16*%
X243100000Y-110700000D03*
X243100000Y-112525000D03*
%TD*%
%TO.C,R15*%
X240800000Y-110700000D03*
X240800000Y-112525000D03*
%TD*%
%TO.C,R2*%
X247612500Y-110637500D03*
X247612500Y-112462500D03*
%TD*%
D12*
%TO.C,R22*%
X214450000Y-112362500D03*
X214450000Y-110537500D03*
%TD*%
%TO.C,R23*%
X268450000Y-112275000D03*
X268450000Y-110450000D03*
%TD*%
D10*
%TO.C,R19*%
X218312500Y-101000000D03*
X216487500Y-101000000D03*
%TD*%
%TO.C,R20*%
X218300000Y-103600000D03*
X216475000Y-103600000D03*
%TD*%
D11*
%TO.C,R13*%
X236300000Y-110700000D03*
X236300000Y-112525000D03*
%TD*%
D13*
%TO.C,R_THR1*%
X265450000Y-114950000D03*
X266700000Y-114950000D03*
X267950000Y-114950000D03*
D14*
X263600000Y-118150000D03*
X269800000Y-118150000D03*
%TD*%
D15*
%TO.C,C8*%
X266450000Y-112050000D03*
X264550000Y-112050000D03*
%TD*%
D16*
%TO.C,SW_Push4*%
X214000000Y-70750000D03*
X214000000Y-72000000D03*
D17*
X210800000Y-68900000D03*
X210800000Y-73850000D03*
%TD*%
D18*
%TO.C,SW_Tog2*%
X261775000Y-30350000D03*
X260525000Y-30350000D03*
D19*
X263625000Y-27150000D03*
X258675000Y-27150000D03*
%TD*%
D11*
%TO.C,R17*%
X231862500Y-110625000D03*
X231862500Y-112450000D03*
%TD*%
D16*
%TO.C,SW_Push3*%
X214000000Y-63250000D03*
X214000000Y-64500000D03*
D17*
X210800000Y-61400000D03*
X210800000Y-66350000D03*
%TD*%
D20*
%TO.C,U3*%
X216525000Y-89800000D03*
X217175000Y-89800000D03*
X217825000Y-89800000D03*
X218475000Y-89800000D03*
X218475000Y-86400000D03*
X217825000Y-86400000D03*
X217175000Y-86400000D03*
X216525000Y-86400000D03*
%TD*%
D16*
%TO.C,SW_Push5*%
X214000000Y-78250000D03*
X214000000Y-79500000D03*
D17*
X210800000Y-76400000D03*
X210800000Y-81350000D03*
%TD*%
D11*
%TO.C,R7*%
X219875000Y-110550000D03*
X219875000Y-112375000D03*
%TD*%
%TO.C,R5*%
X255025000Y-110650000D03*
X255025000Y-112475000D03*
%TD*%
D21*
%TO.C,C6*%
X218700000Y-82500000D03*
X218700000Y-84400000D03*
%TD*%
D10*
%TO.C,R12*%
X218300000Y-106000000D03*
X216475000Y-106000000D03*
%TD*%
D11*
%TO.C,R4*%
X252525000Y-110650000D03*
X252525000Y-112475000D03*
%TD*%
D22*
%TO.C,R1*%
X260675000Y-102500000D03*
X262500000Y-102500000D03*
%TD*%
D23*
%TO.C,U2*%
X253500000Y-102230000D03*
X253500000Y-103500000D03*
X253500000Y-104770000D03*
X253500000Y-106040000D03*
X258450000Y-106040000D03*
X258450000Y-104770000D03*
X258450000Y-103500000D03*
X258450000Y-102230000D03*
%TD*%
D15*
%TO.C,C1*%
X262600000Y-104600000D03*
X260700000Y-104600000D03*
%TD*%
D10*
%TO.C,R18*%
X218312500Y-98400000D03*
X216487500Y-98400000D03*
%TD*%
D11*
%TO.C,R11*%
X229462500Y-110625000D03*
X229462500Y-112450000D03*
%TD*%
D13*
%TO.C,R_5Pos1*%
X250675000Y-115050000D03*
X251925000Y-115050000D03*
X253175000Y-115050000D03*
X254425000Y-115050000D03*
X255675000Y-115050000D03*
X256925000Y-115050000D03*
D14*
X248825000Y-118250000D03*
X258775000Y-118250000D03*
%TD*%
D11*
%TO.C,R6*%
X257525000Y-110650000D03*
X257525000Y-112475000D03*
%TD*%
D15*
%TO.C,C7*%
X212350000Y-112150000D03*
X210450000Y-112150000D03*
%TD*%
D16*
%TO.C,SW_Push1*%
X214000000Y-48250000D03*
X214000000Y-49500000D03*
D17*
X210800000Y-46400000D03*
X210800000Y-51350000D03*
%TD*%
D21*
%TO.C,C2*%
X222500000Y-40100000D03*
X222500000Y-42000000D03*
%TD*%
D24*
%TO.C,C5*%
X216500000Y-84400000D03*
X216500000Y-82500000D03*
%TD*%
D11*
%TO.C,R9*%
X224687500Y-110625000D03*
X224687500Y-112450000D03*
%TD*%
D13*
%TO.C,R_BRK1*%
X211450000Y-114950000D03*
X212700000Y-114950000D03*
X213950000Y-114950000D03*
D14*
X209600000Y-118150000D03*
X215800000Y-118150000D03*
%TD*%
D16*
%TO.C,SW_Push2*%
X214000000Y-55750000D03*
X214000000Y-57000000D03*
D17*
X210800000Y-53900000D03*
X210800000Y-58850000D03*
%TD*%
D11*
%TO.C,R14*%
X238600000Y-110700000D03*
X238600000Y-112525000D03*
%TD*%
D16*
%TO.C,J3*%
X214000000Y-86250000D03*
X214000000Y-87500000D03*
X214000000Y-88750000D03*
X214000000Y-90000000D03*
D17*
X210800000Y-84400000D03*
X210800000Y-91850000D03*
%TD*%
D11*
%TO.C,R3*%
X250025000Y-110637500D03*
X250025000Y-112462500D03*
%TD*%
%TO.C,R10*%
X227075000Y-110625000D03*
X227075000Y-112450000D03*
%TD*%
D13*
%TO.C,R_pos2*%
X237850000Y-115000000D03*
X239100000Y-115000000D03*
X240350000Y-115000000D03*
X241600000Y-115000000D03*
D14*
X236000000Y-118200000D03*
X243450000Y-118200000D03*
%TD*%
D13*
%TO.C,R_5Pos2*%
X222775000Y-114950000D03*
X224025000Y-114950000D03*
X225275000Y-114950000D03*
X226525000Y-114950000D03*
X227775000Y-114950000D03*
X229025000Y-114950000D03*
D14*
X220925000Y-118150000D03*
X230875000Y-118150000D03*
%TD*%
D18*
%TO.C,SW_Tog1*%
X254125000Y-30350000D03*
X252875000Y-30350000D03*
D19*
X255975000Y-27150000D03*
X251025000Y-27150000D03*
%TD*%
D11*
%TO.C,R8*%
X222275000Y-110625000D03*
X222275000Y-112450000D03*
%TD*%
D21*
%TO.C,C4*%
X209990000Y-94600000D03*
X209990000Y-96500000D03*
%TD*%
D11*
%TO.C,R21*%
X259925000Y-110637500D03*
X259925000Y-112462500D03*
%TD*%
D16*
%TO.C,R_pos1*%
X213850000Y-100625000D03*
X213850000Y-101875000D03*
X213850000Y-103125000D03*
X213850000Y-104375000D03*
D17*
X210650000Y-98775000D03*
X210650000Y-106225000D03*
%TD*%
D21*
%TO.C,C3*%
X213000000Y-94600000D03*
X213000000Y-96500000D03*
%TD*%
M02*
