M48
; DRILL file KiCad 10.0.1 date 2026-04-28T23:59:53
; FORMAT={-:-/ absolute / metric / decimal}
; #@! TF.CreationDate,2026-04-28T23:59:53+10:00
; #@! TF.GenerationSoftware,Kicad,Pcbnew,10.0.1
; #@! TF.FileFunction,Plated,1,4,PTH
FMAT,2
METRIC
; #@! TA.AperFunction,Plated,PTH,ViaDrill
T1C0.330
; #@! TA.AperFunction,Plated,PTH,ComponentDrill
T2C0.800
; #@! TA.AperFunction,Plated,PTH,ComponentDrill
T3C0.991
; #@! TA.AperFunction,Plated,PTH,ComponentDrill
T4C1.000
; #@! TA.AperFunction,Plated,PTH,ComponentDrill
T5C1.300
%
G90
G05
T1
X210.0Y-96.5
X210.4Y-112.2
X211.4Y-114.9
X213.0Y-96.5
X213.9Y-49.5
X213.9Y-57.0
X213.9Y-64.5
X213.9Y-72.0
X213.9Y-79.5
X213.9Y-114.9
X214.0Y-88.7
X214.8Y-95.3
X215.397Y-87.5
X215.397Y-89.7
X215.5Y-85.7
X216.5Y-82.4
X216.5Y-106.0
X217.2Y-87.9
X217.205Y-89.1
X217.8Y-86.4
X217.8Y-89.7
X218.3Y-98.4
X218.7Y-82.4
X218.7Y-84.3
X219.9Y-110.5
X219.984Y-85.472
X220.0Y-86.3
X222.5Y-40.1
X222.5Y-42.0
X223.298Y-103.0
X231.8Y-112.4
X236.3Y-110.6
X243.1Y-112.5
X247.4Y-63.1
X247.6Y-110.6
X252.9Y-30.3
X253.5Y-103.5
X253.5Y-104.8
X260.0Y-112.5
X260.5Y-30.3
X260.6Y-104.6
X262.5Y-102.4
X262.6Y-104.5
X264.6Y-112.0
X265.4Y-114.9
X267.935Y-113.635
T2
X222.636Y-92.757
X222.636Y-95.297
X222.636Y-97.837
X222.64Y-44.5
X222.64Y-47.04
X222.64Y-49.58
X222.64Y-52.12
X222.64Y-54.66
X222.64Y-57.2
X222.64Y-59.74
X222.64Y-62.28
X222.64Y-64.82
X222.64Y-67.36
X222.64Y-69.9
X222.64Y-72.44
X222.64Y-74.98
X222.64Y-77.52
X222.64Y-80.06
X222.64Y-82.6
X222.64Y-85.14
X222.64Y-87.68
X222.64Y-90.22
X245.5Y-44.5
X245.5Y-47.04
X245.5Y-49.58
X245.5Y-52.12
X245.5Y-54.66
X245.5Y-57.2
X245.5Y-59.74
X245.5Y-62.28
X245.5Y-64.82
X245.5Y-67.36
X245.5Y-69.9
X245.5Y-72.44
X245.5Y-74.98
X245.5Y-77.52
X245.5Y-80.06
X245.5Y-82.6
X245.5Y-85.14
X245.5Y-87.68
X245.5Y-90.22
X245.5Y-92.76
X245.5Y-95.3
X245.5Y-97.84
T3
X251.93Y-43.965
X251.93Y-46.735
X251.93Y-49.505
X251.93Y-52.275
X251.93Y-55.045
X251.93Y-79.955
X251.93Y-82.725
X251.93Y-85.495
X251.93Y-88.265
X251.93Y-91.035
X254.47Y-45.35
X254.47Y-48.12
X254.47Y-50.89
X254.47Y-53.66
X254.47Y-81.34
X254.47Y-84.11
X254.47Y-86.88
X254.47Y-89.65
T4
X257.26Y-67.5
X259.8Y-67.5
T5
X222.5Y-30.867
X227.5Y-30.867
X232.5Y-30.867
X239.0Y-30.867
X244.0Y-30.867
M30
