%TF.GenerationSoftware,KiCad,Pcbnew,9.0.7*%
%TF.CreationDate,2026-03-17T22:03:11+11:00*%
%TF.ProjectId,Lights_Sensors_Circuit,4c696768-7473-45f5-9365-6e736f72735f,rev?*%
%TF.SameCoordinates,Original*%
%TF.FileFunction,Soldermask,Bot*%
%TF.FilePolarity,Negative*%
%FSLAX46Y46*%
G04 Gerber Fmt 4.6, Leading zero omitted, Abs format (unit mm)*
G04 Created by KiCad (PCBNEW 9.0.7) date 2026-03-17 22:03:11*
%MOMM*%
%LPD*%
G01*
G04 APERTURE LIST*
%ADD10C,1.498600*%
%ADD11C,3.302000*%
%ADD12R,1.700000X1.700000*%
%ADD13C,1.700000*%
%ADD14R,1.800000X1.800000*%
%ADD15C,1.800000*%
%ADD16R,2.000000X1.200000*%
%ADD17O,2.000000X1.200000*%
G04 APERTURE END LIST*
D10*
%TO.C,J10*%
X162730000Y-99965001D03*
X162730000Y-102735001D03*
X162730000Y-105505000D03*
X162730000Y-108275000D03*
X162730000Y-111044999D03*
X165270000Y-101349999D03*
X165270000Y-104119999D03*
X165270000Y-106889999D03*
X165270000Y-109659998D03*
D11*
X164000000Y-93010000D03*
X164000000Y-118000000D03*
%TD*%
D12*
%TO.C,J4*%
X87630000Y-67310000D03*
D13*
X87630000Y-64770000D03*
X87630000Y-62230000D03*
%TD*%
D12*
%TO.C,J5*%
X87630000Y-130810000D03*
D13*
X87630000Y-128270000D03*
X87630000Y-125730000D03*
%TD*%
D12*
%TO.C,J8*%
X101600000Y-144780000D03*
D13*
X99060000Y-144780000D03*
X96520000Y-144780000D03*
%TD*%
D14*
%TO.C,D5*%
X99060000Y-116840000D03*
D15*
X99060000Y-114300000D03*
%TD*%
D12*
%TO.C,J6*%
X87630000Y-105410000D03*
D13*
X87630000Y-102870000D03*
X87630000Y-100330000D03*
%TD*%
D16*
%TO.C,U1*%
X113030000Y-66087920D03*
D17*
X113030000Y-68627920D03*
X113030000Y-71167920D03*
X113030000Y-73707920D03*
X113030000Y-76247920D03*
X113030000Y-78787920D03*
X113030000Y-81327920D03*
X113030000Y-83867920D03*
X113030000Y-86407920D03*
X113030000Y-88947920D03*
X113030000Y-91487920D03*
X113030000Y-94027920D03*
X113030000Y-96567920D03*
X113030000Y-99107920D03*
X113030000Y-101647920D03*
X113030000Y-104187920D03*
X113030000Y-106727920D03*
X113030000Y-109267920D03*
X113030000Y-111807920D03*
X113026320Y-114345200D03*
X113026320Y-116885200D03*
X113026320Y-119425200D03*
X135890000Y-119427920D03*
X135890000Y-116887920D03*
X135890000Y-114347920D03*
X135890000Y-111807920D03*
X135890000Y-109267920D03*
X135890000Y-106727920D03*
X135890000Y-104187920D03*
X135890000Y-101647920D03*
X135890000Y-99107920D03*
X135890000Y-96567920D03*
X135890000Y-94027920D03*
X135890000Y-91487920D03*
X135890000Y-88947920D03*
X135890000Y-86407920D03*
X135890000Y-83867920D03*
X135890000Y-81327920D03*
X135890000Y-78787920D03*
X135890000Y-76247920D03*
X135890000Y-73707920D03*
X135890000Y-71167920D03*
X135890000Y-68627920D03*
X135890000Y-66087920D03*
%TD*%
D12*
%TO.C,J9*%
X88900000Y-144780000D03*
D13*
X86360000Y-144780000D03*
X83820000Y-144780000D03*
%TD*%
D14*
%TO.C,D3*%
X99060000Y-106680000D03*
D15*
X99060000Y-104140000D03*
%TD*%
D12*
%TO.C,J3*%
X87630000Y-92710000D03*
D13*
X87630000Y-90170000D03*
X87630000Y-87630000D03*
%TD*%
D14*
%TO.C,D4*%
X99060000Y-125730000D03*
D15*
X99060000Y-123190000D03*
%TD*%
D12*
%TO.C,J1*%
X87630000Y-80010000D03*
D13*
X87630000Y-77470000D03*
X87630000Y-74930000D03*
%TD*%
D14*
%TO.C,D2*%
X99060000Y-92710000D03*
D15*
X99060000Y-90170000D03*
%TD*%
D14*
%TO.C,D1*%
X99060000Y-76200000D03*
D15*
X99060000Y-78740000D03*
%TD*%
D12*
%TO.C,J7*%
X114300000Y-144780000D03*
D13*
X111760000Y-144780000D03*
X109220000Y-144780000D03*
%TD*%
D12*
%TO.C,J2*%
X87630000Y-118110000D03*
D13*
X87630000Y-115570000D03*
X87630000Y-113030000D03*
%TD*%
M02*
