M48
; DRILL file {KiCad 9.0.7} date 2026-02-16T17:26:42+1100
; FORMAT={-:-/ absolute / metric / decimal}
; #@! TF.CreationDate,2026-02-16T17:26:42+11:00
; #@! TF.GenerationSoftware,Kicad,Pcbnew,9.0.7
; #@! TF.FileFunction,Plated,1,2,PTH
FMAT,2
METRIC
; #@! TA.AperFunction,Plated,PTH,ViaDrill
T1C0.300
; #@! TA.AperFunction,Plated,PTH,ComponentDrill
T2C0.991
; #@! TA.AperFunction,Plated,PTH,ComponentDrill
T3C1.000
; #@! TA.AperFunction,Plated,PTH,ComponentDrill
T4C1.100
; #@! TA.AperFunction,Plated,PTH,ComponentDrill
T5C3.200
%
G90
G05
T1
X98.5Y-129.0
X101.0Y-109.5
X102.0Y-108.5
X103.0Y-107.5
X104.0Y-106.5
X106.5Y-102.472
X106.527Y-129.0
X107.5Y-103.014
X108.5Y-73.5
X125.5Y-103.0
X126.5Y-102.472
X130.0Y-102.472
X131.0Y-103.0
X138.5Y-103.0
X139.5Y-102.472
X158.0Y-103.0
X159.0Y-102.472
X164.0Y-102.472
X165.0Y-103.0
X166.0Y-102.472
T2
X129.46Y-77.51
X130.845Y-74.97
X132.23Y-77.51
X133.615Y-74.97
X135.0Y-77.51
X136.385Y-74.97
X137.77Y-77.51
X139.155Y-74.97
X140.54Y-77.51
X162.46Y-77.51
X163.845Y-74.97
X165.23Y-77.51
X166.615Y-74.97
X168.0Y-77.51
X169.385Y-74.97
X170.77Y-77.51
X172.155Y-74.97
X173.54Y-77.51
T3
X101.08Y-130.305
X101.08Y-133.075
X101.08Y-135.845
X101.08Y-138.615
X101.08Y-141.385
X103.92Y-131.69
X103.92Y-134.46
X103.92Y-137.23
X103.92Y-140.0
X121.1Y-130.305
X121.1Y-133.075
X121.1Y-135.845
X121.1Y-138.615
X121.1Y-141.385
X123.94Y-131.69
X123.94Y-134.46
X123.94Y-137.23
X123.94Y-140.0
X141.12Y-130.305
X141.12Y-133.075
X141.12Y-135.845
X141.12Y-138.615
X141.12Y-141.385
X143.96Y-131.69
X143.96Y-134.46
X143.96Y-137.23
X143.96Y-140.0
X161.14Y-130.305
X161.14Y-133.075
X161.14Y-135.845
X161.14Y-138.615
X161.14Y-141.385
X163.98Y-131.69
X163.98Y-134.46
X163.98Y-137.23
X163.98Y-140.0
X181.16Y-130.305
X181.16Y-133.075
X181.16Y-135.845
X181.16Y-138.615
X181.16Y-141.385
X184.0Y-131.69
X184.0Y-134.46
X184.0Y-137.23
X184.0Y-140.0
T4
X102.46Y-70.0
X105.0Y-70.0
T5
X102.5Y-123.345
X102.5Y-148.345
X122.52Y-123.345
X122.52Y-148.345
X142.54Y-123.345
X142.54Y-148.345
X162.56Y-123.345
X162.56Y-148.345
X182.58Y-123.345
X182.58Y-148.345
M30
