%TF.GenerationSoftware,KiCad,Pcbnew,9.0.7*%
%TF.CreationDate,2026-02-16T17:26:14+11:00*%
%TF.ProjectId,BackPlane,4261636b-506c-4616-9e65-2e6b69636164,rev?*%
%TF.SameCoordinates,Original*%
%TF.FileFunction,Legend,Top*%
%TF.FilePolarity,Positive*%
%FSLAX46Y46*%
G04 Gerber Fmt 4.6, Leading zero omitted, Abs format (unit mm)*
G04 Created by KiCad (PCBNEW 9.0.7) date 2026-02-16 17:26:14*
%MOMM*%
%LPD*%
G01*
G04 APERTURE LIST*
%ADD10C,0.152400*%
%ADD11C,0.150000*%
%ADD12C,0.120000*%
%ADD13C,0.000000*%
G04 APERTURE END LIST*
D10*
X164793786Y-82392603D02*
X164793786Y-81579803D01*
X165180834Y-81850737D02*
X165180834Y-82392603D01*
X165180834Y-81928146D02*
X165219539Y-81889441D01*
X165219539Y-81889441D02*
X165296949Y-81850737D01*
X165296949Y-81850737D02*
X165413063Y-81850737D01*
X165413063Y-81850737D02*
X165490472Y-81889441D01*
X165490472Y-81889441D02*
X165529177Y-81966851D01*
X165529177Y-81966851D02*
X165529177Y-82392603D01*
X165916224Y-81850737D02*
X165916224Y-82663537D01*
X165916224Y-81889441D02*
X165993634Y-81850737D01*
X165993634Y-81850737D02*
X166148453Y-81850737D01*
X166148453Y-81850737D02*
X166225862Y-81889441D01*
X166225862Y-81889441D02*
X166264567Y-81928146D01*
X166264567Y-81928146D02*
X166303272Y-82005556D01*
X166303272Y-82005556D02*
X166303272Y-82237784D01*
X166303272Y-82237784D02*
X166264567Y-82315194D01*
X166264567Y-82315194D02*
X166225862Y-82353899D01*
X166225862Y-82353899D02*
X166148453Y-82392603D01*
X166148453Y-82392603D02*
X165993634Y-82392603D01*
X165993634Y-82392603D02*
X165916224Y-82353899D01*
X166999957Y-81850737D02*
X166999957Y-82392603D01*
X166651614Y-81850737D02*
X166651614Y-82276489D01*
X166651614Y-82276489D02*
X166690319Y-82353899D01*
X166690319Y-82353899D02*
X166767729Y-82392603D01*
X166767729Y-82392603D02*
X166883843Y-82392603D01*
X166883843Y-82392603D02*
X166961252Y-82353899D01*
X166961252Y-82353899D02*
X166999957Y-82315194D01*
X167270890Y-81850737D02*
X167580528Y-81850737D01*
X167387004Y-81579803D02*
X167387004Y-82276489D01*
X167387004Y-82276489D02*
X167425709Y-82353899D01*
X167425709Y-82353899D02*
X167503119Y-82392603D01*
X167503119Y-82392603D02*
X167580528Y-82392603D01*
X168432033Y-81541099D02*
X167735347Y-82586127D01*
X168857785Y-81579803D02*
X169012604Y-81579803D01*
X169012604Y-81579803D02*
X169090014Y-81618508D01*
X169090014Y-81618508D02*
X169167423Y-81695918D01*
X169167423Y-81695918D02*
X169206128Y-81850737D01*
X169206128Y-81850737D02*
X169206128Y-82121670D01*
X169206128Y-82121670D02*
X169167423Y-82276489D01*
X169167423Y-82276489D02*
X169090014Y-82353899D01*
X169090014Y-82353899D02*
X169012604Y-82392603D01*
X169012604Y-82392603D02*
X168857785Y-82392603D01*
X168857785Y-82392603D02*
X168780376Y-82353899D01*
X168780376Y-82353899D02*
X168702966Y-82276489D01*
X168702966Y-82276489D02*
X168664262Y-82121670D01*
X168664262Y-82121670D02*
X168664262Y-81850737D01*
X168664262Y-81850737D02*
X168702966Y-81695918D01*
X168702966Y-81695918D02*
X168780376Y-81618508D01*
X168780376Y-81618508D02*
X168857785Y-81579803D01*
X169902814Y-81850737D02*
X169902814Y-82392603D01*
X169554471Y-81850737D02*
X169554471Y-82276489D01*
X169554471Y-82276489D02*
X169593176Y-82353899D01*
X169593176Y-82353899D02*
X169670586Y-82392603D01*
X169670586Y-82392603D02*
X169786700Y-82392603D01*
X169786700Y-82392603D02*
X169864109Y-82353899D01*
X169864109Y-82353899D02*
X169902814Y-82315194D01*
X170173747Y-81850737D02*
X170483385Y-81850737D01*
X170289861Y-81579803D02*
X170289861Y-82276489D01*
X170289861Y-82276489D02*
X170328566Y-82353899D01*
X170328566Y-82353899D02*
X170405976Y-82392603D01*
X170405976Y-82392603D02*
X170483385Y-82392603D01*
X170754318Y-81850737D02*
X170754318Y-82663537D01*
X170754318Y-81889441D02*
X170831728Y-81850737D01*
X170831728Y-81850737D02*
X170986547Y-81850737D01*
X170986547Y-81850737D02*
X171063956Y-81889441D01*
X171063956Y-81889441D02*
X171102661Y-81928146D01*
X171102661Y-81928146D02*
X171141366Y-82005556D01*
X171141366Y-82005556D02*
X171141366Y-82237784D01*
X171141366Y-82237784D02*
X171102661Y-82315194D01*
X171102661Y-82315194D02*
X171063956Y-82353899D01*
X171063956Y-82353899D02*
X170986547Y-82392603D01*
X170986547Y-82392603D02*
X170831728Y-82392603D01*
X170831728Y-82392603D02*
X170754318Y-82353899D01*
X171838051Y-81850737D02*
X171838051Y-82392603D01*
X171489708Y-81850737D02*
X171489708Y-82276489D01*
X171489708Y-82276489D02*
X171528413Y-82353899D01*
X171528413Y-82353899D02*
X171605823Y-82392603D01*
X171605823Y-82392603D02*
X171721937Y-82392603D01*
X171721937Y-82392603D02*
X171799346Y-82353899D01*
X171799346Y-82353899D02*
X171838051Y-82315194D01*
X172108984Y-81850737D02*
X172418622Y-81850737D01*
X172225098Y-81579803D02*
X172225098Y-82276489D01*
X172225098Y-82276489D02*
X172263803Y-82353899D01*
X172263803Y-82353899D02*
X172341213Y-82392603D01*
X172341213Y-82392603D02*
X172418622Y-82392603D01*
X131793786Y-82392603D02*
X131793786Y-81579803D01*
X132180834Y-81850737D02*
X132180834Y-82392603D01*
X132180834Y-81928146D02*
X132219539Y-81889441D01*
X132219539Y-81889441D02*
X132296949Y-81850737D01*
X132296949Y-81850737D02*
X132413063Y-81850737D01*
X132413063Y-81850737D02*
X132490472Y-81889441D01*
X132490472Y-81889441D02*
X132529177Y-81966851D01*
X132529177Y-81966851D02*
X132529177Y-82392603D01*
X132916224Y-81850737D02*
X132916224Y-82663537D01*
X132916224Y-81889441D02*
X132993634Y-81850737D01*
X132993634Y-81850737D02*
X133148453Y-81850737D01*
X133148453Y-81850737D02*
X133225862Y-81889441D01*
X133225862Y-81889441D02*
X133264567Y-81928146D01*
X133264567Y-81928146D02*
X133303272Y-82005556D01*
X133303272Y-82005556D02*
X133303272Y-82237784D01*
X133303272Y-82237784D02*
X133264567Y-82315194D01*
X133264567Y-82315194D02*
X133225862Y-82353899D01*
X133225862Y-82353899D02*
X133148453Y-82392603D01*
X133148453Y-82392603D02*
X132993634Y-82392603D01*
X132993634Y-82392603D02*
X132916224Y-82353899D01*
X133999957Y-81850737D02*
X133999957Y-82392603D01*
X133651614Y-81850737D02*
X133651614Y-82276489D01*
X133651614Y-82276489D02*
X133690319Y-82353899D01*
X133690319Y-82353899D02*
X133767729Y-82392603D01*
X133767729Y-82392603D02*
X133883843Y-82392603D01*
X133883843Y-82392603D02*
X133961252Y-82353899D01*
X133961252Y-82353899D02*
X133999957Y-82315194D01*
X134270890Y-81850737D02*
X134580528Y-81850737D01*
X134387004Y-81579803D02*
X134387004Y-82276489D01*
X134387004Y-82276489D02*
X134425709Y-82353899D01*
X134425709Y-82353899D02*
X134503119Y-82392603D01*
X134503119Y-82392603D02*
X134580528Y-82392603D01*
X135432033Y-81541099D02*
X134735347Y-82586127D01*
X135857785Y-81579803D02*
X136012604Y-81579803D01*
X136012604Y-81579803D02*
X136090014Y-81618508D01*
X136090014Y-81618508D02*
X136167423Y-81695918D01*
X136167423Y-81695918D02*
X136206128Y-81850737D01*
X136206128Y-81850737D02*
X136206128Y-82121670D01*
X136206128Y-82121670D02*
X136167423Y-82276489D01*
X136167423Y-82276489D02*
X136090014Y-82353899D01*
X136090014Y-82353899D02*
X136012604Y-82392603D01*
X136012604Y-82392603D02*
X135857785Y-82392603D01*
X135857785Y-82392603D02*
X135780376Y-82353899D01*
X135780376Y-82353899D02*
X135702966Y-82276489D01*
X135702966Y-82276489D02*
X135664262Y-82121670D01*
X135664262Y-82121670D02*
X135664262Y-81850737D01*
X135664262Y-81850737D02*
X135702966Y-81695918D01*
X135702966Y-81695918D02*
X135780376Y-81618508D01*
X135780376Y-81618508D02*
X135857785Y-81579803D01*
X136902814Y-81850737D02*
X136902814Y-82392603D01*
X136554471Y-81850737D02*
X136554471Y-82276489D01*
X136554471Y-82276489D02*
X136593176Y-82353899D01*
X136593176Y-82353899D02*
X136670586Y-82392603D01*
X136670586Y-82392603D02*
X136786700Y-82392603D01*
X136786700Y-82392603D02*
X136864109Y-82353899D01*
X136864109Y-82353899D02*
X136902814Y-82315194D01*
X137173747Y-81850737D02*
X137483385Y-81850737D01*
X137289861Y-81579803D02*
X137289861Y-82276489D01*
X137289861Y-82276489D02*
X137328566Y-82353899D01*
X137328566Y-82353899D02*
X137405976Y-82392603D01*
X137405976Y-82392603D02*
X137483385Y-82392603D01*
X137754318Y-81850737D02*
X137754318Y-82663537D01*
X137754318Y-81889441D02*
X137831728Y-81850737D01*
X137831728Y-81850737D02*
X137986547Y-81850737D01*
X137986547Y-81850737D02*
X138063956Y-81889441D01*
X138063956Y-81889441D02*
X138102661Y-81928146D01*
X138102661Y-81928146D02*
X138141366Y-82005556D01*
X138141366Y-82005556D02*
X138141366Y-82237784D01*
X138141366Y-82237784D02*
X138102661Y-82315194D01*
X138102661Y-82315194D02*
X138063956Y-82353899D01*
X138063956Y-82353899D02*
X137986547Y-82392603D01*
X137986547Y-82392603D02*
X137831728Y-82392603D01*
X137831728Y-82392603D02*
X137754318Y-82353899D01*
X138838051Y-81850737D02*
X138838051Y-82392603D01*
X138489708Y-81850737D02*
X138489708Y-82276489D01*
X138489708Y-82276489D02*
X138528413Y-82353899D01*
X138528413Y-82353899D02*
X138605823Y-82392603D01*
X138605823Y-82392603D02*
X138721937Y-82392603D01*
X138721937Y-82392603D02*
X138799346Y-82353899D01*
X138799346Y-82353899D02*
X138838051Y-82315194D01*
X139108984Y-81850737D02*
X139418622Y-81850737D01*
X139225098Y-81579803D02*
X139225098Y-82276489D01*
X139225098Y-82276489D02*
X139263803Y-82353899D01*
X139263803Y-82353899D02*
X139341213Y-82392603D01*
X139341213Y-82392603D02*
X139418622Y-82392603D01*
X108293786Y-88966917D02*
X108293786Y-88154117D01*
X108293786Y-88154117D02*
X108564720Y-88734689D01*
X108564720Y-88734689D02*
X108835653Y-88154117D01*
X108835653Y-88154117D02*
X108835653Y-88966917D01*
X109687157Y-88966917D02*
X109416224Y-88579870D01*
X109222700Y-88966917D02*
X109222700Y-88154117D01*
X109222700Y-88154117D02*
X109532338Y-88154117D01*
X109532338Y-88154117D02*
X109609748Y-88192822D01*
X109609748Y-88192822D02*
X109648453Y-88231527D01*
X109648453Y-88231527D02*
X109687157Y-88308936D01*
X109687157Y-88308936D02*
X109687157Y-88425051D01*
X109687157Y-88425051D02*
X109648453Y-88502460D01*
X109648453Y-88502460D02*
X109609748Y-88541165D01*
X109609748Y-88541165D02*
X109532338Y-88579870D01*
X109532338Y-88579870D02*
X109222700Y-88579870D01*
X110035500Y-88541165D02*
X110306434Y-88541165D01*
X110422548Y-88966917D02*
X110035500Y-88966917D01*
X110035500Y-88966917D02*
X110035500Y-88154117D01*
X110035500Y-88154117D02*
X110422548Y-88154117D01*
X110693481Y-88966917D02*
X111119233Y-88425051D01*
X110693481Y-88425051D02*
X111119233Y-88966917D01*
X111970738Y-88154117D02*
X112164262Y-88966917D01*
X112164262Y-88966917D02*
X112319081Y-88386346D01*
X112319081Y-88386346D02*
X112473900Y-88966917D01*
X112473900Y-88966917D02*
X112667424Y-88154117D01*
X113325404Y-88966917D02*
X113325404Y-88541165D01*
X113325404Y-88541165D02*
X113286699Y-88463755D01*
X113286699Y-88463755D02*
X113209290Y-88425051D01*
X113209290Y-88425051D02*
X113054471Y-88425051D01*
X113054471Y-88425051D02*
X112977061Y-88463755D01*
X113325404Y-88928213D02*
X113247995Y-88966917D01*
X113247995Y-88966917D02*
X113054471Y-88966917D01*
X113054471Y-88966917D02*
X112977061Y-88928213D01*
X112977061Y-88928213D02*
X112938357Y-88850803D01*
X112938357Y-88850803D02*
X112938357Y-88773393D01*
X112938357Y-88773393D02*
X112977061Y-88695984D01*
X112977061Y-88695984D02*
X113054471Y-88657279D01*
X113054471Y-88657279D02*
X113247995Y-88657279D01*
X113247995Y-88657279D02*
X113325404Y-88618574D01*
X113828566Y-88966917D02*
X113751156Y-88928213D01*
X113751156Y-88928213D02*
X113712451Y-88850803D01*
X113712451Y-88850803D02*
X113712451Y-88154117D01*
X114254318Y-88966917D02*
X114176908Y-88928213D01*
X114176908Y-88928213D02*
X114138203Y-88850803D01*
X114138203Y-88850803D02*
X114138203Y-88154117D01*
X114912298Y-88966917D02*
X114912298Y-88541165D01*
X114912298Y-88541165D02*
X114873593Y-88463755D01*
X114873593Y-88463755D02*
X114796184Y-88425051D01*
X114796184Y-88425051D02*
X114641365Y-88425051D01*
X114641365Y-88425051D02*
X114563955Y-88463755D01*
X114912298Y-88928213D02*
X114834889Y-88966917D01*
X114834889Y-88966917D02*
X114641365Y-88966917D01*
X114641365Y-88966917D02*
X114563955Y-88928213D01*
X114563955Y-88928213D02*
X114525251Y-88850803D01*
X114525251Y-88850803D02*
X114525251Y-88773393D01*
X114525251Y-88773393D02*
X114563955Y-88695984D01*
X114563955Y-88695984D02*
X114641365Y-88657279D01*
X114641365Y-88657279D02*
X114834889Y-88657279D01*
X114834889Y-88657279D02*
X114912298Y-88618574D01*
X115299345Y-88966917D02*
X115299345Y-88154117D01*
X115299345Y-88463755D02*
X115376755Y-88425051D01*
X115376755Y-88425051D02*
X115531574Y-88425051D01*
X115531574Y-88425051D02*
X115608983Y-88463755D01*
X115608983Y-88463755D02*
X115647688Y-88502460D01*
X115647688Y-88502460D02*
X115686393Y-88579870D01*
X115686393Y-88579870D02*
X115686393Y-88812098D01*
X115686393Y-88812098D02*
X115647688Y-88889508D01*
X115647688Y-88889508D02*
X115608983Y-88928213D01*
X115608983Y-88928213D02*
X115531574Y-88966917D01*
X115531574Y-88966917D02*
X115376755Y-88966917D01*
X115376755Y-88966917D02*
X115299345Y-88928213D01*
X115957326Y-88425051D02*
X116150850Y-88966917D01*
X116344373Y-88425051D02*
X116150850Y-88966917D01*
X116150850Y-88966917D02*
X116073440Y-89160441D01*
X116073440Y-89160441D02*
X116034735Y-89199146D01*
X116034735Y-89199146D02*
X115957326Y-89237851D01*
X108564720Y-89849727D02*
X108680834Y-89888432D01*
X108680834Y-89888432D02*
X108719539Y-89927136D01*
X108719539Y-89927136D02*
X108758243Y-90004546D01*
X108758243Y-90004546D02*
X108758243Y-90120660D01*
X108758243Y-90120660D02*
X108719539Y-90198070D01*
X108719539Y-90198070D02*
X108680834Y-90236775D01*
X108680834Y-90236775D02*
X108603424Y-90275479D01*
X108603424Y-90275479D02*
X108293786Y-90275479D01*
X108293786Y-90275479D02*
X108293786Y-89462679D01*
X108293786Y-89462679D02*
X108564720Y-89462679D01*
X108564720Y-89462679D02*
X108642129Y-89501384D01*
X108642129Y-89501384D02*
X108680834Y-89540089D01*
X108680834Y-89540089D02*
X108719539Y-89617498D01*
X108719539Y-89617498D02*
X108719539Y-89694908D01*
X108719539Y-89694908D02*
X108680834Y-89772317D01*
X108680834Y-89772317D02*
X108642129Y-89811022D01*
X108642129Y-89811022D02*
X108564720Y-89849727D01*
X108564720Y-89849727D02*
X108293786Y-89849727D01*
X109454929Y-90275479D02*
X109454929Y-89849727D01*
X109454929Y-89849727D02*
X109416224Y-89772317D01*
X109416224Y-89772317D02*
X109338815Y-89733613D01*
X109338815Y-89733613D02*
X109183996Y-89733613D01*
X109183996Y-89733613D02*
X109106586Y-89772317D01*
X109454929Y-90236775D02*
X109377520Y-90275479D01*
X109377520Y-90275479D02*
X109183996Y-90275479D01*
X109183996Y-90275479D02*
X109106586Y-90236775D01*
X109106586Y-90236775D02*
X109067882Y-90159365D01*
X109067882Y-90159365D02*
X109067882Y-90081955D01*
X109067882Y-90081955D02*
X109106586Y-90004546D01*
X109106586Y-90004546D02*
X109183996Y-89965841D01*
X109183996Y-89965841D02*
X109377520Y-89965841D01*
X109377520Y-89965841D02*
X109454929Y-89927136D01*
X110190319Y-90236775D02*
X110112910Y-90275479D01*
X110112910Y-90275479D02*
X109958091Y-90275479D01*
X109958091Y-90275479D02*
X109880681Y-90236775D01*
X109880681Y-90236775D02*
X109841976Y-90198070D01*
X109841976Y-90198070D02*
X109803272Y-90120660D01*
X109803272Y-90120660D02*
X109803272Y-89888432D01*
X109803272Y-89888432D02*
X109841976Y-89811022D01*
X109841976Y-89811022D02*
X109880681Y-89772317D01*
X109880681Y-89772317D02*
X109958091Y-89733613D01*
X109958091Y-89733613D02*
X110112910Y-89733613D01*
X110112910Y-89733613D02*
X110190319Y-89772317D01*
X110538662Y-90275479D02*
X110538662Y-89462679D01*
X110616072Y-89965841D02*
X110848300Y-90275479D01*
X110848300Y-89733613D02*
X110538662Y-90043251D01*
X111196643Y-89733613D02*
X111196643Y-90546413D01*
X111196643Y-89772317D02*
X111274053Y-89733613D01*
X111274053Y-89733613D02*
X111428872Y-89733613D01*
X111428872Y-89733613D02*
X111506281Y-89772317D01*
X111506281Y-89772317D02*
X111544986Y-89811022D01*
X111544986Y-89811022D02*
X111583691Y-89888432D01*
X111583691Y-89888432D02*
X111583691Y-90120660D01*
X111583691Y-90120660D02*
X111544986Y-90198070D01*
X111544986Y-90198070D02*
X111506281Y-90236775D01*
X111506281Y-90236775D02*
X111428872Y-90275479D01*
X111428872Y-90275479D02*
X111274053Y-90275479D01*
X111274053Y-90275479D02*
X111196643Y-90236775D01*
X112048148Y-90275479D02*
X111970738Y-90236775D01*
X111970738Y-90236775D02*
X111932033Y-90159365D01*
X111932033Y-90159365D02*
X111932033Y-89462679D01*
X112706128Y-90275479D02*
X112706128Y-89849727D01*
X112706128Y-89849727D02*
X112667423Y-89772317D01*
X112667423Y-89772317D02*
X112590014Y-89733613D01*
X112590014Y-89733613D02*
X112435195Y-89733613D01*
X112435195Y-89733613D02*
X112357785Y-89772317D01*
X112706128Y-90236775D02*
X112628719Y-90275479D01*
X112628719Y-90275479D02*
X112435195Y-90275479D01*
X112435195Y-90275479D02*
X112357785Y-90236775D01*
X112357785Y-90236775D02*
X112319081Y-90159365D01*
X112319081Y-90159365D02*
X112319081Y-90081955D01*
X112319081Y-90081955D02*
X112357785Y-90004546D01*
X112357785Y-90004546D02*
X112435195Y-89965841D01*
X112435195Y-89965841D02*
X112628719Y-89965841D01*
X112628719Y-89965841D02*
X112706128Y-89927136D01*
X113093175Y-89733613D02*
X113093175Y-90275479D01*
X113093175Y-89811022D02*
X113131880Y-89772317D01*
X113131880Y-89772317D02*
X113209290Y-89733613D01*
X113209290Y-89733613D02*
X113325404Y-89733613D01*
X113325404Y-89733613D02*
X113402813Y-89772317D01*
X113402813Y-89772317D02*
X113441518Y-89849727D01*
X113441518Y-89849727D02*
X113441518Y-90275479D01*
X114138203Y-90236775D02*
X114060794Y-90275479D01*
X114060794Y-90275479D02*
X113905975Y-90275479D01*
X113905975Y-90275479D02*
X113828565Y-90236775D01*
X113828565Y-90236775D02*
X113789861Y-90159365D01*
X113789861Y-90159365D02*
X113789861Y-89849727D01*
X113789861Y-89849727D02*
X113828565Y-89772317D01*
X113828565Y-89772317D02*
X113905975Y-89733613D01*
X113905975Y-89733613D02*
X114060794Y-89733613D01*
X114060794Y-89733613D02*
X114138203Y-89772317D01*
X114138203Y-89772317D02*
X114176908Y-89849727D01*
X114176908Y-89849727D02*
X114176908Y-89927136D01*
X114176908Y-89927136D02*
X113789861Y-90004546D01*
X108719539Y-91584041D02*
X108255082Y-91584041D01*
X108487310Y-91584041D02*
X108487310Y-90771241D01*
X108487310Y-90771241D02*
X108409901Y-90887356D01*
X108409901Y-90887356D02*
X108332491Y-90964765D01*
X108332491Y-90964765D02*
X108255082Y-91003470D01*
X109416224Y-90771241D02*
X109261405Y-90771241D01*
X109261405Y-90771241D02*
X109183996Y-90809946D01*
X109183996Y-90809946D02*
X109145291Y-90848651D01*
X109145291Y-90848651D02*
X109067881Y-90964765D01*
X109067881Y-90964765D02*
X109029177Y-91119584D01*
X109029177Y-91119584D02*
X109029177Y-91429222D01*
X109029177Y-91429222D02*
X109067881Y-91506632D01*
X109067881Y-91506632D02*
X109106586Y-91545337D01*
X109106586Y-91545337D02*
X109183996Y-91584041D01*
X109183996Y-91584041D02*
X109338815Y-91584041D01*
X109338815Y-91584041D02*
X109416224Y-91545337D01*
X109416224Y-91545337D02*
X109454929Y-91506632D01*
X109454929Y-91506632D02*
X109493634Y-91429222D01*
X109493634Y-91429222D02*
X109493634Y-91235698D01*
X109493634Y-91235698D02*
X109454929Y-91158289D01*
X109454929Y-91158289D02*
X109416224Y-91119584D01*
X109416224Y-91119584D02*
X109338815Y-91080879D01*
X109338815Y-91080879D02*
X109183996Y-91080879D01*
X109183996Y-91080879D02*
X109106586Y-91119584D01*
X109106586Y-91119584D02*
X109067881Y-91158289D01*
X109067881Y-91158289D02*
X109029177Y-91235698D01*
X110422548Y-90732537D02*
X109725862Y-91777565D01*
X110848300Y-90771241D02*
X110925710Y-90771241D01*
X110925710Y-90771241D02*
X111003119Y-90809946D01*
X111003119Y-90809946D02*
X111041824Y-90848651D01*
X111041824Y-90848651D02*
X111080529Y-90926060D01*
X111080529Y-90926060D02*
X111119234Y-91080879D01*
X111119234Y-91080879D02*
X111119234Y-91274403D01*
X111119234Y-91274403D02*
X111080529Y-91429222D01*
X111080529Y-91429222D02*
X111041824Y-91506632D01*
X111041824Y-91506632D02*
X111003119Y-91545337D01*
X111003119Y-91545337D02*
X110925710Y-91584041D01*
X110925710Y-91584041D02*
X110848300Y-91584041D01*
X110848300Y-91584041D02*
X110770891Y-91545337D01*
X110770891Y-91545337D02*
X110732186Y-91506632D01*
X110732186Y-91506632D02*
X110693481Y-91429222D01*
X110693481Y-91429222D02*
X110654777Y-91274403D01*
X110654777Y-91274403D02*
X110654777Y-91080879D01*
X110654777Y-91080879D02*
X110693481Y-90926060D01*
X110693481Y-90926060D02*
X110732186Y-90848651D01*
X110732186Y-90848651D02*
X110770891Y-90809946D01*
X110770891Y-90809946D02*
X110848300Y-90771241D01*
X111428872Y-90848651D02*
X111467576Y-90809946D01*
X111467576Y-90809946D02*
X111544986Y-90771241D01*
X111544986Y-90771241D02*
X111738510Y-90771241D01*
X111738510Y-90771241D02*
X111815919Y-90809946D01*
X111815919Y-90809946D02*
X111854624Y-90848651D01*
X111854624Y-90848651D02*
X111893329Y-90926060D01*
X111893329Y-90926060D02*
X111893329Y-91003470D01*
X111893329Y-91003470D02*
X111854624Y-91119584D01*
X111854624Y-91119584D02*
X111390167Y-91584041D01*
X111390167Y-91584041D02*
X111893329Y-91584041D01*
X112822243Y-90732537D02*
X112125557Y-91777565D01*
X113054472Y-90848651D02*
X113093176Y-90809946D01*
X113093176Y-90809946D02*
X113170586Y-90771241D01*
X113170586Y-90771241D02*
X113364110Y-90771241D01*
X113364110Y-90771241D02*
X113441519Y-90809946D01*
X113441519Y-90809946D02*
X113480224Y-90848651D01*
X113480224Y-90848651D02*
X113518929Y-90926060D01*
X113518929Y-90926060D02*
X113518929Y-91003470D01*
X113518929Y-91003470D02*
X113480224Y-91119584D01*
X113480224Y-91119584D02*
X113015767Y-91584041D01*
X113015767Y-91584041D02*
X113518929Y-91584041D01*
X114215614Y-90771241D02*
X114060795Y-90771241D01*
X114060795Y-90771241D02*
X113983386Y-90809946D01*
X113983386Y-90809946D02*
X113944681Y-90848651D01*
X113944681Y-90848651D02*
X113867271Y-90964765D01*
X113867271Y-90964765D02*
X113828567Y-91119584D01*
X113828567Y-91119584D02*
X113828567Y-91429222D01*
X113828567Y-91429222D02*
X113867271Y-91506632D01*
X113867271Y-91506632D02*
X113905976Y-91545337D01*
X113905976Y-91545337D02*
X113983386Y-91584041D01*
X113983386Y-91584041D02*
X114138205Y-91584041D01*
X114138205Y-91584041D02*
X114215614Y-91545337D01*
X114215614Y-91545337D02*
X114254319Y-91506632D01*
X114254319Y-91506632D02*
X114293024Y-91429222D01*
X114293024Y-91429222D02*
X114293024Y-91235698D01*
X114293024Y-91235698D02*
X114254319Y-91158289D01*
X114254319Y-91158289D02*
X114215614Y-91119584D01*
X114215614Y-91119584D02*
X114138205Y-91080879D01*
X114138205Y-91080879D02*
X113983386Y-91080879D01*
X113983386Y-91080879D02*
X113905976Y-91119584D01*
X113905976Y-91119584D02*
X113867271Y-91158289D01*
X113867271Y-91158289D02*
X113828567Y-91235698D01*
X108255082Y-92660375D02*
X108642129Y-92660375D01*
X108177672Y-92892603D02*
X108448605Y-92079803D01*
X108448605Y-92079803D02*
X108719539Y-92892603D01*
X108990472Y-92892603D02*
X108990472Y-92350737D01*
X108990472Y-92505556D02*
X109029177Y-92428146D01*
X109029177Y-92428146D02*
X109067882Y-92389441D01*
X109067882Y-92389441D02*
X109145291Y-92350737D01*
X109145291Y-92350737D02*
X109222701Y-92350737D01*
X109493634Y-92350737D02*
X109493634Y-93047422D01*
X109493634Y-93047422D02*
X109454930Y-93124832D01*
X109454930Y-93124832D02*
X109377520Y-93163537D01*
X109377520Y-93163537D02*
X109338815Y-93163537D01*
X109493634Y-92079803D02*
X109454930Y-92118508D01*
X109454930Y-92118508D02*
X109493634Y-92157213D01*
X109493634Y-92157213D02*
X109532339Y-92118508D01*
X109532339Y-92118508D02*
X109493634Y-92079803D01*
X109493634Y-92079803D02*
X109493634Y-92157213D01*
X110229025Y-92350737D02*
X110229025Y-92892603D01*
X109880682Y-92350737D02*
X109880682Y-92776489D01*
X109880682Y-92776489D02*
X109919387Y-92853899D01*
X109919387Y-92853899D02*
X109996797Y-92892603D01*
X109996797Y-92892603D02*
X110112911Y-92892603D01*
X110112911Y-92892603D02*
X110190320Y-92853899D01*
X110190320Y-92853899D02*
X110229025Y-92815194D01*
X110616072Y-92350737D02*
X110616072Y-92892603D01*
X110616072Y-92428146D02*
X110654777Y-92389441D01*
X110654777Y-92389441D02*
X110732187Y-92350737D01*
X110732187Y-92350737D02*
X110848301Y-92350737D01*
X110848301Y-92350737D02*
X110925710Y-92389441D01*
X110925710Y-92389441D02*
X110964415Y-92466851D01*
X110964415Y-92466851D02*
X110964415Y-92892603D01*
X111699805Y-92892603D02*
X111699805Y-92466851D01*
X111699805Y-92466851D02*
X111661100Y-92389441D01*
X111661100Y-92389441D02*
X111583691Y-92350737D01*
X111583691Y-92350737D02*
X111428872Y-92350737D01*
X111428872Y-92350737D02*
X111351462Y-92389441D01*
X111699805Y-92853899D02*
X111622396Y-92892603D01*
X111622396Y-92892603D02*
X111428872Y-92892603D01*
X111428872Y-92892603D02*
X111351462Y-92853899D01*
X111351462Y-92853899D02*
X111312758Y-92776489D01*
X111312758Y-92776489D02*
X111312758Y-92699079D01*
X111312758Y-92699079D02*
X111351462Y-92621670D01*
X111351462Y-92621670D02*
X111428872Y-92582965D01*
X111428872Y-92582965D02*
X111622396Y-92582965D01*
X111622396Y-92582965D02*
X111699805Y-92544260D01*
X112706128Y-92466851D02*
X112977062Y-92466851D01*
X113093176Y-92892603D02*
X112706128Y-92892603D01*
X112706128Y-92892603D02*
X112706128Y-92079803D01*
X112706128Y-92079803D02*
X113093176Y-92079803D01*
X113789861Y-92892603D02*
X113789861Y-92079803D01*
X113789861Y-92853899D02*
X113712452Y-92892603D01*
X113712452Y-92892603D02*
X113557633Y-92892603D01*
X113557633Y-92892603D02*
X113480223Y-92853899D01*
X113480223Y-92853899D02*
X113441518Y-92815194D01*
X113441518Y-92815194D02*
X113402814Y-92737784D01*
X113402814Y-92737784D02*
X113402814Y-92505556D01*
X113402814Y-92505556D02*
X113441518Y-92428146D01*
X113441518Y-92428146D02*
X113480223Y-92389441D01*
X113480223Y-92389441D02*
X113557633Y-92350737D01*
X113557633Y-92350737D02*
X113712452Y-92350737D01*
X113712452Y-92350737D02*
X113789861Y-92389441D01*
X114176908Y-92892603D02*
X114176908Y-92350737D01*
X114176908Y-92079803D02*
X114138204Y-92118508D01*
X114138204Y-92118508D02*
X114176908Y-92157213D01*
X114176908Y-92157213D02*
X114215613Y-92118508D01*
X114215613Y-92118508D02*
X114176908Y-92079803D01*
X114176908Y-92079803D02*
X114176908Y-92157213D01*
X114563956Y-92892603D02*
X114563956Y-92350737D01*
X114563956Y-92505556D02*
X114602661Y-92428146D01*
X114602661Y-92428146D02*
X114641366Y-92389441D01*
X114641366Y-92389441D02*
X114718775Y-92350737D01*
X114718775Y-92350737D02*
X114796185Y-92350737D01*
X115067118Y-92892603D02*
X115067118Y-92350737D01*
X115067118Y-92079803D02*
X115028414Y-92118508D01*
X115028414Y-92118508D02*
X115067118Y-92157213D01*
X115067118Y-92157213D02*
X115105823Y-92118508D01*
X115105823Y-92118508D02*
X115067118Y-92079803D01*
X115067118Y-92079803D02*
X115067118Y-92157213D01*
X115415462Y-92853899D02*
X115492871Y-92892603D01*
X115492871Y-92892603D02*
X115647690Y-92892603D01*
X115647690Y-92892603D02*
X115725100Y-92853899D01*
X115725100Y-92853899D02*
X115763804Y-92776489D01*
X115763804Y-92776489D02*
X115763804Y-92737784D01*
X115763804Y-92737784D02*
X115725100Y-92660375D01*
X115725100Y-92660375D02*
X115647690Y-92621670D01*
X115647690Y-92621670D02*
X115531576Y-92621670D01*
X115531576Y-92621670D02*
X115454166Y-92582965D01*
X115454166Y-92582965D02*
X115415462Y-92505556D01*
X115415462Y-92505556D02*
X115415462Y-92466851D01*
X115415462Y-92466851D02*
X115454166Y-92389441D01*
X115454166Y-92389441D02*
X115531576Y-92350737D01*
X115531576Y-92350737D02*
X115647690Y-92350737D01*
X115647690Y-92350737D02*
X115725100Y-92389441D01*
X116112147Y-92892603D02*
X116112147Y-92350737D01*
X116112147Y-92079803D02*
X116073443Y-92118508D01*
X116073443Y-92118508D02*
X116112147Y-92157213D01*
X116112147Y-92157213D02*
X116150852Y-92118508D01*
X116150852Y-92118508D02*
X116112147Y-92079803D01*
X116112147Y-92079803D02*
X116112147Y-92157213D01*
X116499195Y-92350737D02*
X116499195Y-92892603D01*
X116499195Y-92428146D02*
X116537900Y-92389441D01*
X116537900Y-92389441D02*
X116615310Y-92350737D01*
X116615310Y-92350737D02*
X116731424Y-92350737D01*
X116731424Y-92350737D02*
X116808833Y-92389441D01*
X116808833Y-92389441D02*
X116847538Y-92466851D01*
X116847538Y-92466851D02*
X116847538Y-92892603D01*
X117582928Y-92350737D02*
X117582928Y-93008718D01*
X117582928Y-93008718D02*
X117544223Y-93086127D01*
X117544223Y-93086127D02*
X117505519Y-93124832D01*
X117505519Y-93124832D02*
X117428109Y-93163537D01*
X117428109Y-93163537D02*
X117311995Y-93163537D01*
X117311995Y-93163537D02*
X117234585Y-93124832D01*
X117582928Y-92853899D02*
X117505519Y-92892603D01*
X117505519Y-92892603D02*
X117350700Y-92892603D01*
X117350700Y-92892603D02*
X117273290Y-92853899D01*
X117273290Y-92853899D02*
X117234585Y-92815194D01*
X117234585Y-92815194D02*
X117195881Y-92737784D01*
X117195881Y-92737784D02*
X117195881Y-92505556D01*
X117195881Y-92505556D02*
X117234585Y-92428146D01*
X117234585Y-92428146D02*
X117273290Y-92389441D01*
X117273290Y-92389441D02*
X117350700Y-92350737D01*
X117350700Y-92350737D02*
X117505519Y-92350737D01*
X117505519Y-92350737D02*
X117582928Y-92389441D01*
X117969975Y-92892603D02*
X117969975Y-92079803D01*
X118318318Y-92892603D02*
X118318318Y-92466851D01*
X118318318Y-92466851D02*
X118279613Y-92389441D01*
X118279613Y-92389441D02*
X118202204Y-92350737D01*
X118202204Y-92350737D02*
X118086090Y-92350737D01*
X118086090Y-92350737D02*
X118008680Y-92389441D01*
X118008680Y-92389441D02*
X117969975Y-92428146D01*
X119015003Y-92853899D02*
X118937594Y-92892603D01*
X118937594Y-92892603D02*
X118782775Y-92892603D01*
X118782775Y-92892603D02*
X118705365Y-92853899D01*
X118705365Y-92853899D02*
X118666661Y-92776489D01*
X118666661Y-92776489D02*
X118666661Y-92466851D01*
X118666661Y-92466851D02*
X118705365Y-92389441D01*
X118705365Y-92389441D02*
X118782775Y-92350737D01*
X118782775Y-92350737D02*
X118937594Y-92350737D01*
X118937594Y-92350737D02*
X119015003Y-92389441D01*
X119015003Y-92389441D02*
X119053708Y-92466851D01*
X119053708Y-92466851D02*
X119053708Y-92544260D01*
X119053708Y-92544260D02*
X118666661Y-92621670D01*
D11*
X93738095Y-153254819D02*
X93738095Y-152254819D01*
X93738095Y-152731009D02*
X94309523Y-152731009D01*
X94309523Y-153254819D02*
X94309523Y-152254819D01*
X94690476Y-152254819D02*
X95309523Y-152254819D01*
X95309523Y-152254819D02*
X94976190Y-152635771D01*
X94976190Y-152635771D02*
X95119047Y-152635771D01*
X95119047Y-152635771D02*
X95214285Y-152683390D01*
X95214285Y-152683390D02*
X95261904Y-152731009D01*
X95261904Y-152731009D02*
X95309523Y-152826247D01*
X95309523Y-152826247D02*
X95309523Y-153064342D01*
X95309523Y-153064342D02*
X95261904Y-153159580D01*
X95261904Y-153159580D02*
X95214285Y-153207200D01*
X95214285Y-153207200D02*
X95119047Y-153254819D01*
X95119047Y-153254819D02*
X94833333Y-153254819D01*
X94833333Y-153254819D02*
X94738095Y-153207200D01*
X94738095Y-153207200D02*
X94690476Y-153159580D01*
X174724819Y-136178333D02*
X175439104Y-136178333D01*
X175439104Y-136178333D02*
X175581961Y-136225952D01*
X175581961Y-136225952D02*
X175677200Y-136321190D01*
X175677200Y-136321190D02*
X175724819Y-136464047D01*
X175724819Y-136464047D02*
X175724819Y-136559285D01*
X175724819Y-135178333D02*
X175724819Y-135749761D01*
X175724819Y-135464047D02*
X174724819Y-135464047D01*
X174724819Y-135464047D02*
X174867676Y-135559285D01*
X174867676Y-135559285D02*
X174962914Y-135654523D01*
X174962914Y-135654523D02*
X175010533Y-135749761D01*
X114664819Y-136178333D02*
X115379104Y-136178333D01*
X115379104Y-136178333D02*
X115521961Y-136225952D01*
X115521961Y-136225952D02*
X115617200Y-136321190D01*
X115617200Y-136321190D02*
X115664819Y-136464047D01*
X115664819Y-136464047D02*
X115664819Y-136559285D01*
X114998152Y-135273571D02*
X115664819Y-135273571D01*
X114617200Y-135511666D02*
X115331485Y-135749761D01*
X115331485Y-135749761D02*
X115331485Y-135130714D01*
X134666665Y-79954819D02*
X134666665Y-80669104D01*
X134666665Y-80669104D02*
X134619046Y-80811961D01*
X134619046Y-80811961D02*
X134523808Y-80907200D01*
X134523808Y-80907200D02*
X134380951Y-80954819D01*
X134380951Y-80954819D02*
X134285713Y-80954819D01*
X135190475Y-80954819D02*
X135380951Y-80954819D01*
X135380951Y-80954819D02*
X135476189Y-80907200D01*
X135476189Y-80907200D02*
X135523808Y-80859580D01*
X135523808Y-80859580D02*
X135619046Y-80716723D01*
X135619046Y-80716723D02*
X135666665Y-80526247D01*
X135666665Y-80526247D02*
X135666665Y-80145295D01*
X135666665Y-80145295D02*
X135619046Y-80050057D01*
X135619046Y-80050057D02*
X135571427Y-80002438D01*
X135571427Y-80002438D02*
X135476189Y-79954819D01*
X135476189Y-79954819D02*
X135285713Y-79954819D01*
X135285713Y-79954819D02*
X135190475Y-80002438D01*
X135190475Y-80002438D02*
X135142856Y-80050057D01*
X135142856Y-80050057D02*
X135095237Y-80145295D01*
X135095237Y-80145295D02*
X135095237Y-80383390D01*
X135095237Y-80383390D02*
X135142856Y-80478628D01*
X135142856Y-80478628D02*
X135190475Y-80526247D01*
X135190475Y-80526247D02*
X135285713Y-80573866D01*
X135285713Y-80573866D02*
X135476189Y-80573866D01*
X135476189Y-80573866D02*
X135571427Y-80526247D01*
X135571427Y-80526247D02*
X135619046Y-80478628D01*
X135619046Y-80478628D02*
X135666665Y-80383390D01*
X94644819Y-136178333D02*
X95359104Y-136178333D01*
X95359104Y-136178333D02*
X95501961Y-136225952D01*
X95501961Y-136225952D02*
X95597200Y-136321190D01*
X95597200Y-136321190D02*
X95644819Y-136464047D01*
X95644819Y-136464047D02*
X95644819Y-136559285D01*
X94644819Y-135225952D02*
X94644819Y-135702142D01*
X94644819Y-135702142D02*
X95121009Y-135749761D01*
X95121009Y-135749761D02*
X95073390Y-135702142D01*
X95073390Y-135702142D02*
X95025771Y-135606904D01*
X95025771Y-135606904D02*
X95025771Y-135368809D01*
X95025771Y-135368809D02*
X95073390Y-135273571D01*
X95073390Y-135273571D02*
X95121009Y-135225952D01*
X95121009Y-135225952D02*
X95216247Y-135178333D01*
X95216247Y-135178333D02*
X95454342Y-135178333D01*
X95454342Y-135178333D02*
X95549580Y-135225952D01*
X95549580Y-135225952D02*
X95597200Y-135273571D01*
X95597200Y-135273571D02*
X95644819Y-135368809D01*
X95644819Y-135368809D02*
X95644819Y-135606904D01*
X95644819Y-135606904D02*
X95597200Y-135702142D01*
X95597200Y-135702142D02*
X95549580Y-135749761D01*
X181738095Y-153254819D02*
X181738095Y-152254819D01*
X181738095Y-152731009D02*
X182309523Y-152731009D01*
X182309523Y-153254819D02*
X182309523Y-152254819D01*
X183214285Y-152588152D02*
X183214285Y-153254819D01*
X182976190Y-152207200D02*
X182738095Y-152921485D01*
X182738095Y-152921485D02*
X183357142Y-152921485D01*
X154704819Y-136178333D02*
X155419104Y-136178333D01*
X155419104Y-136178333D02*
X155561961Y-136225952D01*
X155561961Y-136225952D02*
X155657200Y-136321190D01*
X155657200Y-136321190D02*
X155704819Y-136464047D01*
X155704819Y-136464047D02*
X155704819Y-136559285D01*
X154800057Y-135749761D02*
X154752438Y-135702142D01*
X154752438Y-135702142D02*
X154704819Y-135606904D01*
X154704819Y-135606904D02*
X154704819Y-135368809D01*
X154704819Y-135368809D02*
X154752438Y-135273571D01*
X154752438Y-135273571D02*
X154800057Y-135225952D01*
X154800057Y-135225952D02*
X154895295Y-135178333D01*
X154895295Y-135178333D02*
X154990533Y-135178333D01*
X154990533Y-135178333D02*
X155133390Y-135225952D01*
X155133390Y-135225952D02*
X155704819Y-135797380D01*
X155704819Y-135797380D02*
X155704819Y-135178333D01*
X181738095Y-86254819D02*
X181738095Y-85254819D01*
X181738095Y-85731009D02*
X182309523Y-85731009D01*
X182309523Y-86254819D02*
X182309523Y-85254819D01*
X182738095Y-85350057D02*
X182785714Y-85302438D01*
X182785714Y-85302438D02*
X182880952Y-85254819D01*
X182880952Y-85254819D02*
X183119047Y-85254819D01*
X183119047Y-85254819D02*
X183214285Y-85302438D01*
X183214285Y-85302438D02*
X183261904Y-85350057D01*
X183261904Y-85350057D02*
X183309523Y-85445295D01*
X183309523Y-85445295D02*
X183309523Y-85540533D01*
X183309523Y-85540533D02*
X183261904Y-85683390D01*
X183261904Y-85683390D02*
X182690476Y-86254819D01*
X182690476Y-86254819D02*
X183309523Y-86254819D01*
X93738095Y-86254819D02*
X93738095Y-85254819D01*
X93738095Y-85731009D02*
X94309523Y-85731009D01*
X94309523Y-86254819D02*
X94309523Y-85254819D01*
X95309523Y-86254819D02*
X94738095Y-86254819D01*
X95023809Y-86254819D02*
X95023809Y-85254819D01*
X95023809Y-85254819D02*
X94928571Y-85397676D01*
X94928571Y-85397676D02*
X94833333Y-85492914D01*
X94833333Y-85492914D02*
X94738095Y-85540533D01*
X167666666Y-79954819D02*
X167666666Y-80669104D01*
X167666666Y-80669104D02*
X167619047Y-80811961D01*
X167619047Y-80811961D02*
X167523809Y-80907200D01*
X167523809Y-80907200D02*
X167380952Y-80954819D01*
X167380952Y-80954819D02*
X167285714Y-80954819D01*
X168285714Y-80383390D02*
X168190476Y-80335771D01*
X168190476Y-80335771D02*
X168142857Y-80288152D01*
X168142857Y-80288152D02*
X168095238Y-80192914D01*
X168095238Y-80192914D02*
X168095238Y-80145295D01*
X168095238Y-80145295D02*
X168142857Y-80050057D01*
X168142857Y-80050057D02*
X168190476Y-80002438D01*
X168190476Y-80002438D02*
X168285714Y-79954819D01*
X168285714Y-79954819D02*
X168476190Y-79954819D01*
X168476190Y-79954819D02*
X168571428Y-80002438D01*
X168571428Y-80002438D02*
X168619047Y-80050057D01*
X168619047Y-80050057D02*
X168666666Y-80145295D01*
X168666666Y-80145295D02*
X168666666Y-80192914D01*
X168666666Y-80192914D02*
X168619047Y-80288152D01*
X168619047Y-80288152D02*
X168571428Y-80335771D01*
X168571428Y-80335771D02*
X168476190Y-80383390D01*
X168476190Y-80383390D02*
X168285714Y-80383390D01*
X168285714Y-80383390D02*
X168190476Y-80431009D01*
X168190476Y-80431009D02*
X168142857Y-80478628D01*
X168142857Y-80478628D02*
X168095238Y-80573866D01*
X168095238Y-80573866D02*
X168095238Y-80764342D01*
X168095238Y-80764342D02*
X168142857Y-80859580D01*
X168142857Y-80859580D02*
X168190476Y-80907200D01*
X168190476Y-80907200D02*
X168285714Y-80954819D01*
X168285714Y-80954819D02*
X168476190Y-80954819D01*
X168476190Y-80954819D02*
X168571428Y-80907200D01*
X168571428Y-80907200D02*
X168619047Y-80859580D01*
X168619047Y-80859580D02*
X168666666Y-80764342D01*
X168666666Y-80764342D02*
X168666666Y-80573866D01*
X168666666Y-80573866D02*
X168619047Y-80478628D01*
X168619047Y-80478628D02*
X168571428Y-80431009D01*
X168571428Y-80431009D02*
X168476190Y-80383390D01*
X134684819Y-136178333D02*
X135399104Y-136178333D01*
X135399104Y-136178333D02*
X135541961Y-136225952D01*
X135541961Y-136225952D02*
X135637200Y-136321190D01*
X135637200Y-136321190D02*
X135684819Y-136464047D01*
X135684819Y-136464047D02*
X135684819Y-136559285D01*
X134684819Y-135797380D02*
X134684819Y-135178333D01*
X134684819Y-135178333D02*
X135065771Y-135511666D01*
X135065771Y-135511666D02*
X135065771Y-135368809D01*
X135065771Y-135368809D02*
X135113390Y-135273571D01*
X135113390Y-135273571D02*
X135161009Y-135225952D01*
X135161009Y-135225952D02*
X135256247Y-135178333D01*
X135256247Y-135178333D02*
X135494342Y-135178333D01*
X135494342Y-135178333D02*
X135589580Y-135225952D01*
X135589580Y-135225952D02*
X135637200Y-135273571D01*
X135637200Y-135273571D02*
X135684819Y-135368809D01*
X135684819Y-135368809D02*
X135684819Y-135654523D01*
X135684819Y-135654523D02*
X135637200Y-135749761D01*
X135637200Y-135749761D02*
X135589580Y-135797380D01*
X103396666Y-65084819D02*
X103396666Y-65799104D01*
X103396666Y-65799104D02*
X103349047Y-65941961D01*
X103349047Y-65941961D02*
X103253809Y-66037200D01*
X103253809Y-66037200D02*
X103110952Y-66084819D01*
X103110952Y-66084819D02*
X103015714Y-66084819D01*
X103777619Y-65084819D02*
X104444285Y-65084819D01*
X104444285Y-65084819D02*
X104015714Y-66084819D01*
D12*
%TO.C,J1*%
X175375662Y-130055000D02*
X175808675Y-130305000D01*
X175375662Y-130555000D02*
X175375662Y-130055000D01*
X175808675Y-130305000D02*
X175375662Y-130555000D01*
X176270000Y-150270000D02*
X176270000Y-121420000D01*
X177330000Y-120360000D02*
X187830000Y-120360000D01*
X178570000Y-142076689D02*
X178570000Y-129613311D01*
X180518256Y-127978530D02*
X185218256Y-128807267D01*
X185218256Y-142882733D02*
X180518256Y-143711470D01*
X186590000Y-130442048D02*
X186590000Y-141247952D01*
X187830000Y-151330000D02*
X177330000Y-151330000D01*
X188890000Y-121420000D02*
X188890000Y-150270000D01*
X176270000Y-121420000D02*
G75*
G02*
X177330000Y-120360000I1060000J0D01*
G01*
X177330000Y-151330000D02*
G75*
G02*
X176270000Y-150270000I1J1060001D01*
G01*
X178570000Y-129613311D02*
G75*
G02*
X180518256Y-127978529I1660000J1D01*
G01*
X180518256Y-143711470D02*
G75*
G02*
X178570000Y-142076689I-288256J1634781D01*
G01*
X185218256Y-128807267D02*
G75*
G02*
X186590000Y-130442048I-288255J-1634780D01*
G01*
X186590000Y-141247952D02*
G75*
G02*
X185218256Y-142882733I-1659999J-1D01*
G01*
X187830000Y-120360000D02*
G75*
G02*
X188890000Y-121420000I0J-1060000D01*
G01*
X188890000Y-150270000D02*
G75*
G02*
X187830000Y-151330000I-1060001J1D01*
G01*
%TO.C,J4*%
X115315662Y-130055000D02*
X115748675Y-130305000D01*
X115315662Y-130555000D02*
X115315662Y-130055000D01*
X115748675Y-130305000D02*
X115315662Y-130555000D01*
X116210000Y-150270000D02*
X116210000Y-121420000D01*
X117270000Y-120360000D02*
X127770000Y-120360000D01*
X118510000Y-142076689D02*
X118510000Y-129613311D01*
X120458256Y-127978530D02*
X125158256Y-128807267D01*
X125158256Y-142882733D02*
X120458256Y-143711470D01*
X126530000Y-130442048D02*
X126530000Y-141247952D01*
X127770000Y-151330000D02*
X117270000Y-151330000D01*
X128830000Y-121420000D02*
X128830000Y-150270000D01*
X116210000Y-121420000D02*
G75*
G02*
X117270000Y-120360000I1060000J0D01*
G01*
X117270000Y-151330000D02*
G75*
G02*
X116210000Y-150270000I1J1060001D01*
G01*
X118510000Y-129613311D02*
G75*
G02*
X120458256Y-127978529I1660000J1D01*
G01*
X120458256Y-143711470D02*
G75*
G02*
X118510000Y-142076689I-288256J1634781D01*
G01*
X125158256Y-128807267D02*
G75*
G02*
X126530000Y-130442048I-288255J-1634780D01*
G01*
X126530000Y-141247952D02*
G75*
G02*
X125158256Y-142882733I-1659999J-1D01*
G01*
X127770000Y-120360000D02*
G75*
G02*
X128830000Y-121420000I0J-1060000D01*
G01*
X128830000Y-150270000D02*
G75*
G02*
X127770000Y-151330000I-1060001J1D01*
G01*
D10*
%TO.C,J9*%
X119467899Y-64413331D02*
X119467899Y-79323131D01*
X119467899Y-79323131D02*
X150532099Y-79323131D01*
X126706899Y-58418931D02*
X126706899Y-64667331D01*
X126706899Y-64667331D02*
X143293099Y-64667331D01*
X143293099Y-58418931D02*
X126706899Y-58418931D01*
X143293099Y-64667331D02*
X143293099Y-58418931D01*
X150532099Y-64413331D02*
X119467899Y-64413331D01*
X150532099Y-79323131D02*
X150532099Y-64413331D01*
D12*
%TO.C,J5*%
X95295662Y-130055000D02*
X95728675Y-130305000D01*
X95295662Y-130555000D02*
X95295662Y-130055000D01*
X95728675Y-130305000D02*
X95295662Y-130555000D01*
X96190000Y-150270000D02*
X96190000Y-121420000D01*
X97250000Y-120360000D02*
X107750000Y-120360000D01*
X98490000Y-142076689D02*
X98490000Y-129613311D01*
X100438256Y-127978530D02*
X105138256Y-128807267D01*
X105138256Y-142882733D02*
X100438256Y-143711470D01*
X106510000Y-130442048D02*
X106510000Y-141247952D01*
X107750000Y-151330000D02*
X97250000Y-151330000D01*
X108810000Y-121420000D02*
X108810000Y-150270000D01*
X96190000Y-121420000D02*
G75*
G02*
X97250000Y-120360000I1060000J0D01*
G01*
X97250000Y-151330000D02*
G75*
G02*
X96190000Y-150270000I1J1060001D01*
G01*
X98490000Y-129613311D02*
G75*
G02*
X100438256Y-127978529I1660000J1D01*
G01*
X100438256Y-143711470D02*
G75*
G02*
X98490000Y-142076689I-288256J1634781D01*
G01*
X105138256Y-128807267D02*
G75*
G02*
X106510000Y-130442048I-288255J-1634780D01*
G01*
X106510000Y-141247952D02*
G75*
G02*
X105138256Y-142882733I-1659999J-1D01*
G01*
X107750000Y-120360000D02*
G75*
G02*
X108810000Y-121420000I0J-1060000D01*
G01*
X108810000Y-150270000D02*
G75*
G02*
X107750000Y-151330000I-1060001J1D01*
G01*
%TO.C,J2*%
X155355662Y-130055000D02*
X155788675Y-130305000D01*
X155355662Y-130555000D02*
X155355662Y-130055000D01*
X155788675Y-130305000D02*
X155355662Y-130555000D01*
X156250000Y-150270000D02*
X156250000Y-121420000D01*
X157310000Y-120360000D02*
X167810000Y-120360000D01*
X158550000Y-142076689D02*
X158550000Y-129613311D01*
X160498256Y-127978530D02*
X165198256Y-128807267D01*
X165198256Y-142882733D02*
X160498256Y-143711470D01*
X166570000Y-130442048D02*
X166570000Y-141247952D01*
X167810000Y-151330000D02*
X157310000Y-151330000D01*
X168870000Y-121420000D02*
X168870000Y-150270000D01*
X156250000Y-121420000D02*
G75*
G02*
X157310000Y-120360000I1060000J0D01*
G01*
X157310000Y-151330000D02*
G75*
G02*
X156250000Y-150270000I1J1060001D01*
G01*
X158550000Y-129613311D02*
G75*
G02*
X160498256Y-127978529I1660000J1D01*
G01*
X160498256Y-143711470D02*
G75*
G02*
X158550000Y-142076689I-288256J1634781D01*
G01*
X165198256Y-128807267D02*
G75*
G02*
X166570000Y-130442048I-288255J-1634780D01*
G01*
X166570000Y-141247952D02*
G75*
G02*
X165198256Y-142882733I-1659999J-1D01*
G01*
X167810000Y-120360000D02*
G75*
G02*
X168870000Y-121420000I0J-1060000D01*
G01*
X168870000Y-150270000D02*
G75*
G02*
X167810000Y-151330000I-1060001J1D01*
G01*
D10*
%TO.C,J8*%
X152467899Y-64413331D02*
X152467899Y-79323131D01*
X152467899Y-79323131D02*
X183532099Y-79323131D01*
X159706899Y-58418931D02*
X159706899Y-64667331D01*
X159706899Y-64667331D02*
X176293099Y-64667331D01*
X176293099Y-58418931D02*
X159706899Y-58418931D01*
X176293099Y-64667331D02*
X176293099Y-58418931D01*
X183532099Y-64413331D02*
X152467899Y-64413331D01*
X183532099Y-79323131D02*
X183532099Y-64413331D01*
D12*
%TO.C,J3*%
X135335662Y-130055000D02*
X135768675Y-130305000D01*
X135335662Y-130555000D02*
X135335662Y-130055000D01*
X135768675Y-130305000D02*
X135335662Y-130555000D01*
X136230000Y-150270000D02*
X136230000Y-121420000D01*
X137290000Y-120360000D02*
X147790000Y-120360000D01*
X138530000Y-142076689D02*
X138530000Y-129613311D01*
X140478256Y-127978530D02*
X145178256Y-128807267D01*
X145178256Y-142882733D02*
X140478256Y-143711470D01*
X146550000Y-130442048D02*
X146550000Y-141247952D01*
X147790000Y-151330000D02*
X137290000Y-151330000D01*
X148850000Y-121420000D02*
X148850000Y-150270000D01*
X136230000Y-121420000D02*
G75*
G02*
X137290000Y-120360000I1060000J0D01*
G01*
X137290000Y-151330000D02*
G75*
G02*
X136230000Y-150270000I1J1060001D01*
G01*
X138530000Y-129613311D02*
G75*
G02*
X140478256Y-127978529I1660000J1D01*
G01*
X140478256Y-143711470D02*
G75*
G02*
X138530000Y-142076689I-288256J1634781D01*
G01*
X145178256Y-128807267D02*
G75*
G02*
X146550000Y-130442048I-288255J-1634780D01*
G01*
X146550000Y-141247952D02*
G75*
G02*
X145178256Y-142882733I-1659999J-1D01*
G01*
X147790000Y-120360000D02*
G75*
G02*
X148850000Y-121420000I0J-1060000D01*
G01*
X148850000Y-150270000D02*
G75*
G02*
X147790000Y-151330000I-1060001J1D01*
G01*
D13*
%TO.C,G\u002A\u002A\u002A*%
G36*
X136572496Y-93885354D02*
G01*
X136574219Y-93890360D01*
X136555353Y-93892272D01*
X136535882Y-93890117D01*
X136538209Y-93885354D01*
X136566288Y-93883543D01*
X136572496Y-93885354D01*
G37*
G36*
X144698290Y-95038203D02*
G01*
X144694200Y-95044437D01*
X144680290Y-95045407D01*
X144665655Y-95042057D01*
X144672003Y-95037121D01*
X144693438Y-95035486D01*
X144698290Y-95038203D01*
G37*
G36*
X142442475Y-92813599D02*
G01*
X142521330Y-92820042D01*
X142585530Y-92833337D01*
X142640385Y-92856724D01*
X142691203Y-92893444D01*
X142743292Y-92946735D01*
X142801963Y-93019839D01*
X142820155Y-93044114D01*
X142967029Y-93219423D01*
X143132608Y-93374683D01*
X143316842Y-93509864D01*
X143519685Y-93624934D01*
X143741087Y-93719864D01*
X143981001Y-93794623D01*
X144020111Y-93804468D01*
X144082629Y-93818367D01*
X144164662Y-93834614D01*
X144258550Y-93851802D01*
X144356637Y-93868521D01*
X144438415Y-93881437D01*
X144522397Y-93894226D01*
X144597857Y-93905893D01*
X144660304Y-93915732D01*
X144705250Y-93923032D01*
X144728204Y-93927085D01*
X144729435Y-93927360D01*
X144729914Y-93930067D01*
X144707667Y-93931674D01*
X144667370Y-93932259D01*
X144613702Y-93931898D01*
X144551340Y-93930670D01*
X144484962Y-93928652D01*
X144419245Y-93925923D01*
X144358868Y-93922559D01*
X144333703Y-93920784D01*
X144050761Y-93889035D01*
X143782441Y-93838554D01*
X143530272Y-93769815D01*
X143295783Y-93683289D01*
X143080503Y-93579448D01*
X142926943Y-93486762D01*
X142838907Y-93422971D01*
X142744549Y-93345605D01*
X142650774Y-93260993D01*
X142564488Y-93175462D01*
X142492598Y-93095342D01*
X142472644Y-93070436D01*
X142438309Y-93023700D01*
X142402491Y-92971287D01*
X142368757Y-92918891D01*
X142340672Y-92872211D01*
X142321803Y-92836944D01*
X142315647Y-92819610D01*
X142328312Y-92815021D01*
X142362330Y-92812563D01*
X142411686Y-92812522D01*
X142442475Y-92813599D01*
G37*
G36*
X145448358Y-96207064D02*
G01*
X145506639Y-96217122D01*
X145580456Y-96231291D01*
X145666096Y-96248812D01*
X145759846Y-96268924D01*
X145857992Y-96290868D01*
X145956822Y-96313884D01*
X146052622Y-96337212D01*
X146052923Y-96337287D01*
X146194810Y-96372818D01*
X146342158Y-96409901D01*
X146492524Y-96447906D01*
X146643462Y-96486205D01*
X146792526Y-96524169D01*
X146937272Y-96561169D01*
X147075255Y-96596577D01*
X147204030Y-96629762D01*
X147321151Y-96660098D01*
X147424174Y-96686954D01*
X147510654Y-96709702D01*
X147578145Y-96727713D01*
X147624203Y-96740358D01*
X147646382Y-96747009D01*
X147647280Y-96747356D01*
X147669935Y-96769714D01*
X147678922Y-96804283D01*
X147672642Y-96838641D01*
X147660995Y-96853894D01*
X147630380Y-96866645D01*
X147580079Y-96874375D01*
X147517469Y-96876515D01*
X147449931Y-96872493D01*
X147438128Y-96871110D01*
X147398949Y-96864264D01*
X147339056Y-96851433D01*
X147264171Y-96833955D01*
X147180014Y-96813166D01*
X147092306Y-96790403D01*
X147088398Y-96789362D01*
X147020560Y-96771266D01*
X146930147Y-96747142D01*
X146821086Y-96718039D01*
X146697306Y-96685005D01*
X146562732Y-96649089D01*
X146421292Y-96611337D01*
X146276913Y-96572799D01*
X146135212Y-96534973D01*
X146001643Y-96499350D01*
X145875161Y-96465679D01*
X145758424Y-96434665D01*
X145654088Y-96407009D01*
X145564810Y-96383415D01*
X145493247Y-96364585D01*
X145442057Y-96351224D01*
X145413894Y-96344033D01*
X145410288Y-96343174D01*
X145386897Y-96336323D01*
X145376820Y-96324226D01*
X145376762Y-96298724D01*
X145380712Y-96269916D01*
X145386900Y-96231529D01*
X145391783Y-96206815D01*
X145393256Y-96202318D01*
X145409326Y-96201876D01*
X145448358Y-96207064D01*
G37*
G36*
X148165993Y-92954967D02*
G01*
X148284487Y-93099925D01*
X148382895Y-93247507D01*
X148458999Y-93394056D01*
X148503057Y-93510420D01*
X148517144Y-93560339D01*
X148526397Y-93607334D01*
X148531694Y-93659375D01*
X148533915Y-93724429D01*
X148534065Y-93791576D01*
X148533320Y-93851775D01*
X148531265Y-93903684D01*
X148527094Y-93952707D01*
X148520003Y-94004246D01*
X148509184Y-94063705D01*
X148493833Y-94136488D01*
X148473144Y-94227999D01*
X148461477Y-94278455D01*
X148416125Y-94472306D01*
X148375659Y-94642027D01*
X148340187Y-94787194D01*
X148309818Y-94907382D01*
X148284661Y-95002164D01*
X148264823Y-95071115D01*
X148250413Y-95113812D01*
X148246075Y-95123676D01*
X148224464Y-95156335D01*
X148190640Y-95197402D01*
X148159565Y-95230257D01*
X148094912Y-95293938D01*
X148062628Y-95259573D01*
X148030345Y-95225209D01*
X148101110Y-95150385D01*
X148135091Y-95113570D01*
X148160154Y-95084730D01*
X148171616Y-95069289D01*
X148171875Y-95068401D01*
X148174288Y-95053776D01*
X148181169Y-95015127D01*
X148191979Y-94955400D01*
X148206181Y-94877542D01*
X148223238Y-94784498D01*
X148242612Y-94679213D01*
X148263764Y-94564635D01*
X148269036Y-94536128D01*
X148298788Y-94375454D01*
X148323962Y-94239450D01*
X148344895Y-94125798D01*
X148361926Y-94032183D01*
X148375395Y-93956288D01*
X148385640Y-93895796D01*
X148393000Y-93848392D01*
X148397813Y-93811760D01*
X148400418Y-93783582D01*
X148401154Y-93761542D01*
X148400359Y-93743325D01*
X148398373Y-93726614D01*
X148395533Y-93709092D01*
X148392595Y-93691147D01*
X148387641Y-93661095D01*
X148381939Y-93632011D01*
X148374573Y-93601241D01*
X148364628Y-93566131D01*
X148351187Y-93524027D01*
X148333336Y-93472275D01*
X148310159Y-93408220D01*
X148280740Y-93329210D01*
X148244164Y-93232589D01*
X148199516Y-93115704D01*
X148145879Y-92975900D01*
X148145740Y-92975539D01*
X148116768Y-92900107D01*
X148165993Y-92954967D01*
G37*
G36*
X147329049Y-91648807D02*
G01*
X147379331Y-91653448D01*
X147411153Y-91661611D01*
X147432899Y-91675291D01*
X147452618Y-91697303D01*
X147471631Y-91730817D01*
X147491258Y-91779003D01*
X147512821Y-91845029D01*
X147537638Y-91932067D01*
X147561887Y-92023426D01*
X147593685Y-92153403D01*
X147615144Y-92261272D01*
X147626192Y-92350357D01*
X147626760Y-92423987D01*
X147616777Y-92485485D01*
X147596174Y-92538179D01*
X147564881Y-92585394D01*
X147549672Y-92603143D01*
X147513073Y-92635879D01*
X147465580Y-92663372D01*
X147402365Y-92687701D01*
X147318601Y-92710948D01*
X147276978Y-92720699D01*
X147249990Y-92723423D01*
X147239262Y-92718130D01*
X147248370Y-92703696D01*
X147272326Y-92676165D01*
X147306076Y-92641320D01*
X147308419Y-92639008D01*
X147355472Y-92586484D01*
X147384487Y-92536901D01*
X147396444Y-92502375D01*
X147410656Y-92446208D01*
X147421374Y-92395229D01*
X147427528Y-92355608D01*
X147428049Y-92333517D01*
X147426165Y-92330939D01*
X147416894Y-92341894D01*
X147396580Y-92371614D01*
X147368355Y-92415378D01*
X147339825Y-92461159D01*
X147306940Y-92513363D01*
X147278774Y-92555606D01*
X147258594Y-92583144D01*
X147250099Y-92591451D01*
X147239641Y-92579134D01*
X147226573Y-92546680D01*
X147212723Y-92501019D01*
X147199922Y-92449081D01*
X147189998Y-92397797D01*
X147184780Y-92354098D01*
X147184402Y-92342528D01*
X147194927Y-92265776D01*
X147228187Y-92193749D01*
X147261764Y-92148164D01*
X147287834Y-92100561D01*
X147293911Y-92052160D01*
X147291284Y-92003615D01*
X147283618Y-91981628D01*
X147270554Y-91986231D01*
X147251736Y-92017457D01*
X147233959Y-92057568D01*
X147212530Y-92108187D01*
X147197409Y-92137335D01*
X147184932Y-92149095D01*
X147171436Y-92147548D01*
X147159362Y-92140697D01*
X147151839Y-92124370D01*
X147141738Y-92086585D01*
X147130006Y-92032878D01*
X147117587Y-91968785D01*
X147105426Y-91899843D01*
X147094468Y-91831587D01*
X147085658Y-91769554D01*
X147079941Y-91719278D01*
X147078261Y-91686297D01*
X147080101Y-91676349D01*
X147104854Y-91665174D01*
X147149537Y-91656502D01*
X147206740Y-91650664D01*
X147269048Y-91647989D01*
X147329049Y-91648807D01*
G37*
G36*
X144191367Y-91687795D02*
G01*
X144242336Y-91688963D01*
X144330167Y-91691516D01*
X144399378Y-91695594D01*
X144454101Y-91703909D01*
X144498468Y-91719176D01*
X144536613Y-91744107D01*
X144572668Y-91781417D01*
X144610765Y-91833819D01*
X144655036Y-91904026D01*
X144709616Y-91994752D01*
X144710645Y-91996468D01*
X144770060Y-92096889D01*
X144829448Y-92199791D01*
X144887319Y-92302359D01*
X144942184Y-92401782D01*
X144992551Y-92495244D01*
X145036931Y-92579932D01*
X145073833Y-92653033D01*
X145101767Y-92711733D01*
X145119243Y-92753217D01*
X145124771Y-92774674D01*
X145123918Y-92776754D01*
X145110338Y-92773772D01*
X145074278Y-92763913D01*
X145019504Y-92748261D01*
X144949784Y-92727898D01*
X144868886Y-92703910D01*
X144825439Y-92690899D01*
X144740200Y-92665155D01*
X144664172Y-92641930D01*
X144601156Y-92622407D01*
X144554953Y-92607767D01*
X144529365Y-92599196D01*
X144525499Y-92597565D01*
X144530153Y-92584947D01*
X144547383Y-92557016D01*
X144568297Y-92527021D01*
X144599198Y-92482242D01*
X144626596Y-92438667D01*
X144638513Y-92417338D01*
X144655318Y-92366648D01*
X144660029Y-92311468D01*
X144652422Y-92262925D01*
X144642066Y-92241904D01*
X144633212Y-92233823D01*
X144622359Y-92234795D01*
X144607306Y-92247418D01*
X144585859Y-92274292D01*
X144555818Y-92318014D01*
X144514988Y-92381184D01*
X144487208Y-92425043D01*
X144474625Y-92421652D01*
X144446123Y-92405987D01*
X144407800Y-92382138D01*
X144365751Y-92354197D01*
X144326072Y-92326252D01*
X144294859Y-92302394D01*
X144278209Y-92286714D01*
X144276949Y-92283971D01*
X144280539Y-92266056D01*
X144290327Y-92226943D01*
X144304961Y-92171805D01*
X144323086Y-92105816D01*
X144330035Y-92081003D01*
X144350658Y-92007061D01*
X144364251Y-91955268D01*
X144371375Y-91921415D01*
X144372595Y-91901293D01*
X144368472Y-91890693D01*
X144359569Y-91885406D01*
X144356325Y-91884313D01*
X144332410Y-91879558D01*
X144324546Y-91880931D01*
X144317815Y-91895278D01*
X144304276Y-91929121D01*
X144286422Y-91976152D01*
X144279332Y-91995332D01*
X144257335Y-92052132D01*
X144238198Y-92090379D01*
X144219782Y-92109126D01*
X144199950Y-92107426D01*
X144176566Y-92084334D01*
X144147491Y-92038904D01*
X144110588Y-91970190D01*
X144078253Y-91906328D01*
X144039842Y-91828674D01*
X144013147Y-91771980D01*
X143996939Y-91733022D01*
X143989990Y-91708577D01*
X143991069Y-91695421D01*
X143996198Y-91691102D01*
X144016705Y-91688669D01*
X144059490Y-91687278D01*
X144119422Y-91686971D01*
X144191367Y-91687795D01*
G37*
G36*
X142865141Y-85586415D02*
G01*
X143235914Y-85590064D01*
X142957486Y-85815487D01*
X142764685Y-85971910D01*
X142593171Y-86111760D01*
X142442598Y-86235328D01*
X142312619Y-86342908D01*
X142202890Y-86434792D01*
X142113063Y-86511272D01*
X142042794Y-86572641D01*
X141991737Y-86619190D01*
X141959545Y-86651213D01*
X141945874Y-86669002D01*
X141945309Y-86671256D01*
X141948619Y-86691028D01*
X141957988Y-86733963D01*
X141972575Y-86796676D01*
X141991538Y-86875784D01*
X142014037Y-86967900D01*
X142039231Y-87069642D01*
X142066278Y-87177623D01*
X142094338Y-87288460D01*
X142122569Y-87398768D01*
X142150131Y-87505162D01*
X142176182Y-87604258D01*
X142190410Y-87657585D01*
X142244739Y-87859880D01*
X141849765Y-87859880D01*
X141454791Y-87859880D01*
X141424154Y-87733017D01*
X141412085Y-87686123D01*
X141395291Y-87625035D01*
X141375219Y-87554596D01*
X141353323Y-87479643D01*
X141331050Y-87405017D01*
X141309853Y-87335557D01*
X141291181Y-87276104D01*
X141276484Y-87231496D01*
X141267213Y-87206573D01*
X141265389Y-87203241D01*
X141253069Y-87209834D01*
X141220614Y-87233510D01*
X141168824Y-87273630D01*
X141098497Y-87329552D01*
X141010435Y-87400637D01*
X140905436Y-87486245D01*
X140784301Y-87585736D01*
X140681251Y-87670807D01*
X140452668Y-87859880D01*
X140066707Y-87859880D01*
X139680746Y-87859880D01*
X140082709Y-87535236D01*
X140263271Y-87389275D01*
X140423433Y-87259506D01*
X140564254Y-87145036D01*
X140686793Y-87044971D01*
X140792111Y-86958419D01*
X140881267Y-86884487D01*
X140955319Y-86822283D01*
X141015329Y-86770913D01*
X141062355Y-86729486D01*
X141097457Y-86697107D01*
X141121694Y-86672884D01*
X141136126Y-86655925D01*
X141141812Y-86645336D01*
X141141886Y-86642728D01*
X141126683Y-86578299D01*
X141105406Y-86492465D01*
X141079383Y-86390231D01*
X141049942Y-86276605D01*
X141018410Y-86156593D01*
X140986114Y-86035200D01*
X140954383Y-85917435D01*
X140924544Y-85808304D01*
X140897925Y-85712812D01*
X140875854Y-85635967D01*
X140867275Y-85607208D01*
X140866650Y-85600260D01*
X140871394Y-85594796D01*
X140884369Y-85590638D01*
X140908441Y-85587608D01*
X140946474Y-85585531D01*
X141001332Y-85584230D01*
X141075880Y-85583527D01*
X141172982Y-85583246D01*
X141256169Y-85583206D01*
X141652355Y-85583206D01*
X141718147Y-85854076D01*
X141738597Y-85936750D01*
X141757514Y-86010388D01*
X141773763Y-86070796D01*
X141786210Y-86113778D01*
X141793718Y-86135140D01*
X141794559Y-86136484D01*
X141807314Y-86130906D01*
X141838571Y-86109728D01*
X141885763Y-86074912D01*
X141946321Y-86028416D01*
X142017675Y-85972203D01*
X142097257Y-85908232D01*
X142149774Y-85865395D01*
X142494367Y-85582766D01*
X142865141Y-85586415D01*
G37*
G36*
X141661751Y-89042932D02*
G01*
X141649488Y-89078291D01*
X141630134Y-89132615D01*
X141604903Y-89202522D01*
X141575007Y-89284632D01*
X141542578Y-89373070D01*
X141509329Y-89462191D01*
X141479122Y-89540755D01*
X141453201Y-89605721D01*
X141432810Y-89654048D01*
X141419192Y-89682698D01*
X141413590Y-89688629D01*
X141413571Y-89688513D01*
X141414192Y-89667073D01*
X141418253Y-89623531D01*
X141425187Y-89562921D01*
X141434428Y-89490276D01*
X141442630Y-89430237D01*
X141453143Y-89353696D01*
X141461811Y-89287188D01*
X141468086Y-89235212D01*
X141471420Y-89202263D01*
X141471594Y-89192617D01*
X141458280Y-89195684D01*
X141419606Y-89205206D01*
X141356794Y-89220874D01*
X141271064Y-89242377D01*
X141163639Y-89269406D01*
X141035741Y-89301649D01*
X140888591Y-89338797D01*
X140723411Y-89380539D01*
X140541422Y-89426565D01*
X140343847Y-89476565D01*
X140131907Y-89530229D01*
X139906824Y-89587246D01*
X139669820Y-89647305D01*
X139422116Y-89710098D01*
X139164935Y-89775313D01*
X138899497Y-89842641D01*
X138627024Y-89911770D01*
X138348739Y-89982391D01*
X138065864Y-90054194D01*
X137779619Y-90126867D01*
X137491226Y-90200102D01*
X137201908Y-90273588D01*
X136912886Y-90347014D01*
X136625381Y-90420070D01*
X136340616Y-90492446D01*
X136059813Y-90563831D01*
X135784192Y-90633916D01*
X135514976Y-90702391D01*
X135253387Y-90768944D01*
X135000646Y-90833265D01*
X134757974Y-90895046D01*
X134526595Y-90953974D01*
X134307729Y-91009740D01*
X134102597Y-91062033D01*
X133912423Y-91110544D01*
X133738428Y-91154963D01*
X133581833Y-91194977D01*
X133443860Y-91230279D01*
X133325730Y-91260557D01*
X133228667Y-91285501D01*
X133153891Y-91304800D01*
X133137889Y-91308949D01*
X133053728Y-91330481D01*
X132992336Y-91345230D01*
X132950062Y-91353781D01*
X132923254Y-91356724D01*
X132908260Y-91354645D01*
X132901429Y-91348133D01*
X132900984Y-91347080D01*
X132895802Y-91327426D01*
X132896579Y-91323350D01*
X132910154Y-91319600D01*
X132949055Y-91309235D01*
X133012089Y-91292567D01*
X133098065Y-91269909D01*
X133205790Y-91241572D01*
X133334073Y-91207868D01*
X133481720Y-91169108D01*
X133647539Y-91125604D01*
X133830339Y-91077669D01*
X134028927Y-91025614D01*
X134242111Y-90969751D01*
X134468699Y-90910392D01*
X134707498Y-90847848D01*
X134957316Y-90782431D01*
X135216962Y-90714453D01*
X135485242Y-90644227D01*
X135760964Y-90572063D01*
X136042937Y-90498273D01*
X136329968Y-90423170D01*
X136620865Y-90347065D01*
X136914436Y-90270270D01*
X137209488Y-90193097D01*
X137504829Y-90115857D01*
X137799267Y-90038863D01*
X138091610Y-89962426D01*
X138380665Y-89886858D01*
X138665240Y-89812471D01*
X138944144Y-89739576D01*
X139216183Y-89668486D01*
X139480167Y-89599512D01*
X139734901Y-89532966D01*
X139979194Y-89469160D01*
X140211855Y-89408405D01*
X140431690Y-89351014D01*
X140637508Y-89297298D01*
X140828115Y-89247570D01*
X141002321Y-89202140D01*
X141158933Y-89161321D01*
X141296758Y-89125425D01*
X141414604Y-89094762D01*
X141511280Y-89069646D01*
X141585592Y-89050388D01*
X141636350Y-89037300D01*
X141662359Y-89030693D01*
X141665711Y-89029917D01*
X141661751Y-89042932D01*
G37*
G36*
X140320190Y-84831755D02*
G01*
X140461769Y-84832085D01*
X140589096Y-84832640D01*
X140700135Y-84833406D01*
X140792850Y-84834372D01*
X140865204Y-84835524D01*
X140915161Y-84836851D01*
X140940685Y-84838339D01*
X140943661Y-84839092D01*
X140937827Y-84854052D01*
X140921802Y-84889846D01*
X140897370Y-84942630D01*
X140866316Y-85008559D01*
X140830424Y-85083791D01*
X140821104Y-85103185D01*
X140699007Y-85356911D01*
X140646699Y-85354875D01*
X140556089Y-85351817D01*
X140449591Y-85348999D01*
X140331195Y-85346461D01*
X140204894Y-85344243D01*
X140074679Y-85342383D01*
X139944542Y-85340922D01*
X139818475Y-85339899D01*
X139700469Y-85339354D01*
X139594516Y-85339327D01*
X139504608Y-85339857D01*
X139434737Y-85340983D01*
X139394078Y-85342440D01*
X139208668Y-85352524D01*
X139043467Y-85704447D01*
X138878267Y-86056371D01*
X139084871Y-86064608D01*
X139152093Y-86066471D01*
X139241173Y-86067712D01*
X139346544Y-86068321D01*
X139462642Y-86068288D01*
X139583901Y-86067603D01*
X139704755Y-86066255D01*
X139735673Y-86065791D01*
X139873897Y-86063974D01*
X139985304Y-86063349D01*
X140070484Y-86063927D01*
X140130023Y-86065717D01*
X140164511Y-86068728D01*
X140174549Y-86072932D01*
X140167176Y-86089191D01*
X140149774Y-86126106D01*
X140124268Y-86179641D01*
X140092581Y-86245762D01*
X140056635Y-86320435D01*
X140052653Y-86328688D01*
X139936076Y-86570250D01*
X139399873Y-86570465D01*
X139275432Y-86570739D01*
X139154707Y-86571427D01*
X139041598Y-86572476D01*
X138940008Y-86573834D01*
X138853838Y-86575446D01*
X138786990Y-86577261D01*
X138743365Y-86579225D01*
X138741052Y-86579383D01*
X138618434Y-86588087D01*
X138444045Y-86959972D01*
X138400218Y-87053765D01*
X138360430Y-87139556D01*
X138326115Y-87214200D01*
X138298708Y-87274551D01*
X138279644Y-87317464D01*
X138270360Y-87339792D01*
X138269685Y-87342143D01*
X138282879Y-87345142D01*
X138320331Y-87347577D01*
X138378876Y-87349460D01*
X138455348Y-87350797D01*
X138546581Y-87351599D01*
X138649409Y-87351874D01*
X138760668Y-87351632D01*
X138877191Y-87350881D01*
X138995813Y-87349631D01*
X139113369Y-87347891D01*
X139226691Y-87345670D01*
X139332616Y-87342977D01*
X139427977Y-87339821D01*
X139455221Y-87338737D01*
X139545120Y-87335198D01*
X139625426Y-87332438D01*
X139692230Y-87330558D01*
X139741627Y-87329660D01*
X139769710Y-87329844D01*
X139774667Y-87330455D01*
X139770370Y-87343636D01*
X139755615Y-87377752D01*
X139732087Y-87429144D01*
X139701473Y-87494152D01*
X139665459Y-87569115D01*
X139652067Y-87596663D01*
X139524629Y-87858033D01*
X138410293Y-87858956D01*
X138238122Y-87859016D01*
X138074084Y-87858911D01*
X137920215Y-87858652D01*
X137778553Y-87858250D01*
X137651134Y-87857716D01*
X137539996Y-87857061D01*
X137447176Y-87856297D01*
X137374711Y-87855434D01*
X137324637Y-87854483D01*
X137298992Y-87853455D01*
X137295957Y-87852944D01*
X137301886Y-87839542D01*
X137318783Y-87804330D01*
X137345315Y-87750017D01*
X137380145Y-87679310D01*
X137421941Y-87594916D01*
X137469368Y-87499543D01*
X137521091Y-87395897D01*
X137530271Y-87377538D01*
X137605516Y-87225938D01*
X137687299Y-87059072D01*
X137774170Y-86880029D01*
X137864677Y-86691898D01*
X137957370Y-86497768D01*
X138050800Y-86300730D01*
X138143514Y-86103871D01*
X138234064Y-85910281D01*
X138320999Y-85723049D01*
X138402867Y-85545264D01*
X138478219Y-85380017D01*
X138545604Y-85230394D01*
X138603572Y-85099487D01*
X138646450Y-85000323D01*
X138716495Y-84835744D01*
X139830308Y-84832235D01*
X140002423Y-84831817D01*
X140166396Y-84831661D01*
X140320190Y-84831755D01*
G37*
G36*
X136976616Y-84824055D02*
G01*
X137107864Y-84825010D01*
X137220373Y-84826850D01*
X137316315Y-84829679D01*
X137397861Y-84833600D01*
X137467184Y-84838716D01*
X137526455Y-84845133D01*
X137577845Y-84852953D01*
X137623527Y-84862281D01*
X137665672Y-84873220D01*
X137705425Y-84885535D01*
X137794695Y-84925970D01*
X137874790Y-84982972D01*
X137938762Y-85050955D01*
X137967193Y-85096000D01*
X137999072Y-85186966D01*
X138008794Y-85289364D01*
X137997705Y-85400486D01*
X137967151Y-85517624D01*
X137918480Y-85638067D01*
X137853036Y-85759108D01*
X137772168Y-85878038D01*
X137677220Y-85992148D01*
X137569540Y-86098729D01*
X137450473Y-86195072D01*
X137405232Y-86226627D01*
X137309506Y-86285656D01*
X137211455Y-86335056D01*
X137103827Y-86377910D01*
X136979370Y-86417297D01*
X136914562Y-86435075D01*
X136747029Y-86479292D01*
X136754019Y-86542129D01*
X136758039Y-86578833D01*
X136764202Y-86635793D01*
X136771753Y-86705993D01*
X136779935Y-86782413D01*
X136782221Y-86803833D01*
X136790517Y-86877122D01*
X136801802Y-86970377D01*
X136815165Y-87076413D01*
X136829694Y-87188044D01*
X136844479Y-87298087D01*
X136850074Y-87338714D01*
X136863656Y-87437637D01*
X136876470Y-87532976D01*
X136887850Y-87619607D01*
X136897126Y-87692403D01*
X136903631Y-87746239D01*
X136905925Y-87767305D01*
X136915135Y-87859880D01*
X136522663Y-87859880D01*
X136130191Y-87859880D01*
X136130191Y-87505604D01*
X136127772Y-87305184D01*
X136120413Y-87088012D01*
X136107962Y-86850379D01*
X136095460Y-86660296D01*
X136087636Y-86547143D01*
X136080770Y-86442846D01*
X136075040Y-86350513D01*
X136070623Y-86273252D01*
X136067699Y-86214172D01*
X136066445Y-86176381D01*
X136066966Y-86163026D01*
X136082595Y-86161904D01*
X136117878Y-86164806D01*
X136165437Y-86171106D01*
X136169469Y-86171726D01*
X136337617Y-86186184D01*
X136499968Y-86177271D01*
X136653816Y-86145750D01*
X136796454Y-86092387D01*
X136925177Y-86017946D01*
X137032564Y-85927943D01*
X137107087Y-85843554D01*
X137166211Y-85756328D01*
X137208626Y-85669820D01*
X137233024Y-85587586D01*
X137238094Y-85513181D01*
X137222528Y-85450159D01*
X137214169Y-85434838D01*
X137178898Y-85396439D01*
X137128774Y-85363313D01*
X137120726Y-85359406D01*
X137099390Y-85350193D01*
X137077719Y-85343089D01*
X137051944Y-85337821D01*
X137018295Y-85334118D01*
X136973001Y-85331705D01*
X136912295Y-85330311D01*
X136832404Y-85329661D01*
X136729561Y-85329484D01*
X136707423Y-85329481D01*
X136358899Y-85329481D01*
X136156258Y-85761500D01*
X136113432Y-85853367D01*
X136061119Y-85966522D01*
X136001029Y-86097215D01*
X135934875Y-86241695D01*
X135864368Y-86396213D01*
X135791220Y-86557016D01*
X135717142Y-86720355D01*
X135643847Y-86882478D01*
X135579026Y-87026338D01*
X135204435Y-87859156D01*
X134844418Y-87859518D01*
X134748277Y-87859388D01*
X134661815Y-87858836D01*
X134588615Y-87857919D01*
X134532263Y-87856698D01*
X134496340Y-87855229D01*
X134484402Y-87853653D01*
X134490334Y-87840445D01*
X134507272Y-87805317D01*
X134533933Y-87750868D01*
X134569032Y-87679700D01*
X134611286Y-87594413D01*
X134659409Y-87497609D01*
X134712118Y-87391889D01*
X134736654Y-87342773D01*
X134854916Y-87104665D01*
X134966868Y-86875944D01*
X135075531Y-86650256D01*
X135183925Y-86421250D01*
X135295069Y-86182573D01*
X135411983Y-85927874D01*
X135471413Y-85797237D01*
X135518658Y-85692722D01*
X135568430Y-85581918D01*
X135619248Y-85468181D01*
X135669633Y-85354868D01*
X135718103Y-85245335D01*
X135763179Y-85142939D01*
X135803380Y-85051035D01*
X135837227Y-84972980D01*
X135863238Y-84912131D01*
X135879935Y-84871843D01*
X135883100Y-84863759D01*
X135896358Y-84828887D01*
X136448723Y-84825458D01*
X136649217Y-84824383D01*
X136824458Y-84823880D01*
X136976616Y-84824055D01*
G37*
G36*
X142227036Y-90340642D02*
G01*
X142260143Y-90359203D01*
X142302344Y-90385929D01*
X142349401Y-90417995D01*
X142397078Y-90452577D01*
X142441138Y-90486848D01*
X142477342Y-90517983D01*
X142487185Y-90527429D01*
X142518627Y-90561234D01*
X142565255Y-90614797D01*
X142625485Y-90686168D01*
X142697735Y-90773397D01*
X142780423Y-90874534D01*
X142871966Y-90987630D01*
X142970781Y-91110734D01*
X143075287Y-91241896D01*
X143183901Y-91379167D01*
X143295040Y-91520596D01*
X143344207Y-91583476D01*
X143467009Y-91740417D01*
X143574865Y-91877325D01*
X143669393Y-91996032D01*
X143752212Y-92098369D01*
X143824940Y-92186167D01*
X143889197Y-92261257D01*
X143946600Y-92325470D01*
X143998768Y-92380638D01*
X144047320Y-92428591D01*
X144093874Y-92471160D01*
X144140050Y-92510177D01*
X144187464Y-92547472D01*
X144213951Y-92567390D01*
X144318917Y-92638961D01*
X144427211Y-92699160D01*
X144543552Y-92749762D01*
X144672660Y-92792540D01*
X144819253Y-92829270D01*
X144988052Y-92861726D01*
X145003733Y-92864371D01*
X145097281Y-92878962D01*
X145187987Y-92890683D01*
X145279713Y-92899692D01*
X145376321Y-92906147D01*
X145481673Y-92910204D01*
X145599631Y-92912021D01*
X145734056Y-92911756D01*
X145888812Y-92909566D01*
X146034677Y-92906419D01*
X146251540Y-92900484D01*
X146458870Y-92893382D01*
X146654757Y-92885241D01*
X146837291Y-92876185D01*
X147004562Y-92866343D01*
X147154662Y-92855840D01*
X147285679Y-92844802D01*
X147395704Y-92833357D01*
X147482828Y-92821630D01*
X147545140Y-92809749D01*
X147561562Y-92805327D01*
X147655207Y-92766522D01*
X147732872Y-92713202D01*
X147789647Y-92648856D01*
X147795887Y-92638761D01*
X147817477Y-92595789D01*
X147830655Y-92550899D01*
X147838108Y-92493504D01*
X147840102Y-92464425D01*
X147841863Y-92413250D01*
X147840544Y-92362894D01*
X147835423Y-92309618D01*
X147825774Y-92249683D01*
X147810875Y-92179351D01*
X147789999Y-92094884D01*
X147762424Y-91992541D01*
X147727424Y-91868585D01*
X147718995Y-91839221D01*
X147693377Y-91749800D01*
X147670625Y-91669680D01*
X147651740Y-91602442D01*
X147637723Y-91551665D01*
X147629572Y-91520930D01*
X147627917Y-91513177D01*
X147641030Y-91508398D01*
X147657566Y-91503248D01*
X147667079Y-91502446D01*
X147676188Y-91508153D01*
X147686154Y-91523454D01*
X147698233Y-91551430D01*
X147713683Y-91595162D01*
X147733764Y-91657734D01*
X147759732Y-91742227D01*
X147773041Y-91786129D01*
X147823559Y-91956166D01*
X147865182Y-92103114D01*
X147898582Y-92229590D01*
X147924428Y-92338212D01*
X147943390Y-92431598D01*
X147952790Y-92488378D01*
X147962378Y-92624936D01*
X147948886Y-92747305D01*
X147912614Y-92854952D01*
X147853865Y-92947344D01*
X147772942Y-93023948D01*
X147670145Y-93084231D01*
X147599458Y-93111894D01*
X147543608Y-93126586D01*
X147461861Y-93142370D01*
X147355714Y-93159034D01*
X147226669Y-93176364D01*
X147076224Y-93194149D01*
X146905882Y-93212174D01*
X146862102Y-93216523D01*
X146802194Y-93221093D01*
X146719567Y-93225493D01*
X146618314Y-93229649D01*
X146502526Y-93233491D01*
X146376297Y-93236945D01*
X146243718Y-93239938D01*
X146108883Y-93242399D01*
X145975883Y-93244254D01*
X145848810Y-93245431D01*
X145731758Y-93245858D01*
X145628819Y-93245462D01*
X145544085Y-93244171D01*
X145481648Y-93241912D01*
X145470039Y-93241190D01*
X145378128Y-93234058D01*
X145277300Y-93225066D01*
X145173383Y-93214844D01*
X145072208Y-93204020D01*
X144979603Y-93193225D01*
X144901399Y-93183088D01*
X144843425Y-93174237D01*
X144833888Y-93172511D01*
X144658820Y-93128548D01*
X144480240Y-93063551D01*
X144306540Y-92981198D01*
X144146114Y-92885166D01*
X144093402Y-92848084D01*
X143993307Y-92767304D01*
X143886866Y-92668839D01*
X143780529Y-92559262D01*
X143680747Y-92445152D01*
X143610528Y-92355765D01*
X143578555Y-92310780D01*
X143534531Y-92246038D01*
X143480803Y-92165131D01*
X143419716Y-92071652D01*
X143353616Y-91969191D01*
X143284848Y-91861343D01*
X143215757Y-91751697D01*
X143207658Y-91738753D01*
X143089234Y-91549969D01*
X142983523Y-91382915D01*
X142889243Y-91235729D01*
X142805112Y-91106550D01*
X142729848Y-90993517D01*
X142662169Y-90894769D01*
X142600794Y-90808444D01*
X142544439Y-90732681D01*
X142491824Y-90665619D01*
X142441665Y-90605397D01*
X142392682Y-90550152D01*
X142378038Y-90534286D01*
X142324382Y-90476145D01*
X142276791Y-90423594D01*
X142238674Y-90380472D01*
X142213438Y-90350620D01*
X142205052Y-90339318D01*
X142207260Y-90333072D01*
X142227036Y-90340642D01*
G37*
G36*
X132597586Y-84828960D02*
G01*
X132697939Y-84829272D01*
X132776179Y-84829963D01*
X132834965Y-84831172D01*
X132876955Y-84833040D01*
X132904807Y-84835704D01*
X132921179Y-84839307D01*
X132928731Y-84843985D01*
X132930120Y-84849881D01*
X132929467Y-84852888D01*
X132906012Y-84947424D01*
X132882830Y-85069206D01*
X132859949Y-85218050D01*
X132837395Y-85393771D01*
X132815196Y-85596187D01*
X132810980Y-85638066D01*
X132796100Y-85784463D01*
X132782104Y-85913811D01*
X132768076Y-86033125D01*
X132753102Y-86149423D01*
X132736266Y-86269722D01*
X132716654Y-86401040D01*
X132693352Y-86550394D01*
X132686122Y-86595889D01*
X132671328Y-86689995D01*
X132658387Y-86774793D01*
X132647825Y-86846642D01*
X132640165Y-86901900D01*
X132635930Y-86936924D01*
X132635452Y-86948115D01*
X132644771Y-86938949D01*
X132668941Y-86910749D01*
X132705884Y-86866060D01*
X132753523Y-86807430D01*
X132809779Y-86737407D01*
X132872575Y-86658539D01*
X132904174Y-86618613D01*
X132966511Y-86540330D01*
X133043487Y-86444696D01*
X133132108Y-86335374D01*
X133229381Y-86216029D01*
X133332313Y-86090321D01*
X133437912Y-85961915D01*
X133543183Y-85834473D01*
X133645136Y-85711658D01*
X133651448Y-85704076D01*
X133746215Y-85589976D01*
X133838941Y-85477757D01*
X133927518Y-85370012D01*
X134009835Y-85269330D01*
X134083784Y-85178304D01*
X134147255Y-85099525D01*
X134198139Y-85035583D01*
X134234325Y-84989071D01*
X134243919Y-84976322D01*
X134353120Y-84828887D01*
X134823351Y-84828887D01*
X134933823Y-84829041D01*
X135035065Y-84829479D01*
X135123939Y-84830163D01*
X135197310Y-84831059D01*
X135252042Y-84832128D01*
X135285000Y-84833334D01*
X135293581Y-84834378D01*
X135288021Y-84847885D01*
X135272503Y-84882406D01*
X135248771Y-84934146D01*
X135218567Y-84999310D01*
X135183634Y-85074102D01*
X135175459Y-85091532D01*
X135094363Y-85265510D01*
X135005546Y-85458207D01*
X134910802Y-85665600D01*
X134811929Y-85883667D01*
X134710721Y-86108387D01*
X134608973Y-86335738D01*
X134508480Y-86561697D01*
X134411039Y-86782243D01*
X134318445Y-86993353D01*
X134232492Y-87191006D01*
X134154977Y-87371179D01*
X134098870Y-87503293D01*
X133951438Y-87853023D01*
X133628179Y-87856700D01*
X133537308Y-87857390D01*
X133456313Y-87857346D01*
X133388974Y-87856626D01*
X133339074Y-87855285D01*
X133310394Y-87853379D01*
X133304921Y-87851886D01*
X133310487Y-87837255D01*
X133325896Y-87802122D01*
X133349215Y-87750762D01*
X133378510Y-87687447D01*
X133402795Y-87635628D01*
X133450614Y-87533548D01*
X133503861Y-87418875D01*
X133561566Y-87293770D01*
X133622760Y-87160390D01*
X133686472Y-87020894D01*
X133751735Y-86877441D01*
X133817578Y-86732188D01*
X133883032Y-86587296D01*
X133947127Y-86444922D01*
X134008895Y-86307225D01*
X134067366Y-86176363D01*
X134121570Y-86054495D01*
X134170538Y-85943780D01*
X134213302Y-85846376D01*
X134248890Y-85764442D01*
X134276335Y-85700136D01*
X134294666Y-85655617D01*
X134302914Y-85633044D01*
X134303195Y-85630660D01*
X134294363Y-85640596D01*
X134269752Y-85670179D01*
X134230763Y-85717672D01*
X134178797Y-85781338D01*
X134115256Y-85859442D01*
X134041540Y-85950246D01*
X133959051Y-86052014D01*
X133869190Y-86163010D01*
X133773358Y-86281497D01*
X133672957Y-86405738D01*
X133569386Y-86533997D01*
X133464049Y-86664538D01*
X133358344Y-86795624D01*
X133253675Y-86925519D01*
X133151442Y-87052485D01*
X133053045Y-87174788D01*
X132959887Y-87290689D01*
X132873368Y-87398452D01*
X132794890Y-87496342D01*
X132725853Y-87582621D01*
X132667660Y-87655553D01*
X132621710Y-87713402D01*
X132589405Y-87754431D01*
X132584719Y-87760447D01*
X132507481Y-87859880D01*
X132185547Y-87859880D01*
X131863613Y-87859880D01*
X131871448Y-87815307D01*
X131881234Y-87756573D01*
X131893639Y-87677207D01*
X131908313Y-87579780D01*
X131924905Y-87466865D01*
X131943064Y-87341035D01*
X131962441Y-87204860D01*
X131982684Y-87060915D01*
X132003444Y-86911770D01*
X132024370Y-86759998D01*
X132045111Y-86608172D01*
X132065317Y-86458864D01*
X132084637Y-86314646D01*
X132102721Y-86178090D01*
X132119219Y-86051769D01*
X132133780Y-85938254D01*
X132146053Y-85840119D01*
X132155689Y-85759935D01*
X132162336Y-85700275D01*
X132165645Y-85663711D01*
X132165898Y-85654126D01*
X132159851Y-85662840D01*
X132142904Y-85694087D01*
X132116113Y-85745714D01*
X132080538Y-85815569D01*
X132037235Y-85901499D01*
X131987263Y-86001353D01*
X131931680Y-86112976D01*
X131871543Y-86234218D01*
X131807911Y-86362924D01*
X131741842Y-86496943D01*
X131674392Y-86634122D01*
X131606621Y-86772309D01*
X131539587Y-86909350D01*
X131474346Y-87043094D01*
X131411957Y-87171387D01*
X131353479Y-87292078D01*
X131299968Y-87403013D01*
X131252483Y-87502041D01*
X131212081Y-87587007D01*
X131179822Y-87655761D01*
X131156761Y-87706149D01*
X131151083Y-87718994D01*
X131089964Y-87859263D01*
X130777950Y-87859572D01*
X130688743Y-87859411D01*
X130609481Y-87858791D01*
X130544014Y-87857782D01*
X130496191Y-87856453D01*
X130469861Y-87854873D01*
X130465936Y-87853937D01*
X130472194Y-87840580D01*
X130489576Y-87807113D01*
X130515995Y-87757461D01*
X130549361Y-87695553D01*
X130584442Y-87631070D01*
X130611210Y-87581143D01*
X130649143Y-87509022D01*
X130697067Y-87417011D01*
X130753807Y-87307414D01*
X130818188Y-87182534D01*
X130889035Y-87044676D01*
X130965173Y-86896142D01*
X131045428Y-86739237D01*
X131128625Y-86576265D01*
X131213589Y-86409528D01*
X131299145Y-86241331D01*
X131384118Y-86073978D01*
X131467335Y-85909771D01*
X131547619Y-85751016D01*
X131623796Y-85600014D01*
X131694691Y-85459071D01*
X131759130Y-85330490D01*
X131815938Y-85216574D01*
X131823508Y-85201337D01*
X132008456Y-84828887D01*
X132472461Y-84828887D01*
X132597586Y-84828960D01*
G37*
G36*
X139776326Y-83775991D02*
G01*
X140202011Y-83816286D01*
X140628125Y-83883986D01*
X141054509Y-83979094D01*
X141283431Y-84041450D01*
X141690385Y-84173325D01*
X142086679Y-84330188D01*
X142472636Y-84512212D01*
X142848580Y-84719571D01*
X143214836Y-84952438D01*
X143571726Y-85210989D01*
X143797159Y-85391507D01*
X143882838Y-85465659D01*
X143981751Y-85556116D01*
X144089345Y-85658329D01*
X144201073Y-85767748D01*
X144312385Y-85879825D01*
X144418730Y-85990010D01*
X144515560Y-86093753D01*
X144598325Y-86186506D01*
X144632766Y-86227046D01*
X144898213Y-86564402D01*
X145137771Y-86907393D01*
X145352790Y-87258424D01*
X145544621Y-87619899D01*
X145714614Y-87994223D01*
X145864118Y-88383800D01*
X145896164Y-88477051D01*
X145929819Y-88580159D01*
X145965098Y-88693520D01*
X145999223Y-88807851D01*
X146029417Y-88913869D01*
X146050714Y-88993637D01*
X146110691Y-89229067D01*
X146215111Y-89343367D01*
X146365159Y-89515864D01*
X146509621Y-89697988D01*
X146646047Y-89885912D01*
X146771985Y-90075805D01*
X146884987Y-90263839D01*
X146982601Y-90446187D01*
X147062376Y-90619019D01*
X147108998Y-90740010D01*
X147159594Y-90899682D01*
X147193046Y-91039560D01*
X147209312Y-91161296D01*
X147208348Y-91266543D01*
X147190111Y-91356953D01*
X147154559Y-91434179D01*
X147101649Y-91499873D01*
X147088931Y-91511818D01*
X147051212Y-91543589D01*
X147014195Y-91568672D01*
X146973952Y-91587942D01*
X146926556Y-91602271D01*
X146868077Y-91612534D01*
X146794587Y-91619603D01*
X146702159Y-91624351D01*
X146586864Y-91627653D01*
X146565934Y-91628108D01*
X146256051Y-91634636D01*
X146239137Y-91746205D01*
X146220577Y-91841742D01*
X146196958Y-91913014D01*
X146166967Y-91962927D01*
X146129288Y-91994391D01*
X146126128Y-91996082D01*
X146091513Y-92008260D01*
X146036946Y-92021080D01*
X145969841Y-92033369D01*
X145897615Y-92043952D01*
X145827684Y-92051657D01*
X145767465Y-92055308D01*
X145751195Y-92055426D01*
X145701712Y-92050602D01*
X145647861Y-92039422D01*
X145636202Y-92036053D01*
X145565549Y-92000829D01*
X145502455Y-91941077D01*
X145445820Y-91855699D01*
X145435042Y-91835197D01*
X145393733Y-91764521D01*
X145351140Y-91716152D01*
X145302359Y-91685206D01*
X145273745Y-91674629D01*
X145246736Y-91670146D01*
X145197326Y-91665499D01*
X145130537Y-91661018D01*
X145051393Y-91657037D01*
X144964918Y-91653887D01*
X144955730Y-91653621D01*
X144857366Y-91649961D01*
X144755012Y-91644617D01*
X144656864Y-91638121D01*
X144571116Y-91631007D01*
X144515039Y-91624990D01*
X144307027Y-91588317D01*
X144116500Y-91532087D01*
X143941436Y-91455067D01*
X143779810Y-91356027D01*
X143629599Y-91233736D01*
X143488780Y-91086964D01*
X143361578Y-90923336D01*
X143336961Y-90887874D01*
X143298804Y-90831947D01*
X143248719Y-90757957D01*
X143188316Y-90668304D01*
X143119208Y-90565388D01*
X143043007Y-90451611D01*
X142961324Y-90329373D01*
X142875771Y-90201074D01*
X142787960Y-90069116D01*
X142775590Y-90050504D01*
X142650671Y-89863105D01*
X142539182Y-89697516D01*
X142439801Y-89552423D01*
X142351207Y-89426509D01*
X142272079Y-89318459D01*
X142201095Y-89226958D01*
X142136934Y-89150691D01*
X142078274Y-89088342D01*
X142023795Y-89038595D01*
X141972174Y-89000136D01*
X141922092Y-88971648D01*
X141875054Y-88952942D01*
X142770639Y-88952942D01*
X142772657Y-88961300D01*
X142778966Y-88975481D01*
X142790571Y-88997097D01*
X142808477Y-89027759D01*
X142833688Y-89069080D01*
X142867209Y-89122671D01*
X142910044Y-89190143D01*
X142963198Y-89273110D01*
X143027676Y-89373181D01*
X143104482Y-89491970D01*
X143194620Y-89631088D01*
X143260048Y-89731965D01*
X143347883Y-89867484D01*
X143439348Y-90008843D01*
X143531827Y-90151984D01*
X143622704Y-90292847D01*
X143709361Y-90427374D01*
X143789183Y-90551505D01*
X143859552Y-90661182D01*
X143917854Y-90752345D01*
X143923108Y-90760582D01*
X143999753Y-90880428D01*
X144063676Y-90979332D01*
X144116646Y-91059644D01*
X144160428Y-91123716D01*
X144196789Y-91173897D01*
X144227496Y-91212536D01*
X144254317Y-91241985D01*
X144279017Y-91264594D01*
X144303364Y-91282711D01*
X144326527Y-91297175D01*
X144358143Y-91315586D01*
X144386170Y-91330683D01*
X144413603Y-91342751D01*
X144443435Y-91352075D01*
X144478659Y-91358941D01*
X144522270Y-91363633D01*
X144577259Y-91366437D01*
X144646622Y-91367637D01*
X144733350Y-91367520D01*
X144840439Y-91366371D01*
X144970880Y-91364474D01*
X145024305Y-91363660D01*
X145165325Y-91361346D01*
X145317152Y-91358555D01*
X145472981Y-91355432D01*
X145626005Y-91352122D01*
X145769421Y-91348772D01*
X145896423Y-91345524D01*
X145963776Y-91343631D01*
X146114848Y-91338480D01*
X146250749Y-91332419D01*
X146369762Y-91325599D01*
X146470172Y-91318168D01*
X146550260Y-91310274D01*
X146608311Y-91302067D01*
X146642608Y-91293694D01*
X146651434Y-91285306D01*
X146650533Y-91284132D01*
X146634417Y-91281559D01*
X146592079Y-91279060D01*
X146524725Y-91276655D01*
X146433562Y-91274368D01*
X146319797Y-91272219D01*
X146184638Y-91270230D01*
X146029291Y-91268423D01*
X145854963Y-91266820D01*
X145662862Y-91265442D01*
X145590811Y-91265013D01*
X145386610Y-91263870D01*
X145207961Y-91262794D01*
X145052986Y-91261621D01*
X144919808Y-91260184D01*
X144806552Y-91258319D01*
X144711338Y-91255859D01*
X144632290Y-91252640D01*
X144567532Y-91248495D01*
X144515186Y-91243260D01*
X144473374Y-91236769D01*
X144440220Y-91228857D01*
X144413847Y-91219358D01*
X144392377Y-91208106D01*
X144373934Y-91194937D01*
X144356640Y-91179685D01*
X144338618Y-91162184D01*
X144330159Y-91153908D01*
X144300912Y-91120477D01*
X144259946Y-91066270D01*
X144209314Y-90994232D01*
X144151071Y-90907307D01*
X144087273Y-90808440D01*
X144070037Y-90781155D01*
X144026400Y-90712071D01*
X143969945Y-90623165D01*
X143902735Y-90517658D01*
X143826828Y-90398771D01*
X143744286Y-90269727D01*
X143657168Y-90133747D01*
X143567536Y-89994053D01*
X143477449Y-89853867D01*
X143409601Y-89748442D01*
X143327955Y-89621463D01*
X143253741Y-89505669D01*
X143495093Y-89505669D01*
X144524665Y-89505669D01*
X145554237Y-89505669D01*
X145549854Y-89474810D01*
X145545471Y-89443952D01*
X144520282Y-89440436D01*
X143495093Y-89436920D01*
X143495093Y-89471294D01*
X143495093Y-89505669D01*
X143253741Y-89505669D01*
X143251013Y-89501413D01*
X143231777Y-89471294D01*
X143180018Y-89390253D01*
X143116211Y-89289947D01*
X143060834Y-89202457D01*
X143015127Y-89129747D01*
X142980334Y-89073779D01*
X142957695Y-89036515D01*
X142948452Y-89019919D01*
X142948325Y-89019247D01*
X142963916Y-89015277D01*
X143002444Y-89009052D01*
X143030987Y-89005075D01*
X145442610Y-89005075D01*
X145449467Y-89011932D01*
X145456324Y-89005075D01*
X145449467Y-88998217D01*
X145442610Y-89005075D01*
X143030987Y-89005075D01*
X143059559Y-89001094D01*
X143130909Y-88991920D01*
X143212143Y-88982051D01*
X143298910Y-88972004D01*
X143386858Y-88962301D01*
X143471636Y-88953459D01*
X143548892Y-88945999D01*
X143597955Y-88941730D01*
X143777011Y-88930794D01*
X143977417Y-88925054D01*
X144193613Y-88924381D01*
X144420042Y-88928644D01*
X144651144Y-88937714D01*
X144881362Y-88951460D01*
X145105138Y-88969754D01*
X145199258Y-88979119D01*
X145271601Y-88986300D01*
X145334686Y-88991732D01*
X145383279Y-88995028D01*
X145412147Y-88995800D01*
X145417245Y-88995243D01*
X145410455Y-88991385D01*
X145380262Y-88984326D01*
X145330429Y-88974672D01*
X145264716Y-88963028D01*
X145186887Y-88950001D01*
X145100702Y-88936196D01*
X145009924Y-88922221D01*
X144918314Y-88908680D01*
X144829635Y-88896181D01*
X144747647Y-88885328D01*
X144695147Y-88878907D01*
X144605603Y-88870694D01*
X144493845Y-88864029D01*
X144364578Y-88858912D01*
X144222507Y-88855345D01*
X144072336Y-88853329D01*
X143918770Y-88852865D01*
X143766515Y-88853954D01*
X143620273Y-88856599D01*
X143484751Y-88860800D01*
X143364653Y-88866558D01*
X143264683Y-88873876D01*
X143220539Y-88878498D01*
X143116448Y-88891545D01*
X143019778Y-88904602D01*
X142934097Y-88917112D01*
X142862970Y-88928516D01*
X142809964Y-88938253D01*
X142778646Y-88945766D01*
X142771908Y-88948796D01*
X142770639Y-88952942D01*
X141875054Y-88952942D01*
X141872225Y-88951817D01*
X141821254Y-88939327D01*
X141767857Y-88932863D01*
X141710712Y-88931108D01*
X141652640Y-88932568D01*
X141610407Y-88934987D01*
X141569240Y-88939033D01*
X141525424Y-88945522D01*
X141475241Y-88955273D01*
X141414974Y-88969101D01*
X141340905Y-88987824D01*
X141249318Y-89012259D01*
X141136497Y-89043222D01*
X141088128Y-89056636D01*
X140852494Y-89121929D01*
X140639719Y-89180528D01*
X140450207Y-89232327D01*
X140284360Y-89277218D01*
X140142583Y-89315094D01*
X140025278Y-89345848D01*
X139932847Y-89369373D01*
X139865696Y-89385562D01*
X139824226Y-89394307D01*
X139811148Y-89395949D01*
X139786760Y-89393858D01*
X139785617Y-89384171D01*
X139793455Y-89373708D01*
X139811169Y-89356066D01*
X139844813Y-89325546D01*
X139889198Y-89286777D01*
X139928854Y-89253011D01*
X140157802Y-89071041D01*
X140388696Y-88909910D01*
X140625761Y-88767415D01*
X140873222Y-88641356D01*
X141135305Y-88529530D01*
X141416234Y-88429734D01*
X141636724Y-88362908D01*
X142013534Y-88268105D01*
X142383779Y-88199560D01*
X142748662Y-88157223D01*
X143109390Y-88141045D01*
X143467165Y-88150976D01*
X143823191Y-88186967D01*
X144178674Y-88248969D01*
X144217563Y-88257325D01*
X144462710Y-88317410D01*
X144702334Y-88388708D01*
X144932363Y-88469627D01*
X145148726Y-88558576D01*
X145347350Y-88653961D01*
X145524164Y-88754192D01*
X145579759Y-88789867D01*
X145634306Y-88825182D01*
X145679987Y-88853024D01*
X145712402Y-88870836D01*
X145727149Y-88876064D01*
X145727541Y-88875680D01*
X145724864Y-88859845D01*
X145714985Y-88822733D01*
X145699279Y-88769122D01*
X145679121Y-88703787D01*
X145667739Y-88668019D01*
X145525302Y-88268685D01*
X145359252Y-87882227D01*
X145170515Y-87509448D01*
X144960015Y-87151146D01*
X144728680Y-86808125D01*
X144477433Y-86481183D01*
X144207202Y-86171123D01*
X143918912Y-85878744D01*
X143613488Y-85604848D01*
X143291856Y-85350236D01*
X142954942Y-85115708D01*
X142603671Y-84902065D01*
X142238969Y-84710109D01*
X141861762Y-84540639D01*
X141472976Y-84394457D01*
X141073535Y-84272364D01*
X140664367Y-84175160D01*
X140422955Y-84130502D01*
X140107836Y-84087460D01*
X139778808Y-84059834D01*
X139443479Y-84047766D01*
X139109454Y-84051395D01*
X138784337Y-84070861D01*
X138550871Y-84095945D01*
X138238566Y-84144820D01*
X137918348Y-84210554D01*
X137601641Y-84290556D01*
X137322355Y-84374803D01*
X137247695Y-84398579D01*
X137179740Y-84418898D01*
X137123806Y-84434272D01*
X137085207Y-84443212D01*
X137072274Y-84444870D01*
X137037527Y-84435467D01*
X136999080Y-84411747D01*
X136992576Y-84406242D01*
X136962969Y-84373835D01*
X136950929Y-84339221D01*
X136949344Y-84309684D01*
X136951694Y-84274599D01*
X136960855Y-84245633D01*
X136979993Y-84220608D01*
X137012274Y-84197345D01*
X137060863Y-84173664D01*
X137128926Y-84147387D01*
X137219630Y-84116335D01*
X137240086Y-84109583D01*
X137659872Y-83985502D01*
X138081038Y-83888811D01*
X138503425Y-83819511D01*
X138926874Y-83777606D01*
X139351227Y-83763098D01*
X139776326Y-83775991D01*
G37*
G36*
X132937915Y-88302946D02*
G01*
X132992323Y-88317331D01*
X133029022Y-88346947D01*
X133053277Y-88390790D01*
X133059557Y-88408863D01*
X133062003Y-88428262D01*
X133059736Y-88453490D01*
X133051875Y-88489049D01*
X133037543Y-88539442D01*
X133015859Y-88609173D01*
X133002410Y-88651373D01*
X132888159Y-89050657D01*
X132799221Y-89455783D01*
X132735061Y-89869519D01*
X132700938Y-90212187D01*
X132697591Y-90269994D01*
X132694870Y-90344268D01*
X132692767Y-90431186D01*
X132691277Y-90526929D01*
X132690395Y-90627674D01*
X132690113Y-90729602D01*
X132690425Y-90828891D01*
X132691326Y-90921721D01*
X132692810Y-91004271D01*
X132694869Y-91072721D01*
X132697499Y-91123248D01*
X132700693Y-91152033D01*
X132702451Y-91157032D01*
X132715757Y-91153461D01*
X132754007Y-91142186D01*
X132815938Y-91123595D01*
X132900285Y-91098078D01*
X133005783Y-91066024D01*
X133131170Y-91027821D01*
X133275181Y-90983860D01*
X133436552Y-90934528D01*
X133614018Y-90880216D01*
X133806317Y-90821312D01*
X134012182Y-90758205D01*
X134230351Y-90691285D01*
X134459560Y-90620941D01*
X134698543Y-90547562D01*
X134946038Y-90471536D01*
X135200780Y-90393253D01*
X135461505Y-90313103D01*
X135726949Y-90231473D01*
X135995847Y-90148754D01*
X136266937Y-90065335D01*
X136538952Y-89981604D01*
X136810631Y-89897951D01*
X137080707Y-89814765D01*
X137347918Y-89732434D01*
X137611000Y-89651349D01*
X137868687Y-89571898D01*
X138119716Y-89494470D01*
X138362824Y-89419454D01*
X138596745Y-89347240D01*
X138820215Y-89278217D01*
X139031972Y-89212773D01*
X139230750Y-89151298D01*
X139415285Y-89094182D01*
X139584314Y-89041812D01*
X139736572Y-88994579D01*
X139870795Y-88952871D01*
X139985719Y-88917077D01*
X140080080Y-88887587D01*
X140152614Y-88864789D01*
X140202056Y-88849074D01*
X140227144Y-88840829D01*
X140228381Y-88840388D01*
X140235565Y-88843310D01*
X140225691Y-88861897D01*
X140201430Y-88892761D01*
X140165455Y-88932514D01*
X140120437Y-88977765D01*
X140118865Y-88979277D01*
X139987488Y-89094994D01*
X139838670Y-89207967D01*
X139679730Y-89313451D01*
X139517984Y-89406702D01*
X139360751Y-89482977D01*
X139308628Y-89504592D01*
X139285051Y-89512256D01*
X139235698Y-89526869D01*
X139161276Y-89548239D01*
X139062494Y-89576172D01*
X138940059Y-89610473D01*
X138794679Y-89650950D01*
X138627060Y-89697408D01*
X138437911Y-89749655D01*
X138227939Y-89807495D01*
X137997852Y-89870737D01*
X137748356Y-89939185D01*
X137480160Y-90012647D01*
X137193972Y-90090929D01*
X136890498Y-90173836D01*
X136570447Y-90261176D01*
X136234525Y-90352755D01*
X135883440Y-90448379D01*
X135517901Y-90547855D01*
X135138614Y-90650988D01*
X134746286Y-90757585D01*
X134341627Y-90867453D01*
X133925342Y-90980397D01*
X133498140Y-91096225D01*
X133060728Y-91214742D01*
X133030622Y-91222896D01*
X132942971Y-91246774D01*
X132864496Y-91268412D01*
X132798963Y-91286752D01*
X132750141Y-91300733D01*
X132721798Y-91309295D01*
X132716194Y-91311385D01*
X132715207Y-91326439D01*
X132717652Y-91362714D01*
X132722774Y-91414323D01*
X132729819Y-91475377D01*
X132738035Y-91539989D01*
X132746667Y-91602272D01*
X132754961Y-91656337D01*
X132762163Y-91696298D01*
X132767521Y-91716266D01*
X132768152Y-91717208D01*
X132782951Y-91716246D01*
X132823607Y-91710442D01*
X132889016Y-91700000D01*
X132978073Y-91685120D01*
X133089674Y-91666004D01*
X133222713Y-91642854D01*
X133376086Y-91615871D01*
X133548688Y-91585257D01*
X133739415Y-91551214D01*
X133947161Y-91513943D01*
X134170822Y-91473646D01*
X134409293Y-91430524D01*
X134661470Y-91384779D01*
X134926247Y-91336612D01*
X135202520Y-91286226D01*
X135489184Y-91233822D01*
X135785135Y-91179601D01*
X136089268Y-91123765D01*
X136400477Y-91066516D01*
X136717658Y-91008054D01*
X137039707Y-90948583D01*
X137365519Y-90888304D01*
X137693988Y-90827417D01*
X138024011Y-90766125D01*
X138354482Y-90704630D01*
X138684297Y-90643132D01*
X139012351Y-90581834D01*
X139337539Y-90520937D01*
X139658756Y-90460643D01*
X139826357Y-90429124D01*
X140048526Y-90387353D01*
X140245510Y-90350470D01*
X140419068Y-90318247D01*
X140570965Y-90290457D01*
X140702961Y-90266871D01*
X140816820Y-90247264D01*
X140914303Y-90231408D01*
X140997173Y-90219075D01*
X141067191Y-90210039D01*
X141126121Y-90204071D01*
X141175723Y-90200944D01*
X141217761Y-90200432D01*
X141253996Y-90202306D01*
X141286191Y-90206340D01*
X141316107Y-90212306D01*
X141345508Y-90219977D01*
X141376155Y-90229125D01*
X141376328Y-90229178D01*
X141487665Y-90273905D01*
X141582619Y-90335704D01*
X141664449Y-90417460D01*
X141736413Y-90522060D01*
X141763956Y-90572478D01*
X141776575Y-90599795D01*
X141798064Y-90649535D01*
X141827441Y-90719257D01*
X141863721Y-90806521D01*
X141905920Y-90908886D01*
X141953056Y-91023910D01*
X142004145Y-91149152D01*
X142058202Y-91282170D01*
X142114245Y-91420525D01*
X142171290Y-91561774D01*
X142228352Y-91703476D01*
X142284449Y-91843191D01*
X142338597Y-91978477D01*
X142389812Y-92106892D01*
X142437111Y-92225997D01*
X142479509Y-92333349D01*
X142516024Y-92426507D01*
X142545672Y-92503031D01*
X142567468Y-92560479D01*
X142580430Y-92596409D01*
X142583522Y-92606471D01*
X142591782Y-92641993D01*
X142354264Y-92651003D01*
X142318169Y-92651836D01*
X142255991Y-92652619D01*
X142169079Y-92653349D01*
X142058780Y-92654025D01*
X141926441Y-92654644D01*
X141773410Y-92655203D01*
X141601035Y-92655701D01*
X141410662Y-92656135D01*
X141203640Y-92656503D01*
X140981316Y-92656802D01*
X140745037Y-92657031D01*
X140496152Y-92657186D01*
X140236007Y-92657266D01*
X139965950Y-92657269D01*
X139687328Y-92657191D01*
X139401490Y-92657031D01*
X139109783Y-92656787D01*
X139010320Y-92656685D01*
X135903895Y-92653358D01*
X138221713Y-92646441D01*
X140539532Y-92639524D01*
X137282242Y-92615281D01*
X136977578Y-92612993D01*
X136676056Y-92610689D01*
X136379141Y-92608382D01*
X136088298Y-92606084D01*
X135804992Y-92603809D01*
X135530688Y-92601568D01*
X135266852Y-92599375D01*
X135014947Y-92597242D01*
X134776440Y-92595182D01*
X134552794Y-92593208D01*
X134345476Y-92591333D01*
X134155949Y-92589569D01*
X133985679Y-92587929D01*
X133836132Y-92586425D01*
X133708771Y-92585071D01*
X133605062Y-92583879D01*
X133526470Y-92582862D01*
X133493055Y-92582359D01*
X132961158Y-92573680D01*
X132975702Y-92611933D01*
X132984177Y-92640913D01*
X132984040Y-92656391D01*
X132986096Y-92671006D01*
X132996267Y-92706874D01*
X133013019Y-92759573D01*
X133034814Y-92824679D01*
X133060115Y-92897770D01*
X133087386Y-92974423D01*
X133115091Y-93050217D01*
X133141693Y-93120728D01*
X133165655Y-93181534D01*
X133171168Y-93194978D01*
X133219460Y-93311554D01*
X133395911Y-93342290D01*
X133455046Y-93352319D01*
X133536091Y-93365670D01*
X133633843Y-93381505D01*
X133743100Y-93398990D01*
X133858659Y-93417287D01*
X133975317Y-93435561D01*
X134006155Y-93440355D01*
X134113256Y-93457329D01*
X134212637Y-93473747D01*
X134300783Y-93488978D01*
X134374177Y-93502387D01*
X134429301Y-93513343D01*
X134462639Y-93521212D01*
X134470194Y-93523871D01*
X134503945Y-93556974D01*
X134526960Y-93612858D01*
X134538250Y-93688664D01*
X134539262Y-93723462D01*
X134542070Y-93788593D01*
X134552267Y-93833153D01*
X134572516Y-93863591D01*
X134605476Y-93886355D01*
X134606754Y-93887020D01*
X134629682Y-93894931D01*
X134675805Y-93907612D01*
X134741481Y-93924177D01*
X134823064Y-93943741D01*
X134916910Y-93965418D01*
X135019374Y-93988324D01*
X135062236Y-93997692D01*
X135130516Y-94012551D01*
X135223354Y-94032806D01*
X135338516Y-94057969D01*
X135473772Y-94087549D01*
X135626886Y-94121059D01*
X135795627Y-94158009D01*
X135977761Y-94197910D01*
X136171056Y-94240272D01*
X136373278Y-94284607D01*
X136582195Y-94330426D01*
X136795574Y-94377238D01*
X137011182Y-94424557D01*
X137103817Y-94444892D01*
X137368041Y-94502757D01*
X137612472Y-94555998D01*
X137836434Y-94604472D01*
X138039253Y-94648039D01*
X138220255Y-94686556D01*
X138378764Y-94719882D01*
X138514106Y-94747875D01*
X138625607Y-94770394D01*
X138712590Y-94787298D01*
X138774382Y-94798445D01*
X138810309Y-94803693D01*
X138816018Y-94804098D01*
X138865537Y-94804160D01*
X138896212Y-94799462D01*
X138916513Y-94787760D01*
X138929166Y-94774101D01*
X138947445Y-94735012D01*
X138954389Y-94675651D01*
X138950048Y-94594354D01*
X138937176Y-94504751D01*
X138920577Y-94408746D01*
X137757992Y-94155202D01*
X137584362Y-94117259D01*
X137418860Y-94080942D01*
X137263386Y-94046676D01*
X137119840Y-94014888D01*
X136990121Y-93986003D01*
X136876127Y-93960447D01*
X136779760Y-93938645D01*
X136702917Y-93921022D01*
X136647499Y-93908004D01*
X136615405Y-93900018D01*
X136607848Y-93897512D01*
X136623015Y-93898807D01*
X136663308Y-93903792D01*
X136726715Y-93912187D01*
X136811222Y-93923707D01*
X136914814Y-93938073D01*
X137035477Y-93955001D01*
X137171199Y-93974210D01*
X137319966Y-93995417D01*
X137479762Y-94018342D01*
X137648576Y-94042700D01*
X137757437Y-94058480D01*
X137931123Y-94083662D01*
X138097239Y-94107675D01*
X138253748Y-94130228D01*
X138398614Y-94151032D01*
X138529801Y-94169795D01*
X138645273Y-94186229D01*
X138742995Y-94200042D01*
X138820930Y-94210946D01*
X138877042Y-94218649D01*
X138909295Y-94222863D01*
X138916394Y-94223595D01*
X138928919Y-94217342D01*
X138937909Y-94195380D01*
X138944916Y-94152904D01*
X138947765Y-94126543D01*
X138957328Y-94029491D01*
X139007825Y-94036697D01*
X139050418Y-94042172D01*
X139105348Y-94048465D01*
X139140612Y-94052171D01*
X139166057Y-94055028D01*
X139197708Y-94059185D01*
X139237199Y-94064924D01*
X139286167Y-94072525D01*
X139346245Y-94082268D01*
X139419071Y-94094434D01*
X139506278Y-94109302D01*
X139609503Y-94127154D01*
X139730381Y-94148270D01*
X139870547Y-94172930D01*
X140031636Y-94201414D01*
X140215284Y-94234004D01*
X140423127Y-94270979D01*
X140586878Y-94300154D01*
X140763912Y-94331757D01*
X140915953Y-94359040D01*
X141045027Y-94382426D01*
X141153157Y-94402339D01*
X141242368Y-94419202D01*
X141314683Y-94433440D01*
X141372128Y-94445476D01*
X141416725Y-94455733D01*
X141450501Y-94464636D01*
X141475477Y-94472608D01*
X141493680Y-94480072D01*
X141507133Y-94487452D01*
X141517584Y-94494951D01*
X141598916Y-94556516D01*
X141676902Y-94607735D01*
X141755541Y-94649879D01*
X141838829Y-94684218D01*
X141930765Y-94712022D01*
X142035346Y-94734562D01*
X142156569Y-94753108D01*
X142298433Y-94768930D01*
X142411616Y-94779020D01*
X142517220Y-94788574D01*
X142636940Y-94800749D01*
X142758682Y-94814237D01*
X142870348Y-94827729D01*
X142912210Y-94833199D01*
X142980395Y-94841955D01*
X143071401Y-94853006D01*
X143180764Y-94865841D01*
X143304019Y-94879952D01*
X143436701Y-94894830D01*
X143574346Y-94909965D01*
X143712489Y-94924849D01*
X143762534Y-94930159D01*
X143955736Y-94950715D01*
X144122225Y-94968756D01*
X144262594Y-94984354D01*
X144377437Y-94997584D01*
X144467347Y-95008517D01*
X144532918Y-95017228D01*
X144574745Y-95023788D01*
X144593421Y-95028272D01*
X144589539Y-95030752D01*
X144583029Y-95031158D01*
X144563341Y-95030615D01*
X144518219Y-95028589D01*
X144449613Y-95025184D01*
X144359475Y-95020508D01*
X144249753Y-95014665D01*
X144122399Y-95007762D01*
X143979361Y-94999906D01*
X143822592Y-94991201D01*
X143654039Y-94981754D01*
X143475655Y-94971671D01*
X143289388Y-94961058D01*
X143219809Y-94957073D01*
X143032141Y-94946364D01*
X142852331Y-94936212D01*
X142682257Y-94926719D01*
X142523795Y-94917983D01*
X142378824Y-94910105D01*
X142249219Y-94903184D01*
X142136858Y-94897320D01*
X142043617Y-94892614D01*
X141971374Y-94889164D01*
X141922007Y-94887070D01*
X141897390Y-94886433D01*
X141894893Y-94886610D01*
X141898943Y-94900294D01*
X141917246Y-94928597D01*
X141945383Y-94966043D01*
X141978936Y-95007159D01*
X142013486Y-95046467D01*
X142044613Y-95078494D01*
X142061971Y-95093627D01*
X142085822Y-95111605D01*
X142108174Y-95127089D01*
X142131322Y-95140447D01*
X142157562Y-95152047D01*
X142189188Y-95162255D01*
X142228498Y-95171439D01*
X142277785Y-95179966D01*
X142339345Y-95188204D01*
X142415474Y-95196520D01*
X142508468Y-95205281D01*
X142620621Y-95214855D01*
X142754228Y-95225609D01*
X142911586Y-95237910D01*
X143012257Y-95245714D01*
X143180393Y-95258785D01*
X143360249Y-95272848D01*
X143546244Y-95287461D01*
X143732795Y-95302184D01*
X143914321Y-95316574D01*
X144085239Y-95330190D01*
X144239968Y-95342591D01*
X144372847Y-95353328D01*
X144497802Y-95363247D01*
X144615328Y-95372126D01*
X144722379Y-95379766D01*
X144815910Y-95385972D01*
X144892873Y-95390546D01*
X144950225Y-95393290D01*
X144984918Y-95394008D01*
X144993111Y-95393493D01*
X145040463Y-95371863D01*
X145081436Y-95330796D01*
X145108538Y-95278260D01*
X145111530Y-95267521D01*
X145118043Y-95236787D01*
X145128095Y-95185120D01*
X145140534Y-95118613D01*
X145154213Y-95043359D01*
X145160983Y-95005345D01*
X145177771Y-94910742D01*
X145196584Y-94805262D01*
X145215251Y-94701048D01*
X145231602Y-94610241D01*
X145233317Y-94600755D01*
X145262012Y-94371812D01*
X145267942Y-94128723D01*
X145251098Y-93872655D01*
X145239530Y-93778055D01*
X145228364Y-93691012D01*
X145222122Y-93628448D01*
X145220660Y-93587884D01*
X145223829Y-93566842D01*
X145226762Y-93563060D01*
X145236291Y-93559315D01*
X145253319Y-93555853D01*
X145279477Y-93552616D01*
X145316398Y-93549544D01*
X145365711Y-93546578D01*
X145429049Y-93543659D01*
X145508042Y-93540727D01*
X145604321Y-93537723D01*
X145719518Y-93534588D01*
X145855264Y-93531263D01*
X146013189Y-93527688D01*
X146194925Y-93523803D01*
X146402103Y-93519551D01*
X146450462Y-93518576D01*
X147437741Y-93498727D01*
X147503597Y-93527057D01*
X147570998Y-93568865D01*
X147634888Y-93631804D01*
X147691054Y-93709583D01*
X147735284Y-93795911D01*
X147763366Y-93884498D01*
X147769721Y-93924469D01*
X147770405Y-93971041D01*
X147765737Y-94041011D01*
X147756030Y-94130936D01*
X147741598Y-94237375D01*
X147740596Y-94244168D01*
X147727793Y-94329066D01*
X147712279Y-94429591D01*
X147694541Y-94542759D01*
X147675068Y-94665581D01*
X147654350Y-94795072D01*
X147632876Y-94928245D01*
X147611134Y-95062114D01*
X147589613Y-95193692D01*
X147568803Y-95319994D01*
X147549192Y-95438032D01*
X147531270Y-95544820D01*
X147515525Y-95637373D01*
X147502446Y-95712703D01*
X147492523Y-95767824D01*
X147486244Y-95799750D01*
X147485128Y-95804418D01*
X147456654Y-95865967D01*
X147408903Y-95923827D01*
X147349591Y-95969421D01*
X147325607Y-95981755D01*
X147287760Y-95993106D01*
X147224932Y-96005289D01*
X147139554Y-96018077D01*
X147034054Y-96031242D01*
X146910863Y-96044557D01*
X146772410Y-96057792D01*
X146621123Y-96070722D01*
X146459434Y-96083118D01*
X146289770Y-96094753D01*
X146114561Y-96105399D01*
X145936237Y-96114827D01*
X145874629Y-96117747D01*
X145744432Y-96122402D01*
X145593205Y-96125555D01*
X145425825Y-96127263D01*
X145247173Y-96127586D01*
X145062127Y-96126581D01*
X144875567Y-96124307D01*
X144692371Y-96120822D01*
X144517420Y-96116185D01*
X144355591Y-96110454D01*
X144211765Y-96103686D01*
X144098549Y-96096522D01*
X144015203Y-96090141D01*
X143909929Y-96081767D01*
X143788121Y-96071848D01*
X143655174Y-96060831D01*
X143516481Y-96049162D01*
X143377435Y-96037287D01*
X143257374Y-96026874D01*
X143108268Y-96013871D01*
X142983981Y-96003198D01*
X142882008Y-95994771D01*
X142799843Y-95988502D01*
X142734983Y-95984308D01*
X142684921Y-95982103D01*
X142647155Y-95981802D01*
X142619178Y-95983318D01*
X142598485Y-95986567D01*
X142582573Y-95991464D01*
X142568936Y-95997923D01*
X142559788Y-96003104D01*
X142539656Y-96020312D01*
X142508692Y-96052994D01*
X142471073Y-96096016D01*
X142430975Y-96144243D01*
X142392576Y-96192542D01*
X142360050Y-96235778D01*
X142337576Y-96268818D01*
X142329327Y-96286408D01*
X142340576Y-96293737D01*
X142367234Y-96293335D01*
X142398667Y-96286077D01*
X142414284Y-96279403D01*
X142440383Y-96276954D01*
X142491064Y-96283800D01*
X142565204Y-96299663D01*
X142661682Y-96324265D01*
X142779373Y-96357329D01*
X142917155Y-96398575D01*
X143001357Y-96424732D01*
X143036087Y-96435311D01*
X143094993Y-96452853D01*
X143175894Y-96476720D01*
X143276609Y-96506278D01*
X143394957Y-96540889D01*
X143528758Y-96579918D01*
X143675831Y-96622727D01*
X143833995Y-96668682D01*
X144001069Y-96717146D01*
X144174874Y-96767482D01*
X144324845Y-96810853D01*
X145504327Y-97151727D01*
X145161454Y-97154803D01*
X144818581Y-97157879D01*
X143889750Y-96893099D01*
X142960919Y-96628320D01*
X142771985Y-96736918D01*
X142407382Y-96930765D01*
X142028918Y-97101370D01*
X141637921Y-97248335D01*
X141235715Y-97371260D01*
X140823627Y-97469747D01*
X140402982Y-97543396D01*
X139975106Y-97591809D01*
X139915504Y-97596490D01*
X139761334Y-97605951D01*
X139594319Y-97612683D01*
X139422790Y-97616557D01*
X139255073Y-97617442D01*
X139099497Y-97615207D01*
X138987973Y-97611014D01*
X138555334Y-97575495D01*
X138128204Y-97513367D01*
X137705339Y-97424396D01*
X137285495Y-97308346D01*
X137138236Y-97261021D01*
X136950540Y-97196221D01*
X136778045Y-97131424D01*
X136612009Y-97062975D01*
X136443686Y-96987218D01*
X136264335Y-96900497D01*
X136205622Y-96871065D01*
X135825801Y-96664312D01*
X135463116Y-96436767D01*
X135118075Y-96189451D01*
X134791186Y-95923384D01*
X134482954Y-95639588D01*
X134193887Y-95339085D01*
X133924492Y-95022895D01*
X133675277Y-94692039D01*
X133446747Y-94347539D01*
X133239411Y-93990416D01*
X133229620Y-93970968D01*
X133553783Y-93970968D01*
X133557265Y-93985063D01*
X133574463Y-94018530D01*
X133603369Y-94068266D01*
X133641973Y-94131170D01*
X133688265Y-94204139D01*
X133740238Y-94284070D01*
X133795882Y-94367861D01*
X133853187Y-94452410D01*
X133910145Y-94534615D01*
X133964747Y-94611372D01*
X133997560Y-94656249D01*
X134221803Y-94940403D01*
X134468571Y-95218962D01*
X134732968Y-95487027D01*
X135010099Y-95739701D01*
X135295068Y-95972088D01*
X135368379Y-96027495D01*
X135716347Y-96269239D01*
X136078269Y-96487699D01*
X136452857Y-96682395D01*
X136838822Y-96852849D01*
X137234877Y-96998581D01*
X137639732Y-97119111D01*
X138052100Y-97213961D01*
X138470692Y-97282650D01*
X138845741Y-97321268D01*
X138945278Y-97326948D01*
X139065350Y-97331024D01*
X139199105Y-97333488D01*
X139339695Y-97334329D01*
X139480269Y-97333536D01*
X139613979Y-97331099D01*
X139733974Y-97327007D01*
X139812642Y-97322728D01*
X140231453Y-97283326D01*
X140635530Y-97221785D01*
X141026927Y-97137658D01*
X141407697Y-97030499D01*
X141779893Y-96899862D01*
X141808160Y-96888854D01*
X141878416Y-96860229D01*
X141960679Y-96824967D01*
X142050807Y-96785019D01*
X142144660Y-96742331D01*
X142238096Y-96698853D01*
X142326972Y-96656532D01*
X142407149Y-96617319D01*
X142474484Y-96583161D01*
X142524835Y-96556007D01*
X142553725Y-96538059D01*
X142561153Y-96530154D01*
X142558756Y-96522325D01*
X142543281Y-96513155D01*
X142511472Y-96501227D01*
X142460077Y-96485124D01*
X142385840Y-96463430D01*
X142375529Y-96460466D01*
X142304859Y-96439676D01*
X142243910Y-96420807D01*
X142197393Y-96405391D01*
X142170021Y-96394962D01*
X142164846Y-96391924D01*
X142151227Y-96387425D01*
X142112250Y-96375826D01*
X142048972Y-96357425D01*
X141962447Y-96332520D01*
X141853732Y-96301411D01*
X141723882Y-96264395D01*
X141573952Y-96221771D01*
X141404999Y-96173838D01*
X141218077Y-96120894D01*
X141014243Y-96063237D01*
X140794551Y-96001166D01*
X140560059Y-95934980D01*
X140311820Y-95864977D01*
X140050891Y-95791456D01*
X139778328Y-95714714D01*
X139495186Y-95635051D01*
X139202520Y-95552766D01*
X138901386Y-95468155D01*
X138592841Y-95381519D01*
X138434294Y-95337023D01*
X138114978Y-95247417D01*
X137798789Y-95158682D01*
X137487010Y-95071177D01*
X137180920Y-94985263D01*
X136983736Y-94929913D01*
X139366905Y-94929913D01*
X139374891Y-95012202D01*
X139390788Y-95103539D01*
X139419518Y-95201988D01*
X139457045Y-95295668D01*
X139495227Y-95366428D01*
X139568824Y-95461175D01*
X139651792Y-95532254D01*
X139742049Y-95578936D01*
X139837515Y-95600492D01*
X139936109Y-95596191D01*
X140035748Y-95565305D01*
X140047297Y-95559959D01*
X140126679Y-95508646D01*
X140202403Y-95434163D01*
X140210089Y-95423649D01*
X141341593Y-95423649D01*
X141348931Y-95515914D01*
X141368344Y-95643134D01*
X141404240Y-95760823D01*
X141454436Y-95866998D01*
X141516750Y-95959677D01*
X141589000Y-96036879D01*
X141669004Y-96096622D01*
X141754580Y-96136924D01*
X141843545Y-96155804D01*
X141933716Y-96151279D01*
X142018162Y-96123663D01*
X142099526Y-96072764D01*
X142178901Y-96000468D01*
X142251229Y-95912634D01*
X142311452Y-95815122D01*
X142342097Y-95748347D01*
X142355632Y-95708931D01*
X142361671Y-95680571D01*
X142360538Y-95672013D01*
X142342386Y-95666378D01*
X142309123Y-95663696D01*
X142304664Y-95663660D01*
X142284744Y-95665003D01*
X142265734Y-95670825D01*
X142244560Y-95683812D01*
X142218149Y-95706651D01*
X142183424Y-95742030D01*
X142137312Y-95792636D01*
X142076738Y-95861156D01*
X142070259Y-95868536D01*
X141993819Y-95945656D01*
X141921765Y-95996228D01*
X141851923Y-96020339D01*
X141782118Y-96018074D01*
X141710177Y-95989519D01*
X141633925Y-95934761D01*
X141583640Y-95887801D01*
X141530809Y-95831333D01*
X141489267Y-95777469D01*
X141454671Y-95718858D01*
X141422679Y-95648146D01*
X141389193Y-95558685D01*
X141341593Y-95423649D01*
X140210089Y-95423649D01*
X140270674Y-95340773D01*
X140315827Y-95258550D01*
X140341825Y-95203137D01*
X140356704Y-95166706D01*
X140361834Y-95143820D01*
X140358585Y-95129039D01*
X140350877Y-95119397D01*
X140340890Y-95112593D01*
X140328281Y-95113375D01*
X140309713Y-95124171D01*
X140281850Y-95147409D01*
X140241355Y-95185517D01*
X140187618Y-95238229D01*
X140130243Y-95293879D01*
X140073118Y-95347376D01*
X140022152Y-95393307D01*
X139983254Y-95426261D01*
X139977064Y-95431109D01*
X139894552Y-95482206D01*
X139815801Y-95506261D01*
X139740775Y-95503252D01*
X139669441Y-95473157D01*
X139601763Y-95415952D01*
X139537705Y-95331613D01*
X139477234Y-95220120D01*
X139420313Y-95081448D01*
X139413648Y-95062778D01*
X139366905Y-94929913D01*
X136983736Y-94929913D01*
X136881803Y-94901300D01*
X136590938Y-94819646D01*
X136309607Y-94740662D01*
X136039091Y-94664707D01*
X135780672Y-94592142D01*
X135535629Y-94523326D01*
X135305245Y-94458619D01*
X135090801Y-94398381D01*
X134893578Y-94342971D01*
X134714857Y-94292750D01*
X134555919Y-94248076D01*
X134418045Y-94209311D01*
X134302517Y-94176814D01*
X134210615Y-94150944D01*
X134143622Y-94132061D01*
X134134672Y-94129535D01*
X134014041Y-94095599D01*
X133901763Y-94064245D01*
X133800542Y-94036211D01*
X133713081Y-94012236D01*
X133642081Y-93993055D01*
X133590247Y-93979409D01*
X133560281Y-93972033D01*
X133553783Y-93970968D01*
X133229620Y-93970968D01*
X133053775Y-93621691D01*
X132952518Y-93386682D01*
X133261023Y-93386682D01*
X133262660Y-93398028D01*
X133273331Y-93427367D01*
X133290097Y-93468011D01*
X133310016Y-93513275D01*
X133330148Y-93556472D01*
X133347554Y-93590916D01*
X133359109Y-93609710D01*
X133374943Y-93616421D01*
X133411020Y-93627202D01*
X133460744Y-93640447D01*
X133517522Y-93654549D01*
X133574760Y-93667900D01*
X133625863Y-93678895D01*
X133664238Y-93685925D01*
X133678652Y-93687583D01*
X133690501Y-93685007D01*
X133697702Y-93672430D01*
X133701363Y-93644634D01*
X133702592Y-93596401D01*
X133702653Y-93574619D01*
X133702653Y-93460525D01*
X133486643Y-93423451D01*
X133412763Y-93410887D01*
X133348532Y-93400185D01*
X133298746Y-93392126D01*
X133268202Y-93387492D01*
X133261023Y-93386682D01*
X132952518Y-93386682D01*
X132890346Y-93242385D01*
X132749631Y-92853519D01*
X132645159Y-92500159D01*
X132934618Y-92500159D01*
X132938171Y-92528935D01*
X132943761Y-92541234D01*
X132958492Y-92542542D01*
X132998752Y-92543794D01*
X133062643Y-92544978D01*
X133148264Y-92546078D01*
X133253717Y-92547084D01*
X133377102Y-92547980D01*
X133516518Y-92548754D01*
X133670067Y-92549393D01*
X133835849Y-92549884D01*
X134011963Y-92550213D01*
X134196512Y-92550367D01*
X134258372Y-92550377D01*
X135563840Y-92550377D01*
X135565203Y-92528237D01*
X136802221Y-92528237D01*
X136808272Y-92530026D01*
X136837814Y-92531738D01*
X136886907Y-92533247D01*
X136951611Y-92534426D01*
X137015497Y-92535071D01*
X137249346Y-92536662D01*
X137249710Y-92530659D01*
X137722551Y-92530659D01*
X137733826Y-92532393D01*
X137768733Y-92533931D01*
X137823473Y-92535196D01*
X137894249Y-92536111D01*
X137977264Y-92536601D01*
X138020561Y-92536662D01*
X138108663Y-92536515D01*
X138186864Y-92536102D01*
X138251241Y-92535467D01*
X138297869Y-92534655D01*
X138322827Y-92533709D01*
X138325954Y-92533233D01*
X138326231Y-92530306D01*
X138893743Y-92530306D01*
X139267213Y-92533484D01*
X139640683Y-92536662D01*
X139646813Y-92505804D01*
X139648647Y-92486995D01*
X139651860Y-92443207D01*
X139656301Y-92376850D01*
X139661823Y-92290331D01*
X139668277Y-92186060D01*
X139675514Y-92066446D01*
X139683386Y-91933896D01*
X139691744Y-91790820D01*
X139700439Y-91639626D01*
X139702465Y-91604049D01*
X139711322Y-91448986D01*
X139719926Y-91299668D01*
X139728120Y-91158750D01*
X139735745Y-91028888D01*
X139742643Y-90912737D01*
X139748658Y-90812953D01*
X139753630Y-90732192D01*
X139757403Y-90673108D01*
X139759817Y-90638357D01*
X139760052Y-90635411D01*
X139768117Y-90537670D01*
X139423506Y-90606560D01*
X139330338Y-90625681D01*
X139246723Y-90643795D01*
X139176226Y-90660049D01*
X139122413Y-90673595D01*
X139088849Y-90683581D01*
X139078895Y-90688738D01*
X139079893Y-90693006D01*
X139084895Y-90695742D01*
X139096913Y-90696648D01*
X139118957Y-90695427D01*
X139154039Y-90691780D01*
X139205170Y-90685409D01*
X139275363Y-90676016D01*
X139367627Y-90663304D01*
X139445768Y-90652436D01*
X139668635Y-90621394D01*
X139668573Y-90690988D01*
X139667821Y-90716718D01*
X139665675Y-90767296D01*
X139662264Y-90840182D01*
X139657715Y-90932838D01*
X139652158Y-91042724D01*
X139645721Y-91167300D01*
X139638534Y-91304028D01*
X139630724Y-91450368D01*
X139622421Y-91603780D01*
X139620571Y-91637689D01*
X139612247Y-91790032D01*
X139604382Y-91934099D01*
X139597101Y-92067584D01*
X139590529Y-92188184D01*
X139584792Y-92293595D01*
X139580014Y-92381512D01*
X139576322Y-92449630D01*
X139573841Y-92495647D01*
X139572695Y-92517256D01*
X139572631Y-92518632D01*
X139559532Y-92519837D01*
X139522695Y-92521205D01*
X139465810Y-92522653D01*
X139392568Y-92524095D01*
X139306660Y-92525448D01*
X139233187Y-92526387D01*
X138893743Y-92530306D01*
X138326231Y-92530306D01*
X138327357Y-92518389D01*
X138330113Y-92479081D01*
X138334058Y-92418114D01*
X138339030Y-92338295D01*
X138344869Y-92242429D01*
X138351412Y-92133322D01*
X138358497Y-92013780D01*
X138365963Y-91886608D01*
X138373648Y-91754613D01*
X138381390Y-91620601D01*
X138389027Y-91487376D01*
X138396397Y-91357746D01*
X138403340Y-91234516D01*
X138409692Y-91120491D01*
X138415292Y-91018478D01*
X138419978Y-90931282D01*
X138423589Y-90861710D01*
X138425963Y-90812566D01*
X138426937Y-90786658D01*
X138426862Y-90783300D01*
X138412787Y-90784393D01*
X138377168Y-90790386D01*
X138325229Y-90800189D01*
X138262194Y-90812710D01*
X138193286Y-90826858D01*
X138123730Y-90841543D01*
X138058750Y-90855673D01*
X138003568Y-90868158D01*
X137963410Y-90877907D01*
X137943498Y-90883827D01*
X137942378Y-90884482D01*
X137938927Y-90892789D01*
X137950786Y-90897265D01*
X137980622Y-90897891D01*
X138031101Y-90894652D01*
X138104891Y-90887528D01*
X138145424Y-90883159D01*
X138215624Y-90875951D01*
X138275669Y-90870768D01*
X138320516Y-90867970D01*
X138345117Y-90867917D01*
X138348124Y-90868706D01*
X138348321Y-90882841D01*
X138347157Y-90921441D01*
X138344782Y-90981587D01*
X138341346Y-91060355D01*
X138337000Y-91154823D01*
X138331894Y-91262071D01*
X138326177Y-91379177D01*
X138320000Y-91503217D01*
X138313513Y-91631272D01*
X138306865Y-91760418D01*
X138300208Y-91887734D01*
X138293691Y-92010299D01*
X138287464Y-92125190D01*
X138281677Y-92229485D01*
X138276481Y-92320264D01*
X138272025Y-92394603D01*
X138268459Y-92449581D01*
X138265935Y-92482277D01*
X138264817Y-92490417D01*
X138251194Y-92491749D01*
X138214380Y-92494428D01*
X138158564Y-92498174D01*
X138087937Y-92502707D01*
X138006689Y-92507746D01*
X137995706Y-92508415D01*
X137913060Y-92513715D01*
X137840189Y-92518913D01*
X137781367Y-92523662D01*
X137740870Y-92527613D01*
X137722975Y-92530418D01*
X137722551Y-92530659D01*
X137249710Y-92530659D01*
X137293655Y-91806344D01*
X137302107Y-91666084D01*
X137310015Y-91533026D01*
X137317225Y-91409886D01*
X137323582Y-91299380D01*
X137328934Y-91204222D01*
X137333126Y-91127129D01*
X137336005Y-91070817D01*
X137337416Y-91038000D01*
X137337533Y-91031794D01*
X137335188Y-91002006D01*
X137323283Y-90992114D01*
X137293286Y-90995206D01*
X137292529Y-90995338D01*
X137239085Y-91005702D01*
X137176204Y-91019502D01*
X137109206Y-91035365D01*
X137043414Y-91051920D01*
X136984149Y-91067796D01*
X136936731Y-91081619D01*
X136906485Y-91092020D01*
X136898225Y-91096981D01*
X136910011Y-91103072D01*
X136938790Y-91102512D01*
X136942799Y-91101963D01*
X136975452Y-91097434D01*
X137026996Y-91090646D01*
X137089096Y-91082686D01*
X137127950Y-91077800D01*
X137268527Y-91060262D01*
X137268527Y-91101197D01*
X137267800Y-91127448D01*
X137265735Y-91176350D01*
X137262507Y-91244722D01*
X137258292Y-91329382D01*
X137253264Y-91427148D01*
X137247598Y-91534840D01*
X137241471Y-91649277D01*
X137235055Y-91767275D01*
X137228528Y-91885656D01*
X137222064Y-92001236D01*
X137215837Y-92110835D01*
X137210024Y-92211271D01*
X137204798Y-92299363D01*
X137200336Y-92371930D01*
X137196812Y-92425790D01*
X137194402Y-92457761D01*
X137193446Y-92465452D01*
X137178969Y-92468961D01*
X137142445Y-92475431D01*
X137088990Y-92484016D01*
X137023721Y-92493870D01*
X137005867Y-92496474D01*
X136936646Y-92506663D01*
X136876204Y-92515861D01*
X136830262Y-92523175D01*
X136804540Y-92527714D01*
X136802221Y-92528237D01*
X135565203Y-92528237D01*
X135572497Y-92409799D01*
X135576033Y-92346367D01*
X135580078Y-92264092D01*
X135584240Y-92171547D01*
X135588124Y-92077304D01*
X135589950Y-92029211D01*
X135592706Y-91932777D01*
X135593024Y-91863279D01*
X135591080Y-91820348D01*
X135587050Y-91803615D01*
X135581109Y-91812710D01*
X135573433Y-91847264D01*
X135564196Y-91906908D01*
X135553575Y-91991273D01*
X135541744Y-92099990D01*
X135537824Y-92138930D01*
X135505930Y-92461230D01*
X134220274Y-92464729D01*
X132934618Y-92468228D01*
X132934618Y-92500159D01*
X132645159Y-92500159D01*
X132635718Y-92468228D01*
X132632137Y-92456115D01*
X132538372Y-92051194D01*
X132509488Y-91880282D01*
X132785529Y-91880282D01*
X132794774Y-91901917D01*
X132796758Y-91905095D01*
X132801938Y-91907781D01*
X132814130Y-91908881D01*
X132834774Y-91908171D01*
X132865311Y-91905429D01*
X132907183Y-91900432D01*
X132961828Y-91892957D01*
X133030688Y-91882781D01*
X133115204Y-91869682D01*
X133216815Y-91853436D01*
X133336964Y-91833822D01*
X133477089Y-91810615D01*
X133638632Y-91783594D01*
X133823033Y-91752535D01*
X134031733Y-91717216D01*
X134240041Y-91681854D01*
X134526025Y-91633312D01*
X134785770Y-91589346D01*
X135020064Y-91549827D01*
X135229692Y-91514628D01*
X135415440Y-91483618D01*
X135578093Y-91456671D01*
X135718438Y-91433656D01*
X135837259Y-91414446D01*
X135935344Y-91398911D01*
X136013476Y-91386922D01*
X136072443Y-91378352D01*
X136113030Y-91373072D01*
X136136023Y-91370952D01*
X136138500Y-91370895D01*
X136143882Y-91374719D01*
X136148186Y-91387902D01*
X136151524Y-91413014D01*
X136154008Y-91452622D01*
X136155748Y-91509297D01*
X136156855Y-91585606D01*
X136157442Y-91684118D01*
X136157620Y-91807403D01*
X136157620Y-91812058D01*
X136157883Y-91918441D01*
X136158629Y-92015057D01*
X136159793Y-92098754D01*
X136161311Y-92166382D01*
X136163119Y-92214787D01*
X136165151Y-92240819D01*
X136166462Y-92244379D01*
X136169726Y-92229062D01*
X136174900Y-92189683D01*
X136181644Y-92129518D01*
X136189618Y-92051842D01*
X136198481Y-91959930D01*
X136207892Y-91857059D01*
X136214124Y-91786073D01*
X136223507Y-91676642D01*
X136232093Y-91574960D01*
X136239600Y-91484515D01*
X136245742Y-91408793D01*
X136250234Y-91351283D01*
X136252794Y-91315473D01*
X136253285Y-91305750D01*
X136248691Y-91283948D01*
X136229017Y-91275695D01*
X136210305Y-91274891D01*
X136191188Y-91277207D01*
X136147066Y-91283922D01*
X136079952Y-91294689D01*
X135991857Y-91309160D01*
X135884793Y-91326989D01*
X135760771Y-91347827D01*
X135621803Y-91371326D01*
X135469901Y-91397141D01*
X135307076Y-91424922D01*
X135135340Y-91454323D01*
X134956704Y-91484995D01*
X134773181Y-91516592D01*
X134586782Y-91548766D01*
X134399518Y-91581169D01*
X134213402Y-91613454D01*
X134030444Y-91645273D01*
X133852657Y-91676279D01*
X133682052Y-91706125D01*
X133520641Y-91734462D01*
X133370436Y-91760944D01*
X133233447Y-91785222D01*
X133111688Y-91806950D01*
X133007168Y-91825780D01*
X132921901Y-91841363D01*
X132857898Y-91853354D01*
X132828328Y-91859121D01*
X132795339Y-91868018D01*
X132785529Y-91880282D01*
X132509488Y-91880282D01*
X132468842Y-91639777D01*
X132424054Y-91222885D01*
X132404516Y-90801539D01*
X132410734Y-90376761D01*
X132443216Y-89949571D01*
X132502468Y-89520992D01*
X132516519Y-89440999D01*
X132544736Y-89298527D01*
X132580211Y-89139598D01*
X132620633Y-88973460D01*
X132663693Y-88809364D01*
X132707081Y-88656559D01*
X132735564Y-88563910D01*
X132761502Y-88484793D01*
X132782239Y-88427408D01*
X132799924Y-88387060D01*
X132816708Y-88359055D01*
X132834743Y-88338699D01*
X132841466Y-88332749D01*
X132877122Y-88308159D01*
X132911410Y-88300887D01*
X132937915Y-88302946D01*
G37*
D12*
%TO.C,J7*%
X100840000Y-66630000D02*
X106620000Y-66630000D01*
X100840000Y-67750000D02*
X106620000Y-67750000D01*
X100840000Y-72850000D02*
X106620000Y-72850000D01*
X100840000Y-73370000D02*
X100840000Y-66630000D01*
X102160000Y-73370000D02*
X100840000Y-73370000D01*
X106620000Y-66630000D02*
X106620000Y-73370000D01*
X106620000Y-73370000D02*
X102760000Y-73370000D01*
X102900000Y-73980000D02*
X102020000Y-73980000D01*
X102460000Y-73370000D01*
X102900000Y-73980000D01*
G36*
X102900000Y-73980000D02*
G01*
X102020000Y-73980000D01*
X102460000Y-73370000D01*
X102900000Y-73980000D01*
G37*
%TD*%
M02*
