%TF.GenerationSoftware,KiCad,Pcbnew,9.0.7*%
%TF.CreationDate,2026-02-16T17:26:14+11:00*%
%TF.ProjectId,BackPlane,4261636b-506c-4616-9e65-2e6b69636164,rev?*%
%TF.SameCoordinates,Original*%
%TF.FileFunction,Copper,L2,Bot*%
%TF.FilePolarity,Positive*%
%FSLAX46Y46*%
G04 Gerber Fmt 4.6, Leading zero omitted, Abs format (unit mm)*
G04 Created by KiCad (PCBNEW 9.0.7) date 2026-02-16 17:26:14*
%MOMM*%
%LPD*%
G01*
G04 APERTURE LIST*
G04 Aperture macros list*
%AMRoundRect*
0 Rectangle with rounded corners*
0 $1 Rounding radius*
0 $2 $3 $4 $5 $6 $7 $8 $9 X,Y pos of 4 corners*
0 Add a 4 corners polygon primitive as box body*
4,1,4,$2,$3,$4,$5,$6,$7,$8,$9,$2,$3,0*
0 Add four circle primitives for the rounded corners*
1,1,$1+$1,$2,$3*
1,1,$1+$1,$4,$5*
1,1,$1+$1,$6,$7*
1,1,$1+$1,$8,$9*
0 Add four rect primitives between the rounded corners*
20,1,$1+$1,$2,$3,$4,$5,0*
20,1,$1+$1,$4,$5,$6,$7,0*
20,1,$1+$1,$6,$7,$8,$9,0*
20,1,$1+$1,$8,$9,$2,$3,0*%
G04 Aperture macros list end*
%TA.AperFunction,ComponentPad*%
%ADD10C,4.000000*%
%TD*%
%TA.AperFunction,ComponentPad*%
%ADD11R,1.600000X1.600000*%
%TD*%
%TA.AperFunction,ComponentPad*%
%ADD12C,1.600000*%
%TD*%
%TA.AperFunction,ComponentPad*%
%ADD13C,1.498600*%
%TD*%
%TA.AperFunction,ComponentPad*%
%ADD14RoundRect,0.250001X-0.799999X-0.799999X0.799999X-0.799999X0.799999X0.799999X-0.799999X0.799999X0*%
%TD*%
%TA.AperFunction,ComponentPad*%
%ADD15C,2.100000*%
%TD*%
%TA.AperFunction,ViaPad*%
%ADD16C,0.600000*%
%TD*%
%TA.AperFunction,Conductor*%
%ADD17C,0.200000*%
%TD*%
%TA.AperFunction,Conductor*%
%ADD18C,0.600000*%
%TD*%
G04 APERTURE END LIST*
D10*
%TO.P,J1,0*%
%TO.N,N/C*%
X182580000Y-148345000D03*
X182580000Y-123345000D03*
D11*
%TO.P,J1,1,1*%
%TO.N,unconnected-(J1-Pad1)*%
X181160000Y-130305000D03*
D12*
%TO.P,J1,2,2*%
%TO.N,Net-(J1-Pad2)*%
X181160000Y-133075000D03*
%TO.P,J1,3,3*%
%TO.N,GND*%
X181160000Y-135845000D03*
%TO.P,J1,4,4*%
%TO.N,unconnected-(J1-Pad4)*%
X181160000Y-138615000D03*
%TO.P,J1,5,5*%
%TO.N,unconnected-(J1-Pad5)*%
X181160000Y-141385000D03*
%TO.P,J1,6,6*%
%TO.N,+5V*%
X184000000Y-131690000D03*
%TO.P,J1,7,7*%
%TO.N,Net-(J1-Pad7)*%
X184000000Y-134460000D03*
%TO.P,J1,8,8*%
%TO.N,unconnected-(J1-Pad8)*%
X184000000Y-137230000D03*
%TO.P,J1,9,9*%
%TO.N,unconnected-(J1-Pad9)*%
X184000000Y-140000000D03*
%TD*%
D10*
%TO.P,J4,0*%
%TO.N,N/C*%
X122520000Y-148345000D03*
X122520000Y-123345000D03*
D11*
%TO.P,J4,1,1*%
%TO.N,unconnected-(J4-Pad1)*%
X121100000Y-130305000D03*
D12*
%TO.P,J4,2,2*%
%TO.N,Net-(J1-Pad2)*%
X121100000Y-133075000D03*
%TO.P,J4,3,3*%
%TO.N,GND*%
X121100000Y-135845000D03*
%TO.P,J4,4,4*%
%TO.N,unconnected-(J4-Pad4)*%
X121100000Y-138615000D03*
%TO.P,J4,5,5*%
%TO.N,unconnected-(J4-Pad5)*%
X121100000Y-141385000D03*
%TO.P,J4,6,6*%
%TO.N,+5V*%
X123940000Y-131690000D03*
%TO.P,J4,7,7*%
%TO.N,Net-(J1-Pad7)*%
X123940000Y-134460000D03*
%TO.P,J4,8,8*%
%TO.N,unconnected-(J4-Pad8)*%
X123940000Y-137230000D03*
%TO.P,J4,9,9*%
%TO.N,unconnected-(J4-Pad9)*%
X123940000Y-140000000D03*
%TD*%
D13*
%TO.P,J9,1,1*%
%TO.N,unconnected-(J9-Pad1)*%
X129460000Y-77510331D03*
%TO.P,J9,2,2*%
%TO.N,Net-(J1-Pad2)*%
X132230000Y-77510331D03*
%TO.P,J9,3,3*%
%TO.N,GND*%
X134999999Y-77510331D03*
%TO.P,J9,4,4*%
%TO.N,unconnected-(J9-Pad4)*%
X137769999Y-77510331D03*
%TO.P,J9,5,5*%
%TO.N,unconnected-(J9-Pad5)*%
X140539998Y-77510331D03*
%TO.P,J9,6,6*%
%TO.N,unconnected-(J9-Pad6)*%
X130844998Y-74970331D03*
%TO.P,J9,7,7*%
%TO.N,Net-(J1-Pad7)*%
X133614998Y-74970331D03*
%TO.P,J9,8,8*%
%TO.N,unconnected-(J9-Pad8)*%
X136384998Y-74970331D03*
%TO.P,J9,9,9*%
%TO.N,unconnected-(J9-Pad9)*%
X139154997Y-74970331D03*
%TD*%
D10*
%TO.P,J5,0*%
%TO.N,N/C*%
X102500000Y-148345000D03*
X102500000Y-123345000D03*
D11*
%TO.P,J5,1,1*%
%TO.N,unconnected-(J5-Pad1)*%
X101080000Y-130305000D03*
D12*
%TO.P,J5,2,2*%
%TO.N,Net-(J1-Pad2)*%
X101080000Y-133075000D03*
%TO.P,J5,3,3*%
%TO.N,GND*%
X101080000Y-135845000D03*
%TO.P,J5,4,4*%
%TO.N,unconnected-(J5-Pad4)*%
X101080000Y-138615000D03*
%TO.P,J5,5,5*%
%TO.N,unconnected-(J5-Pad5)*%
X101080000Y-141385000D03*
%TO.P,J5,6,6*%
%TO.N,+5V*%
X103920000Y-131690000D03*
%TO.P,J5,7,7*%
%TO.N,Net-(J1-Pad7)*%
X103920000Y-134460000D03*
%TO.P,J5,8,8*%
%TO.N,unconnected-(J5-Pad8)*%
X103920000Y-137230000D03*
%TO.P,J5,9,9*%
%TO.N,unconnected-(J5-Pad9)*%
X103920000Y-140000000D03*
%TD*%
D10*
%TO.P,J2,0*%
%TO.N,N/C*%
X162560000Y-148345000D03*
X162560000Y-123345000D03*
D11*
%TO.P,J2,1,1*%
%TO.N,unconnected-(J2-Pad1)*%
X161140000Y-130305000D03*
D12*
%TO.P,J2,2,2*%
%TO.N,Net-(J1-Pad2)*%
X161140000Y-133075000D03*
%TO.P,J2,3,3*%
%TO.N,GND*%
X161140000Y-135845000D03*
%TO.P,J2,4,4*%
%TO.N,unconnected-(J2-Pad4)*%
X161140000Y-138615000D03*
%TO.P,J2,5,5*%
%TO.N,unconnected-(J2-Pad5)*%
X161140000Y-141385000D03*
%TO.P,J2,6,6*%
%TO.N,+5V*%
X163980000Y-131690000D03*
%TO.P,J2,7,7*%
%TO.N,Net-(J1-Pad7)*%
X163980000Y-134460000D03*
%TO.P,J2,8,8*%
%TO.N,unconnected-(J2-Pad8)*%
X163980000Y-137230000D03*
%TO.P,J2,9,9*%
%TO.N,unconnected-(J2-Pad9)*%
X163980000Y-140000000D03*
%TD*%
D13*
%TO.P,J8,1,1*%
%TO.N,unconnected-(J8-Pad1)*%
X162460000Y-77510331D03*
%TO.P,J8,2,2*%
%TO.N,Net-(J1-Pad2)*%
X165230000Y-77510331D03*
%TO.P,J8,3,3*%
%TO.N,GND*%
X167999999Y-77510331D03*
%TO.P,J8,4,4*%
%TO.N,unconnected-(J8-Pad4)*%
X170769999Y-77510331D03*
%TO.P,J8,5,5*%
%TO.N,unconnected-(J8-Pad5)*%
X173539998Y-77510331D03*
%TO.P,J8,6,6*%
%TO.N,unconnected-(J8-Pad6)*%
X163844998Y-74970331D03*
%TO.P,J8,7,7*%
%TO.N,Net-(J1-Pad7)*%
X166614998Y-74970331D03*
%TO.P,J8,8,8*%
%TO.N,unconnected-(J8-Pad8)*%
X169384998Y-74970331D03*
%TO.P,J8,9,9*%
%TO.N,unconnected-(J8-Pad9)*%
X172154997Y-74970331D03*
%TD*%
D10*
%TO.P,J3,0*%
%TO.N,N/C*%
X142540000Y-148345000D03*
X142540000Y-123345000D03*
D11*
%TO.P,J3,1,1*%
%TO.N,unconnected-(J3-Pad1)*%
X141120000Y-130305000D03*
D12*
%TO.P,J3,2,2*%
%TO.N,Net-(J1-Pad2)*%
X141120000Y-133075000D03*
%TO.P,J3,3,3*%
%TO.N,GND*%
X141120000Y-135845000D03*
%TO.P,J3,4,4*%
%TO.N,unconnected-(J3-Pad4)*%
X141120000Y-138615000D03*
%TO.P,J3,5,5*%
%TO.N,unconnected-(J3-Pad5)*%
X141120000Y-141385000D03*
%TO.P,J3,6,6*%
%TO.N,+5V*%
X143960000Y-131690000D03*
%TO.P,J3,7,7*%
%TO.N,Net-(J1-Pad7)*%
X143960000Y-134460000D03*
%TO.P,J3,8,8*%
%TO.N,unconnected-(J3-Pad8)*%
X143960000Y-137230000D03*
%TO.P,J3,9,9*%
%TO.N,unconnected-(J3-Pad9)*%
X143960000Y-140000000D03*
%TD*%
D14*
%TO.P,J7,1,Pin_1*%
%TO.N,GND*%
X102460000Y-70000000D03*
D15*
%TO.P,J7,2,Pin_2*%
%TO.N,+5V*%
X105000000Y-70000000D03*
%TD*%
D16*
%TO.N,Net-(J1-Pad2)*%
X138500000Y-103000000D03*
X107500000Y-103014069D03*
X125500000Y-103000000D03*
X131000000Y-103000000D03*
X98500000Y-129000000D03*
X158000000Y-103000000D03*
X165000000Y-103000000D03*
X106527000Y-129000000D03*
%TO.N,Net-(J1-Pad7)*%
X166000000Y-102472000D03*
X106500000Y-102472000D03*
X164000000Y-102472000D03*
X126500000Y-102472000D03*
X159000000Y-102472000D03*
X139500000Y-102472000D03*
X130000000Y-102472000D03*
%TO.N,+5V*%
X108500000Y-73500000D03*
X101000000Y-109500000D03*
X103000000Y-107500000D03*
X102000000Y-108500000D03*
X104000000Y-106500000D03*
%TD*%
D17*
%TO.N,Net-(J1-Pad2)*%
X165500000Y-111000000D02*
X179500000Y-125000000D01*
X98500000Y-131500000D02*
X98500000Y-129000000D01*
X126000000Y-103500000D02*
X126000000Y-127000000D01*
X158000000Y-103000000D02*
X158500000Y-103500000D01*
X131000000Y-102718705D02*
X131000000Y-103000000D01*
X100000000Y-133000000D02*
X98500000Y-131500000D01*
X165000000Y-103000000D02*
X165500000Y-103500000D01*
X179500000Y-131500000D02*
X181075000Y-133075000D01*
X163528000Y-79212331D02*
X165230000Y-77510331D01*
X158500000Y-103500000D02*
X158500000Y-130435000D01*
X131028000Y-102690705D02*
X131000000Y-102718705D01*
X165000000Y-102500000D02*
X163528000Y-101028000D01*
X131028000Y-78712331D02*
X131028000Y-102690705D01*
X106500000Y-104014069D02*
X106500000Y-128973000D01*
X119000000Y-130975000D02*
X121100000Y-133075000D01*
X181075000Y-133075000D02*
X181160000Y-133075000D01*
X107500000Y-103014069D02*
X106500000Y-104014069D01*
X165000000Y-103000000D02*
X165000000Y-102500000D01*
X179500000Y-130042500D02*
X179500000Y-131500000D01*
X120000000Y-128500000D02*
X119000000Y-129500000D01*
X139000000Y-130955000D02*
X141120000Y-133075000D01*
X106500000Y-128973000D02*
X106527000Y-129000000D01*
X179542500Y-130000000D02*
X179500000Y-130042500D01*
X179500000Y-130000000D02*
X179542500Y-130000000D01*
X163528000Y-101028000D02*
X163528000Y-79212331D01*
X119000000Y-129500000D02*
X119000000Y-130975000D01*
X126000000Y-127000000D02*
X124500000Y-128500000D01*
X158500000Y-130435000D02*
X161140000Y-133075000D01*
X132230000Y-77510331D02*
X131028000Y-78712331D01*
X124500000Y-128500000D02*
X120000000Y-128500000D01*
X138500000Y-103000000D02*
X139000000Y-103500000D01*
X125500000Y-103000000D02*
X126000000Y-103500000D01*
X139000000Y-103500000D02*
X139000000Y-130955000D01*
X179500000Y-125000000D02*
X179500000Y-130000000D01*
X101080000Y-133075000D02*
X101005000Y-133000000D01*
X101005000Y-133000000D02*
X100000000Y-133000000D01*
X165500000Y-103500000D02*
X165500000Y-111000000D01*
%TO.N,Net-(J1-Pad7)*%
X186000000Y-132460000D02*
X184000000Y-134460000D01*
X139528000Y-102500000D02*
X139500000Y-102472000D01*
X166000000Y-132440000D02*
X166000000Y-131000000D01*
X163000000Y-101245291D02*
X163000000Y-84000000D01*
X130500000Y-101972000D02*
X130500000Y-83000000D01*
X166000000Y-110500000D02*
X186000000Y-130500000D01*
X130944669Y-72000000D02*
X133615000Y-74670331D01*
X126528000Y-131872000D02*
X126528000Y-102500000D01*
X166000000Y-131000000D02*
X159028000Y-124028000D01*
X126528000Y-102500000D02*
X126500000Y-102472000D01*
X160500000Y-81500000D02*
X160500000Y-73000000D01*
X130000000Y-102472000D02*
X130500000Y-101972000D01*
X130000000Y-72000000D02*
X130944669Y-72000000D01*
X127500000Y-80000000D02*
X127500000Y-74500000D01*
X186000000Y-130500000D02*
X186000000Y-132460000D01*
X166000000Y-102472000D02*
X166000000Y-110500000D01*
X159028000Y-124028000D02*
X159028000Y-102500000D01*
X106000000Y-132380000D02*
X103920000Y-134460000D01*
X139500000Y-124500000D02*
X139528000Y-124472000D01*
X163980000Y-134460000D02*
X166000000Y-132440000D01*
X164000000Y-102472000D02*
X164000000Y-102245291D01*
X127500000Y-74500000D02*
X130000000Y-72000000D01*
X130500000Y-83000000D02*
X127500000Y-80000000D01*
X106000000Y-102972000D02*
X106000000Y-132380000D01*
X143960000Y-134460000D02*
X146000000Y-132420000D01*
X161500000Y-72000000D02*
X164000000Y-72000000D01*
X106500000Y-102472000D02*
X106000000Y-102972000D01*
X163000000Y-84000000D02*
X160500000Y-81500000D01*
X159028000Y-102500000D02*
X159000000Y-102472000D01*
X164000000Y-72055331D02*
X166615000Y-74670331D01*
X164000000Y-102245291D02*
X163000000Y-101245291D01*
X160500000Y-73000000D02*
X161500000Y-72000000D01*
X146000000Y-132420000D02*
X146000000Y-131000000D01*
X146000000Y-131000000D02*
X139500000Y-124500000D01*
X164000000Y-72000000D02*
X164000000Y-72055331D01*
X139528000Y-124472000D02*
X139528000Y-102500000D01*
X123940000Y-134460000D02*
X126528000Y-131872000D01*
D18*
%TO.N,+5V*%
X106000000Y-69000000D02*
X105000000Y-70000000D01*
X104000000Y-106500000D02*
X104000000Y-78000000D01*
X105000000Y-71000000D02*
X99000000Y-77000000D01*
X107000000Y-69000000D02*
X106000000Y-69000000D01*
X108000000Y-70000000D02*
X107000000Y-69000000D01*
X99000000Y-77000000D02*
X99000000Y-124500000D01*
X107000000Y-72000000D02*
X107000000Y-70500000D01*
X105000000Y-70000000D02*
X106000000Y-71000000D01*
X107000000Y-70500000D02*
X106500000Y-70000000D01*
X103000000Y-77500000D02*
X108000000Y-72500000D01*
X102000000Y-108500000D02*
X102000000Y-77000000D01*
X106500000Y-70000000D02*
X105000000Y-70000000D01*
X99000000Y-124500000D02*
X103920000Y-129420000D01*
X103920000Y-129420000D02*
X103920000Y-131690000D01*
X103000000Y-107500000D02*
X103000000Y-77500000D01*
X108000000Y-72500000D02*
X108000000Y-70000000D01*
X106000000Y-71500000D02*
X101000000Y-76500000D01*
X102000000Y-77000000D02*
X107000000Y-72000000D01*
X106000000Y-71000000D02*
X106000000Y-71500000D01*
X101000000Y-76500000D02*
X101000000Y-109500000D01*
X104000000Y-78000000D02*
X108500000Y-73500000D01*
X105000000Y-70000000D02*
X105000000Y-71000000D01*
%TD*%
%TA.AperFunction,Conductor*%
%TO.N,GND*%
G36*
X188442539Y-64520185D02*
G01*
X188488294Y-64572989D01*
X188499500Y-64624500D01*
X188499500Y-163375500D01*
X188479815Y-163442539D01*
X188427011Y-163488294D01*
X188375500Y-163499500D01*
X89624500Y-163499500D01*
X89557461Y-163479815D01*
X89511706Y-163427011D01*
X89500500Y-163375500D01*
X89500500Y-157837106D01*
X91599500Y-157837106D01*
X91599500Y-158162893D01*
X91635974Y-158486604D01*
X91635976Y-158486620D01*
X91708467Y-158804226D01*
X91708471Y-158804238D01*
X91816066Y-159111725D01*
X91957413Y-159405234D01*
X91957415Y-159405237D01*
X92130739Y-159681081D01*
X92333857Y-159935783D01*
X92564217Y-160166143D01*
X92818919Y-160369261D01*
X93094763Y-160542585D01*
X93388278Y-160683935D01*
X93619217Y-160764744D01*
X93695761Y-160791528D01*
X93695773Y-160791532D01*
X94013383Y-160864024D01*
X94337106Y-160900499D01*
X94337107Y-160900500D01*
X94337111Y-160900500D01*
X94662893Y-160900500D01*
X94662893Y-160900499D01*
X94986617Y-160864024D01*
X95304227Y-160791532D01*
X95611722Y-160683935D01*
X95905237Y-160542585D01*
X96181081Y-160369261D01*
X96435783Y-160166143D01*
X96666143Y-159935783D01*
X96869261Y-159681081D01*
X97042585Y-159405237D01*
X97183935Y-159111722D01*
X97291532Y-158804227D01*
X97364024Y-158486617D01*
X97400500Y-158162889D01*
X97400500Y-157837111D01*
X97400499Y-157837106D01*
X179599500Y-157837106D01*
X179599500Y-158162893D01*
X179635974Y-158486604D01*
X179635976Y-158486620D01*
X179708467Y-158804226D01*
X179708471Y-158804238D01*
X179816066Y-159111725D01*
X179957413Y-159405234D01*
X179957415Y-159405237D01*
X180130739Y-159681081D01*
X180333857Y-159935783D01*
X180564217Y-160166143D01*
X180818919Y-160369261D01*
X181094763Y-160542585D01*
X181388278Y-160683935D01*
X181619217Y-160764744D01*
X181695761Y-160791528D01*
X181695773Y-160791532D01*
X182013383Y-160864024D01*
X182337106Y-160900499D01*
X182337107Y-160900500D01*
X182337111Y-160900500D01*
X182662893Y-160900500D01*
X182662893Y-160900499D01*
X182986617Y-160864024D01*
X183304227Y-160791532D01*
X183611722Y-160683935D01*
X183905237Y-160542585D01*
X184181081Y-160369261D01*
X184435783Y-160166143D01*
X184666143Y-159935783D01*
X184869261Y-159681081D01*
X185042585Y-159405237D01*
X185183935Y-159111722D01*
X185291532Y-158804227D01*
X185364024Y-158486617D01*
X185400500Y-158162889D01*
X185400500Y-157837111D01*
X185364024Y-157513383D01*
X185291532Y-157195773D01*
X185183935Y-156888278D01*
X185042585Y-156594763D01*
X184869261Y-156318919D01*
X184666143Y-156064217D01*
X184435783Y-155833857D01*
X184181081Y-155630739D01*
X183905237Y-155457415D01*
X183905234Y-155457413D01*
X183611725Y-155316066D01*
X183304238Y-155208471D01*
X183304226Y-155208467D01*
X182986620Y-155135976D01*
X182986604Y-155135974D01*
X182662893Y-155099500D01*
X182662889Y-155099500D01*
X182337111Y-155099500D01*
X182337107Y-155099500D01*
X182013395Y-155135974D01*
X182013379Y-155135976D01*
X181695773Y-155208467D01*
X181695761Y-155208471D01*
X181388274Y-155316066D01*
X181094765Y-155457413D01*
X180818920Y-155630738D01*
X180564217Y-155833856D01*
X180333856Y-156064217D01*
X180130738Y-156318920D01*
X179957413Y-156594765D01*
X179816066Y-156888274D01*
X179708471Y-157195761D01*
X179708467Y-157195773D01*
X179635976Y-157513379D01*
X179635974Y-157513395D01*
X179599500Y-157837106D01*
X97400499Y-157837106D01*
X97364024Y-157513383D01*
X97291532Y-157195773D01*
X97183935Y-156888278D01*
X97042585Y-156594763D01*
X96869261Y-156318919D01*
X96666143Y-156064217D01*
X96435783Y-155833857D01*
X96181081Y-155630739D01*
X95905237Y-155457415D01*
X95905234Y-155457413D01*
X95611725Y-155316066D01*
X95304238Y-155208471D01*
X95304226Y-155208467D01*
X94986620Y-155135976D01*
X94986604Y-155135974D01*
X94662893Y-155099500D01*
X94662889Y-155099500D01*
X94337111Y-155099500D01*
X94337107Y-155099500D01*
X94013395Y-155135974D01*
X94013379Y-155135976D01*
X93695773Y-155208467D01*
X93695761Y-155208471D01*
X93388274Y-155316066D01*
X93094765Y-155457413D01*
X92818920Y-155630738D01*
X92564217Y-155833856D01*
X92333856Y-156064217D01*
X92130738Y-156318920D01*
X91957413Y-156594765D01*
X91816066Y-156888274D01*
X91708471Y-157195761D01*
X91708467Y-157195773D01*
X91635976Y-157513379D01*
X91635974Y-157513395D01*
X91599500Y-157837106D01*
X89500500Y-157837106D01*
X89500500Y-148204568D01*
X99999500Y-148204568D01*
X99999500Y-148485431D01*
X100030942Y-148764494D01*
X100030945Y-148764512D01*
X100093439Y-149038317D01*
X100093443Y-149038329D01*
X100186200Y-149303411D01*
X100308053Y-149556442D01*
X100308055Y-149556445D01*
X100457477Y-149794248D01*
X100632584Y-150013825D01*
X100831175Y-150212416D01*
X101050752Y-150387523D01*
X101288555Y-150536945D01*
X101541592Y-150658801D01*
X101740680Y-150728465D01*
X101806670Y-150751556D01*
X101806682Y-150751560D01*
X102080491Y-150814055D01*
X102080497Y-150814055D01*
X102080505Y-150814057D01*
X102266547Y-150835018D01*
X102359569Y-150845499D01*
X102359572Y-150845500D01*
X102359575Y-150845500D01*
X102640428Y-150845500D01*
X102640429Y-150845499D01*
X102783055Y-150829429D01*
X102919494Y-150814057D01*
X102919499Y-150814056D01*
X102919509Y-150814055D01*
X103193318Y-150751560D01*
X103458408Y-150658801D01*
X103711445Y-150536945D01*
X103949248Y-150387523D01*
X104168825Y-150212416D01*
X104367416Y-150013825D01*
X104542523Y-149794248D01*
X104691945Y-149556445D01*
X104813801Y-149303408D01*
X104906560Y-149038318D01*
X104969055Y-148764509D01*
X105000500Y-148485425D01*
X105000500Y-148204575D01*
X105000499Y-148204568D01*
X120019500Y-148204568D01*
X120019500Y-148485431D01*
X120050942Y-148764494D01*
X120050945Y-148764512D01*
X120113439Y-149038317D01*
X120113443Y-149038329D01*
X120206200Y-149303411D01*
X120328053Y-149556442D01*
X120328055Y-149556445D01*
X120477477Y-149794248D01*
X120652584Y-150013825D01*
X120851175Y-150212416D01*
X121070752Y-150387523D01*
X121308555Y-150536945D01*
X121561592Y-150658801D01*
X121760680Y-150728465D01*
X121826670Y-150751556D01*
X121826682Y-150751560D01*
X122100491Y-150814055D01*
X122100497Y-150814055D01*
X122100505Y-150814057D01*
X122286547Y-150835018D01*
X122379569Y-150845499D01*
X122379572Y-150845500D01*
X122379575Y-150845500D01*
X122660428Y-150845500D01*
X122660429Y-150845499D01*
X122803055Y-150829429D01*
X122939494Y-150814057D01*
X122939499Y-150814056D01*
X122939509Y-150814055D01*
X123213318Y-150751560D01*
X123478408Y-150658801D01*
X123731445Y-150536945D01*
X123969248Y-150387523D01*
X124188825Y-150212416D01*
X124387416Y-150013825D01*
X124562523Y-149794248D01*
X124711945Y-149556445D01*
X124833801Y-149303408D01*
X124926560Y-149038318D01*
X124989055Y-148764509D01*
X125020500Y-148485425D01*
X125020500Y-148204575D01*
X125020499Y-148204568D01*
X140039500Y-148204568D01*
X140039500Y-148485431D01*
X140070942Y-148764494D01*
X140070945Y-148764512D01*
X140133439Y-149038317D01*
X140133443Y-149038329D01*
X140226200Y-149303411D01*
X140348053Y-149556442D01*
X140348055Y-149556445D01*
X140497477Y-149794248D01*
X140672584Y-150013825D01*
X140871175Y-150212416D01*
X141090752Y-150387523D01*
X141328555Y-150536945D01*
X141581592Y-150658801D01*
X141780680Y-150728465D01*
X141846670Y-150751556D01*
X141846682Y-150751560D01*
X142120491Y-150814055D01*
X142120497Y-150814055D01*
X142120505Y-150814057D01*
X142306547Y-150835018D01*
X142399569Y-150845499D01*
X142399572Y-150845500D01*
X142399575Y-150845500D01*
X142680428Y-150845500D01*
X142680429Y-150845499D01*
X142823055Y-150829429D01*
X142959494Y-150814057D01*
X142959499Y-150814056D01*
X142959509Y-150814055D01*
X143233318Y-150751560D01*
X143498408Y-150658801D01*
X143751445Y-150536945D01*
X143989248Y-150387523D01*
X144208825Y-150212416D01*
X144407416Y-150013825D01*
X144582523Y-149794248D01*
X144731945Y-149556445D01*
X144853801Y-149303408D01*
X144946560Y-149038318D01*
X145009055Y-148764509D01*
X145040500Y-148485425D01*
X145040500Y-148204575D01*
X145040499Y-148204568D01*
X160059500Y-148204568D01*
X160059500Y-148485431D01*
X160090942Y-148764494D01*
X160090945Y-148764512D01*
X160153439Y-149038317D01*
X160153443Y-149038329D01*
X160246200Y-149303411D01*
X160368053Y-149556442D01*
X160368055Y-149556445D01*
X160517477Y-149794248D01*
X160692584Y-150013825D01*
X160891175Y-150212416D01*
X161110752Y-150387523D01*
X161348555Y-150536945D01*
X161601592Y-150658801D01*
X161800680Y-150728465D01*
X161866670Y-150751556D01*
X161866682Y-150751560D01*
X162140491Y-150814055D01*
X162140497Y-150814055D01*
X162140505Y-150814057D01*
X162326547Y-150835018D01*
X162419569Y-150845499D01*
X162419572Y-150845500D01*
X162419575Y-150845500D01*
X162700428Y-150845500D01*
X162700429Y-150845499D01*
X162843055Y-150829429D01*
X162979494Y-150814057D01*
X162979499Y-150814056D01*
X162979509Y-150814055D01*
X163253318Y-150751560D01*
X163518408Y-150658801D01*
X163771445Y-150536945D01*
X164009248Y-150387523D01*
X164228825Y-150212416D01*
X164427416Y-150013825D01*
X164602523Y-149794248D01*
X164751945Y-149556445D01*
X164873801Y-149303408D01*
X164966560Y-149038318D01*
X165029055Y-148764509D01*
X165060500Y-148485425D01*
X165060500Y-148204575D01*
X165060499Y-148204568D01*
X180079500Y-148204568D01*
X180079500Y-148485431D01*
X180110942Y-148764494D01*
X180110945Y-148764512D01*
X180173439Y-149038317D01*
X180173443Y-149038329D01*
X180266200Y-149303411D01*
X180388053Y-149556442D01*
X180388055Y-149556445D01*
X180537477Y-149794248D01*
X180712584Y-150013825D01*
X180911175Y-150212416D01*
X181130752Y-150387523D01*
X181368555Y-150536945D01*
X181621592Y-150658801D01*
X181820680Y-150728465D01*
X181886670Y-150751556D01*
X181886682Y-150751560D01*
X182160491Y-150814055D01*
X182160497Y-150814055D01*
X182160505Y-150814057D01*
X182346547Y-150835018D01*
X182439569Y-150845499D01*
X182439572Y-150845500D01*
X182439575Y-150845500D01*
X182720428Y-150845500D01*
X182720429Y-150845499D01*
X182863055Y-150829429D01*
X182999494Y-150814057D01*
X182999499Y-150814056D01*
X182999509Y-150814055D01*
X183273318Y-150751560D01*
X183538408Y-150658801D01*
X183791445Y-150536945D01*
X184029248Y-150387523D01*
X184248825Y-150212416D01*
X184447416Y-150013825D01*
X184622523Y-149794248D01*
X184771945Y-149556445D01*
X184893801Y-149303408D01*
X184986560Y-149038318D01*
X185049055Y-148764509D01*
X185080500Y-148485425D01*
X185080500Y-148204575D01*
X185049055Y-147925491D01*
X184986560Y-147651682D01*
X184893801Y-147386592D01*
X184771945Y-147133555D01*
X184622523Y-146895752D01*
X184447416Y-146676175D01*
X184248825Y-146477584D01*
X184029248Y-146302477D01*
X183791445Y-146153055D01*
X183791442Y-146153053D01*
X183538411Y-146031200D01*
X183273329Y-145938443D01*
X183273317Y-145938439D01*
X182999512Y-145875945D01*
X182999494Y-145875942D01*
X182720431Y-145844500D01*
X182720425Y-145844500D01*
X182439575Y-145844500D01*
X182439568Y-145844500D01*
X182160505Y-145875942D01*
X182160487Y-145875945D01*
X181886682Y-145938439D01*
X181886670Y-145938443D01*
X181621588Y-146031200D01*
X181368557Y-146153053D01*
X181130753Y-146302476D01*
X180911175Y-146477583D01*
X180712583Y-146676175D01*
X180537476Y-146895753D01*
X180388053Y-147133557D01*
X180266200Y-147386588D01*
X180173443Y-147651670D01*
X180173439Y-147651682D01*
X180110945Y-147925487D01*
X180110942Y-147925505D01*
X180079500Y-148204568D01*
X165060499Y-148204568D01*
X165029055Y-147925491D01*
X164966560Y-147651682D01*
X164873801Y-147386592D01*
X164751945Y-147133555D01*
X164602523Y-146895752D01*
X164427416Y-146676175D01*
X164228825Y-146477584D01*
X164009248Y-146302477D01*
X163771445Y-146153055D01*
X163771442Y-146153053D01*
X163518411Y-146031200D01*
X163253329Y-145938443D01*
X163253317Y-145938439D01*
X162979512Y-145875945D01*
X162979494Y-145875942D01*
X162700431Y-145844500D01*
X162700425Y-145844500D01*
X162419575Y-145844500D01*
X162419568Y-145844500D01*
X162140505Y-145875942D01*
X162140487Y-145875945D01*
X161866682Y-145938439D01*
X161866670Y-145938443D01*
X161601588Y-146031200D01*
X161348557Y-146153053D01*
X161110753Y-146302476D01*
X160891175Y-146477583D01*
X160692583Y-146676175D01*
X160517476Y-146895753D01*
X160368053Y-147133557D01*
X160246200Y-147386588D01*
X160153443Y-147651670D01*
X160153439Y-147651682D01*
X160090945Y-147925487D01*
X160090942Y-147925505D01*
X160059500Y-148204568D01*
X145040499Y-148204568D01*
X145009055Y-147925491D01*
X144946560Y-147651682D01*
X144853801Y-147386592D01*
X144731945Y-147133555D01*
X144582523Y-146895752D01*
X144407416Y-146676175D01*
X144208825Y-146477584D01*
X143989248Y-146302477D01*
X143751445Y-146153055D01*
X143751442Y-146153053D01*
X143498411Y-146031200D01*
X143233329Y-145938443D01*
X143233317Y-145938439D01*
X142959512Y-145875945D01*
X142959494Y-145875942D01*
X142680431Y-145844500D01*
X142680425Y-145844500D01*
X142399575Y-145844500D01*
X142399568Y-145844500D01*
X142120505Y-145875942D01*
X142120487Y-145875945D01*
X141846682Y-145938439D01*
X141846670Y-145938443D01*
X141581588Y-146031200D01*
X141328557Y-146153053D01*
X141090753Y-146302476D01*
X140871175Y-146477583D01*
X140672583Y-146676175D01*
X140497476Y-146895753D01*
X140348053Y-147133557D01*
X140226200Y-147386588D01*
X140133443Y-147651670D01*
X140133439Y-147651682D01*
X140070945Y-147925487D01*
X140070942Y-147925505D01*
X140039500Y-148204568D01*
X125020499Y-148204568D01*
X124989055Y-147925491D01*
X124926560Y-147651682D01*
X124833801Y-147386592D01*
X124711945Y-147133555D01*
X124562523Y-146895752D01*
X124387416Y-146676175D01*
X124188825Y-146477584D01*
X123969248Y-146302477D01*
X123731445Y-146153055D01*
X123731442Y-146153053D01*
X123478411Y-146031200D01*
X123213329Y-145938443D01*
X123213317Y-145938439D01*
X122939512Y-145875945D01*
X122939494Y-145875942D01*
X122660431Y-145844500D01*
X122660425Y-145844500D01*
X122379575Y-145844500D01*
X122379568Y-145844500D01*
X122100505Y-145875942D01*
X122100487Y-145875945D01*
X121826682Y-145938439D01*
X121826670Y-145938443D01*
X121561588Y-146031200D01*
X121308557Y-146153053D01*
X121070753Y-146302476D01*
X120851175Y-146477583D01*
X120652583Y-146676175D01*
X120477476Y-146895753D01*
X120328053Y-147133557D01*
X120206200Y-147386588D01*
X120113443Y-147651670D01*
X120113439Y-147651682D01*
X120050945Y-147925487D01*
X120050942Y-147925505D01*
X120019500Y-148204568D01*
X105000499Y-148204568D01*
X104969055Y-147925491D01*
X104906560Y-147651682D01*
X104813801Y-147386592D01*
X104691945Y-147133555D01*
X104542523Y-146895752D01*
X104367416Y-146676175D01*
X104168825Y-146477584D01*
X103949248Y-146302477D01*
X103711445Y-146153055D01*
X103711442Y-146153053D01*
X103458411Y-146031200D01*
X103193329Y-145938443D01*
X103193317Y-145938439D01*
X102919512Y-145875945D01*
X102919494Y-145875942D01*
X102640431Y-145844500D01*
X102640425Y-145844500D01*
X102359575Y-145844500D01*
X102359568Y-145844500D01*
X102080505Y-145875942D01*
X102080487Y-145875945D01*
X101806682Y-145938439D01*
X101806670Y-145938443D01*
X101541588Y-146031200D01*
X101288557Y-146153053D01*
X101050753Y-146302476D01*
X100831175Y-146477583D01*
X100632583Y-146676175D01*
X100457476Y-146895753D01*
X100308053Y-147133557D01*
X100186200Y-147386588D01*
X100093443Y-147651670D01*
X100093439Y-147651682D01*
X100030945Y-147925487D01*
X100030942Y-147925505D01*
X99999500Y-148204568D01*
X89500500Y-148204568D01*
X89500500Y-128921153D01*
X97699500Y-128921153D01*
X97699500Y-129078846D01*
X97730261Y-129233489D01*
X97730264Y-129233501D01*
X97790602Y-129379172D01*
X97790609Y-129379185D01*
X97878602Y-129510874D01*
X97899480Y-129577551D01*
X97899500Y-129579765D01*
X97899500Y-131413330D01*
X97899499Y-131413348D01*
X97899499Y-131579054D01*
X97899498Y-131579054D01*
X97940424Y-131731789D01*
X97940425Y-131731790D01*
X97961817Y-131768841D01*
X97961818Y-131768843D01*
X98019475Y-131868709D01*
X98019481Y-131868717D01*
X98138349Y-131987585D01*
X98138355Y-131987590D01*
X99515139Y-133364374D01*
X99515149Y-133364385D01*
X99519479Y-133368715D01*
X99519480Y-133368716D01*
X99631284Y-133480520D01*
X99631286Y-133480521D01*
X99631290Y-133480524D01*
X99768209Y-133559573D01*
X99768216Y-133559577D01*
X99829661Y-133576041D01*
X99889320Y-133612404D01*
X99908052Y-133639520D01*
X99967715Y-133756613D01*
X100088028Y-133922213D01*
X100232786Y-134066971D01*
X100354600Y-134155472D01*
X100398390Y-134187287D01*
X100580781Y-134280220D01*
X100726807Y-134327666D01*
X100771938Y-134342331D01*
X100829614Y-134381769D01*
X100856812Y-134446127D01*
X100844897Y-134514974D01*
X100797653Y-134566449D01*
X100771939Y-134578193D01*
X100580968Y-134640244D01*
X100398644Y-134733143D01*
X100354077Y-134765523D01*
X100354077Y-134765524D01*
X100950591Y-135362037D01*
X100887007Y-135379075D01*
X100772993Y-135444901D01*
X100679901Y-135537993D01*
X100614075Y-135652007D01*
X100597037Y-135715590D01*
X100000524Y-135119077D01*
X100000523Y-135119077D01*
X99968143Y-135163644D01*
X99875244Y-135345968D01*
X99812009Y-135540582D01*
X99780000Y-135742682D01*
X99780000Y-135947317D01*
X99812009Y-136149417D01*
X99875244Y-136344031D01*
X99968141Y-136526350D01*
X99968147Y-136526359D01*
X100000523Y-136570921D01*
X100000524Y-136570922D01*
X100597037Y-135974409D01*
X100614075Y-136037993D01*
X100679901Y-136152007D01*
X100772993Y-136245099D01*
X100887007Y-136310925D01*
X100950590Y-136327962D01*
X100354076Y-136924474D01*
X100398650Y-136956859D01*
X100580968Y-137049755D01*
X100771939Y-137111806D01*
X100829614Y-137151244D01*
X100856812Y-137215603D01*
X100844897Y-137284449D01*
X100797653Y-137335925D01*
X100771939Y-137347668D01*
X100580776Y-137409781D01*
X100398386Y-137502715D01*
X100232786Y-137623028D01*
X100088028Y-137767786D01*
X99967715Y-137933386D01*
X99874781Y-138115776D01*
X99811522Y-138310465D01*
X99779500Y-138512648D01*
X99779500Y-138717351D01*
X99811522Y-138919534D01*
X99874781Y-139114223D01*
X99967715Y-139296613D01*
X100088028Y-139462213D01*
X100232786Y-139606971D01*
X100387749Y-139719556D01*
X100398390Y-139727287D01*
X100514607Y-139786503D01*
X100580776Y-139820218D01*
X100580778Y-139820218D01*
X100580781Y-139820220D01*
X100659956Y-139845945D01*
X100771131Y-139882069D01*
X100828806Y-139921507D01*
X100856004Y-139985866D01*
X100844089Y-140054712D01*
X100796845Y-140106188D01*
X100771131Y-140117931D01*
X100580776Y-140179781D01*
X100398386Y-140272715D01*
X100232786Y-140393028D01*
X100088028Y-140537786D01*
X99967715Y-140703386D01*
X99874781Y-140885776D01*
X99811522Y-141080465D01*
X99779500Y-141282648D01*
X99779500Y-141487351D01*
X99811522Y-141689534D01*
X99874781Y-141884223D01*
X99967715Y-142066613D01*
X100088028Y-142232213D01*
X100232786Y-142376971D01*
X100387749Y-142489556D01*
X100398390Y-142497287D01*
X100514607Y-142556503D01*
X100580776Y-142590218D01*
X100580778Y-142590218D01*
X100580781Y-142590220D01*
X100685137Y-142624127D01*
X100775465Y-142653477D01*
X100876557Y-142669488D01*
X100977648Y-142685500D01*
X100977649Y-142685500D01*
X101182351Y-142685500D01*
X101182352Y-142685500D01*
X101384534Y-142653477D01*
X101579219Y-142590220D01*
X101761610Y-142497287D01*
X101854590Y-142429732D01*
X101927213Y-142376971D01*
X101927215Y-142376968D01*
X101927219Y-142376966D01*
X102071966Y-142232219D01*
X102071968Y-142232215D01*
X102071971Y-142232213D01*
X102124732Y-142159590D01*
X102192287Y-142066610D01*
X102285220Y-141884219D01*
X102348477Y-141689534D01*
X102380500Y-141487352D01*
X102380500Y-141282648D01*
X102348477Y-141080465D01*
X102285218Y-140885776D01*
X102251503Y-140819607D01*
X102192287Y-140703390D01*
X102176463Y-140681610D01*
X102071971Y-140537786D01*
X101927213Y-140393028D01*
X101761613Y-140272715D01*
X101761612Y-140272714D01*
X101761610Y-140272713D01*
X101704653Y-140243691D01*
X101579223Y-140179781D01*
X101388868Y-140117931D01*
X101331193Y-140078493D01*
X101303995Y-140014134D01*
X101315910Y-139945288D01*
X101363154Y-139893812D01*
X101388868Y-139882069D01*
X101431508Y-139868213D01*
X101579219Y-139820220D01*
X101761610Y-139727287D01*
X101854590Y-139659732D01*
X101927213Y-139606971D01*
X101927215Y-139606968D01*
X101927219Y-139606966D01*
X102071966Y-139462219D01*
X102071968Y-139462215D01*
X102071971Y-139462213D01*
X102124732Y-139389590D01*
X102192287Y-139296610D01*
X102285220Y-139114219D01*
X102348477Y-138919534D01*
X102380500Y-138717352D01*
X102380500Y-138512648D01*
X102379892Y-138508812D01*
X102348477Y-138310465D01*
X102285218Y-138115776D01*
X102251503Y-138049607D01*
X102192287Y-137933390D01*
X102176463Y-137911610D01*
X102071971Y-137767786D01*
X101927213Y-137623028D01*
X101761613Y-137502715D01*
X101761612Y-137502714D01*
X101761610Y-137502713D01*
X101704653Y-137473691D01*
X101579223Y-137409781D01*
X101388060Y-137347668D01*
X101330385Y-137308230D01*
X101303187Y-137243871D01*
X101315102Y-137175025D01*
X101362346Y-137123549D01*
X101388061Y-137111806D01*
X101579029Y-137049755D01*
X101761349Y-136956859D01*
X101805921Y-136924474D01*
X101209409Y-136327962D01*
X101272993Y-136310925D01*
X101387007Y-136245099D01*
X101480099Y-136152007D01*
X101545925Y-136037993D01*
X101562962Y-135974409D01*
X102159474Y-136570921D01*
X102191859Y-136526349D01*
X102284755Y-136344031D01*
X102347990Y-136149417D01*
X102380000Y-135947317D01*
X102380000Y-135742682D01*
X102347990Y-135540582D01*
X102284755Y-135345968D01*
X102191859Y-135163650D01*
X102159474Y-135119077D01*
X102159474Y-135119076D01*
X101562962Y-135715589D01*
X101545925Y-135652007D01*
X101480099Y-135537993D01*
X101387007Y-135444901D01*
X101272993Y-135379075D01*
X101209408Y-135362037D01*
X101805922Y-134765524D01*
X101805921Y-134765523D01*
X101761359Y-134733147D01*
X101761350Y-134733141D01*
X101579031Y-134640244D01*
X101388060Y-134578193D01*
X101330385Y-134538755D01*
X101303187Y-134474396D01*
X101315102Y-134405550D01*
X101362347Y-134354074D01*
X101388061Y-134342331D01*
X101579219Y-134280220D01*
X101761610Y-134187287D01*
X101854590Y-134119732D01*
X101927213Y-134066971D01*
X101927215Y-134066968D01*
X101927219Y-134066966D01*
X102071966Y-133922219D01*
X102071968Y-133922215D01*
X102071971Y-133922213D01*
X102124732Y-133849590D01*
X102192287Y-133756610D01*
X102285220Y-133574219D01*
X102348477Y-133379534D01*
X102380500Y-133177352D01*
X102380500Y-132972648D01*
X102348477Y-132770465D01*
X102302888Y-132630157D01*
X102285220Y-132575781D01*
X102285218Y-132575778D01*
X102285218Y-132575776D01*
X102246126Y-132499055D01*
X102192287Y-132393390D01*
X102148664Y-132333347D01*
X102071971Y-132227786D01*
X101927213Y-132083028D01*
X101761613Y-131962715D01*
X101761612Y-131962714D01*
X101761610Y-131962713D01*
X101704653Y-131933691D01*
X101579223Y-131869781D01*
X101542010Y-131857690D01*
X101510431Y-131847429D01*
X101452757Y-131807992D01*
X101425559Y-131743633D01*
X101437474Y-131674787D01*
X101484718Y-131623311D01*
X101548750Y-131605499D01*
X101927872Y-131605499D01*
X101987483Y-131599091D01*
X102122331Y-131548796D01*
X102237546Y-131462546D01*
X102323796Y-131347331D01*
X102374091Y-131212483D01*
X102380500Y-131152873D01*
X102380499Y-129457128D01*
X102374091Y-129397517D01*
X102367251Y-129379179D01*
X102340500Y-129307455D01*
X102335516Y-129237764D01*
X102369001Y-129176441D01*
X102430324Y-129142956D01*
X102500016Y-129147940D01*
X102544363Y-129176441D01*
X103083181Y-129715259D01*
X103116666Y-129776582D01*
X103119500Y-129802940D01*
X103119500Y-130600966D01*
X103099815Y-130668005D01*
X103076046Y-130695244D01*
X103072784Y-130698030D01*
X102928028Y-130842786D01*
X102807715Y-131008386D01*
X102714781Y-131190776D01*
X102651522Y-131385465D01*
X102625653Y-131548797D01*
X102619500Y-131587648D01*
X102619500Y-131792352D01*
X102621745Y-131806523D01*
X102651522Y-131994534D01*
X102714781Y-132189223D01*
X102807715Y-132371613D01*
X102928028Y-132537213D01*
X103072786Y-132681971D01*
X103219701Y-132788709D01*
X103238390Y-132802287D01*
X103354607Y-132861503D01*
X103420776Y-132895218D01*
X103420778Y-132895218D01*
X103420781Y-132895220D01*
X103498646Y-132920520D01*
X103611131Y-132957069D01*
X103668806Y-132996507D01*
X103696004Y-133060866D01*
X103684089Y-133129712D01*
X103636845Y-133181188D01*
X103611131Y-133192931D01*
X103420776Y-133254781D01*
X103238386Y-133347715D01*
X103072786Y-133468028D01*
X102928028Y-133612786D01*
X102807715Y-133778386D01*
X102714781Y-133960776D01*
X102651522Y-134155465D01*
X102619500Y-134357648D01*
X102619500Y-134562351D01*
X102651522Y-134764534D01*
X102714781Y-134959223D01*
X102778691Y-135084653D01*
X102796231Y-135119076D01*
X102807715Y-135141613D01*
X102928028Y-135307213D01*
X103072786Y-135451971D01*
X103191188Y-135537993D01*
X103238390Y-135572287D01*
X103346420Y-135627331D01*
X103420776Y-135665218D01*
X103420778Y-135665218D01*
X103420781Y-135665220D01*
X103499956Y-135690945D01*
X103611131Y-135727069D01*
X103668806Y-135766507D01*
X103696004Y-135830866D01*
X103684089Y-135899712D01*
X103636845Y-135951188D01*
X103611131Y-135962931D01*
X103420776Y-136024781D01*
X103238386Y-136117715D01*
X103072786Y-136238028D01*
X102928028Y-136382786D01*
X102807715Y-136548386D01*
X102714781Y-136730776D01*
X102651522Y-136925465D01*
X102619500Y-137127648D01*
X102619500Y-137332351D01*
X102651522Y-137534534D01*
X102714781Y-137729223D01*
X102807715Y-137911613D01*
X102928028Y-138077213D01*
X103072786Y-138221971D01*
X103227749Y-138334556D01*
X103238390Y-138342287D01*
X103346341Y-138397291D01*
X103420776Y-138435218D01*
X103420778Y-138435218D01*
X103420781Y-138435220D01*
X103499956Y-138460945D01*
X103611131Y-138497069D01*
X103668806Y-138536507D01*
X103696004Y-138600866D01*
X103684089Y-138669712D01*
X103636845Y-138721188D01*
X103611131Y-138732931D01*
X103420776Y-138794781D01*
X103238386Y-138887715D01*
X103072786Y-139008028D01*
X102928028Y-139152786D01*
X102807715Y-139318386D01*
X102714781Y-139500776D01*
X102651522Y-139695465D01*
X102619500Y-139897648D01*
X102619500Y-140102351D01*
X102651522Y-140304534D01*
X102714781Y-140499223D01*
X102807715Y-140681613D01*
X102928028Y-140847213D01*
X103072786Y-140991971D01*
X103227749Y-141104556D01*
X103238390Y-141112287D01*
X103354607Y-141171503D01*
X103420776Y-141205218D01*
X103420778Y-141205218D01*
X103420781Y-141205220D01*
X103525137Y-141239127D01*
X103615465Y-141268477D01*
X103704937Y-141282648D01*
X103817648Y-141300500D01*
X103817649Y-141300500D01*
X104022351Y-141300500D01*
X104022352Y-141300500D01*
X104224534Y-141268477D01*
X104419219Y-141205220D01*
X104601610Y-141112287D01*
X104694590Y-141044732D01*
X104767213Y-140991971D01*
X104767215Y-140991968D01*
X104767219Y-140991966D01*
X104911966Y-140847219D01*
X104911968Y-140847215D01*
X104911971Y-140847213D01*
X104964732Y-140774590D01*
X105032287Y-140681610D01*
X105125220Y-140499219D01*
X105188477Y-140304534D01*
X105220500Y-140102352D01*
X105220500Y-139897648D01*
X105219892Y-139893812D01*
X105188477Y-139695465D01*
X105125218Y-139500776D01*
X105091503Y-139434607D01*
X105032287Y-139318390D01*
X105016463Y-139296610D01*
X104911971Y-139152786D01*
X104767213Y-139008028D01*
X104601613Y-138887715D01*
X104601612Y-138887714D01*
X104601610Y-138887713D01*
X104544653Y-138858691D01*
X104419223Y-138794781D01*
X104228868Y-138732931D01*
X104171193Y-138693493D01*
X104143995Y-138629134D01*
X104155910Y-138560288D01*
X104203154Y-138508812D01*
X104228868Y-138497069D01*
X104271508Y-138483213D01*
X104419219Y-138435220D01*
X104601610Y-138342287D01*
X104694590Y-138274732D01*
X104767213Y-138221971D01*
X104767215Y-138221968D01*
X104767219Y-138221966D01*
X104911966Y-138077219D01*
X104911968Y-138077215D01*
X104911971Y-138077213D01*
X104964732Y-138004590D01*
X105032287Y-137911610D01*
X105125220Y-137729219D01*
X105188477Y-137534534D01*
X105220500Y-137332352D01*
X105220500Y-137127648D01*
X105188477Y-136925466D01*
X105125220Y-136730781D01*
X105125218Y-136730778D01*
X105125218Y-136730776D01*
X105091503Y-136664607D01*
X105032287Y-136548390D01*
X105016274Y-136526350D01*
X104911971Y-136382786D01*
X104767213Y-136238028D01*
X104601613Y-136117715D01*
X104601612Y-136117714D01*
X104601610Y-136117713D01*
X104544653Y-136088691D01*
X104419223Y-136024781D01*
X104228868Y-135962931D01*
X104171193Y-135923493D01*
X104143995Y-135859134D01*
X104155910Y-135790288D01*
X104203154Y-135738812D01*
X104228868Y-135727069D01*
X104271508Y-135713213D01*
X104419219Y-135665220D01*
X104601610Y-135572287D01*
X104648812Y-135537993D01*
X104767213Y-135451971D01*
X104767215Y-135451968D01*
X104767219Y-135451966D01*
X104911966Y-135307219D01*
X104911968Y-135307215D01*
X104911971Y-135307213D01*
X105016278Y-135163644D01*
X105032287Y-135141610D01*
X105125220Y-134959219D01*
X105188477Y-134764534D01*
X105220500Y-134562352D01*
X105220500Y-134357648D01*
X105219934Y-134354074D01*
X105188478Y-134155472D01*
X105188477Y-134155471D01*
X105188477Y-134155466D01*
X105183825Y-134141151D01*
X105181832Y-134071312D01*
X105214075Y-134015158D01*
X106358506Y-132870728D01*
X106358511Y-132870724D01*
X106368714Y-132860520D01*
X106368716Y-132860520D01*
X106480520Y-132748716D01*
X106548319Y-132631284D01*
X106559577Y-132611785D01*
X106600500Y-132459058D01*
X106600500Y-132300943D01*
X106600500Y-131054054D01*
X118399498Y-131054054D01*
X118408874Y-131089046D01*
X118440423Y-131206785D01*
X118440426Y-131206790D01*
X118443715Y-131212487D01*
X118519477Y-131343712D01*
X118519481Y-131343717D01*
X118638349Y-131462585D01*
X118638355Y-131462590D01*
X119805922Y-132630157D01*
X119839407Y-132691480D01*
X119836173Y-132756155D01*
X119831522Y-132770468D01*
X119799500Y-132972648D01*
X119799500Y-133177351D01*
X119831522Y-133379534D01*
X119894781Y-133574223D01*
X119987715Y-133756613D01*
X120108028Y-133922213D01*
X120252786Y-134066971D01*
X120374600Y-134155472D01*
X120418390Y-134187287D01*
X120600781Y-134280220D01*
X120746807Y-134327666D01*
X120791938Y-134342331D01*
X120849614Y-134381769D01*
X120876812Y-134446127D01*
X120864897Y-134514974D01*
X120817653Y-134566449D01*
X120791939Y-134578193D01*
X120600968Y-134640244D01*
X120418644Y-134733143D01*
X120374077Y-134765523D01*
X120374077Y-134765524D01*
X120970591Y-135362037D01*
X120907007Y-135379075D01*
X120792993Y-135444901D01*
X120699901Y-135537993D01*
X120634075Y-135652007D01*
X120617037Y-135715590D01*
X120020524Y-135119077D01*
X120020523Y-135119077D01*
X119988143Y-135163644D01*
X119895244Y-135345968D01*
X119832009Y-135540582D01*
X119800000Y-135742682D01*
X119800000Y-135947317D01*
X119832009Y-136149417D01*
X119895244Y-136344031D01*
X119988141Y-136526350D01*
X119988147Y-136526359D01*
X120020523Y-136570921D01*
X120020524Y-136570922D01*
X120617037Y-135974409D01*
X120634075Y-136037993D01*
X120699901Y-136152007D01*
X120792993Y-136245099D01*
X120907007Y-136310925D01*
X120970590Y-136327962D01*
X120374076Y-136924474D01*
X120418650Y-136956859D01*
X120600968Y-137049755D01*
X120791939Y-137111806D01*
X120849614Y-137151244D01*
X120876812Y-137215603D01*
X120864897Y-137284449D01*
X120817653Y-137335925D01*
X120791939Y-137347668D01*
X120600776Y-137409781D01*
X120418386Y-137502715D01*
X120252786Y-137623028D01*
X120108028Y-137767786D01*
X119987715Y-137933386D01*
X119894781Y-138115776D01*
X119831522Y-138310465D01*
X119799500Y-138512648D01*
X119799500Y-138717351D01*
X119831522Y-138919534D01*
X119894781Y-139114223D01*
X119987715Y-139296613D01*
X120108028Y-139462213D01*
X120252786Y-139606971D01*
X120407749Y-139719556D01*
X120418390Y-139727287D01*
X120534607Y-139786503D01*
X120600776Y-139820218D01*
X120600778Y-139820218D01*
X120600781Y-139820220D01*
X120679956Y-139845945D01*
X120791131Y-139882069D01*
X120848806Y-139921507D01*
X120876004Y-139985866D01*
X120864089Y-140054712D01*
X120816845Y-140106188D01*
X120791131Y-140117931D01*
X120600776Y-140179781D01*
X120418386Y-140272715D01*
X120252786Y-140393028D01*
X120108028Y-140537786D01*
X119987715Y-140703386D01*
X119894781Y-140885776D01*
X119831522Y-141080465D01*
X119799500Y-141282648D01*
X119799500Y-141487351D01*
X119831522Y-141689534D01*
X119894781Y-141884223D01*
X119987715Y-142066613D01*
X120108028Y-142232213D01*
X120252786Y-142376971D01*
X120407749Y-142489556D01*
X120418390Y-142497287D01*
X120534607Y-142556503D01*
X120600776Y-142590218D01*
X120600778Y-142590218D01*
X120600781Y-142590220D01*
X120705137Y-142624127D01*
X120795465Y-142653477D01*
X120896557Y-142669488D01*
X120997648Y-142685500D01*
X120997649Y-142685500D01*
X121202351Y-142685500D01*
X121202352Y-142685500D01*
X121404534Y-142653477D01*
X121599219Y-142590220D01*
X121781610Y-142497287D01*
X121874590Y-142429732D01*
X121947213Y-142376971D01*
X121947215Y-142376968D01*
X121947219Y-142376966D01*
X122091966Y-142232219D01*
X122091968Y-142232215D01*
X122091971Y-142232213D01*
X122144732Y-142159590D01*
X122212287Y-142066610D01*
X122305220Y-141884219D01*
X122368477Y-141689534D01*
X122400500Y-141487352D01*
X122400500Y-141282648D01*
X122368477Y-141080465D01*
X122305218Y-140885776D01*
X122271503Y-140819607D01*
X122212287Y-140703390D01*
X122196463Y-140681610D01*
X122091971Y-140537786D01*
X121947213Y-140393028D01*
X121781613Y-140272715D01*
X121781612Y-140272714D01*
X121781610Y-140272713D01*
X121724653Y-140243691D01*
X121599223Y-140179781D01*
X121408868Y-140117931D01*
X121351193Y-140078493D01*
X121323995Y-140014134D01*
X121335910Y-139945288D01*
X121383154Y-139893812D01*
X121408868Y-139882069D01*
X121451508Y-139868213D01*
X121599219Y-139820220D01*
X121781610Y-139727287D01*
X121874590Y-139659732D01*
X121947213Y-139606971D01*
X121947215Y-139606968D01*
X121947219Y-139606966D01*
X122091966Y-139462219D01*
X122091968Y-139462215D01*
X122091971Y-139462213D01*
X122144732Y-139389590D01*
X122212287Y-139296610D01*
X122305220Y-139114219D01*
X122368477Y-138919534D01*
X122400500Y-138717352D01*
X122400500Y-138512648D01*
X122399892Y-138508812D01*
X122368477Y-138310465D01*
X122305218Y-138115776D01*
X122271503Y-138049607D01*
X122212287Y-137933390D01*
X122196463Y-137911610D01*
X122091971Y-137767786D01*
X121947213Y-137623028D01*
X121781613Y-137502715D01*
X121781612Y-137502714D01*
X121781610Y-137502713D01*
X121724653Y-137473691D01*
X121599223Y-137409781D01*
X121408060Y-137347668D01*
X121350385Y-137308230D01*
X121323187Y-137243871D01*
X121335102Y-137175025D01*
X121382346Y-137123549D01*
X121408061Y-137111806D01*
X121599029Y-137049755D01*
X121781349Y-136956859D01*
X121825921Y-136924474D01*
X121229409Y-136327962D01*
X121292993Y-136310925D01*
X121407007Y-136245099D01*
X121500099Y-136152007D01*
X121565925Y-136037993D01*
X121582962Y-135974410D01*
X122179474Y-136570922D01*
X122179474Y-136570921D01*
X122211859Y-136526349D01*
X122304755Y-136344031D01*
X122367990Y-136149417D01*
X122400000Y-135947317D01*
X122400000Y-135742682D01*
X122367990Y-135540582D01*
X122304755Y-135345968D01*
X122211859Y-135163650D01*
X122179474Y-135119077D01*
X122179474Y-135119076D01*
X121582962Y-135715589D01*
X121565925Y-135652007D01*
X121500099Y-135537993D01*
X121407007Y-135444901D01*
X121292993Y-135379075D01*
X121229408Y-135362037D01*
X121825922Y-134765524D01*
X121825921Y-134765523D01*
X121781359Y-134733147D01*
X121781350Y-134733141D01*
X121599031Y-134640244D01*
X121408060Y-134578193D01*
X121350385Y-134538755D01*
X121323187Y-134474396D01*
X121335102Y-134405550D01*
X121382347Y-134354074D01*
X121408061Y-134342331D01*
X121599219Y-134280220D01*
X121781610Y-134187287D01*
X121874590Y-134119732D01*
X121947213Y-134066971D01*
X121947215Y-134066968D01*
X121947219Y-134066966D01*
X122091966Y-133922219D01*
X122091968Y-133922215D01*
X122091971Y-133922213D01*
X122144732Y-133849590D01*
X122212287Y-133756610D01*
X122305220Y-133574219D01*
X122368477Y-133379534D01*
X122400500Y-133177352D01*
X122400500Y-132972648D01*
X122368477Y-132770465D01*
X122322888Y-132630157D01*
X122305220Y-132575781D01*
X122305218Y-132575778D01*
X122305218Y-132575776D01*
X122266126Y-132499055D01*
X122212287Y-132393390D01*
X122168664Y-132333347D01*
X122091971Y-132227786D01*
X121947213Y-132083028D01*
X121781613Y-131962715D01*
X121781612Y-131962714D01*
X121781610Y-131962713D01*
X121724653Y-131933691D01*
X121599223Y-131869781D01*
X121562010Y-131857690D01*
X121530431Y-131847429D01*
X121472757Y-131807992D01*
X121445559Y-131743633D01*
X121457474Y-131674787D01*
X121504718Y-131623311D01*
X121568751Y-131605499D01*
X121947871Y-131605499D01*
X121947872Y-131605499D01*
X122007483Y-131599091D01*
X122142331Y-131548796D01*
X122257546Y-131462546D01*
X122343796Y-131347331D01*
X122394091Y-131212483D01*
X122400500Y-131152873D01*
X122400499Y-129457128D01*
X122394091Y-129397517D01*
X122387251Y-129379179D01*
X122345865Y-129268217D01*
X122345721Y-129267832D01*
X122340738Y-129198142D01*
X122374223Y-129136819D01*
X122435546Y-129103334D01*
X122461904Y-129100500D01*
X124413331Y-129100500D01*
X124413347Y-129100501D01*
X124420943Y-129100501D01*
X124579054Y-129100501D01*
X124579057Y-129100501D01*
X124731785Y-129059577D01*
X124781904Y-129030639D01*
X124868716Y-128980520D01*
X124980520Y-128868716D01*
X124980520Y-128868714D01*
X124990728Y-128858507D01*
X124990729Y-128858504D01*
X125715820Y-128133414D01*
X125777142Y-128099930D01*
X125846834Y-128104914D01*
X125902767Y-128146786D01*
X125927184Y-128212250D01*
X125927500Y-128221096D01*
X125927500Y-131571902D01*
X125907815Y-131638941D01*
X125891181Y-131659583D01*
X125406320Y-132144443D01*
X125344997Y-132177928D01*
X125275305Y-132172944D01*
X125219372Y-132131072D01*
X125194955Y-132065608D01*
X125200709Y-132018441D01*
X125208476Y-131994537D01*
X125208477Y-131994534D01*
X125240500Y-131792352D01*
X125240500Y-131587648D01*
X125234346Y-131548793D01*
X125208477Y-131385465D01*
X125156748Y-131226261D01*
X125145220Y-131190781D01*
X125145218Y-131190778D01*
X125145218Y-131190776D01*
X125088295Y-131079060D01*
X125052287Y-131008390D01*
X124991894Y-130925265D01*
X124931971Y-130842786D01*
X124787213Y-130698028D01*
X124621613Y-130577715D01*
X124621612Y-130577714D01*
X124621610Y-130577713D01*
X124564653Y-130548691D01*
X124439223Y-130484781D01*
X124244534Y-130421522D01*
X124062991Y-130392769D01*
X124042352Y-130389500D01*
X123837648Y-130389500D01*
X123817009Y-130392769D01*
X123635465Y-130421522D01*
X123440776Y-130484781D01*
X123258386Y-130577715D01*
X123092786Y-130698028D01*
X122948028Y-130842786D01*
X122827715Y-131008386D01*
X122734781Y-131190776D01*
X122671522Y-131385465D01*
X122645653Y-131548797D01*
X122639500Y-131587648D01*
X122639500Y-131792352D01*
X122641745Y-131806523D01*
X122671522Y-131994534D01*
X122734781Y-132189223D01*
X122827715Y-132371613D01*
X122948028Y-132537213D01*
X123092786Y-132681971D01*
X123239701Y-132788709D01*
X123258390Y-132802287D01*
X123374607Y-132861503D01*
X123440776Y-132895218D01*
X123440778Y-132895218D01*
X123440781Y-132895220D01*
X123518646Y-132920520D01*
X123631131Y-132957069D01*
X123688806Y-132996507D01*
X123716004Y-133060866D01*
X123704089Y-133129712D01*
X123656845Y-133181188D01*
X123631131Y-133192931D01*
X123440776Y-133254781D01*
X123258386Y-133347715D01*
X123092786Y-133468028D01*
X122948028Y-133612786D01*
X122827715Y-133778386D01*
X122734781Y-133960776D01*
X122671522Y-134155465D01*
X122639500Y-134357648D01*
X122639500Y-134562351D01*
X122671522Y-134764534D01*
X122734781Y-134959223D01*
X122798691Y-135084653D01*
X122816231Y-135119076D01*
X122827715Y-135141613D01*
X122948028Y-135307213D01*
X123092786Y-135451971D01*
X123211188Y-135537993D01*
X123258390Y-135572287D01*
X123366420Y-135627331D01*
X123440776Y-135665218D01*
X123440778Y-135665218D01*
X123440781Y-135665220D01*
X123519956Y-135690945D01*
X123631131Y-135727069D01*
X123688806Y-135766507D01*
X123716004Y-135830866D01*
X123704089Y-135899712D01*
X123656845Y-135951188D01*
X123631131Y-135962931D01*
X123440776Y-136024781D01*
X123258386Y-136117715D01*
X123092786Y-136238028D01*
X122948028Y-136382786D01*
X122827715Y-136548386D01*
X122734781Y-136730776D01*
X122671522Y-136925465D01*
X122639500Y-137127648D01*
X122639500Y-137332351D01*
X122671522Y-137534534D01*
X122734781Y-137729223D01*
X122827715Y-137911613D01*
X122948028Y-138077213D01*
X123092786Y-138221971D01*
X123247749Y-138334556D01*
X123258390Y-138342287D01*
X123366341Y-138397291D01*
X123440776Y-138435218D01*
X123440778Y-138435218D01*
X123440781Y-138435220D01*
X123519956Y-138460945D01*
X123631131Y-138497069D01*
X123688806Y-138536507D01*
X123716004Y-138600866D01*
X123704089Y-138669712D01*
X123656845Y-138721188D01*
X123631131Y-138732931D01*
X123440776Y-138794781D01*
X123258386Y-138887715D01*
X123092786Y-139008028D01*
X122948028Y-139152786D01*
X122827715Y-139318386D01*
X122734781Y-139500776D01*
X122671522Y-139695465D01*
X122639500Y-139897648D01*
X122639500Y-140102351D01*
X122671522Y-140304534D01*
X122734781Y-140499223D01*
X122827715Y-140681613D01*
X122948028Y-140847213D01*
X123092786Y-140991971D01*
X123247749Y-141104556D01*
X123258390Y-141112287D01*
X123374607Y-141171503D01*
X123440776Y-141205218D01*
X123440778Y-141205218D01*
X123440781Y-141205220D01*
X123545137Y-141239127D01*
X123635465Y-141268477D01*
X123724937Y-141282648D01*
X123837648Y-141300500D01*
X123837649Y-141300500D01*
X124042351Y-141300500D01*
X124042352Y-141300500D01*
X124244534Y-141268477D01*
X124439219Y-141205220D01*
X124621610Y-141112287D01*
X124714590Y-141044732D01*
X124787213Y-140991971D01*
X124787215Y-140991968D01*
X124787219Y-140991966D01*
X124931966Y-140847219D01*
X124931968Y-140847215D01*
X124931971Y-140847213D01*
X124984732Y-140774590D01*
X125052287Y-140681610D01*
X125145220Y-140499219D01*
X125208477Y-140304534D01*
X125240500Y-140102352D01*
X125240500Y-139897648D01*
X125239892Y-139893812D01*
X125208477Y-139695465D01*
X125145218Y-139500776D01*
X125111503Y-139434607D01*
X125052287Y-139318390D01*
X125036463Y-139296610D01*
X124931971Y-139152786D01*
X124787213Y-139008028D01*
X124621613Y-138887715D01*
X124621612Y-138887714D01*
X124621610Y-138887713D01*
X124564653Y-138858691D01*
X124439223Y-138794781D01*
X124248868Y-138732931D01*
X124191193Y-138693493D01*
X124163995Y-138629134D01*
X124175910Y-138560288D01*
X124223154Y-138508812D01*
X124248868Y-138497069D01*
X124291508Y-138483213D01*
X124439219Y-138435220D01*
X124621610Y-138342287D01*
X124714590Y-138274732D01*
X124787213Y-138221971D01*
X124787215Y-138221968D01*
X124787219Y-138221966D01*
X124931966Y-138077219D01*
X124931968Y-138077215D01*
X124931971Y-138077213D01*
X124984732Y-138004590D01*
X125052287Y-137911610D01*
X125145220Y-137729219D01*
X125208477Y-137534534D01*
X125240500Y-137332352D01*
X125240500Y-137127648D01*
X125208477Y-136925466D01*
X125145220Y-136730781D01*
X125145218Y-136730778D01*
X125145218Y-136730776D01*
X125111503Y-136664607D01*
X125052287Y-136548390D01*
X125036274Y-136526350D01*
X124931971Y-136382786D01*
X124787213Y-136238028D01*
X124621613Y-136117715D01*
X124621612Y-136117714D01*
X124621610Y-136117713D01*
X124564653Y-136088691D01*
X124439223Y-136024781D01*
X124248868Y-135962931D01*
X124191193Y-135923493D01*
X124163995Y-135859134D01*
X124175910Y-135790288D01*
X124223154Y-135738812D01*
X124248868Y-135727069D01*
X124291508Y-135713213D01*
X124439219Y-135665220D01*
X124621610Y-135572287D01*
X124668812Y-135537993D01*
X124787213Y-135451971D01*
X124787215Y-135451968D01*
X124787219Y-135451966D01*
X124931966Y-135307219D01*
X124931968Y-135307215D01*
X124931971Y-135307213D01*
X125036278Y-135163644D01*
X125052287Y-135141610D01*
X125145220Y-134959219D01*
X125208477Y-134764534D01*
X125240500Y-134562352D01*
X125240500Y-134357648D01*
X125239934Y-134354074D01*
X125208478Y-134155472D01*
X125208477Y-134155471D01*
X125208477Y-134155466D01*
X125203825Y-134141151D01*
X125201832Y-134071312D01*
X125234075Y-134015158D01*
X127008520Y-132240716D01*
X127087577Y-132103784D01*
X127128501Y-131951057D01*
X127128501Y-131792942D01*
X127128501Y-131785347D01*
X127128500Y-131785329D01*
X127128500Y-103009860D01*
X127148185Y-102942821D01*
X127149398Y-102940969D01*
X127162639Y-102921153D01*
X127209394Y-102851179D01*
X127269737Y-102705497D01*
X127300500Y-102550842D01*
X127300500Y-102393158D01*
X127300500Y-102393155D01*
X127300499Y-102393153D01*
X127282900Y-102304678D01*
X127269737Y-102238503D01*
X127263498Y-102223440D01*
X127209397Y-102092827D01*
X127209390Y-102092814D01*
X127121789Y-101961711D01*
X127121786Y-101961707D01*
X127010292Y-101850213D01*
X127010288Y-101850210D01*
X126879185Y-101762609D01*
X126879172Y-101762602D01*
X126733501Y-101702264D01*
X126733489Y-101702261D01*
X126578845Y-101671500D01*
X126578842Y-101671500D01*
X126421158Y-101671500D01*
X126421155Y-101671500D01*
X126266510Y-101702261D01*
X126266498Y-101702264D01*
X126120827Y-101762602D01*
X126120814Y-101762609D01*
X125989711Y-101850210D01*
X125989707Y-101850213D01*
X125878213Y-101961707D01*
X125878210Y-101961711D01*
X125790609Y-102092814D01*
X125790601Y-102092829D01*
X125772604Y-102136278D01*
X125728763Y-102190681D01*
X125662468Y-102212745D01*
X125633854Y-102210442D01*
X125578842Y-102199500D01*
X125421158Y-102199500D01*
X125421155Y-102199500D01*
X125266510Y-102230261D01*
X125266498Y-102230264D01*
X125120827Y-102290602D01*
X125120814Y-102290609D01*
X124989711Y-102378210D01*
X124989707Y-102378213D01*
X124878213Y-102489707D01*
X124878210Y-102489711D01*
X124790609Y-102620814D01*
X124790602Y-102620827D01*
X124730264Y-102766498D01*
X124730261Y-102766510D01*
X124699500Y-102921153D01*
X124699500Y-103078846D01*
X124730261Y-103233489D01*
X124730264Y-103233501D01*
X124790602Y-103379172D01*
X124790609Y-103379185D01*
X124878210Y-103510288D01*
X124878213Y-103510292D01*
X124989707Y-103621786D01*
X124989711Y-103621789D01*
X125120814Y-103709390D01*
X125120827Y-103709397D01*
X125208230Y-103745599D01*
X125266503Y-103769737D01*
X125299691Y-103776338D01*
X125361600Y-103808721D01*
X125396176Y-103869436D01*
X125399500Y-103897955D01*
X125399500Y-126699903D01*
X125379815Y-126766942D01*
X125363181Y-126787584D01*
X124287584Y-127863181D01*
X124226261Y-127896666D01*
X124199903Y-127899500D01*
X120086670Y-127899500D01*
X120086654Y-127899499D01*
X120079058Y-127899499D01*
X119920943Y-127899499D01*
X119844579Y-127919961D01*
X119768214Y-127940423D01*
X119768209Y-127940426D01*
X119631290Y-128019475D01*
X119631282Y-128019481D01*
X118519481Y-129131282D01*
X118519479Y-129131285D01*
X118498262Y-129168034D01*
X118477045Y-129204784D01*
X118460465Y-129233501D01*
X118440644Y-129267833D01*
X118440423Y-129268215D01*
X118399499Y-129420943D01*
X118399499Y-129579057D01*
X118399499Y-129579059D01*
X118399500Y-129589053D01*
X118399500Y-130888330D01*
X118399499Y-130888348D01*
X118399499Y-131054054D01*
X118399498Y-131054054D01*
X106600500Y-131054054D01*
X106600500Y-129903326D01*
X106620185Y-129836287D01*
X106672989Y-129790532D01*
X106700301Y-129781710D01*
X106760497Y-129769737D01*
X106906179Y-129709394D01*
X107037289Y-129621789D01*
X107148789Y-129510289D01*
X107236394Y-129379179D01*
X107296737Y-129233497D01*
X107327500Y-129078842D01*
X107327500Y-128921158D01*
X107327500Y-128921155D01*
X107327499Y-128921153D01*
X107321325Y-128890114D01*
X107296737Y-128766503D01*
X107296735Y-128766498D01*
X107236397Y-128620827D01*
X107236390Y-128620814D01*
X107148789Y-128489711D01*
X107148786Y-128489707D01*
X107136819Y-128477740D01*
X107103334Y-128416417D01*
X107100500Y-128390059D01*
X107100500Y-123204568D01*
X120019500Y-123204568D01*
X120019500Y-123485431D01*
X120050942Y-123764494D01*
X120050945Y-123764512D01*
X120113439Y-124038317D01*
X120113443Y-124038329D01*
X120206200Y-124303411D01*
X120328053Y-124556442D01*
X120374275Y-124630004D01*
X120477477Y-124794248D01*
X120545212Y-124879185D01*
X120649766Y-125010292D01*
X120652584Y-125013825D01*
X120851175Y-125212416D01*
X121070752Y-125387523D01*
X121308555Y-125536945D01*
X121561592Y-125658801D01*
X121688723Y-125703286D01*
X121826670Y-125751556D01*
X121826682Y-125751560D01*
X122100491Y-125814055D01*
X122100497Y-125814055D01*
X122100505Y-125814057D01*
X122286547Y-125835018D01*
X122379569Y-125845499D01*
X122379572Y-125845500D01*
X122379575Y-125845500D01*
X122660428Y-125845500D01*
X122660429Y-125845499D01*
X122803055Y-125829429D01*
X122939494Y-125814057D01*
X122939499Y-125814056D01*
X122939509Y-125814055D01*
X123213318Y-125751560D01*
X123478408Y-125658801D01*
X123731445Y-125536945D01*
X123969248Y-125387523D01*
X124188825Y-125212416D01*
X124387416Y-125013825D01*
X124562523Y-124794248D01*
X124711945Y-124556445D01*
X124833801Y-124303408D01*
X124926560Y-124038318D01*
X124989055Y-123764509D01*
X124989411Y-123761354D01*
X125016764Y-123518584D01*
X125020500Y-123485425D01*
X125020500Y-123204575D01*
X125010018Y-123111547D01*
X124989057Y-122925505D01*
X124989054Y-122925487D01*
X124926560Y-122651682D01*
X124926556Y-122651670D01*
X124903465Y-122585680D01*
X124833801Y-122386592D01*
X124727003Y-122164824D01*
X124711946Y-122133557D01*
X124661053Y-122052561D01*
X124562523Y-121895752D01*
X124387416Y-121676175D01*
X124188825Y-121477584D01*
X123969248Y-121302477D01*
X123731445Y-121153055D01*
X123731442Y-121153053D01*
X123478411Y-121031200D01*
X123213329Y-120938443D01*
X123213317Y-120938439D01*
X122939512Y-120875945D01*
X122939494Y-120875942D01*
X122660431Y-120844500D01*
X122660425Y-120844500D01*
X122379575Y-120844500D01*
X122379568Y-120844500D01*
X122100505Y-120875942D01*
X122100487Y-120875945D01*
X121826682Y-120938439D01*
X121826670Y-120938443D01*
X121561588Y-121031200D01*
X121308557Y-121153053D01*
X121070753Y-121302476D01*
X120851175Y-121477583D01*
X120652583Y-121676175D01*
X120477476Y-121895753D01*
X120328053Y-122133557D01*
X120206200Y-122386588D01*
X120113443Y-122651670D01*
X120113439Y-122651682D01*
X120050945Y-122925487D01*
X120050942Y-122925505D01*
X120019500Y-123204568D01*
X107100500Y-123204568D01*
X107100500Y-104314166D01*
X107120185Y-104247127D01*
X107136819Y-104226485D01*
X107514665Y-103848639D01*
X107575984Y-103815157D01*
X107578151Y-103814706D01*
X107578840Y-103814569D01*
X107578842Y-103814569D01*
X107733497Y-103783806D01*
X107879179Y-103723463D01*
X108010289Y-103635858D01*
X108121789Y-103524358D01*
X108209394Y-103393248D01*
X108269737Y-103247566D01*
X108300500Y-103092911D01*
X108300500Y-102935227D01*
X108300500Y-102935224D01*
X108300499Y-102935222D01*
X108297700Y-102921153D01*
X108269737Y-102780572D01*
X108263912Y-102766510D01*
X108209397Y-102634896D01*
X108209390Y-102634883D01*
X108121789Y-102503780D01*
X108121786Y-102503776D01*
X108010292Y-102392282D01*
X108010288Y-102392279D01*
X107879185Y-102304678D01*
X107879172Y-102304671D01*
X107733501Y-102244333D01*
X107733489Y-102244330D01*
X107578845Y-102213569D01*
X107578842Y-102213569D01*
X107421158Y-102213569D01*
X107421153Y-102213569D01*
X107371530Y-102223440D01*
X107301938Y-102217213D01*
X107246761Y-102174350D01*
X107232778Y-102149275D01*
X107209397Y-102092826D01*
X107209390Y-102092814D01*
X107121789Y-101961711D01*
X107121786Y-101961707D01*
X107010292Y-101850213D01*
X107010288Y-101850210D01*
X106879185Y-101762609D01*
X106879172Y-101762602D01*
X106733501Y-101702264D01*
X106733489Y-101702261D01*
X106578845Y-101671500D01*
X106578842Y-101671500D01*
X106421158Y-101671500D01*
X106421155Y-101671500D01*
X106266510Y-101702261D01*
X106266498Y-101702264D01*
X106120827Y-101762602D01*
X106120814Y-101762609D01*
X105989711Y-101850210D01*
X105989707Y-101850213D01*
X105878213Y-101961707D01*
X105878210Y-101961711D01*
X105790609Y-102092814D01*
X105790602Y-102092827D01*
X105730264Y-102238498D01*
X105730261Y-102238508D01*
X105699362Y-102393847D01*
X105690597Y-102410602D01*
X105686578Y-102429081D01*
X105667834Y-102454118D01*
X105666977Y-102455758D01*
X105665427Y-102457335D01*
X105624224Y-102498538D01*
X105624212Y-102498552D01*
X105519478Y-102603286D01*
X105469361Y-102690094D01*
X105469359Y-102690096D01*
X105440425Y-102740209D01*
X105440424Y-102740210D01*
X105429609Y-102780572D01*
X105399499Y-102892943D01*
X105399499Y-102892945D01*
X105399499Y-103061046D01*
X105399500Y-103061059D01*
X105399500Y-131252022D01*
X105379815Y-131319061D01*
X105327011Y-131364816D01*
X105257853Y-131374760D01*
X105194297Y-131345735D01*
X105157569Y-131290341D01*
X105136748Y-131226261D01*
X105125220Y-131190781D01*
X105125218Y-131190778D01*
X105125218Y-131190776D01*
X105068295Y-131079060D01*
X105032287Y-131008390D01*
X104971894Y-130925265D01*
X104911971Y-130842786D01*
X104767215Y-130698030D01*
X104763954Y-130695244D01*
X104725770Y-130636731D01*
X104720500Y-130600966D01*
X104720500Y-129341157D01*
X104720499Y-129341156D01*
X104705991Y-129268215D01*
X104705991Y-129268213D01*
X104705991Y-129268212D01*
X104689739Y-129186510D01*
X104689738Y-129186503D01*
X104629394Y-129040821D01*
X104629392Y-129040818D01*
X104629390Y-129040814D01*
X104541789Y-128909711D01*
X104541786Y-128909707D01*
X101540087Y-125908008D01*
X101506602Y-125846685D01*
X101511586Y-125776993D01*
X101553458Y-125721060D01*
X101618922Y-125696643D01*
X101668723Y-125703286D01*
X101806670Y-125751556D01*
X101806682Y-125751560D01*
X102080491Y-125814055D01*
X102080497Y-125814055D01*
X102080505Y-125814057D01*
X102266547Y-125835018D01*
X102359569Y-125845499D01*
X102359572Y-125845500D01*
X102359575Y-125845500D01*
X102640428Y-125845500D01*
X102640429Y-125845499D01*
X102783055Y-125829429D01*
X102919494Y-125814057D01*
X102919499Y-125814056D01*
X102919509Y-125814055D01*
X103193318Y-125751560D01*
X103458408Y-125658801D01*
X103711445Y-125536945D01*
X103949248Y-125387523D01*
X104168825Y-125212416D01*
X104367416Y-125013825D01*
X104542523Y-124794248D01*
X104691945Y-124556445D01*
X104813801Y-124303408D01*
X104906560Y-124038318D01*
X104969055Y-123764509D01*
X104969411Y-123761354D01*
X104996764Y-123518584D01*
X105000500Y-123485425D01*
X105000500Y-123204575D01*
X104990018Y-123111547D01*
X104969057Y-122925505D01*
X104969054Y-122925487D01*
X104906560Y-122651682D01*
X104906556Y-122651670D01*
X104883465Y-122585680D01*
X104813801Y-122386592D01*
X104707003Y-122164824D01*
X104691946Y-122133557D01*
X104641053Y-122052561D01*
X104542523Y-121895752D01*
X104367416Y-121676175D01*
X104168825Y-121477584D01*
X103949248Y-121302477D01*
X103711445Y-121153055D01*
X103711442Y-121153053D01*
X103458411Y-121031200D01*
X103193329Y-120938443D01*
X103193317Y-120938439D01*
X102919512Y-120875945D01*
X102919494Y-120875942D01*
X102640431Y-120844500D01*
X102640425Y-120844500D01*
X102359575Y-120844500D01*
X102359568Y-120844500D01*
X102080505Y-120875942D01*
X102080487Y-120875945D01*
X101806682Y-120938439D01*
X101806670Y-120938443D01*
X101541588Y-121031200D01*
X101288557Y-121153053D01*
X101050753Y-121302476D01*
X100831175Y-121477583D01*
X100632583Y-121676175D01*
X100457476Y-121895753D01*
X100308053Y-122133557D01*
X100186200Y-122386588D01*
X100093443Y-122651670D01*
X100093440Y-122651678D01*
X100045391Y-122862199D01*
X100011282Y-122923177D01*
X99949621Y-122956035D01*
X99879984Y-122950340D01*
X99824480Y-122907900D01*
X99800732Y-122842190D01*
X99800500Y-122834606D01*
X99800500Y-77382940D01*
X99809144Y-77353499D01*
X99815668Y-77323513D01*
X99819422Y-77318497D01*
X99820185Y-77315901D01*
X99836819Y-77295259D01*
X99987819Y-77144259D01*
X100049142Y-77110774D01*
X100118834Y-77115758D01*
X100174767Y-77157630D01*
X100199184Y-77223094D01*
X100199500Y-77231940D01*
X100199500Y-109578846D01*
X100230261Y-109733489D01*
X100230264Y-109733501D01*
X100290602Y-109879172D01*
X100290609Y-109879185D01*
X100378210Y-110010288D01*
X100378213Y-110010292D01*
X100489707Y-110121786D01*
X100489711Y-110121789D01*
X100620814Y-110209390D01*
X100620827Y-110209397D01*
X100721907Y-110251265D01*
X100766503Y-110269737D01*
X100921153Y-110300499D01*
X100921156Y-110300500D01*
X100921158Y-110300500D01*
X101078844Y-110300500D01*
X101078845Y-110300499D01*
X101233497Y-110269737D01*
X101379179Y-110209394D01*
X101510289Y-110121789D01*
X101621789Y-110010289D01*
X101709394Y-109879179D01*
X101769737Y-109733497D01*
X101800500Y-109578842D01*
X101800500Y-109424500D01*
X101820185Y-109357461D01*
X101872989Y-109311706D01*
X101924500Y-109300500D01*
X102078844Y-109300500D01*
X102078845Y-109300499D01*
X102233497Y-109269737D01*
X102379179Y-109209394D01*
X102510289Y-109121789D01*
X102621789Y-109010289D01*
X102709394Y-108879179D01*
X102769737Y-108733497D01*
X102800500Y-108578842D01*
X102800500Y-108424500D01*
X102820185Y-108357461D01*
X102872989Y-108311706D01*
X102924500Y-108300500D01*
X103078844Y-108300500D01*
X103078845Y-108300499D01*
X103233497Y-108269737D01*
X103379179Y-108209394D01*
X103510289Y-108121789D01*
X103621789Y-108010289D01*
X103709394Y-107879179D01*
X103769737Y-107733497D01*
X103800500Y-107578842D01*
X103800500Y-107424500D01*
X103820185Y-107357461D01*
X103872989Y-107311706D01*
X103924500Y-107300500D01*
X104078844Y-107300500D01*
X104078845Y-107300499D01*
X104233497Y-107269737D01*
X104379179Y-107209394D01*
X104510289Y-107121789D01*
X104621789Y-107010289D01*
X104709394Y-106879179D01*
X104769737Y-106733497D01*
X104800500Y-106578842D01*
X104800500Y-80079054D01*
X126899498Y-80079054D01*
X126940423Y-80231785D01*
X126969358Y-80281900D01*
X126969359Y-80281904D01*
X126969360Y-80281904D01*
X127019479Y-80368714D01*
X127019481Y-80368717D01*
X127138349Y-80487585D01*
X127138355Y-80487590D01*
X129863181Y-83212416D01*
X129896666Y-83273739D01*
X129899500Y-83300097D01*
X129899500Y-101574044D01*
X129879815Y-101641083D01*
X129827011Y-101686838D01*
X129799691Y-101695661D01*
X129766510Y-101702261D01*
X129766498Y-101702264D01*
X129620827Y-101762602D01*
X129620814Y-101762609D01*
X129489711Y-101850210D01*
X129489707Y-101850213D01*
X129378213Y-101961707D01*
X129378210Y-101961711D01*
X129290609Y-102092814D01*
X129290602Y-102092827D01*
X129230264Y-102238498D01*
X129230261Y-102238510D01*
X129199500Y-102393153D01*
X129199500Y-102550846D01*
X129230261Y-102705489D01*
X129230264Y-102705501D01*
X129290602Y-102851172D01*
X129290609Y-102851185D01*
X129378210Y-102982288D01*
X129378213Y-102982292D01*
X129489707Y-103093786D01*
X129489711Y-103093789D01*
X129620814Y-103181390D01*
X129620827Y-103181397D01*
X129746619Y-103233501D01*
X129766503Y-103241737D01*
X129921153Y-103272499D01*
X129921156Y-103272500D01*
X129921158Y-103272500D01*
X130078844Y-103272500D01*
X130133852Y-103261558D01*
X130203444Y-103267785D01*
X130258621Y-103310648D01*
X130272605Y-103335722D01*
X130290604Y-103379175D01*
X130290609Y-103379185D01*
X130378210Y-103510288D01*
X130378213Y-103510292D01*
X130489707Y-103621786D01*
X130489711Y-103621789D01*
X130620814Y-103709390D01*
X130620827Y-103709397D01*
X130766498Y-103769735D01*
X130766503Y-103769737D01*
X130921153Y-103800499D01*
X130921156Y-103800500D01*
X130921158Y-103800500D01*
X131078844Y-103800500D01*
X131078845Y-103800499D01*
X131233497Y-103769737D01*
X131379179Y-103709394D01*
X131510289Y-103621789D01*
X131621789Y-103510289D01*
X131709394Y-103379179D01*
X131769737Y-103233497D01*
X131800500Y-103078842D01*
X131800500Y-102921158D01*
X131800500Y-102921155D01*
X131800499Y-102921153D01*
X137699500Y-102921153D01*
X137699500Y-103078846D01*
X137730261Y-103233489D01*
X137730264Y-103233501D01*
X137790602Y-103379172D01*
X137790609Y-103379185D01*
X137878210Y-103510288D01*
X137878213Y-103510292D01*
X137989707Y-103621786D01*
X137989711Y-103621789D01*
X138120814Y-103709390D01*
X138120827Y-103709397D01*
X138208230Y-103745599D01*
X138266503Y-103769737D01*
X138299691Y-103776338D01*
X138361600Y-103808721D01*
X138396176Y-103869436D01*
X138399500Y-103897955D01*
X138399500Y-130868330D01*
X138399499Y-130868348D01*
X138399499Y-131034054D01*
X138399498Y-131034054D01*
X138399499Y-131034057D01*
X138440423Y-131186785D01*
X138451970Y-131206784D01*
X138519479Y-131323714D01*
X138519481Y-131323717D01*
X138638349Y-131442585D01*
X138638355Y-131442590D01*
X139825921Y-132630157D01*
X139859406Y-132691480D01*
X139856173Y-132756149D01*
X139851523Y-132770460D01*
X139851523Y-132770462D01*
X139819500Y-132972648D01*
X139819500Y-133177351D01*
X139851522Y-133379534D01*
X139914781Y-133574223D01*
X140007715Y-133756613D01*
X140128028Y-133922213D01*
X140272786Y-134066971D01*
X140394600Y-134155472D01*
X140438390Y-134187287D01*
X140620781Y-134280220D01*
X140766807Y-134327666D01*
X140811938Y-134342331D01*
X140869614Y-134381769D01*
X140896812Y-134446127D01*
X140884897Y-134514974D01*
X140837653Y-134566449D01*
X140811939Y-134578193D01*
X140620968Y-134640244D01*
X140438644Y-134733143D01*
X140394077Y-134765523D01*
X140394077Y-134765524D01*
X140990591Y-135362037D01*
X140927007Y-135379075D01*
X140812993Y-135444901D01*
X140719901Y-135537993D01*
X140654075Y-135652007D01*
X140637037Y-135715590D01*
X140040524Y-135119077D01*
X140040523Y-135119077D01*
X140008143Y-135163644D01*
X139915244Y-135345968D01*
X139852009Y-135540582D01*
X139820000Y-135742682D01*
X139820000Y-135947317D01*
X139852009Y-136149417D01*
X139915244Y-136344031D01*
X140008141Y-136526350D01*
X140008147Y-136526359D01*
X140040523Y-136570921D01*
X140040524Y-136570922D01*
X140637037Y-135974409D01*
X140654075Y-136037993D01*
X140719901Y-136152007D01*
X140812993Y-136245099D01*
X140927007Y-136310925D01*
X140990590Y-136327962D01*
X140394076Y-136924474D01*
X140438650Y-136956859D01*
X140620968Y-137049755D01*
X140811939Y-137111806D01*
X140869614Y-137151244D01*
X140896812Y-137215603D01*
X140884897Y-137284449D01*
X140837653Y-137335925D01*
X140811939Y-137347668D01*
X140620776Y-137409781D01*
X140438386Y-137502715D01*
X140272786Y-137623028D01*
X140128028Y-137767786D01*
X140007715Y-137933386D01*
X139914781Y-138115776D01*
X139851522Y-138310465D01*
X139819500Y-138512648D01*
X139819500Y-138717351D01*
X139851522Y-138919534D01*
X139914781Y-139114223D01*
X140007715Y-139296613D01*
X140128028Y-139462213D01*
X140272786Y-139606971D01*
X140427749Y-139719556D01*
X140438390Y-139727287D01*
X140554607Y-139786503D01*
X140620776Y-139820218D01*
X140620778Y-139820218D01*
X140620781Y-139820220D01*
X140699956Y-139845945D01*
X140811131Y-139882069D01*
X140868806Y-139921507D01*
X140896004Y-139985866D01*
X140884089Y-140054712D01*
X140836845Y-140106188D01*
X140811131Y-140117931D01*
X140620776Y-140179781D01*
X140438386Y-140272715D01*
X140272786Y-140393028D01*
X140128028Y-140537786D01*
X140007715Y-140703386D01*
X139914781Y-140885776D01*
X139851522Y-141080465D01*
X139819500Y-141282648D01*
X139819500Y-141487351D01*
X139851522Y-141689534D01*
X139914781Y-141884223D01*
X140007715Y-142066613D01*
X140128028Y-142232213D01*
X140272786Y-142376971D01*
X140427749Y-142489556D01*
X140438390Y-142497287D01*
X140554607Y-142556503D01*
X140620776Y-142590218D01*
X140620778Y-142590218D01*
X140620781Y-142590220D01*
X140725137Y-142624127D01*
X140815465Y-142653477D01*
X140916557Y-142669488D01*
X141017648Y-142685500D01*
X141017649Y-142685500D01*
X141222351Y-142685500D01*
X141222352Y-142685500D01*
X141424534Y-142653477D01*
X141619219Y-142590220D01*
X141801610Y-142497287D01*
X141894590Y-142429732D01*
X141967213Y-142376971D01*
X141967215Y-142376968D01*
X141967219Y-142376966D01*
X142111966Y-142232219D01*
X142111968Y-142232215D01*
X142111971Y-142232213D01*
X142164732Y-142159590D01*
X142232287Y-142066610D01*
X142325220Y-141884219D01*
X142388477Y-141689534D01*
X142420500Y-141487352D01*
X142420500Y-141282648D01*
X142388477Y-141080465D01*
X142325218Y-140885776D01*
X142291503Y-140819607D01*
X142232287Y-140703390D01*
X142216463Y-140681610D01*
X142111971Y-140537786D01*
X141967213Y-140393028D01*
X141801613Y-140272715D01*
X141801612Y-140272714D01*
X141801610Y-140272713D01*
X141744653Y-140243691D01*
X141619223Y-140179781D01*
X141428868Y-140117931D01*
X141371193Y-140078493D01*
X141343995Y-140014134D01*
X141355910Y-139945288D01*
X141403154Y-139893812D01*
X141428868Y-139882069D01*
X141471508Y-139868213D01*
X141619219Y-139820220D01*
X141801610Y-139727287D01*
X141894590Y-139659732D01*
X141967213Y-139606971D01*
X141967215Y-139606968D01*
X141967219Y-139606966D01*
X142111966Y-139462219D01*
X142111968Y-139462215D01*
X142111971Y-139462213D01*
X142164732Y-139389590D01*
X142232287Y-139296610D01*
X142325220Y-139114219D01*
X142388477Y-138919534D01*
X142420500Y-138717352D01*
X142420500Y-138512648D01*
X142419892Y-138508812D01*
X142388477Y-138310465D01*
X142325218Y-138115776D01*
X142291503Y-138049607D01*
X142232287Y-137933390D01*
X142216463Y-137911610D01*
X142111971Y-137767786D01*
X141967213Y-137623028D01*
X141801613Y-137502715D01*
X141801612Y-137502714D01*
X141801610Y-137502713D01*
X141744653Y-137473691D01*
X141619223Y-137409781D01*
X141428060Y-137347668D01*
X141370385Y-137308230D01*
X141343187Y-137243871D01*
X141355102Y-137175025D01*
X141402346Y-137123549D01*
X141428061Y-137111806D01*
X141619029Y-137049755D01*
X141801349Y-136956859D01*
X141845921Y-136924474D01*
X141249409Y-136327962D01*
X141312993Y-136310925D01*
X141427007Y-136245099D01*
X141520099Y-136152007D01*
X141585925Y-136037993D01*
X141602962Y-135974409D01*
X142199474Y-136570921D01*
X142231859Y-136526349D01*
X142324755Y-136344031D01*
X142387990Y-136149417D01*
X142420000Y-135947317D01*
X142420000Y-135742682D01*
X142387990Y-135540582D01*
X142324755Y-135345968D01*
X142231859Y-135163650D01*
X142199474Y-135119077D01*
X142199474Y-135119076D01*
X141602962Y-135715589D01*
X141585925Y-135652007D01*
X141520099Y-135537993D01*
X141427007Y-135444901D01*
X141312993Y-135379075D01*
X141249408Y-135362037D01*
X141845922Y-134765524D01*
X141845921Y-134765523D01*
X141801359Y-134733147D01*
X141801350Y-134733141D01*
X141619031Y-134640244D01*
X141428060Y-134578193D01*
X141370385Y-134538755D01*
X141343187Y-134474396D01*
X141355102Y-134405550D01*
X141402347Y-134354074D01*
X141428061Y-134342331D01*
X141619219Y-134280220D01*
X141801610Y-134187287D01*
X141894590Y-134119732D01*
X141967213Y-134066971D01*
X141967215Y-134066968D01*
X141967219Y-134066966D01*
X142111966Y-133922219D01*
X142111968Y-133922215D01*
X142111971Y-133922213D01*
X142164732Y-133849590D01*
X142232287Y-133756610D01*
X142325220Y-133574219D01*
X142388477Y-133379534D01*
X142420500Y-133177352D01*
X142420500Y-132972648D01*
X142388477Y-132770465D01*
X142342888Y-132630157D01*
X142325220Y-132575781D01*
X142325218Y-132575778D01*
X142325218Y-132575776D01*
X142286126Y-132499055D01*
X142232287Y-132393390D01*
X142188664Y-132333347D01*
X142111971Y-132227786D01*
X141967213Y-132083028D01*
X141801613Y-131962715D01*
X141801612Y-131962714D01*
X141801610Y-131962713D01*
X141744653Y-131933691D01*
X141619223Y-131869781D01*
X141582010Y-131857690D01*
X141550431Y-131847429D01*
X141492757Y-131807992D01*
X141465559Y-131743633D01*
X141477474Y-131674787D01*
X141524718Y-131623311D01*
X141588751Y-131605499D01*
X141967871Y-131605499D01*
X141967872Y-131605499D01*
X142027483Y-131599091D01*
X142162331Y-131548796D01*
X142277546Y-131462546D01*
X142363796Y-131347331D01*
X142414091Y-131212483D01*
X142420500Y-131152873D01*
X142420499Y-129457128D01*
X142414091Y-129397517D01*
X142407251Y-129379179D01*
X142363797Y-129262671D01*
X142363793Y-129262664D01*
X142277547Y-129147455D01*
X142277544Y-129147452D01*
X142162335Y-129061206D01*
X142162328Y-129061202D01*
X142027482Y-129010908D01*
X142027483Y-129010908D01*
X141967883Y-129004501D01*
X141967881Y-129004500D01*
X141967873Y-129004500D01*
X141967864Y-129004500D01*
X140272129Y-129004500D01*
X140272123Y-129004501D01*
X140212516Y-129010908D01*
X140077671Y-129061202D01*
X140077664Y-129061206D01*
X139962455Y-129147452D01*
X139962452Y-129147455D01*
X139876206Y-129262664D01*
X139876202Y-129262671D01*
X139840682Y-129357907D01*
X139798811Y-129413841D01*
X139733346Y-129438258D01*
X139665074Y-129423406D01*
X139615668Y-129374001D01*
X139600500Y-129314574D01*
X139600500Y-125749097D01*
X139620185Y-125682058D01*
X139672989Y-125636303D01*
X139742147Y-125626359D01*
X139805703Y-125655384D01*
X139812181Y-125661416D01*
X144360349Y-130209584D01*
X144393834Y-130270907D01*
X144388850Y-130340599D01*
X144346978Y-130396532D01*
X144281514Y-130420949D01*
X144253270Y-130419738D01*
X144082991Y-130392769D01*
X144062352Y-130389500D01*
X143857648Y-130389500D01*
X143837009Y-130392769D01*
X143655465Y-130421522D01*
X143460776Y-130484781D01*
X143278386Y-130577715D01*
X143112786Y-130698028D01*
X142968028Y-130842786D01*
X142847715Y-131008386D01*
X142754781Y-131190776D01*
X142691522Y-131385465D01*
X142665653Y-131548797D01*
X142659500Y-131587648D01*
X142659500Y-131792352D01*
X142661745Y-131806523D01*
X142691522Y-131994534D01*
X142754781Y-132189223D01*
X142847715Y-132371613D01*
X142968028Y-132537213D01*
X143112786Y-132681971D01*
X143259701Y-132788709D01*
X143278390Y-132802287D01*
X143394607Y-132861503D01*
X143460776Y-132895218D01*
X143460778Y-132895218D01*
X143460781Y-132895220D01*
X143538646Y-132920520D01*
X143651131Y-132957069D01*
X143708806Y-132996507D01*
X143736004Y-133060866D01*
X143724089Y-133129712D01*
X143676845Y-133181188D01*
X143651131Y-133192931D01*
X143460776Y-133254781D01*
X143278386Y-133347715D01*
X143112786Y-133468028D01*
X142968028Y-133612786D01*
X142847715Y-133778386D01*
X142754781Y-133960776D01*
X142691522Y-134155465D01*
X142659500Y-134357648D01*
X142659500Y-134562351D01*
X142691522Y-134764534D01*
X142754781Y-134959223D01*
X142818691Y-135084653D01*
X142836231Y-135119076D01*
X142847715Y-135141613D01*
X142968028Y-135307213D01*
X143112786Y-135451971D01*
X143231188Y-135537993D01*
X143278390Y-135572287D01*
X143386420Y-135627331D01*
X143460776Y-135665218D01*
X143460778Y-135665218D01*
X143460781Y-135665220D01*
X143539956Y-135690945D01*
X143651131Y-135727069D01*
X143708806Y-135766507D01*
X143736004Y-135830866D01*
X143724089Y-135899712D01*
X143676845Y-135951188D01*
X143651131Y-135962931D01*
X143460776Y-136024781D01*
X143278386Y-136117715D01*
X143112786Y-136238028D01*
X142968028Y-136382786D01*
X142847715Y-136548386D01*
X142754781Y-136730776D01*
X142691522Y-136925465D01*
X142659500Y-137127648D01*
X142659500Y-137332351D01*
X142691522Y-137534534D01*
X142754781Y-137729223D01*
X142847715Y-137911613D01*
X142968028Y-138077213D01*
X143112786Y-138221971D01*
X143267749Y-138334556D01*
X143278390Y-138342287D01*
X143386341Y-138397291D01*
X143460776Y-138435218D01*
X143460778Y-138435218D01*
X143460781Y-138435220D01*
X143539956Y-138460945D01*
X143651131Y-138497069D01*
X143708806Y-138536507D01*
X143736004Y-138600866D01*
X143724089Y-138669712D01*
X143676845Y-138721188D01*
X143651131Y-138732931D01*
X143460776Y-138794781D01*
X143278386Y-138887715D01*
X143112786Y-139008028D01*
X142968028Y-139152786D01*
X142847715Y-139318386D01*
X142754781Y-139500776D01*
X142691522Y-139695465D01*
X142659500Y-139897648D01*
X142659500Y-140102351D01*
X142691522Y-140304534D01*
X142754781Y-140499223D01*
X142847715Y-140681613D01*
X142968028Y-140847213D01*
X143112786Y-140991971D01*
X143267749Y-141104556D01*
X143278390Y-141112287D01*
X143394607Y-141171503D01*
X143460776Y-141205218D01*
X143460778Y-141205218D01*
X143460781Y-141205220D01*
X143565137Y-141239127D01*
X143655465Y-141268477D01*
X143744937Y-141282648D01*
X143857648Y-141300500D01*
X143857649Y-141300500D01*
X144062351Y-141300500D01*
X144062352Y-141300500D01*
X144264534Y-141268477D01*
X144459219Y-141205220D01*
X144641610Y-141112287D01*
X144734590Y-141044732D01*
X144807213Y-140991971D01*
X144807215Y-140991968D01*
X144807219Y-140991966D01*
X144951966Y-140847219D01*
X144951968Y-140847215D01*
X144951971Y-140847213D01*
X145004732Y-140774590D01*
X145072287Y-140681610D01*
X145165220Y-140499219D01*
X145228477Y-140304534D01*
X145260500Y-140102352D01*
X145260500Y-139897648D01*
X145259892Y-139893812D01*
X145228477Y-139695465D01*
X145165218Y-139500776D01*
X145131503Y-139434607D01*
X145072287Y-139318390D01*
X145056463Y-139296610D01*
X144951971Y-139152786D01*
X144807213Y-139008028D01*
X144641613Y-138887715D01*
X144641612Y-138887714D01*
X144641610Y-138887713D01*
X144584653Y-138858691D01*
X144459223Y-138794781D01*
X144268868Y-138732931D01*
X144211193Y-138693493D01*
X144183995Y-138629134D01*
X144195910Y-138560288D01*
X144243154Y-138508812D01*
X144268868Y-138497069D01*
X144311508Y-138483213D01*
X144459219Y-138435220D01*
X144641610Y-138342287D01*
X144734590Y-138274732D01*
X144807213Y-138221971D01*
X144807215Y-138221968D01*
X144807219Y-138221966D01*
X144951966Y-138077219D01*
X144951968Y-138077215D01*
X144951971Y-138077213D01*
X145004732Y-138004590D01*
X145072287Y-137911610D01*
X145165220Y-137729219D01*
X145228477Y-137534534D01*
X145260500Y-137332352D01*
X145260500Y-137127648D01*
X145228477Y-136925466D01*
X145165220Y-136730781D01*
X145165218Y-136730778D01*
X145165218Y-136730776D01*
X145131503Y-136664607D01*
X145072287Y-136548390D01*
X145056274Y-136526350D01*
X144951971Y-136382786D01*
X144807213Y-136238028D01*
X144641613Y-136117715D01*
X144641612Y-136117714D01*
X144641610Y-136117713D01*
X144584653Y-136088691D01*
X144459223Y-136024781D01*
X144268868Y-135962931D01*
X144211193Y-135923493D01*
X144183995Y-135859134D01*
X144195910Y-135790288D01*
X144243154Y-135738812D01*
X144268868Y-135727069D01*
X144311508Y-135713213D01*
X144459219Y-135665220D01*
X144641610Y-135572287D01*
X144688812Y-135537993D01*
X144807213Y-135451971D01*
X144807215Y-135451968D01*
X144807219Y-135451966D01*
X144951966Y-135307219D01*
X144951968Y-135307215D01*
X144951971Y-135307213D01*
X145056278Y-135163644D01*
X145072287Y-135141610D01*
X145165220Y-134959219D01*
X145228477Y-134764534D01*
X145260500Y-134562352D01*
X145260500Y-134357648D01*
X145259934Y-134354074D01*
X145228478Y-134155472D01*
X145228477Y-134155471D01*
X145228477Y-134155466D01*
X145223825Y-134141151D01*
X145221832Y-134071312D01*
X145254075Y-134015158D01*
X146480520Y-132788716D01*
X146559577Y-132651784D01*
X146600501Y-132499057D01*
X146600501Y-132340942D01*
X146600501Y-132333347D01*
X146600500Y-132333329D01*
X146600500Y-130920945D01*
X146600500Y-130920943D01*
X146574870Y-130825293D01*
X146566869Y-130795429D01*
X146566868Y-130795427D01*
X146559577Y-130768216D01*
X146559577Y-130768215D01*
X146519058Y-130698034D01*
X146517042Y-130694542D01*
X146517039Y-130694536D01*
X146480524Y-130631290D01*
X146480521Y-130631286D01*
X146480520Y-130631284D01*
X146368716Y-130519480D01*
X146368715Y-130519479D01*
X146364385Y-130515149D01*
X146364374Y-130515139D01*
X141832422Y-125983187D01*
X141798937Y-125921864D01*
X141803921Y-125852172D01*
X141845793Y-125796239D01*
X141911257Y-125771822D01*
X141947691Y-125774614D01*
X142120491Y-125814055D01*
X142120500Y-125814056D01*
X142120505Y-125814057D01*
X142306547Y-125835018D01*
X142399569Y-125845499D01*
X142399572Y-125845500D01*
X142399575Y-125845500D01*
X142680428Y-125845500D01*
X142680429Y-125845499D01*
X142823055Y-125829429D01*
X142959494Y-125814057D01*
X142959499Y-125814056D01*
X142959509Y-125814055D01*
X143233318Y-125751560D01*
X143498408Y-125658801D01*
X143751445Y-125536945D01*
X143989248Y-125387523D01*
X144208825Y-125212416D01*
X144407416Y-125013825D01*
X144582523Y-124794248D01*
X144731945Y-124556445D01*
X144853801Y-124303408D01*
X144946560Y-124038318D01*
X145009055Y-123764509D01*
X145009411Y-123761354D01*
X145036764Y-123518584D01*
X145040500Y-123485425D01*
X145040500Y-123204575D01*
X145030018Y-123111547D01*
X145009057Y-122925505D01*
X145009054Y-122925487D01*
X144946560Y-122651682D01*
X144946556Y-122651670D01*
X144923465Y-122585680D01*
X144853801Y-122386592D01*
X144747003Y-122164824D01*
X144731946Y-122133557D01*
X144681053Y-122052561D01*
X144582523Y-121895752D01*
X144407416Y-121676175D01*
X144208825Y-121477584D01*
X143989248Y-121302477D01*
X143751445Y-121153055D01*
X143751442Y-121153053D01*
X143498411Y-121031200D01*
X143233329Y-120938443D01*
X143233317Y-120938439D01*
X142959512Y-120875945D01*
X142959494Y-120875942D01*
X142680431Y-120844500D01*
X142680425Y-120844500D01*
X142399575Y-120844500D01*
X142399568Y-120844500D01*
X142120505Y-120875942D01*
X142120487Y-120875945D01*
X141846682Y-120938439D01*
X141846670Y-120938443D01*
X141581588Y-121031200D01*
X141328557Y-121153053D01*
X141090753Y-121302476D01*
X140871175Y-121477583D01*
X140672583Y-121676175D01*
X140497476Y-121895753D01*
X140357494Y-122118533D01*
X140305159Y-122164824D01*
X140236106Y-122175472D01*
X140172257Y-122147097D01*
X140133885Y-122088707D01*
X140128500Y-122052561D01*
X140128500Y-103009860D01*
X140133828Y-102991714D01*
X140134166Y-102972807D01*
X140147665Y-102944590D01*
X140148185Y-102942821D01*
X140149398Y-102940969D01*
X140162639Y-102921153D01*
X157199500Y-102921153D01*
X157199500Y-103078846D01*
X157230261Y-103233489D01*
X157230264Y-103233501D01*
X157290602Y-103379172D01*
X157290609Y-103379185D01*
X157378210Y-103510288D01*
X157378213Y-103510292D01*
X157489707Y-103621786D01*
X157489711Y-103621789D01*
X157620814Y-103709390D01*
X157620827Y-103709397D01*
X157708230Y-103745599D01*
X157766503Y-103769737D01*
X157799691Y-103776338D01*
X157861600Y-103808721D01*
X157896176Y-103869436D01*
X157899500Y-103897955D01*
X157899500Y-130348330D01*
X157899499Y-130348348D01*
X157899499Y-130514054D01*
X157899498Y-130514054D01*
X157900952Y-130519480D01*
X157940423Y-130666785D01*
X157940424Y-130666787D01*
X157940423Y-130666787D01*
X157953538Y-130689501D01*
X157953539Y-130689503D01*
X158019475Y-130803709D01*
X158019481Y-130803717D01*
X158138349Y-130922585D01*
X158138355Y-130922590D01*
X159845921Y-132630157D01*
X159879406Y-132691480D01*
X159876173Y-132756149D01*
X159871523Y-132770460D01*
X159871523Y-132770462D01*
X159839500Y-132972648D01*
X159839500Y-133177351D01*
X159871522Y-133379534D01*
X159934781Y-133574223D01*
X160027715Y-133756613D01*
X160148028Y-133922213D01*
X160292786Y-134066971D01*
X160414600Y-134155472D01*
X160458390Y-134187287D01*
X160640781Y-134280220D01*
X160786807Y-134327666D01*
X160831938Y-134342331D01*
X160889614Y-134381769D01*
X160916812Y-134446127D01*
X160904897Y-134514974D01*
X160857653Y-134566449D01*
X160831939Y-134578193D01*
X160640968Y-134640244D01*
X160458644Y-134733143D01*
X160414077Y-134765523D01*
X160414077Y-134765524D01*
X161010591Y-135362037D01*
X160947007Y-135379075D01*
X160832993Y-135444901D01*
X160739901Y-135537993D01*
X160674075Y-135652007D01*
X160657037Y-135715590D01*
X160060524Y-135119077D01*
X160060523Y-135119077D01*
X160028143Y-135163644D01*
X159935244Y-135345968D01*
X159872009Y-135540582D01*
X159840000Y-135742682D01*
X159840000Y-135947317D01*
X159872009Y-136149417D01*
X159935244Y-136344031D01*
X160028141Y-136526350D01*
X160028147Y-136526359D01*
X160060523Y-136570921D01*
X160060524Y-136570922D01*
X160657037Y-135974409D01*
X160674075Y-136037993D01*
X160739901Y-136152007D01*
X160832993Y-136245099D01*
X160947007Y-136310925D01*
X161010590Y-136327962D01*
X160414076Y-136924474D01*
X160458650Y-136956859D01*
X160640968Y-137049755D01*
X160831939Y-137111806D01*
X160889614Y-137151244D01*
X160916812Y-137215603D01*
X160904897Y-137284449D01*
X160857653Y-137335925D01*
X160831939Y-137347668D01*
X160640776Y-137409781D01*
X160458386Y-137502715D01*
X160292786Y-137623028D01*
X160148028Y-137767786D01*
X160027715Y-137933386D01*
X159934781Y-138115776D01*
X159871522Y-138310465D01*
X159839500Y-138512648D01*
X159839500Y-138717351D01*
X159871522Y-138919534D01*
X159934781Y-139114223D01*
X160027715Y-139296613D01*
X160148028Y-139462213D01*
X160292786Y-139606971D01*
X160447749Y-139719556D01*
X160458390Y-139727287D01*
X160574607Y-139786503D01*
X160640776Y-139820218D01*
X160640778Y-139820218D01*
X160640781Y-139820220D01*
X160719956Y-139845945D01*
X160831131Y-139882069D01*
X160888806Y-139921507D01*
X160916004Y-139985866D01*
X160904089Y-140054712D01*
X160856845Y-140106188D01*
X160831131Y-140117931D01*
X160640776Y-140179781D01*
X160458386Y-140272715D01*
X160292786Y-140393028D01*
X160148028Y-140537786D01*
X160027715Y-140703386D01*
X159934781Y-140885776D01*
X159871522Y-141080465D01*
X159839500Y-141282648D01*
X159839500Y-141487351D01*
X159871522Y-141689534D01*
X159934781Y-141884223D01*
X160027715Y-142066613D01*
X160148028Y-142232213D01*
X160292786Y-142376971D01*
X160447749Y-142489556D01*
X160458390Y-142497287D01*
X160574607Y-142556503D01*
X160640776Y-142590218D01*
X160640778Y-142590218D01*
X160640781Y-142590220D01*
X160745137Y-142624127D01*
X160835465Y-142653477D01*
X160936557Y-142669488D01*
X161037648Y-142685500D01*
X161037649Y-142685500D01*
X161242351Y-142685500D01*
X161242352Y-142685500D01*
X161444534Y-142653477D01*
X161639219Y-142590220D01*
X161821610Y-142497287D01*
X161914590Y-142429732D01*
X161987213Y-142376971D01*
X161987215Y-142376968D01*
X161987219Y-142376966D01*
X162131966Y-142232219D01*
X162131968Y-142232215D01*
X162131971Y-142232213D01*
X162184732Y-142159590D01*
X162252287Y-142066610D01*
X162345220Y-141884219D01*
X162408477Y-141689534D01*
X162440500Y-141487352D01*
X162440500Y-141282648D01*
X162408477Y-141080465D01*
X162345218Y-140885776D01*
X162311503Y-140819607D01*
X162252287Y-140703390D01*
X162236463Y-140681610D01*
X162131971Y-140537786D01*
X161987213Y-140393028D01*
X161821613Y-140272715D01*
X161821612Y-140272714D01*
X161821610Y-140272713D01*
X161764653Y-140243691D01*
X161639223Y-140179781D01*
X161448868Y-140117931D01*
X161391193Y-140078493D01*
X161363995Y-140014134D01*
X161375910Y-139945288D01*
X161423154Y-139893812D01*
X161448868Y-139882069D01*
X161491508Y-139868213D01*
X161639219Y-139820220D01*
X161821610Y-139727287D01*
X161914590Y-139659732D01*
X161987213Y-139606971D01*
X161987215Y-139606968D01*
X161987219Y-139606966D01*
X162131966Y-139462219D01*
X162131968Y-139462215D01*
X162131971Y-139462213D01*
X162184732Y-139389590D01*
X162252287Y-139296610D01*
X162345220Y-139114219D01*
X162408477Y-138919534D01*
X162440500Y-138717352D01*
X162440500Y-138512648D01*
X162439892Y-138508812D01*
X162408477Y-138310465D01*
X162345218Y-138115776D01*
X162311503Y-138049607D01*
X162252287Y-137933390D01*
X162236463Y-137911610D01*
X162131971Y-137767786D01*
X161987213Y-137623028D01*
X161821613Y-137502715D01*
X161821612Y-137502714D01*
X161821610Y-137502713D01*
X161764653Y-137473691D01*
X161639223Y-137409781D01*
X161448060Y-137347668D01*
X161390385Y-137308230D01*
X161363187Y-137243871D01*
X161375102Y-137175025D01*
X161422346Y-137123549D01*
X161448061Y-137111806D01*
X161639029Y-137049755D01*
X161821349Y-136956859D01*
X161865922Y-136924474D01*
X161269409Y-136327962D01*
X161332993Y-136310925D01*
X161447007Y-136245099D01*
X161540099Y-136152007D01*
X161605925Y-136037993D01*
X161622962Y-135974409D01*
X162219474Y-136570921D01*
X162251859Y-136526349D01*
X162344755Y-136344031D01*
X162407990Y-136149417D01*
X162440000Y-135947317D01*
X162440000Y-135742682D01*
X162407990Y-135540582D01*
X162344755Y-135345968D01*
X162251859Y-135163650D01*
X162219474Y-135119077D01*
X162219474Y-135119076D01*
X161622962Y-135715589D01*
X161605925Y-135652007D01*
X161540099Y-135537993D01*
X161447007Y-135444901D01*
X161332993Y-135379075D01*
X161269408Y-135362037D01*
X161865922Y-134765524D01*
X161865921Y-134765523D01*
X161821359Y-134733147D01*
X161821350Y-134733141D01*
X161639031Y-134640244D01*
X161448060Y-134578193D01*
X161390385Y-134538755D01*
X161363187Y-134474396D01*
X161375102Y-134405550D01*
X161422347Y-134354074D01*
X161448061Y-134342331D01*
X161639219Y-134280220D01*
X161821610Y-134187287D01*
X161914590Y-134119732D01*
X161987213Y-134066971D01*
X161987215Y-134066968D01*
X161987219Y-134066966D01*
X162131966Y-133922219D01*
X162131968Y-133922215D01*
X162131971Y-133922213D01*
X162184732Y-133849590D01*
X162252287Y-133756610D01*
X162345220Y-133574219D01*
X162408477Y-133379534D01*
X162440500Y-133177352D01*
X162440500Y-132972648D01*
X162408477Y-132770465D01*
X162362888Y-132630157D01*
X162345220Y-132575781D01*
X162345218Y-132575778D01*
X162345218Y-132575776D01*
X162306126Y-132499055D01*
X162252287Y-132393390D01*
X162208664Y-132333347D01*
X162131971Y-132227786D01*
X161987213Y-132083028D01*
X161821613Y-131962715D01*
X161821612Y-131962714D01*
X161821610Y-131962713D01*
X161764653Y-131933691D01*
X161639223Y-131869781D01*
X161602010Y-131857690D01*
X161570431Y-131847429D01*
X161512757Y-131807992D01*
X161485559Y-131743633D01*
X161497474Y-131674787D01*
X161544718Y-131623311D01*
X161608751Y-131605499D01*
X161987871Y-131605499D01*
X161987872Y-131605499D01*
X162047483Y-131599091D01*
X162182331Y-131548796D01*
X162297546Y-131462546D01*
X162383796Y-131347331D01*
X162434091Y-131212483D01*
X162440500Y-131152873D01*
X162440499Y-129457128D01*
X162434091Y-129397517D01*
X162427251Y-129379179D01*
X162383797Y-129262671D01*
X162383793Y-129262664D01*
X162297547Y-129147455D01*
X162297544Y-129147452D01*
X162182335Y-129061206D01*
X162182328Y-129061202D01*
X162047482Y-129010908D01*
X162047483Y-129010908D01*
X161987883Y-129004501D01*
X161987881Y-129004500D01*
X161987873Y-129004500D01*
X161987864Y-129004500D01*
X160292129Y-129004500D01*
X160292123Y-129004501D01*
X160232516Y-129010908D01*
X160097671Y-129061202D01*
X160097664Y-129061206D01*
X159982455Y-129147452D01*
X159982452Y-129147455D01*
X159896206Y-129262664D01*
X159896202Y-129262671D01*
X159845908Y-129397517D01*
X159839501Y-129457116D01*
X159839501Y-129457123D01*
X159839500Y-129457135D01*
X159839500Y-130625902D01*
X159819815Y-130692941D01*
X159767011Y-130738696D01*
X159697853Y-130748640D01*
X159634297Y-130719615D01*
X159627819Y-130713583D01*
X159136819Y-130222583D01*
X159103334Y-130161260D01*
X159100500Y-130134902D01*
X159100500Y-125249097D01*
X159120185Y-125182058D01*
X159172989Y-125136303D01*
X159242147Y-125126359D01*
X159305703Y-125155384D01*
X159312181Y-125161416D01*
X164356586Y-130205821D01*
X164390071Y-130267144D01*
X164385087Y-130336836D01*
X164343215Y-130392769D01*
X164277751Y-130417186D01*
X164249507Y-130415975D01*
X164145488Y-130399500D01*
X164082352Y-130389500D01*
X163877648Y-130389500D01*
X163857009Y-130392769D01*
X163675465Y-130421522D01*
X163480776Y-130484781D01*
X163298386Y-130577715D01*
X163132786Y-130698028D01*
X162988028Y-130842786D01*
X162867715Y-131008386D01*
X162774781Y-131190776D01*
X162711522Y-131385465D01*
X162685653Y-131548797D01*
X162679500Y-131587648D01*
X162679500Y-131792352D01*
X162681745Y-131806523D01*
X162711522Y-131994534D01*
X162774781Y-132189223D01*
X162867715Y-132371613D01*
X162988028Y-132537213D01*
X163132786Y-132681971D01*
X163279701Y-132788709D01*
X163298390Y-132802287D01*
X163414607Y-132861503D01*
X163480776Y-132895218D01*
X163480778Y-132895218D01*
X163480781Y-132895220D01*
X163558646Y-132920520D01*
X163671131Y-132957069D01*
X163728806Y-132996507D01*
X163756004Y-133060866D01*
X163744089Y-133129712D01*
X163696845Y-133181188D01*
X163671131Y-133192931D01*
X163480776Y-133254781D01*
X163298386Y-133347715D01*
X163132786Y-133468028D01*
X162988028Y-133612786D01*
X162867715Y-133778386D01*
X162774781Y-133960776D01*
X162711522Y-134155465D01*
X162679500Y-134357648D01*
X162679500Y-134562351D01*
X162711522Y-134764534D01*
X162774781Y-134959223D01*
X162838691Y-135084653D01*
X162856231Y-135119076D01*
X162867715Y-135141613D01*
X162988028Y-135307213D01*
X163132786Y-135451971D01*
X163251188Y-135537993D01*
X163298390Y-135572287D01*
X163406420Y-135627331D01*
X163480776Y-135665218D01*
X163480778Y-135665218D01*
X163480781Y-135665220D01*
X163559956Y-135690945D01*
X163671131Y-135727069D01*
X163728806Y-135766507D01*
X163756004Y-135830866D01*
X163744089Y-135899712D01*
X163696845Y-135951188D01*
X163671131Y-135962931D01*
X163480776Y-136024781D01*
X163298386Y-136117715D01*
X163132786Y-136238028D01*
X162988028Y-136382786D01*
X162867715Y-136548386D01*
X162774781Y-136730776D01*
X162711522Y-136925465D01*
X162679500Y-137127648D01*
X162679500Y-137332351D01*
X162711522Y-137534534D01*
X162774781Y-137729223D01*
X162867715Y-137911613D01*
X162988028Y-138077213D01*
X163132786Y-138221971D01*
X163287749Y-138334556D01*
X163298390Y-138342287D01*
X163406341Y-138397291D01*
X163480776Y-138435218D01*
X163480778Y-138435218D01*
X163480781Y-138435220D01*
X163559956Y-138460945D01*
X163671131Y-138497069D01*
X163728806Y-138536507D01*
X163756004Y-138600866D01*
X163744089Y-138669712D01*
X163696845Y-138721188D01*
X163671131Y-138732931D01*
X163480776Y-138794781D01*
X163298386Y-138887715D01*
X163132786Y-139008028D01*
X162988028Y-139152786D01*
X162867715Y-139318386D01*
X162774781Y-139500776D01*
X162711522Y-139695465D01*
X162679500Y-139897648D01*
X162679500Y-140102351D01*
X162711522Y-140304534D01*
X162774781Y-140499223D01*
X162867715Y-140681613D01*
X162988028Y-140847213D01*
X163132786Y-140991971D01*
X163287749Y-141104556D01*
X163298390Y-141112287D01*
X163414607Y-141171503D01*
X163480776Y-141205218D01*
X163480778Y-141205218D01*
X163480781Y-141205220D01*
X163585137Y-141239127D01*
X163675465Y-141268477D01*
X163764937Y-141282648D01*
X163877648Y-141300500D01*
X163877649Y-141300500D01*
X164082351Y-141300500D01*
X164082352Y-141300500D01*
X164284534Y-141268477D01*
X164479219Y-141205220D01*
X164661610Y-141112287D01*
X164754590Y-141044732D01*
X164827213Y-140991971D01*
X164827215Y-140991968D01*
X164827219Y-140991966D01*
X164971966Y-140847219D01*
X164971968Y-140847215D01*
X164971971Y-140847213D01*
X165024732Y-140774590D01*
X165092287Y-140681610D01*
X165185220Y-140499219D01*
X165248477Y-140304534D01*
X165280500Y-140102352D01*
X165280500Y-139897648D01*
X165279892Y-139893812D01*
X165248477Y-139695465D01*
X165185218Y-139500776D01*
X165151503Y-139434607D01*
X165092287Y-139318390D01*
X165076463Y-139296610D01*
X164971971Y-139152786D01*
X164827213Y-139008028D01*
X164661613Y-138887715D01*
X164661612Y-138887714D01*
X164661610Y-138887713D01*
X164604653Y-138858691D01*
X164479223Y-138794781D01*
X164288868Y-138732931D01*
X164231193Y-138693493D01*
X164203995Y-138629134D01*
X164215910Y-138560288D01*
X164263154Y-138508812D01*
X164288868Y-138497069D01*
X164331508Y-138483213D01*
X164479219Y-138435220D01*
X164661610Y-138342287D01*
X164754590Y-138274732D01*
X164827213Y-138221971D01*
X164827215Y-138221968D01*
X164827219Y-138221966D01*
X164971966Y-138077219D01*
X164971968Y-138077215D01*
X164971971Y-138077213D01*
X165024732Y-138004590D01*
X165092287Y-137911610D01*
X165185220Y-137729219D01*
X165248477Y-137534534D01*
X165280500Y-137332352D01*
X165280500Y-137127648D01*
X165248477Y-136925466D01*
X165185220Y-136730781D01*
X165185218Y-136730778D01*
X165185218Y-136730776D01*
X165151503Y-136664607D01*
X165092287Y-136548390D01*
X165076274Y-136526350D01*
X164971971Y-136382786D01*
X164827213Y-136238028D01*
X164661613Y-136117715D01*
X164661612Y-136117714D01*
X164661610Y-136117713D01*
X164604653Y-136088691D01*
X164479223Y-136024781D01*
X164288868Y-135962931D01*
X164231193Y-135923493D01*
X164203995Y-135859134D01*
X164215910Y-135790288D01*
X164263154Y-135738812D01*
X164288868Y-135727069D01*
X164331508Y-135713213D01*
X164479219Y-135665220D01*
X164661610Y-135572287D01*
X164708812Y-135537993D01*
X164827213Y-135451971D01*
X164827215Y-135451968D01*
X164827219Y-135451966D01*
X164971966Y-135307219D01*
X164971968Y-135307215D01*
X164971971Y-135307213D01*
X165076278Y-135163644D01*
X165092287Y-135141610D01*
X165185220Y-134959219D01*
X165248477Y-134764534D01*
X165280500Y-134562352D01*
X165280500Y-134357648D01*
X165279934Y-134354074D01*
X165248478Y-134155472D01*
X165248477Y-134155471D01*
X165248477Y-134155466D01*
X165243825Y-134141151D01*
X165241832Y-134071312D01*
X165274075Y-134015158D01*
X166358506Y-132930728D01*
X166358511Y-132930724D01*
X166368714Y-132920520D01*
X166368716Y-132920520D01*
X166480520Y-132808716D01*
X166559577Y-132671784D01*
X166595634Y-132537219D01*
X166600500Y-132519058D01*
X166600500Y-132360943D01*
X166600500Y-131089059D01*
X166600501Y-131089046D01*
X166600501Y-130920945D01*
X166600501Y-130920943D01*
X166559577Y-130768215D01*
X166519058Y-130698034D01*
X166519058Y-130698033D01*
X166480524Y-130631290D01*
X166480521Y-130631286D01*
X166480520Y-130631284D01*
X166368716Y-130519480D01*
X166368715Y-130519479D01*
X166364385Y-130515149D01*
X166364374Y-130515139D01*
X161826507Y-125977272D01*
X161793022Y-125915949D01*
X161798006Y-125846257D01*
X161839878Y-125790324D01*
X161905342Y-125765907D01*
X161941775Y-125768699D01*
X162140491Y-125814055D01*
X162140500Y-125814056D01*
X162140505Y-125814057D01*
X162326547Y-125835018D01*
X162419569Y-125845499D01*
X162419572Y-125845500D01*
X162419575Y-125845500D01*
X162700428Y-125845500D01*
X162700429Y-125845499D01*
X162843055Y-125829429D01*
X162979494Y-125814057D01*
X162979499Y-125814056D01*
X162979509Y-125814055D01*
X163253318Y-125751560D01*
X163518408Y-125658801D01*
X163771445Y-125536945D01*
X164009248Y-125387523D01*
X164228825Y-125212416D01*
X164427416Y-125013825D01*
X164602523Y-124794248D01*
X164751945Y-124556445D01*
X164873801Y-124303408D01*
X164966560Y-124038318D01*
X165029055Y-123764509D01*
X165029411Y-123761354D01*
X165056764Y-123518584D01*
X165060500Y-123485425D01*
X165060500Y-123204575D01*
X165050018Y-123111547D01*
X165029057Y-122925505D01*
X165029054Y-122925487D01*
X164966560Y-122651682D01*
X164966556Y-122651670D01*
X164943465Y-122585680D01*
X164873801Y-122386592D01*
X164767003Y-122164824D01*
X164751946Y-122133557D01*
X164701053Y-122052561D01*
X164602523Y-121895752D01*
X164427416Y-121676175D01*
X164228825Y-121477584D01*
X164009248Y-121302477D01*
X163771445Y-121153055D01*
X163771442Y-121153053D01*
X163518411Y-121031200D01*
X163253329Y-120938443D01*
X163253317Y-120938439D01*
X162979512Y-120875945D01*
X162979494Y-120875942D01*
X162700431Y-120844500D01*
X162700425Y-120844500D01*
X162419575Y-120844500D01*
X162419568Y-120844500D01*
X162140505Y-120875942D01*
X162140487Y-120875945D01*
X161866682Y-120938439D01*
X161866670Y-120938443D01*
X161601588Y-121031200D01*
X161348557Y-121153053D01*
X161110753Y-121302476D01*
X160891175Y-121477583D01*
X160692583Y-121676175D01*
X160517476Y-121895753D01*
X160368053Y-122133557D01*
X160246200Y-122386588D01*
X160153443Y-122651670D01*
X160153439Y-122651682D01*
X160090945Y-122925487D01*
X160090942Y-122925505D01*
X160059500Y-123204568D01*
X160059500Y-123485431D01*
X160090942Y-123764494D01*
X160090945Y-123764512D01*
X160136299Y-123963219D01*
X160132026Y-124032957D01*
X160090727Y-124089315D01*
X160025515Y-124114398D01*
X159957094Y-124100244D01*
X159927727Y-124078492D01*
X159664819Y-123815584D01*
X159631334Y-123754261D01*
X159628500Y-123727903D01*
X159628500Y-103009860D01*
X159648185Y-102942821D01*
X159649398Y-102940969D01*
X159662639Y-102921153D01*
X159709394Y-102851179D01*
X159769737Y-102705497D01*
X159800500Y-102550842D01*
X159800500Y-102393158D01*
X159800500Y-102393155D01*
X159800499Y-102393153D01*
X159782900Y-102304678D01*
X159769737Y-102238503D01*
X159763498Y-102223440D01*
X159709397Y-102092827D01*
X159709390Y-102092814D01*
X159621789Y-101961711D01*
X159621786Y-101961707D01*
X159510292Y-101850213D01*
X159510288Y-101850210D01*
X159379185Y-101762609D01*
X159379172Y-101762602D01*
X159233501Y-101702264D01*
X159233489Y-101702261D01*
X159078845Y-101671500D01*
X159078842Y-101671500D01*
X158921158Y-101671500D01*
X158921155Y-101671500D01*
X158766510Y-101702261D01*
X158766498Y-101702264D01*
X158620827Y-101762602D01*
X158620814Y-101762609D01*
X158489711Y-101850210D01*
X158489707Y-101850213D01*
X158378213Y-101961707D01*
X158378210Y-101961711D01*
X158290609Y-102092814D01*
X158290601Y-102092829D01*
X158272604Y-102136278D01*
X158228763Y-102190681D01*
X158162468Y-102212745D01*
X158133854Y-102210442D01*
X158078842Y-102199500D01*
X157921158Y-102199500D01*
X157921155Y-102199500D01*
X157766510Y-102230261D01*
X157766498Y-102230264D01*
X157620827Y-102290602D01*
X157620814Y-102290609D01*
X157489711Y-102378210D01*
X157489707Y-102378213D01*
X157378213Y-102489707D01*
X157378210Y-102489711D01*
X157290609Y-102620814D01*
X157290602Y-102620827D01*
X157230264Y-102766498D01*
X157230261Y-102766510D01*
X157199500Y-102921153D01*
X140162639Y-102921153D01*
X140209390Y-102851185D01*
X140209394Y-102851179D01*
X140269737Y-102705497D01*
X140300500Y-102550842D01*
X140300500Y-102393158D01*
X140300500Y-102393155D01*
X140300499Y-102393153D01*
X140282900Y-102304678D01*
X140269737Y-102238503D01*
X140263498Y-102223440D01*
X140209397Y-102092827D01*
X140209390Y-102092814D01*
X140121789Y-101961711D01*
X140121786Y-101961707D01*
X140010292Y-101850213D01*
X140010288Y-101850210D01*
X139879185Y-101762609D01*
X139879172Y-101762602D01*
X139733501Y-101702264D01*
X139733489Y-101702261D01*
X139578845Y-101671500D01*
X139578842Y-101671500D01*
X139421158Y-101671500D01*
X139421155Y-101671500D01*
X139266510Y-101702261D01*
X139266498Y-101702264D01*
X139120827Y-101762602D01*
X139120814Y-101762609D01*
X138989711Y-101850210D01*
X138989707Y-101850213D01*
X138878213Y-101961707D01*
X138878210Y-101961711D01*
X138790609Y-102092814D01*
X138790601Y-102092829D01*
X138772604Y-102136278D01*
X138728763Y-102190681D01*
X138662468Y-102212745D01*
X138633854Y-102210442D01*
X138578842Y-102199500D01*
X138421158Y-102199500D01*
X138421155Y-102199500D01*
X138266510Y-102230261D01*
X138266498Y-102230264D01*
X138120827Y-102290602D01*
X138120814Y-102290609D01*
X137989711Y-102378210D01*
X137989707Y-102378213D01*
X137878213Y-102489707D01*
X137878210Y-102489711D01*
X137790609Y-102620814D01*
X137790602Y-102620827D01*
X137730264Y-102766498D01*
X137730261Y-102766510D01*
X137699500Y-102921153D01*
X131800499Y-102921153D01*
X131772537Y-102780579D01*
X131769737Y-102766503D01*
X131744464Y-102705489D01*
X131709397Y-102620828D01*
X131709396Y-102620827D01*
X131709394Y-102620821D01*
X131697678Y-102603286D01*
X131649398Y-102531029D01*
X131628520Y-102464352D01*
X131628500Y-102462139D01*
X131628500Y-81579054D01*
X159899498Y-81579054D01*
X159940423Y-81731785D01*
X159969358Y-81781900D01*
X159969359Y-81781904D01*
X159969360Y-81781904D01*
X160019479Y-81868714D01*
X160019481Y-81868717D01*
X160138349Y-81987585D01*
X160138355Y-81987590D01*
X162363181Y-84212416D01*
X162396666Y-84273739D01*
X162399500Y-84300097D01*
X162399500Y-101158621D01*
X162399499Y-101158639D01*
X162399499Y-101324345D01*
X162399498Y-101324345D01*
X162440423Y-101477076D01*
X162469358Y-101527191D01*
X162469359Y-101527195D01*
X162469360Y-101527195D01*
X162519479Y-101614005D01*
X162519481Y-101614008D01*
X162638349Y-101732876D01*
X162638355Y-101732881D01*
X163169080Y-102263606D01*
X163202565Y-102324929D01*
X163203017Y-102375477D01*
X163199500Y-102393159D01*
X163199500Y-102550846D01*
X163230261Y-102705489D01*
X163230264Y-102705501D01*
X163290602Y-102851172D01*
X163290609Y-102851185D01*
X163378210Y-102982288D01*
X163378213Y-102982292D01*
X163489707Y-103093786D01*
X163489711Y-103093789D01*
X163620814Y-103181390D01*
X163620827Y-103181397D01*
X163746619Y-103233501D01*
X163766503Y-103241737D01*
X163921153Y-103272499D01*
X163921156Y-103272500D01*
X163921158Y-103272500D01*
X164078844Y-103272500D01*
X164133852Y-103261558D01*
X164203444Y-103267785D01*
X164258621Y-103310648D01*
X164272605Y-103335722D01*
X164290604Y-103379175D01*
X164290609Y-103379185D01*
X164378210Y-103510288D01*
X164378213Y-103510292D01*
X164489707Y-103621786D01*
X164489711Y-103621789D01*
X164620814Y-103709390D01*
X164620827Y-103709397D01*
X164708230Y-103745599D01*
X164766503Y-103769737D01*
X164799691Y-103776338D01*
X164861600Y-103808721D01*
X164896176Y-103869436D01*
X164899500Y-103897955D01*
X164899500Y-110913330D01*
X164899499Y-110913348D01*
X164899499Y-111079054D01*
X164899498Y-111079054D01*
X164940423Y-111231785D01*
X164969358Y-111281900D01*
X164969359Y-111281904D01*
X164969360Y-111281904D01*
X165019479Y-111368714D01*
X165019481Y-111368717D01*
X165138349Y-111487585D01*
X165138355Y-111487590D01*
X178863181Y-125212416D01*
X178896666Y-125273739D01*
X178899500Y-125300097D01*
X178899500Y-129963439D01*
X178899499Y-129963443D01*
X178899499Y-130121557D01*
X178899500Y-130121560D01*
X178899500Y-131413330D01*
X178899499Y-131413348D01*
X178899499Y-131579054D01*
X178899498Y-131579054D01*
X178940424Y-131731789D01*
X178940425Y-131731790D01*
X178961817Y-131768841D01*
X178961818Y-131768843D01*
X179019475Y-131868709D01*
X179019481Y-131868717D01*
X179138349Y-131987585D01*
X179138355Y-131987590D01*
X179850909Y-132700144D01*
X179884394Y-132761467D01*
X179885701Y-132807223D01*
X179859500Y-132972648D01*
X179859500Y-133177351D01*
X179891522Y-133379534D01*
X179954781Y-133574223D01*
X180047715Y-133756613D01*
X180168028Y-133922213D01*
X180312786Y-134066971D01*
X180434600Y-134155472D01*
X180478390Y-134187287D01*
X180660781Y-134280220D01*
X180806807Y-134327666D01*
X180851938Y-134342331D01*
X180909614Y-134381769D01*
X180936812Y-134446127D01*
X180924897Y-134514974D01*
X180877653Y-134566449D01*
X180851939Y-134578193D01*
X180660968Y-134640244D01*
X180478644Y-134733143D01*
X180434077Y-134765523D01*
X180434077Y-134765524D01*
X181030591Y-135362037D01*
X180967007Y-135379075D01*
X180852993Y-135444901D01*
X180759901Y-135537993D01*
X180694075Y-135652007D01*
X180677037Y-135715590D01*
X180080524Y-135119077D01*
X180080523Y-135119077D01*
X180048143Y-135163644D01*
X179955244Y-135345968D01*
X179892009Y-135540582D01*
X179860000Y-135742682D01*
X179860000Y-135947317D01*
X179892009Y-136149417D01*
X179955244Y-136344031D01*
X180048141Y-136526350D01*
X180048147Y-136526359D01*
X180080523Y-136570921D01*
X180080524Y-136570922D01*
X180677037Y-135974409D01*
X180694075Y-136037993D01*
X180759901Y-136152007D01*
X180852993Y-136245099D01*
X180967007Y-136310925D01*
X181030590Y-136327962D01*
X180434076Y-136924474D01*
X180478650Y-136956859D01*
X180660968Y-137049755D01*
X180851939Y-137111806D01*
X180909614Y-137151244D01*
X180936812Y-137215603D01*
X180924897Y-137284449D01*
X180877653Y-137335925D01*
X180851939Y-137347668D01*
X180660776Y-137409781D01*
X180478386Y-137502715D01*
X180312786Y-137623028D01*
X180168028Y-137767786D01*
X180047715Y-137933386D01*
X179954781Y-138115776D01*
X179891522Y-138310465D01*
X179859500Y-138512648D01*
X179859500Y-138717351D01*
X179891522Y-138919534D01*
X179954781Y-139114223D01*
X180047715Y-139296613D01*
X180168028Y-139462213D01*
X180312786Y-139606971D01*
X180467749Y-139719556D01*
X180478390Y-139727287D01*
X180594607Y-139786503D01*
X180660776Y-139820218D01*
X180660778Y-139820218D01*
X180660781Y-139820220D01*
X180739956Y-139845945D01*
X180851131Y-139882069D01*
X180908806Y-139921507D01*
X180936004Y-139985866D01*
X180924089Y-140054712D01*
X180876845Y-140106188D01*
X180851131Y-140117931D01*
X180660776Y-140179781D01*
X180478386Y-140272715D01*
X180312786Y-140393028D01*
X180168028Y-140537786D01*
X180047715Y-140703386D01*
X179954781Y-140885776D01*
X179891522Y-141080465D01*
X179859500Y-141282648D01*
X179859500Y-141487351D01*
X179891522Y-141689534D01*
X179954781Y-141884223D01*
X180047715Y-142066613D01*
X180168028Y-142232213D01*
X180312786Y-142376971D01*
X180467749Y-142489556D01*
X180478390Y-142497287D01*
X180594607Y-142556503D01*
X180660776Y-142590218D01*
X180660778Y-142590218D01*
X180660781Y-142590220D01*
X180765137Y-142624127D01*
X180855465Y-142653477D01*
X180956557Y-142669488D01*
X181057648Y-142685500D01*
X181057649Y-142685500D01*
X181262351Y-142685500D01*
X181262352Y-142685500D01*
X181464534Y-142653477D01*
X181659219Y-142590220D01*
X181841610Y-142497287D01*
X181934590Y-142429732D01*
X182007213Y-142376971D01*
X182007215Y-142376968D01*
X182007219Y-142376966D01*
X182151966Y-142232219D01*
X182151968Y-142232215D01*
X182151971Y-142232213D01*
X182204732Y-142159590D01*
X182272287Y-142066610D01*
X182365220Y-141884219D01*
X182428477Y-141689534D01*
X182460500Y-141487352D01*
X182460500Y-141282648D01*
X182428477Y-141080465D01*
X182365218Y-140885776D01*
X182331503Y-140819607D01*
X182272287Y-140703390D01*
X182256463Y-140681610D01*
X182151971Y-140537786D01*
X182007213Y-140393028D01*
X181841613Y-140272715D01*
X181841612Y-140272714D01*
X181841610Y-140272713D01*
X181784653Y-140243691D01*
X181659223Y-140179781D01*
X181468868Y-140117931D01*
X181411193Y-140078493D01*
X181383995Y-140014134D01*
X181395910Y-139945288D01*
X181443154Y-139893812D01*
X181468868Y-139882069D01*
X181511508Y-139868213D01*
X181659219Y-139820220D01*
X181841610Y-139727287D01*
X181934590Y-139659732D01*
X182007213Y-139606971D01*
X182007215Y-139606968D01*
X182007219Y-139606966D01*
X182151966Y-139462219D01*
X182151968Y-139462215D01*
X182151971Y-139462213D01*
X182204732Y-139389590D01*
X182272287Y-139296610D01*
X182365220Y-139114219D01*
X182428477Y-138919534D01*
X182460500Y-138717352D01*
X182460500Y-138512648D01*
X182459892Y-138508812D01*
X182428477Y-138310465D01*
X182365218Y-138115776D01*
X182331503Y-138049607D01*
X182272287Y-137933390D01*
X182256463Y-137911610D01*
X182151971Y-137767786D01*
X182007213Y-137623028D01*
X181841613Y-137502715D01*
X181841612Y-137502714D01*
X181841610Y-137502713D01*
X181784653Y-137473691D01*
X181659223Y-137409781D01*
X181468060Y-137347668D01*
X181410385Y-137308230D01*
X181383187Y-137243871D01*
X181395102Y-137175025D01*
X181442346Y-137123549D01*
X181468061Y-137111806D01*
X181659029Y-137049755D01*
X181841349Y-136956859D01*
X181885921Y-136924474D01*
X181289409Y-136327962D01*
X181352993Y-136310925D01*
X181467007Y-136245099D01*
X181560099Y-136152007D01*
X181625925Y-136037993D01*
X181642962Y-135974410D01*
X182239474Y-136570922D01*
X182239474Y-136570921D01*
X182271859Y-136526349D01*
X182364755Y-136344031D01*
X182427990Y-136149417D01*
X182460000Y-135947317D01*
X182460000Y-135742682D01*
X182427990Y-135540582D01*
X182364755Y-135345968D01*
X182271859Y-135163650D01*
X182239474Y-135119077D01*
X182239474Y-135119076D01*
X181642962Y-135715589D01*
X181625925Y-135652007D01*
X181560099Y-135537993D01*
X181467007Y-135444901D01*
X181352993Y-135379075D01*
X181289408Y-135362037D01*
X181885922Y-134765524D01*
X181885921Y-134765523D01*
X181841359Y-134733147D01*
X181841350Y-134733141D01*
X181659031Y-134640244D01*
X181468060Y-134578193D01*
X181410385Y-134538755D01*
X181383187Y-134474396D01*
X181395102Y-134405550D01*
X181442347Y-134354074D01*
X181468061Y-134342331D01*
X181659219Y-134280220D01*
X181841610Y-134187287D01*
X181934590Y-134119732D01*
X182007213Y-134066971D01*
X182007215Y-134066968D01*
X182007219Y-134066966D01*
X182151966Y-133922219D01*
X182151968Y-133922215D01*
X182151971Y-133922213D01*
X182204732Y-133849590D01*
X182272287Y-133756610D01*
X182365220Y-133574219D01*
X182428477Y-133379534D01*
X182460500Y-133177352D01*
X182460500Y-132972648D01*
X182428477Y-132770465D01*
X182382888Y-132630157D01*
X182365220Y-132575781D01*
X182365218Y-132575778D01*
X182365218Y-132575776D01*
X182326126Y-132499055D01*
X182272287Y-132393390D01*
X182228664Y-132333347D01*
X182151971Y-132227786D01*
X182007213Y-132083028D01*
X181841613Y-131962715D01*
X181841612Y-131962714D01*
X181841610Y-131962713D01*
X181784653Y-131933691D01*
X181659223Y-131869781D01*
X181622010Y-131857690D01*
X181590431Y-131847429D01*
X181532757Y-131807992D01*
X181505559Y-131743633D01*
X181517474Y-131674787D01*
X181564718Y-131623311D01*
X181628751Y-131605499D01*
X182007871Y-131605499D01*
X182007872Y-131605499D01*
X182067483Y-131599091D01*
X182202331Y-131548796D01*
X182317546Y-131462546D01*
X182403796Y-131347331D01*
X182454091Y-131212483D01*
X182460500Y-131152873D01*
X182460499Y-129457128D01*
X182454091Y-129397517D01*
X182447251Y-129379179D01*
X182403797Y-129262671D01*
X182403793Y-129262664D01*
X182317547Y-129147455D01*
X182317544Y-129147452D01*
X182202335Y-129061206D01*
X182202328Y-129061202D01*
X182067482Y-129010908D01*
X182067483Y-129010908D01*
X182007883Y-129004501D01*
X182007881Y-129004500D01*
X182007873Y-129004500D01*
X182007864Y-129004500D01*
X180312129Y-129004500D01*
X180312123Y-129004501D01*
X180244804Y-129011738D01*
X180244654Y-129010342D01*
X180183244Y-129007050D01*
X180126573Y-128966182D01*
X180100993Y-128901163D01*
X180100500Y-128890114D01*
X180100500Y-125749097D01*
X180120185Y-125682058D01*
X180172989Y-125636303D01*
X180242147Y-125626359D01*
X180305703Y-125655384D01*
X180312181Y-125661416D01*
X185363181Y-130712416D01*
X185396666Y-130773739D01*
X185399500Y-130800097D01*
X185399500Y-131055579D01*
X185379815Y-131122618D01*
X185327011Y-131168373D01*
X185257853Y-131178317D01*
X185194297Y-131149292D01*
X185165015Y-131111874D01*
X185136331Y-131055579D01*
X185112287Y-131008390D01*
X185051894Y-130925265D01*
X184991971Y-130842786D01*
X184847213Y-130698028D01*
X184681613Y-130577715D01*
X184681612Y-130577714D01*
X184681610Y-130577713D01*
X184624653Y-130548691D01*
X184499223Y-130484781D01*
X184304534Y-130421522D01*
X184122991Y-130392769D01*
X184102352Y-130389500D01*
X183897648Y-130389500D01*
X183877009Y-130392769D01*
X183695465Y-130421522D01*
X183500776Y-130484781D01*
X183318386Y-130577715D01*
X183152786Y-130698028D01*
X183008028Y-130842786D01*
X182887715Y-131008386D01*
X182794781Y-131190776D01*
X182731522Y-131385465D01*
X182705653Y-131548797D01*
X182699500Y-131587648D01*
X182699500Y-131792352D01*
X182701745Y-131806523D01*
X182731522Y-131994534D01*
X182794781Y-132189223D01*
X182887715Y-132371613D01*
X183008028Y-132537213D01*
X183152786Y-132681971D01*
X183299701Y-132788709D01*
X183318390Y-132802287D01*
X183434607Y-132861503D01*
X183500776Y-132895218D01*
X183500778Y-132895218D01*
X183500781Y-132895220D01*
X183578646Y-132920520D01*
X183691131Y-132957069D01*
X183748806Y-132996507D01*
X183776004Y-133060866D01*
X183764089Y-133129712D01*
X183716845Y-133181188D01*
X183691131Y-133192931D01*
X183500776Y-133254781D01*
X183318386Y-133347715D01*
X183152786Y-133468028D01*
X183008028Y-133612786D01*
X182887715Y-133778386D01*
X182794781Y-133960776D01*
X182731522Y-134155465D01*
X182699500Y-134357648D01*
X182699500Y-134562351D01*
X182731522Y-134764534D01*
X182794781Y-134959223D01*
X182858691Y-135084653D01*
X182876231Y-135119076D01*
X182887715Y-135141613D01*
X183008028Y-135307213D01*
X183152786Y-135451971D01*
X183271188Y-135537993D01*
X183318390Y-135572287D01*
X183426420Y-135627331D01*
X183500776Y-135665218D01*
X183500778Y-135665218D01*
X183500781Y-135665220D01*
X183579956Y-135690945D01*
X183691131Y-135727069D01*
X183748806Y-135766507D01*
X183776004Y-135830866D01*
X183764089Y-135899712D01*
X183716845Y-135951188D01*
X183691131Y-135962931D01*
X183500776Y-136024781D01*
X183318386Y-136117715D01*
X183152786Y-136238028D01*
X183008028Y-136382786D01*
X182887715Y-136548386D01*
X182794781Y-136730776D01*
X182731522Y-136925465D01*
X182699500Y-137127648D01*
X182699500Y-137332351D01*
X182731522Y-137534534D01*
X182794781Y-137729223D01*
X182887715Y-137911613D01*
X183008028Y-138077213D01*
X183152786Y-138221971D01*
X183307749Y-138334556D01*
X183318390Y-138342287D01*
X183426341Y-138397291D01*
X183500776Y-138435218D01*
X183500778Y-138435218D01*
X183500781Y-138435220D01*
X183579956Y-138460945D01*
X183691131Y-138497069D01*
X183748806Y-138536507D01*
X183776004Y-138600866D01*
X183764089Y-138669712D01*
X183716845Y-138721188D01*
X183691131Y-138732931D01*
X183500776Y-138794781D01*
X183318386Y-138887715D01*
X183152786Y-139008028D01*
X183008028Y-139152786D01*
X182887715Y-139318386D01*
X182794781Y-139500776D01*
X182731522Y-139695465D01*
X182699500Y-139897648D01*
X182699500Y-140102351D01*
X182731522Y-140304534D01*
X182794781Y-140499223D01*
X182887715Y-140681613D01*
X183008028Y-140847213D01*
X183152786Y-140991971D01*
X183307749Y-141104556D01*
X183318390Y-141112287D01*
X183434607Y-141171503D01*
X183500776Y-141205218D01*
X183500778Y-141205218D01*
X183500781Y-141205220D01*
X183605137Y-141239127D01*
X183695465Y-141268477D01*
X183784937Y-141282648D01*
X183897648Y-141300500D01*
X183897649Y-141300500D01*
X184102351Y-141300500D01*
X184102352Y-141300500D01*
X184304534Y-141268477D01*
X184499219Y-141205220D01*
X184681610Y-141112287D01*
X184774590Y-141044732D01*
X184847213Y-140991971D01*
X184847215Y-140991968D01*
X184847219Y-140991966D01*
X184991966Y-140847219D01*
X184991968Y-140847215D01*
X184991971Y-140847213D01*
X185044732Y-140774590D01*
X185112287Y-140681610D01*
X185205220Y-140499219D01*
X185268477Y-140304534D01*
X185300500Y-140102352D01*
X185300500Y-139897648D01*
X185299892Y-139893812D01*
X185268477Y-139695465D01*
X185205218Y-139500776D01*
X185171503Y-139434607D01*
X185112287Y-139318390D01*
X185096463Y-139296610D01*
X184991971Y-139152786D01*
X184847213Y-139008028D01*
X184681613Y-138887715D01*
X184681612Y-138887714D01*
X184681610Y-138887713D01*
X184624653Y-138858691D01*
X184499223Y-138794781D01*
X184308868Y-138732931D01*
X184251193Y-138693493D01*
X184223995Y-138629134D01*
X184235910Y-138560288D01*
X184283154Y-138508812D01*
X184308868Y-138497069D01*
X184351508Y-138483213D01*
X184499219Y-138435220D01*
X184681610Y-138342287D01*
X184774590Y-138274732D01*
X184847213Y-138221971D01*
X184847215Y-138221968D01*
X184847219Y-138221966D01*
X184991966Y-138077219D01*
X184991968Y-138077215D01*
X184991971Y-138077213D01*
X185044732Y-138004590D01*
X185112287Y-137911610D01*
X185205220Y-137729219D01*
X185268477Y-137534534D01*
X185300500Y-137332352D01*
X185300500Y-137127648D01*
X185268477Y-136925466D01*
X185205220Y-136730781D01*
X185205218Y-136730778D01*
X185205218Y-136730776D01*
X185171503Y-136664607D01*
X185112287Y-136548390D01*
X185096274Y-136526350D01*
X184991971Y-136382786D01*
X184847213Y-136238028D01*
X184681613Y-136117715D01*
X184681612Y-136117714D01*
X184681610Y-136117713D01*
X184624653Y-136088691D01*
X184499223Y-136024781D01*
X184308868Y-135962931D01*
X184251193Y-135923493D01*
X184223995Y-135859134D01*
X184235910Y-135790288D01*
X184283154Y-135738812D01*
X184308868Y-135727069D01*
X184351508Y-135713213D01*
X184499219Y-135665220D01*
X184681610Y-135572287D01*
X184792879Y-135491446D01*
X184847213Y-135451971D01*
X184847215Y-135451968D01*
X184847219Y-135451966D01*
X184991966Y-135307219D01*
X184991968Y-135307215D01*
X184991971Y-135307213D01*
X185096278Y-135163644D01*
X185112287Y-135141610D01*
X185205220Y-134959219D01*
X185268477Y-134764534D01*
X185300500Y-134562352D01*
X185300500Y-134357648D01*
X185299934Y-134354074D01*
X185268478Y-134155472D01*
X185268477Y-134155471D01*
X185268477Y-134155466D01*
X185263825Y-134141151D01*
X185261832Y-134071312D01*
X185294075Y-134015158D01*
X186368713Y-132940521D01*
X186368716Y-132940520D01*
X186480520Y-132828716D01*
X186530639Y-132741904D01*
X186559577Y-132691785D01*
X186600500Y-132539057D01*
X186600500Y-132380943D01*
X186600500Y-130420943D01*
X186599493Y-130417186D01*
X186597288Y-130408954D01*
X186594755Y-130399500D01*
X186559577Y-130268215D01*
X186514268Y-130189738D01*
X186480520Y-130131284D01*
X186368716Y-130019480D01*
X186368715Y-130019479D01*
X186364385Y-130015149D01*
X186364374Y-130015139D01*
X182406416Y-126057181D01*
X182372931Y-125995858D01*
X182377915Y-125926166D01*
X182419787Y-125870233D01*
X182485251Y-125845816D01*
X182494097Y-125845500D01*
X182720428Y-125845500D01*
X182720429Y-125845499D01*
X182863055Y-125829429D01*
X182999494Y-125814057D01*
X182999499Y-125814056D01*
X182999509Y-125814055D01*
X183273318Y-125751560D01*
X183538408Y-125658801D01*
X183791445Y-125536945D01*
X184029248Y-125387523D01*
X184248825Y-125212416D01*
X184447416Y-125013825D01*
X184622523Y-124794248D01*
X184771945Y-124556445D01*
X184893801Y-124303408D01*
X184986560Y-124038318D01*
X185049055Y-123764509D01*
X185049411Y-123761354D01*
X185076764Y-123518584D01*
X185080500Y-123485425D01*
X185080500Y-123204575D01*
X185070018Y-123111547D01*
X185049057Y-122925505D01*
X185049054Y-122925487D01*
X184986560Y-122651682D01*
X184986556Y-122651670D01*
X184963465Y-122585680D01*
X184893801Y-122386592D01*
X184787003Y-122164824D01*
X184771946Y-122133557D01*
X184721053Y-122052561D01*
X184622523Y-121895752D01*
X184447416Y-121676175D01*
X184248825Y-121477584D01*
X184029248Y-121302477D01*
X183791445Y-121153055D01*
X183791442Y-121153053D01*
X183538411Y-121031200D01*
X183273329Y-120938443D01*
X183273317Y-120938439D01*
X182999512Y-120875945D01*
X182999494Y-120875942D01*
X182720431Y-120844500D01*
X182720425Y-120844500D01*
X182439575Y-120844500D01*
X182439568Y-120844500D01*
X182160505Y-120875942D01*
X182160487Y-120875945D01*
X181886682Y-120938439D01*
X181886670Y-120938443D01*
X181621588Y-121031200D01*
X181368557Y-121153053D01*
X181130753Y-121302476D01*
X180911175Y-121477583D01*
X180712583Y-121676175D01*
X180537476Y-121895753D01*
X180388053Y-122133557D01*
X180266200Y-122386588D01*
X180173443Y-122651670D01*
X180173439Y-122651682D01*
X180110945Y-122925487D01*
X180110942Y-122925505D01*
X180079500Y-123204568D01*
X180079500Y-123430903D01*
X180059815Y-123497942D01*
X180007011Y-123543697D01*
X179937853Y-123553641D01*
X179874297Y-123524616D01*
X179867819Y-123518584D01*
X166636819Y-110287584D01*
X166603334Y-110226261D01*
X166600500Y-110199903D01*
X166600500Y-103051765D01*
X166620185Y-102984726D01*
X166621398Y-102982874D01*
X166709390Y-102851185D01*
X166709391Y-102851183D01*
X166709394Y-102851179D01*
X166769737Y-102705497D01*
X166800500Y-102550842D01*
X166800500Y-102393158D01*
X166800500Y-102393155D01*
X166800499Y-102393153D01*
X166782900Y-102304678D01*
X166769737Y-102238503D01*
X166763498Y-102223440D01*
X166709397Y-102092827D01*
X166709390Y-102092814D01*
X166621789Y-101961711D01*
X166621786Y-101961707D01*
X166510292Y-101850213D01*
X166510288Y-101850210D01*
X166379185Y-101762609D01*
X166379172Y-101762602D01*
X166233501Y-101702264D01*
X166233489Y-101702261D01*
X166078845Y-101671500D01*
X166078842Y-101671500D01*
X165921158Y-101671500D01*
X165921155Y-101671500D01*
X165766510Y-101702261D01*
X165766498Y-101702264D01*
X165620827Y-101762602D01*
X165620814Y-101762609D01*
X165489711Y-101850210D01*
X165489707Y-101850213D01*
X165432259Y-101907662D01*
X165370936Y-101941147D01*
X165301244Y-101936163D01*
X165256897Y-101907662D01*
X164164819Y-100815584D01*
X164131334Y-100754261D01*
X164128500Y-100727903D01*
X164128500Y-90837106D01*
X179599500Y-90837106D01*
X179599500Y-91162893D01*
X179635974Y-91486604D01*
X179635976Y-91486620D01*
X179708467Y-91804226D01*
X179708471Y-91804238D01*
X179816066Y-92111725D01*
X179957413Y-92405234D01*
X179957415Y-92405237D01*
X180130739Y-92681081D01*
X180333857Y-92935783D01*
X180564217Y-93166143D01*
X180818919Y-93369261D01*
X181094763Y-93542585D01*
X181388278Y-93683935D01*
X181619217Y-93764744D01*
X181695761Y-93791528D01*
X181695773Y-93791532D01*
X182013383Y-93864024D01*
X182337106Y-93900499D01*
X182337107Y-93900500D01*
X182337111Y-93900500D01*
X182662893Y-93900500D01*
X182662893Y-93900499D01*
X182986617Y-93864024D01*
X183304227Y-93791532D01*
X183611722Y-93683935D01*
X183905237Y-93542585D01*
X184181081Y-93369261D01*
X184435783Y-93166143D01*
X184666143Y-92935783D01*
X184869261Y-92681081D01*
X185042585Y-92405237D01*
X185183935Y-92111722D01*
X185291532Y-91804227D01*
X185364024Y-91486617D01*
X185400500Y-91162889D01*
X185400500Y-90837111D01*
X185364024Y-90513383D01*
X185291532Y-90195773D01*
X185183935Y-89888278D01*
X185042585Y-89594763D01*
X184869261Y-89318919D01*
X184666143Y-89064217D01*
X184435783Y-88833857D01*
X184181081Y-88630739D01*
X183905237Y-88457415D01*
X183905234Y-88457413D01*
X183611725Y-88316066D01*
X183304238Y-88208471D01*
X183304226Y-88208467D01*
X182986620Y-88135976D01*
X182986604Y-88135974D01*
X182662893Y-88099500D01*
X182662889Y-88099500D01*
X182337111Y-88099500D01*
X182337107Y-88099500D01*
X182013395Y-88135974D01*
X182013379Y-88135976D01*
X181695773Y-88208467D01*
X181695761Y-88208471D01*
X181388274Y-88316066D01*
X181094765Y-88457413D01*
X180818920Y-88630738D01*
X180564217Y-88833856D01*
X180333856Y-89064217D01*
X180130738Y-89318920D01*
X179957413Y-89594765D01*
X179816066Y-89888274D01*
X179708471Y-90195761D01*
X179708467Y-90195773D01*
X179635976Y-90513379D01*
X179635974Y-90513395D01*
X179599500Y-90837106D01*
X164128500Y-90837106D01*
X164128500Y-79512427D01*
X164148185Y-79445388D01*
X164164815Y-79424750D01*
X164826080Y-78763484D01*
X164887401Y-78730001D01*
X164933158Y-78728694D01*
X164937332Y-78729355D01*
X164937338Y-78729357D01*
X165052654Y-78747621D01*
X165131635Y-78760131D01*
X165131639Y-78760131D01*
X165328366Y-78760131D01*
X165522662Y-78729357D01*
X165554633Y-78718969D01*
X165709757Y-78668566D01*
X165885038Y-78579256D01*
X166044190Y-78463625D01*
X166183294Y-78324521D01*
X166298925Y-78165369D01*
X166388235Y-77990088D01*
X166449026Y-77802993D01*
X166449044Y-77802877D01*
X166479800Y-77608697D01*
X166479800Y-77412009D01*
X166750699Y-77412009D01*
X166750699Y-77608652D01*
X166781461Y-77802877D01*
X166842225Y-77989893D01*
X166842226Y-77989896D01*
X166931501Y-78165106D01*
X166956821Y-78199954D01*
X166956821Y-78199955D01*
X167520873Y-77635903D01*
X167538453Y-77701510D01*
X167603660Y-77814452D01*
X167695878Y-77906670D01*
X167808820Y-77971877D01*
X167874426Y-77989456D01*
X167310374Y-78553507D01*
X167310374Y-78553508D01*
X167345222Y-78578827D01*
X167520433Y-78668103D01*
X167520436Y-78668104D01*
X167707452Y-78728868D01*
X167901678Y-78759631D01*
X168098320Y-78759631D01*
X168292545Y-78728868D01*
X168479561Y-78668104D01*
X168479574Y-78668098D01*
X168654768Y-78578831D01*
X168654773Y-78578828D01*
X168689623Y-78553507D01*
X168125572Y-77989456D01*
X168191178Y-77971877D01*
X168304120Y-77906670D01*
X168396338Y-77814452D01*
X168461545Y-77701510D01*
X168479124Y-77635903D01*
X169043175Y-78199954D01*
X169068496Y-78165105D01*
X169068499Y-78165100D01*
X169157766Y-77989906D01*
X169157772Y-77989893D01*
X169218536Y-77802877D01*
X169249299Y-77608652D01*
X169249299Y-77412009D01*
X169249292Y-77411964D01*
X169520199Y-77411964D01*
X169520199Y-77608697D01*
X169550972Y-77802993D01*
X169611765Y-77990092D01*
X169689080Y-78141829D01*
X169701074Y-78165369D01*
X169816705Y-78324521D01*
X169955809Y-78463625D01*
X170114961Y-78579256D01*
X170145103Y-78594614D01*
X170290237Y-78668564D01*
X170290239Y-78668564D01*
X170290242Y-78668566D01*
X170340464Y-78684884D01*
X170477336Y-78729357D01*
X170671633Y-78760131D01*
X170671638Y-78760131D01*
X170868365Y-78760131D01*
X171062661Y-78729357D01*
X171094632Y-78718969D01*
X171249756Y-78668566D01*
X171425037Y-78579256D01*
X171584189Y-78463625D01*
X171723293Y-78324521D01*
X171838924Y-78165369D01*
X171928234Y-77990088D01*
X171989025Y-77802993D01*
X171989043Y-77802877D01*
X172019799Y-77608697D01*
X172019799Y-77411964D01*
X172290198Y-77411964D01*
X172290198Y-77608697D01*
X172320971Y-77802993D01*
X172381764Y-77990092D01*
X172459079Y-78141829D01*
X172471073Y-78165369D01*
X172586704Y-78324521D01*
X172725808Y-78463625D01*
X172884960Y-78579256D01*
X172915102Y-78594614D01*
X173060236Y-78668564D01*
X173060238Y-78668564D01*
X173060241Y-78668566D01*
X173110463Y-78684884D01*
X173247335Y-78729357D01*
X173441632Y-78760131D01*
X173441637Y-78760131D01*
X173638364Y-78760131D01*
X173832660Y-78729357D01*
X173864631Y-78718969D01*
X174019755Y-78668566D01*
X174195036Y-78579256D01*
X174354188Y-78463625D01*
X174493292Y-78324521D01*
X174608923Y-78165369D01*
X174698233Y-77990088D01*
X174759024Y-77802993D01*
X174759042Y-77802877D01*
X174789798Y-77608697D01*
X174789798Y-77411964D01*
X174759024Y-77217668D01*
X174698231Y-77030569D01*
X174636329Y-76909080D01*
X174608923Y-76855293D01*
X174493292Y-76696141D01*
X174354188Y-76557037D01*
X174195036Y-76441406D01*
X174019759Y-76352097D01*
X173832660Y-76291304D01*
X173638364Y-76260531D01*
X173638359Y-76260531D01*
X173441637Y-76260531D01*
X173441632Y-76260531D01*
X173247335Y-76291304D01*
X173060236Y-76352097D01*
X172884959Y-76441406D01*
X172794157Y-76507378D01*
X172725808Y-76557037D01*
X172725806Y-76557039D01*
X172725805Y-76557039D01*
X172586706Y-76696138D01*
X172586706Y-76696139D01*
X172586704Y-76696141D01*
X172537045Y-76764490D01*
X172471073Y-76855292D01*
X172381764Y-77030569D01*
X172320971Y-77217668D01*
X172290198Y-77411964D01*
X172019799Y-77411964D01*
X171989025Y-77217668D01*
X171928232Y-77030569D01*
X171866330Y-76909080D01*
X171838924Y-76855293D01*
X171723293Y-76696141D01*
X171584189Y-76557037D01*
X171425037Y-76441406D01*
X171249760Y-76352097D01*
X171062661Y-76291304D01*
X170868365Y-76260531D01*
X170868360Y-76260531D01*
X170671638Y-76260531D01*
X170671633Y-76260531D01*
X170477336Y-76291304D01*
X170290237Y-76352097D01*
X170114960Y-76441406D01*
X170024158Y-76507378D01*
X169955809Y-76557037D01*
X169955807Y-76557039D01*
X169955806Y-76557039D01*
X169816707Y-76696138D01*
X169816707Y-76696139D01*
X169816705Y-76696141D01*
X169767046Y-76764490D01*
X169701074Y-76855292D01*
X169611765Y-77030569D01*
X169550972Y-77217668D01*
X169520199Y-77411964D01*
X169249292Y-77411964D01*
X169218536Y-77217784D01*
X169157772Y-77030768D01*
X169157771Y-77030765D01*
X169068495Y-76855554D01*
X169043175Y-76820706D01*
X168479123Y-77384757D01*
X168461545Y-77319152D01*
X168396338Y-77206210D01*
X168304120Y-77113992D01*
X168191178Y-77048785D01*
X168125571Y-77031205D01*
X168689623Y-76467153D01*
X168654774Y-76441833D01*
X168479564Y-76352558D01*
X168479561Y-76352557D01*
X168292545Y-76291793D01*
X168098320Y-76261031D01*
X167901678Y-76261031D01*
X167707452Y-76291793D01*
X167520436Y-76352557D01*
X167520433Y-76352558D01*
X167345219Y-76441836D01*
X167310374Y-76467152D01*
X167310374Y-76467154D01*
X167874427Y-77031205D01*
X167808820Y-77048785D01*
X167695878Y-77113992D01*
X167603660Y-77206210D01*
X167538453Y-77319152D01*
X167520873Y-77384758D01*
X166956822Y-76820706D01*
X166956820Y-76820706D01*
X166931504Y-76855551D01*
X166842226Y-77030765D01*
X166842225Y-77030768D01*
X166781461Y-77217784D01*
X166750699Y-77412009D01*
X166479800Y-77412009D01*
X166479800Y-77411964D01*
X166449026Y-77217668D01*
X166388233Y-77030569D01*
X166326331Y-76909080D01*
X166298925Y-76855293D01*
X166183294Y-76696141D01*
X166044190Y-76557037D01*
X165885038Y-76441406D01*
X165709761Y-76352097D01*
X165522662Y-76291304D01*
X165328366Y-76260531D01*
X165328361Y-76260531D01*
X165131639Y-76260531D01*
X165131634Y-76260531D01*
X164937337Y-76291304D01*
X164750238Y-76352097D01*
X164574961Y-76441406D01*
X164484159Y-76507378D01*
X164415810Y-76557037D01*
X164415808Y-76557039D01*
X164415807Y-76557039D01*
X164276708Y-76696138D01*
X164276708Y-76696139D01*
X164276706Y-76696141D01*
X164227047Y-76764490D01*
X164161075Y-76855292D01*
X164071766Y-77030569D01*
X164010973Y-77217668D01*
X163980200Y-77411964D01*
X163980200Y-77608697D01*
X164011635Y-77807172D01*
X164002680Y-77876466D01*
X163976843Y-77914251D01*
X163847353Y-78043741D01*
X163786030Y-78077226D01*
X163716338Y-78072242D01*
X163660405Y-78030370D01*
X163635988Y-77964906D01*
X163641740Y-77917746D01*
X163679026Y-77802993D01*
X163679044Y-77802877D01*
X163709800Y-77608697D01*
X163709800Y-77411964D01*
X163679026Y-77217668D01*
X163618233Y-77030569D01*
X163556331Y-76909080D01*
X163528925Y-76855293D01*
X163413294Y-76696141D01*
X163274190Y-76557037D01*
X163115038Y-76441406D01*
X162939761Y-76352097D01*
X162752662Y-76291304D01*
X162558366Y-76260531D01*
X162558361Y-76260531D01*
X162361639Y-76260531D01*
X162361634Y-76260531D01*
X162167337Y-76291304D01*
X161980238Y-76352097D01*
X161804961Y-76441406D01*
X161714159Y-76507378D01*
X161645810Y-76557037D01*
X161645808Y-76557039D01*
X161645807Y-76557039D01*
X161506708Y-76696138D01*
X161506708Y-76696139D01*
X161506706Y-76696141D01*
X161457047Y-76764490D01*
X161391075Y-76855292D01*
X161334985Y-76965375D01*
X161287010Y-77016171D01*
X161219189Y-77032966D01*
X161153054Y-77010428D01*
X161109603Y-76955713D01*
X161100500Y-76909080D01*
X161100500Y-74871964D01*
X162595198Y-74871964D01*
X162595198Y-75068697D01*
X162625971Y-75262993D01*
X162686764Y-75450092D01*
X162776073Y-75625369D01*
X162891704Y-75784521D01*
X163030808Y-75923625D01*
X163189960Y-76039256D01*
X163272772Y-76081451D01*
X163365236Y-76128564D01*
X163365238Y-76128564D01*
X163365241Y-76128566D01*
X163465528Y-76161151D01*
X163552335Y-76189357D01*
X163746632Y-76220131D01*
X163746637Y-76220131D01*
X163943364Y-76220131D01*
X164137660Y-76189357D01*
X164324755Y-76128566D01*
X164500036Y-76039256D01*
X164659188Y-75923625D01*
X164798292Y-75784521D01*
X164913923Y-75625369D01*
X165003233Y-75450088D01*
X165064024Y-75262993D01*
X165076908Y-75181647D01*
X165094798Y-75068697D01*
X165094798Y-74871964D01*
X165064024Y-74677668D01*
X165031983Y-74579057D01*
X165003233Y-74490574D01*
X165003231Y-74490571D01*
X165003231Y-74490569D01*
X164956118Y-74398105D01*
X164913923Y-74315293D01*
X164798292Y-74156141D01*
X164659188Y-74017037D01*
X164500036Y-73901406D01*
X164456413Y-73879179D01*
X164324759Y-73812097D01*
X164137660Y-73751304D01*
X163943364Y-73720531D01*
X163943359Y-73720531D01*
X163746637Y-73720531D01*
X163746632Y-73720531D01*
X163552335Y-73751304D01*
X163365236Y-73812097D01*
X163189959Y-73901406D01*
X163099157Y-73967378D01*
X163030808Y-74017037D01*
X163030806Y-74017039D01*
X163030805Y-74017039D01*
X162891706Y-74156138D01*
X162891706Y-74156139D01*
X162891704Y-74156141D01*
X162842045Y-74224490D01*
X162776073Y-74315292D01*
X162686764Y-74490569D01*
X162625971Y-74677668D01*
X162595198Y-74871964D01*
X161100500Y-74871964D01*
X161100500Y-73300097D01*
X161120185Y-73233058D01*
X161136819Y-73212416D01*
X161712417Y-72636819D01*
X161773740Y-72603334D01*
X161800098Y-72600500D01*
X163644572Y-72600500D01*
X163711611Y-72620185D01*
X163732253Y-72636819D01*
X165436684Y-74341250D01*
X165470169Y-74402573D01*
X165465185Y-74472265D01*
X165459489Y-74485223D01*
X165456762Y-74490574D01*
X165456761Y-74490577D01*
X165395972Y-74677664D01*
X165395972Y-74677667D01*
X165365198Y-74871964D01*
X165365198Y-75068697D01*
X165395971Y-75262993D01*
X165456764Y-75450092D01*
X165546073Y-75625369D01*
X165661704Y-75784521D01*
X165800808Y-75923625D01*
X165959960Y-76039256D01*
X166042772Y-76081451D01*
X166135236Y-76128564D01*
X166135238Y-76128564D01*
X166135241Y-76128566D01*
X166235528Y-76161151D01*
X166322335Y-76189357D01*
X166516632Y-76220131D01*
X166516637Y-76220131D01*
X166713364Y-76220131D01*
X166907660Y-76189357D01*
X167094755Y-76128566D01*
X167270036Y-76039256D01*
X167429188Y-75923625D01*
X167568292Y-75784521D01*
X167683923Y-75625369D01*
X167773233Y-75450088D01*
X167834024Y-75262993D01*
X167846908Y-75181647D01*
X167864798Y-75068697D01*
X167864798Y-74871964D01*
X168135198Y-74871964D01*
X168135198Y-75068697D01*
X168165971Y-75262993D01*
X168226764Y-75450092D01*
X168316073Y-75625369D01*
X168431704Y-75784521D01*
X168570808Y-75923625D01*
X168729960Y-76039256D01*
X168812772Y-76081451D01*
X168905236Y-76128564D01*
X168905238Y-76128564D01*
X168905241Y-76128566D01*
X169005528Y-76161151D01*
X169092335Y-76189357D01*
X169286632Y-76220131D01*
X169286637Y-76220131D01*
X169483364Y-76220131D01*
X169677660Y-76189357D01*
X169864755Y-76128566D01*
X170040036Y-76039256D01*
X170199188Y-75923625D01*
X170338292Y-75784521D01*
X170453923Y-75625369D01*
X170543233Y-75450088D01*
X170604024Y-75262993D01*
X170616908Y-75181647D01*
X170634798Y-75068697D01*
X170634798Y-74871964D01*
X170905197Y-74871964D01*
X170905197Y-75068697D01*
X170935970Y-75262993D01*
X170996763Y-75450092D01*
X171086072Y-75625369D01*
X171201703Y-75784521D01*
X171340807Y-75923625D01*
X171499959Y-76039256D01*
X171582771Y-76081451D01*
X171675235Y-76128564D01*
X171675237Y-76128564D01*
X171675240Y-76128566D01*
X171775527Y-76161151D01*
X171862334Y-76189357D01*
X172056631Y-76220131D01*
X172056636Y-76220131D01*
X172253363Y-76220131D01*
X172447659Y-76189357D01*
X172634754Y-76128566D01*
X172659993Y-76115706D01*
X178593499Y-76115706D01*
X178593499Y-76364955D01*
X178593500Y-76364972D01*
X178626033Y-76612087D01*
X178690548Y-76852860D01*
X178785930Y-77083135D01*
X178785937Y-77083150D01*
X178910566Y-77299014D01*
X179062306Y-77496765D01*
X179062312Y-77496772D01*
X179238557Y-77673017D01*
X179238564Y-77673023D01*
X179436315Y-77824763D01*
X179652179Y-77949392D01*
X179652194Y-77949399D01*
X179747421Y-77988843D01*
X179882470Y-78044782D01*
X180123239Y-78109296D01*
X180370368Y-78141831D01*
X180370375Y-78141831D01*
X180619623Y-78141831D01*
X180619630Y-78141831D01*
X180866759Y-78109296D01*
X181107528Y-78044782D01*
X181337815Y-77949394D01*
X181553683Y-77824763D01*
X181751435Y-77673022D01*
X181927690Y-77496767D01*
X182079431Y-77299015D01*
X182204062Y-77083147D01*
X182299450Y-76852860D01*
X182363964Y-76612091D01*
X182396499Y-76364962D01*
X182396499Y-76115700D01*
X182363964Y-75868571D01*
X182299450Y-75627802D01*
X182225840Y-75450092D01*
X182204067Y-75397526D01*
X182204060Y-75397511D01*
X182079431Y-75181647D01*
X181927691Y-74983896D01*
X181927685Y-74983889D01*
X181751440Y-74807644D01*
X181751433Y-74807638D01*
X181553682Y-74655898D01*
X181337818Y-74531269D01*
X181337803Y-74531262D01*
X181107528Y-74435880D01*
X180866755Y-74371365D01*
X180619640Y-74338832D01*
X180619635Y-74338831D01*
X180619630Y-74338831D01*
X180370368Y-74338831D01*
X180370362Y-74338831D01*
X180370357Y-74338832D01*
X180123242Y-74371365D01*
X179882469Y-74435880D01*
X179652194Y-74531262D01*
X179652179Y-74531269D01*
X179436315Y-74655898D01*
X179238564Y-74807638D01*
X179238557Y-74807644D01*
X179062312Y-74983889D01*
X179062306Y-74983896D01*
X178910566Y-75181647D01*
X178785937Y-75397511D01*
X178785930Y-75397526D01*
X178690548Y-75627801D01*
X178626033Y-75868574D01*
X178593500Y-76115689D01*
X178593499Y-76115706D01*
X172659993Y-76115706D01*
X172810035Y-76039256D01*
X172969187Y-75923625D01*
X173108291Y-75784521D01*
X173223922Y-75625369D01*
X173313232Y-75450088D01*
X173374023Y-75262993D01*
X173386907Y-75181647D01*
X173404797Y-75068697D01*
X173404797Y-74871964D01*
X173374023Y-74677668D01*
X173341982Y-74579057D01*
X173313232Y-74490574D01*
X173313230Y-74490571D01*
X173313230Y-74490569D01*
X173266117Y-74398105D01*
X173223922Y-74315293D01*
X173108291Y-74156141D01*
X172969187Y-74017037D01*
X172810035Y-73901406D01*
X172766412Y-73879179D01*
X172634758Y-73812097D01*
X172447659Y-73751304D01*
X172253363Y-73720531D01*
X172253358Y-73720531D01*
X172056636Y-73720531D01*
X172056631Y-73720531D01*
X171862334Y-73751304D01*
X171675235Y-73812097D01*
X171499958Y-73901406D01*
X171409156Y-73967378D01*
X171340807Y-74017037D01*
X171340805Y-74017039D01*
X171340804Y-74017039D01*
X171201705Y-74156138D01*
X171201705Y-74156139D01*
X171201703Y-74156141D01*
X171152044Y-74224490D01*
X171086072Y-74315292D01*
X170996763Y-74490569D01*
X170935970Y-74677668D01*
X170905197Y-74871964D01*
X170634798Y-74871964D01*
X170604024Y-74677668D01*
X170571983Y-74579057D01*
X170543233Y-74490574D01*
X170543231Y-74490571D01*
X170543231Y-74490569D01*
X170496118Y-74398105D01*
X170453923Y-74315293D01*
X170338292Y-74156141D01*
X170199188Y-74017037D01*
X170040036Y-73901406D01*
X169996413Y-73879179D01*
X169864759Y-73812097D01*
X169677660Y-73751304D01*
X169483364Y-73720531D01*
X169483359Y-73720531D01*
X169286637Y-73720531D01*
X169286632Y-73720531D01*
X169092335Y-73751304D01*
X168905236Y-73812097D01*
X168729959Y-73901406D01*
X168639157Y-73967378D01*
X168570808Y-74017037D01*
X168570806Y-74017039D01*
X168570805Y-74017039D01*
X168431706Y-74156138D01*
X168431706Y-74156139D01*
X168431704Y-74156141D01*
X168382045Y-74224490D01*
X168316073Y-74315292D01*
X168226764Y-74490569D01*
X168165971Y-74677668D01*
X168135198Y-74871964D01*
X167864798Y-74871964D01*
X167834024Y-74677668D01*
X167801983Y-74579057D01*
X167773233Y-74490574D01*
X167773231Y-74490571D01*
X167773231Y-74490569D01*
X167726118Y-74398105D01*
X167683923Y-74315293D01*
X167568292Y-74156141D01*
X167429188Y-74017037D01*
X167270036Y-73901406D01*
X167226413Y-73879179D01*
X167094759Y-73812097D01*
X166907660Y-73751304D01*
X166713364Y-73720531D01*
X166713359Y-73720531D01*
X166565797Y-73720531D01*
X166498758Y-73700846D01*
X166478116Y-73684212D01*
X164567647Y-71773743D01*
X164547942Y-71748063D01*
X164480520Y-71631284D01*
X164368716Y-71519480D01*
X164368714Y-71519479D01*
X164368709Y-71519475D01*
X164231790Y-71440426D01*
X164231786Y-71440424D01*
X164231784Y-71440423D01*
X164079057Y-71399500D01*
X164079056Y-71399500D01*
X161586670Y-71399500D01*
X161586654Y-71399499D01*
X161579058Y-71399499D01*
X161420943Y-71399499D01*
X161344579Y-71419961D01*
X161268214Y-71440423D01*
X161268209Y-71440426D01*
X161131290Y-71519475D01*
X161131282Y-71519481D01*
X160019479Y-72631284D01*
X159995289Y-72673184D01*
X159980096Y-72699500D01*
X159940423Y-72768215D01*
X159899499Y-72920943D01*
X159899499Y-73079057D01*
X159899499Y-73079059D01*
X159899500Y-73089053D01*
X159899500Y-81413330D01*
X159899499Y-81413348D01*
X159899499Y-81579054D01*
X159899498Y-81579054D01*
X131628500Y-81579054D01*
X131628500Y-79012428D01*
X131637144Y-78982987D01*
X131643668Y-78953001D01*
X131647422Y-78947985D01*
X131648185Y-78945389D01*
X131664813Y-78924752D01*
X131826081Y-78763484D01*
X131887401Y-78730002D01*
X131933157Y-78728695D01*
X132131634Y-78760131D01*
X132131639Y-78760131D01*
X132328366Y-78760131D01*
X132522662Y-78729357D01*
X132554633Y-78718969D01*
X132709757Y-78668566D01*
X132885038Y-78579256D01*
X133044190Y-78463625D01*
X133183294Y-78324521D01*
X133298925Y-78165369D01*
X133388235Y-77990088D01*
X133449026Y-77802993D01*
X133449044Y-77802877D01*
X133479800Y-77608697D01*
X133479800Y-77412009D01*
X133750699Y-77412009D01*
X133750699Y-77608652D01*
X133781461Y-77802877D01*
X133842225Y-77989893D01*
X133842226Y-77989896D01*
X133931501Y-78165106D01*
X133956821Y-78199954D01*
X133956821Y-78199955D01*
X134520873Y-77635903D01*
X134538453Y-77701510D01*
X134603660Y-77814452D01*
X134695878Y-77906670D01*
X134808820Y-77971877D01*
X134874426Y-77989456D01*
X134310374Y-78553507D01*
X134310374Y-78553508D01*
X134345222Y-78578827D01*
X134520433Y-78668103D01*
X134520436Y-78668104D01*
X134707452Y-78728868D01*
X134901678Y-78759631D01*
X135098320Y-78759631D01*
X135292545Y-78728868D01*
X135479561Y-78668104D01*
X135479574Y-78668098D01*
X135654768Y-78578831D01*
X135654773Y-78578828D01*
X135689623Y-78553507D01*
X135125572Y-77989456D01*
X135191178Y-77971877D01*
X135304120Y-77906670D01*
X135396338Y-77814452D01*
X135461545Y-77701510D01*
X135479124Y-77635903D01*
X136043175Y-78199954D01*
X136068496Y-78165105D01*
X136068499Y-78165100D01*
X136157766Y-77989906D01*
X136157772Y-77989893D01*
X136218536Y-77802877D01*
X136249299Y-77608652D01*
X136249299Y-77412009D01*
X136249292Y-77411964D01*
X136520199Y-77411964D01*
X136520199Y-77608697D01*
X136550972Y-77802993D01*
X136611765Y-77990092D01*
X136689080Y-78141829D01*
X136701074Y-78165369D01*
X136816705Y-78324521D01*
X136955809Y-78463625D01*
X137114961Y-78579256D01*
X137145103Y-78594614D01*
X137290237Y-78668564D01*
X137290239Y-78668564D01*
X137290242Y-78668566D01*
X137340464Y-78684884D01*
X137477336Y-78729357D01*
X137671633Y-78760131D01*
X137671638Y-78760131D01*
X137868365Y-78760131D01*
X138062661Y-78729357D01*
X138094632Y-78718969D01*
X138249756Y-78668566D01*
X138425037Y-78579256D01*
X138584189Y-78463625D01*
X138723293Y-78324521D01*
X138838924Y-78165369D01*
X138928234Y-77990088D01*
X138989025Y-77802993D01*
X138989043Y-77802877D01*
X139019799Y-77608697D01*
X139019799Y-77411964D01*
X139290198Y-77411964D01*
X139290198Y-77608697D01*
X139320971Y-77802993D01*
X139381764Y-77990092D01*
X139459079Y-78141829D01*
X139471073Y-78165369D01*
X139586704Y-78324521D01*
X139725808Y-78463625D01*
X139884960Y-78579256D01*
X139915102Y-78594614D01*
X140060236Y-78668564D01*
X140060238Y-78668564D01*
X140060241Y-78668566D01*
X140110463Y-78684884D01*
X140247335Y-78729357D01*
X140441632Y-78760131D01*
X140441637Y-78760131D01*
X140638364Y-78760131D01*
X140832660Y-78729357D01*
X140864631Y-78718969D01*
X141019755Y-78668566D01*
X141195036Y-78579256D01*
X141354188Y-78463625D01*
X141493292Y-78324521D01*
X141608923Y-78165369D01*
X141698233Y-77990088D01*
X141759024Y-77802993D01*
X141759042Y-77802877D01*
X141789798Y-77608697D01*
X141789798Y-77411964D01*
X141759024Y-77217668D01*
X141698231Y-77030569D01*
X141636329Y-76909080D01*
X141608923Y-76855293D01*
X141493292Y-76696141D01*
X141354188Y-76557037D01*
X141195036Y-76441406D01*
X141019759Y-76352097D01*
X140832660Y-76291304D01*
X140638364Y-76260531D01*
X140638359Y-76260531D01*
X140441637Y-76260531D01*
X140441632Y-76260531D01*
X140247335Y-76291304D01*
X140060236Y-76352097D01*
X139884959Y-76441406D01*
X139794157Y-76507378D01*
X139725808Y-76557037D01*
X139725806Y-76557039D01*
X139725805Y-76557039D01*
X139586706Y-76696138D01*
X139586706Y-76696139D01*
X139586704Y-76696141D01*
X139537045Y-76764490D01*
X139471073Y-76855292D01*
X139381764Y-77030569D01*
X139320971Y-77217668D01*
X139290198Y-77411964D01*
X139019799Y-77411964D01*
X138989025Y-77217668D01*
X138928232Y-77030569D01*
X138866330Y-76909080D01*
X138838924Y-76855293D01*
X138723293Y-76696141D01*
X138584189Y-76557037D01*
X138425037Y-76441406D01*
X138249760Y-76352097D01*
X138062661Y-76291304D01*
X137868365Y-76260531D01*
X137868360Y-76260531D01*
X137671638Y-76260531D01*
X137671633Y-76260531D01*
X137477336Y-76291304D01*
X137290237Y-76352097D01*
X137114960Y-76441406D01*
X137024158Y-76507378D01*
X136955809Y-76557037D01*
X136955807Y-76557039D01*
X136955806Y-76557039D01*
X136816707Y-76696138D01*
X136816707Y-76696139D01*
X136816705Y-76696141D01*
X136767046Y-76764490D01*
X136701074Y-76855292D01*
X136611765Y-77030569D01*
X136550972Y-77217668D01*
X136520199Y-77411964D01*
X136249292Y-77411964D01*
X136218536Y-77217784D01*
X136157772Y-77030768D01*
X136157771Y-77030765D01*
X136068495Y-76855554D01*
X136043175Y-76820706D01*
X135479123Y-77384757D01*
X135461545Y-77319152D01*
X135396338Y-77206210D01*
X135304120Y-77113992D01*
X135191178Y-77048785D01*
X135125571Y-77031205D01*
X135689623Y-76467153D01*
X135654774Y-76441833D01*
X135479564Y-76352558D01*
X135479561Y-76352557D01*
X135292545Y-76291793D01*
X135098320Y-76261031D01*
X134901678Y-76261031D01*
X134707452Y-76291793D01*
X134520436Y-76352557D01*
X134520433Y-76352558D01*
X134345219Y-76441836D01*
X134310374Y-76467152D01*
X134310374Y-76467154D01*
X134874427Y-77031205D01*
X134808820Y-77048785D01*
X134695878Y-77113992D01*
X134603660Y-77206210D01*
X134538453Y-77319152D01*
X134520873Y-77384758D01*
X133956822Y-76820706D01*
X133956820Y-76820706D01*
X133931504Y-76855551D01*
X133842226Y-77030765D01*
X133842225Y-77030768D01*
X133781461Y-77217784D01*
X133750699Y-77412009D01*
X133479800Y-77412009D01*
X133479800Y-77411964D01*
X133449026Y-77217668D01*
X133388233Y-77030569D01*
X133326331Y-76909080D01*
X133298925Y-76855293D01*
X133183294Y-76696141D01*
X133044190Y-76557037D01*
X132885038Y-76441406D01*
X132709761Y-76352097D01*
X132522662Y-76291304D01*
X132328366Y-76260531D01*
X132328361Y-76260531D01*
X132131639Y-76260531D01*
X132131634Y-76260531D01*
X131937337Y-76291304D01*
X131750238Y-76352097D01*
X131574961Y-76441406D01*
X131484159Y-76507378D01*
X131415810Y-76557037D01*
X131415808Y-76557039D01*
X131415807Y-76557039D01*
X131276708Y-76696138D01*
X131276708Y-76696139D01*
X131276706Y-76696141D01*
X131227047Y-76764490D01*
X131161075Y-76855292D01*
X131071766Y-77030569D01*
X131010973Y-77217668D01*
X130980200Y-77411964D01*
X130980200Y-77608697D01*
X131011635Y-77807171D01*
X131002680Y-77876465D01*
X130976843Y-77914250D01*
X130847353Y-78043740D01*
X130786030Y-78077225D01*
X130716338Y-78072241D01*
X130660405Y-78030369D01*
X130635988Y-77964905D01*
X130641742Y-77917741D01*
X130668223Y-77836240D01*
X130679024Y-77803000D01*
X130679024Y-77802998D01*
X130679026Y-77802993D01*
X130699612Y-77673017D01*
X130709800Y-77608697D01*
X130709800Y-77411964D01*
X130679026Y-77217668D01*
X130618233Y-77030569D01*
X130556331Y-76909080D01*
X130528925Y-76855293D01*
X130413294Y-76696141D01*
X130274190Y-76557037D01*
X130115038Y-76441406D01*
X129939761Y-76352097D01*
X129752662Y-76291304D01*
X129558366Y-76260531D01*
X129558361Y-76260531D01*
X129361639Y-76260531D01*
X129361634Y-76260531D01*
X129167337Y-76291304D01*
X128980238Y-76352097D01*
X128804961Y-76441406D01*
X128714159Y-76507378D01*
X128645810Y-76557037D01*
X128645808Y-76557039D01*
X128645807Y-76557039D01*
X128506708Y-76696138D01*
X128506708Y-76696139D01*
X128506706Y-76696141D01*
X128457047Y-76764490D01*
X128391075Y-76855292D01*
X128334985Y-76965375D01*
X128287010Y-77016171D01*
X128219189Y-77032966D01*
X128153054Y-77010428D01*
X128109603Y-76955713D01*
X128100500Y-76909080D01*
X128100500Y-74871964D01*
X129595198Y-74871964D01*
X129595198Y-75068697D01*
X129625971Y-75262993D01*
X129686764Y-75450092D01*
X129776073Y-75625369D01*
X129891704Y-75784521D01*
X130030808Y-75923625D01*
X130189960Y-76039256D01*
X130272772Y-76081451D01*
X130365236Y-76128564D01*
X130365238Y-76128564D01*
X130365241Y-76128566D01*
X130465528Y-76161151D01*
X130552335Y-76189357D01*
X130746632Y-76220131D01*
X130746637Y-76220131D01*
X130943364Y-76220131D01*
X131137660Y-76189357D01*
X131324755Y-76128566D01*
X131500036Y-76039256D01*
X131659188Y-75923625D01*
X131798292Y-75784521D01*
X131913923Y-75625369D01*
X132003233Y-75450088D01*
X132064024Y-75262993D01*
X132076908Y-75181647D01*
X132094798Y-75068697D01*
X132094798Y-74871964D01*
X132064024Y-74677668D01*
X132031983Y-74579057D01*
X132003233Y-74490574D01*
X132003231Y-74490571D01*
X132003231Y-74490569D01*
X131956118Y-74398105D01*
X131913923Y-74315293D01*
X131798292Y-74156141D01*
X131659188Y-74017037D01*
X131500036Y-73901406D01*
X131456413Y-73879179D01*
X131324759Y-73812097D01*
X131137660Y-73751304D01*
X130943364Y-73720531D01*
X130943359Y-73720531D01*
X130746637Y-73720531D01*
X130746632Y-73720531D01*
X130552335Y-73751304D01*
X130365236Y-73812097D01*
X130189959Y-73901406D01*
X130099157Y-73967378D01*
X130030808Y-74017037D01*
X130030806Y-74017039D01*
X130030805Y-74017039D01*
X129891706Y-74156138D01*
X129891706Y-74156139D01*
X129891704Y-74156141D01*
X129842045Y-74224490D01*
X129776073Y-74315292D01*
X129686764Y-74490569D01*
X129625971Y-74677668D01*
X129595198Y-74871964D01*
X128100500Y-74871964D01*
X128100500Y-74800097D01*
X128120185Y-74733058D01*
X128136819Y-74712416D01*
X130212416Y-72636819D01*
X130273739Y-72603334D01*
X130300097Y-72600500D01*
X130644572Y-72600500D01*
X130711611Y-72620185D01*
X130732253Y-72636819D01*
X132436684Y-74341250D01*
X132470169Y-74402573D01*
X132465185Y-74472265D01*
X132459489Y-74485223D01*
X132456762Y-74490574D01*
X132456761Y-74490577D01*
X132395972Y-74677664D01*
X132395972Y-74677667D01*
X132365198Y-74871964D01*
X132365198Y-75068697D01*
X132395971Y-75262993D01*
X132456764Y-75450092D01*
X132546073Y-75625369D01*
X132661704Y-75784521D01*
X132800808Y-75923625D01*
X132959960Y-76039256D01*
X133042772Y-76081451D01*
X133135236Y-76128564D01*
X133135238Y-76128564D01*
X133135241Y-76128566D01*
X133235528Y-76161151D01*
X133322335Y-76189357D01*
X133516632Y-76220131D01*
X133516637Y-76220131D01*
X133713364Y-76220131D01*
X133907660Y-76189357D01*
X134094755Y-76128566D01*
X134270036Y-76039256D01*
X134429188Y-75923625D01*
X134568292Y-75784521D01*
X134683923Y-75625369D01*
X134773233Y-75450088D01*
X134834024Y-75262993D01*
X134846908Y-75181647D01*
X134864798Y-75068697D01*
X134864798Y-74871964D01*
X135135198Y-74871964D01*
X135135198Y-75068697D01*
X135165971Y-75262993D01*
X135226764Y-75450092D01*
X135316073Y-75625369D01*
X135431704Y-75784521D01*
X135570808Y-75923625D01*
X135729960Y-76039256D01*
X135812772Y-76081451D01*
X135905236Y-76128564D01*
X135905238Y-76128564D01*
X135905241Y-76128566D01*
X136005528Y-76161151D01*
X136092335Y-76189357D01*
X136286632Y-76220131D01*
X136286637Y-76220131D01*
X136483364Y-76220131D01*
X136677660Y-76189357D01*
X136864755Y-76128566D01*
X137040036Y-76039256D01*
X137199188Y-75923625D01*
X137338292Y-75784521D01*
X137453923Y-75625369D01*
X137543233Y-75450088D01*
X137604024Y-75262993D01*
X137616908Y-75181647D01*
X137634798Y-75068697D01*
X137634798Y-74871964D01*
X137905197Y-74871964D01*
X137905197Y-75068697D01*
X137935970Y-75262993D01*
X137996763Y-75450092D01*
X138086072Y-75625369D01*
X138201703Y-75784521D01*
X138340807Y-75923625D01*
X138499959Y-76039256D01*
X138582771Y-76081451D01*
X138675235Y-76128564D01*
X138675237Y-76128564D01*
X138675240Y-76128566D01*
X138775527Y-76161151D01*
X138862334Y-76189357D01*
X139056631Y-76220131D01*
X139056636Y-76220131D01*
X139253363Y-76220131D01*
X139447659Y-76189357D01*
X139634754Y-76128566D01*
X139659993Y-76115706D01*
X145593499Y-76115706D01*
X145593499Y-76364955D01*
X145593500Y-76364972D01*
X145626033Y-76612087D01*
X145690548Y-76852860D01*
X145785930Y-77083135D01*
X145785937Y-77083150D01*
X145910566Y-77299014D01*
X146062306Y-77496765D01*
X146062312Y-77496772D01*
X146238557Y-77673017D01*
X146238564Y-77673023D01*
X146436315Y-77824763D01*
X146652179Y-77949392D01*
X146652194Y-77949399D01*
X146747421Y-77988843D01*
X146882470Y-78044782D01*
X147123239Y-78109296D01*
X147370368Y-78141831D01*
X147370375Y-78141831D01*
X147619623Y-78141831D01*
X147619630Y-78141831D01*
X147866759Y-78109296D01*
X148107528Y-78044782D01*
X148337815Y-77949394D01*
X148553683Y-77824763D01*
X148751435Y-77673022D01*
X148927690Y-77496767D01*
X149079431Y-77299015D01*
X149204062Y-77083147D01*
X149299450Y-76852860D01*
X149363964Y-76612091D01*
X149396499Y-76364962D01*
X149396499Y-76115706D01*
X153603499Y-76115706D01*
X153603499Y-76364955D01*
X153603500Y-76364972D01*
X153636033Y-76612087D01*
X153700548Y-76852860D01*
X153795930Y-77083135D01*
X153795937Y-77083150D01*
X153920566Y-77299014D01*
X154072306Y-77496765D01*
X154072312Y-77496772D01*
X154248557Y-77673017D01*
X154248564Y-77673023D01*
X154446315Y-77824763D01*
X154662179Y-77949392D01*
X154662194Y-77949399D01*
X154757421Y-77988843D01*
X154892470Y-78044782D01*
X155133239Y-78109296D01*
X155380368Y-78141831D01*
X155380375Y-78141831D01*
X155629623Y-78141831D01*
X155629630Y-78141831D01*
X155876759Y-78109296D01*
X156117528Y-78044782D01*
X156347815Y-77949394D01*
X156563683Y-77824763D01*
X156761435Y-77673022D01*
X156937690Y-77496767D01*
X157089431Y-77299015D01*
X157214062Y-77083147D01*
X157309450Y-76852860D01*
X157373964Y-76612091D01*
X157406499Y-76364962D01*
X157406499Y-76115700D01*
X157373964Y-75868571D01*
X157309450Y-75627802D01*
X157235840Y-75450092D01*
X157214067Y-75397526D01*
X157214060Y-75397511D01*
X157089431Y-75181647D01*
X156937691Y-74983896D01*
X156937685Y-74983889D01*
X156761440Y-74807644D01*
X156761433Y-74807638D01*
X156563682Y-74655898D01*
X156347818Y-74531269D01*
X156347803Y-74531262D01*
X156117528Y-74435880D01*
X155876755Y-74371365D01*
X155629640Y-74338832D01*
X155629635Y-74338831D01*
X155629630Y-74338831D01*
X155380368Y-74338831D01*
X155380362Y-74338831D01*
X155380357Y-74338832D01*
X155133242Y-74371365D01*
X154892469Y-74435880D01*
X154662194Y-74531262D01*
X154662179Y-74531269D01*
X154446315Y-74655898D01*
X154248564Y-74807638D01*
X154248557Y-74807644D01*
X154072312Y-74983889D01*
X154072306Y-74983896D01*
X153920566Y-75181647D01*
X153795937Y-75397511D01*
X153795930Y-75397526D01*
X153700548Y-75627801D01*
X153636033Y-75868574D01*
X153603500Y-76115689D01*
X153603499Y-76115706D01*
X149396499Y-76115706D01*
X149396499Y-76115700D01*
X149363964Y-75868571D01*
X149299450Y-75627802D01*
X149225840Y-75450092D01*
X149204067Y-75397526D01*
X149204060Y-75397511D01*
X149079431Y-75181647D01*
X148927691Y-74983896D01*
X148927685Y-74983889D01*
X148751440Y-74807644D01*
X148751433Y-74807638D01*
X148553682Y-74655898D01*
X148337818Y-74531269D01*
X148337803Y-74531262D01*
X148107528Y-74435880D01*
X147866755Y-74371365D01*
X147619640Y-74338832D01*
X147619635Y-74338831D01*
X147619630Y-74338831D01*
X147370368Y-74338831D01*
X147370362Y-74338831D01*
X147370357Y-74338832D01*
X147123242Y-74371365D01*
X146882469Y-74435880D01*
X146652194Y-74531262D01*
X146652179Y-74531269D01*
X146436315Y-74655898D01*
X146238564Y-74807638D01*
X146238557Y-74807644D01*
X146062312Y-74983889D01*
X146062306Y-74983896D01*
X145910566Y-75181647D01*
X145785937Y-75397511D01*
X145785930Y-75397526D01*
X145690548Y-75627801D01*
X145626033Y-75868574D01*
X145593500Y-76115689D01*
X145593499Y-76115706D01*
X139659993Y-76115706D01*
X139810035Y-76039256D01*
X139969187Y-75923625D01*
X140108291Y-75784521D01*
X140223922Y-75625369D01*
X140313232Y-75450088D01*
X140374023Y-75262993D01*
X140386907Y-75181647D01*
X140404797Y-75068697D01*
X140404797Y-74871964D01*
X140374023Y-74677668D01*
X140341982Y-74579057D01*
X140313232Y-74490574D01*
X140313230Y-74490571D01*
X140313230Y-74490569D01*
X140266117Y-74398105D01*
X140223922Y-74315293D01*
X140108291Y-74156141D01*
X139969187Y-74017037D01*
X139810035Y-73901406D01*
X139766412Y-73879179D01*
X139634758Y-73812097D01*
X139447659Y-73751304D01*
X139253363Y-73720531D01*
X139253358Y-73720531D01*
X139056636Y-73720531D01*
X139056631Y-73720531D01*
X138862334Y-73751304D01*
X138675235Y-73812097D01*
X138499958Y-73901406D01*
X138409156Y-73967378D01*
X138340807Y-74017037D01*
X138340805Y-74017039D01*
X138340804Y-74017039D01*
X138201705Y-74156138D01*
X138201705Y-74156139D01*
X138201703Y-74156141D01*
X138152044Y-74224490D01*
X138086072Y-74315292D01*
X137996763Y-74490569D01*
X137935970Y-74677668D01*
X137905197Y-74871964D01*
X137634798Y-74871964D01*
X137604024Y-74677668D01*
X137571983Y-74579057D01*
X137543233Y-74490574D01*
X137543231Y-74490571D01*
X137543231Y-74490569D01*
X137496118Y-74398105D01*
X137453923Y-74315293D01*
X137338292Y-74156141D01*
X137199188Y-74017037D01*
X137040036Y-73901406D01*
X136996413Y-73879179D01*
X136864759Y-73812097D01*
X136677660Y-73751304D01*
X136483364Y-73720531D01*
X136483359Y-73720531D01*
X136286637Y-73720531D01*
X136286632Y-73720531D01*
X136092335Y-73751304D01*
X135905236Y-73812097D01*
X135729959Y-73901406D01*
X135639157Y-73967378D01*
X135570808Y-74017037D01*
X135570806Y-74017039D01*
X135570805Y-74017039D01*
X135431706Y-74156138D01*
X135431706Y-74156139D01*
X135431704Y-74156141D01*
X135382045Y-74224490D01*
X135316073Y-74315292D01*
X135226764Y-74490569D01*
X135165971Y-74677668D01*
X135135198Y-74871964D01*
X134864798Y-74871964D01*
X134834024Y-74677668D01*
X134801983Y-74579057D01*
X134773233Y-74490574D01*
X134773231Y-74490571D01*
X134773231Y-74490569D01*
X134726118Y-74398105D01*
X134683923Y-74315293D01*
X134568292Y-74156141D01*
X134429188Y-74017037D01*
X134270036Y-73901406D01*
X134226413Y-73879179D01*
X134094759Y-73812097D01*
X133907660Y-73751304D01*
X133713364Y-73720531D01*
X133713359Y-73720531D01*
X133565797Y-73720531D01*
X133498758Y-73700846D01*
X133478116Y-73684212D01*
X131432259Y-71638355D01*
X131432257Y-71638352D01*
X131313386Y-71519481D01*
X131313385Y-71519480D01*
X131201408Y-71454830D01*
X131201408Y-71454829D01*
X131201403Y-71454828D01*
X131192697Y-71449801D01*
X131176455Y-71440423D01*
X131138272Y-71430192D01*
X131023726Y-71399499D01*
X130865612Y-71399499D01*
X130858016Y-71399499D01*
X130858000Y-71399500D01*
X130086669Y-71399500D01*
X130086653Y-71399499D01*
X130079057Y-71399499D01*
X129920943Y-71399499D01*
X129768215Y-71440423D01*
X129768214Y-71440423D01*
X129768212Y-71440424D01*
X129743263Y-71454829D01*
X129743262Y-71454830D01*
X129692121Y-71484356D01*
X129631285Y-71519479D01*
X129631282Y-71519481D01*
X127019479Y-74131284D01*
X127005130Y-74156139D01*
X126981630Y-74196843D01*
X126940423Y-74268215D01*
X126899499Y-74420943D01*
X126899499Y-74579057D01*
X126899499Y-74579059D01*
X126899500Y-74589053D01*
X126899500Y-79913330D01*
X126899499Y-79913348D01*
X126899499Y-80079054D01*
X126899498Y-80079054D01*
X104800500Y-80079054D01*
X104800500Y-78382940D01*
X104820185Y-78315901D01*
X104836819Y-78295259D01*
X107016373Y-76115706D01*
X120603499Y-76115706D01*
X120603499Y-76364955D01*
X120603500Y-76364972D01*
X120636033Y-76612087D01*
X120700548Y-76852860D01*
X120795930Y-77083135D01*
X120795937Y-77083150D01*
X120920566Y-77299014D01*
X121072306Y-77496765D01*
X121072312Y-77496772D01*
X121248557Y-77673017D01*
X121248564Y-77673023D01*
X121446315Y-77824763D01*
X121662179Y-77949392D01*
X121662194Y-77949399D01*
X121757421Y-77988843D01*
X121892470Y-78044782D01*
X122133239Y-78109296D01*
X122380368Y-78141831D01*
X122380375Y-78141831D01*
X122629623Y-78141831D01*
X122629630Y-78141831D01*
X122876759Y-78109296D01*
X123117528Y-78044782D01*
X123347815Y-77949394D01*
X123563683Y-77824763D01*
X123761435Y-77673022D01*
X123937690Y-77496767D01*
X124089431Y-77299015D01*
X124214062Y-77083147D01*
X124309450Y-76852860D01*
X124373964Y-76612091D01*
X124406499Y-76364962D01*
X124406499Y-76115700D01*
X124373964Y-75868571D01*
X124309450Y-75627802D01*
X124235840Y-75450092D01*
X124214067Y-75397526D01*
X124214060Y-75397511D01*
X124089431Y-75181647D01*
X123937691Y-74983896D01*
X123937685Y-74983889D01*
X123761440Y-74807644D01*
X123761433Y-74807638D01*
X123563682Y-74655898D01*
X123347818Y-74531269D01*
X123347811Y-74531266D01*
X123338421Y-74527377D01*
X123338419Y-74527375D01*
X123117528Y-74435880D01*
X122876755Y-74371365D01*
X122629640Y-74338832D01*
X122629635Y-74338831D01*
X122629630Y-74338831D01*
X122380368Y-74338831D01*
X122380362Y-74338831D01*
X122380357Y-74338832D01*
X122133242Y-74371365D01*
X121892469Y-74435880D01*
X121662194Y-74531262D01*
X121662179Y-74531269D01*
X121446315Y-74655898D01*
X121248564Y-74807638D01*
X121248557Y-74807644D01*
X121072312Y-74983889D01*
X121072306Y-74983896D01*
X120920566Y-75181647D01*
X120795937Y-75397511D01*
X120795930Y-75397526D01*
X120700548Y-75627801D01*
X120636033Y-75868574D01*
X120603500Y-76115689D01*
X120603499Y-76115706D01*
X107016373Y-76115706D01*
X107108119Y-76023960D01*
X109121786Y-74010292D01*
X109121789Y-74010289D01*
X109209394Y-73879179D01*
X109269737Y-73733497D01*
X109300500Y-73578842D01*
X109300500Y-73421158D01*
X109300500Y-73421155D01*
X109300499Y-73421153D01*
X109269738Y-73266510D01*
X109269737Y-73266503D01*
X109247334Y-73212416D01*
X109209397Y-73120827D01*
X109209390Y-73120814D01*
X109121789Y-72989711D01*
X109121786Y-72989707D01*
X109010292Y-72878213D01*
X109010288Y-72878210D01*
X108879185Y-72790609D01*
X108879179Y-72790606D01*
X108861589Y-72783320D01*
X108807186Y-72739478D01*
X108785122Y-72673184D01*
X108787425Y-72644571D01*
X108800500Y-72578842D01*
X108800500Y-72421157D01*
X108800500Y-69921158D01*
X108795602Y-69896535D01*
X108769738Y-69766503D01*
X108709394Y-69620821D01*
X108709392Y-69620818D01*
X108709390Y-69620814D01*
X108621789Y-69489711D01*
X108621786Y-69489707D01*
X107510292Y-68378213D01*
X107510288Y-68378210D01*
X107379185Y-68290609D01*
X107379172Y-68290602D01*
X107233501Y-68230264D01*
X107233489Y-68230261D01*
X107078845Y-68199500D01*
X107078842Y-68199500D01*
X106078843Y-68199500D01*
X105921158Y-68199500D01*
X105921153Y-68199500D01*
X105766510Y-68230260D01*
X105766502Y-68230262D01*
X105620824Y-68290604D01*
X105620814Y-68290609D01*
X105489714Y-68378208D01*
X105489709Y-68378212D01*
X105422569Y-68445351D01*
X105361245Y-68478836D01*
X105315491Y-68480142D01*
X105191433Y-68460493D01*
X105122027Y-68449500D01*
X104877973Y-68449500D01*
X104822093Y-68458350D01*
X104636927Y-68487678D01*
X104404812Y-68563097D01*
X104187361Y-68673893D01*
X104039602Y-68781246D01*
X103973795Y-68804725D01*
X103905741Y-68788899D01*
X103861178Y-68746023D01*
X103852317Y-68731657D01*
X103728344Y-68607684D01*
X103579123Y-68515643D01*
X103579118Y-68515641D01*
X103412696Y-68460494D01*
X103412689Y-68460493D01*
X103309985Y-68450000D01*
X102710000Y-68450000D01*
X102710000Y-69509252D01*
X102672292Y-69487482D01*
X102532409Y-69450000D01*
X102387591Y-69450000D01*
X102247708Y-69487482D01*
X102210000Y-69509252D01*
X102210000Y-68450000D01*
X101610014Y-68450000D01*
X101507310Y-68460493D01*
X101507303Y-68460494D01*
X101340881Y-68515641D01*
X101340876Y-68515643D01*
X101191655Y-68607684D01*
X101067684Y-68731655D01*
X100975643Y-68880876D01*
X100975641Y-68880881D01*
X100920494Y-69047303D01*
X100920493Y-69047310D01*
X100910000Y-69150014D01*
X100910000Y-69750000D01*
X101969252Y-69750000D01*
X101947482Y-69787708D01*
X101910000Y-69927591D01*
X101910000Y-70072409D01*
X101947482Y-70212292D01*
X101969252Y-70250000D01*
X100910000Y-70250000D01*
X100910000Y-70849985D01*
X100920493Y-70952689D01*
X100920494Y-70952696D01*
X100975641Y-71119118D01*
X100975643Y-71119123D01*
X101067684Y-71268344D01*
X101191655Y-71392315D01*
X101340876Y-71484356D01*
X101340881Y-71484358D01*
X101507303Y-71539505D01*
X101507310Y-71539506D01*
X101610014Y-71549999D01*
X101610027Y-71550000D01*
X102210000Y-71550000D01*
X102210000Y-70490747D01*
X102247708Y-70512518D01*
X102387591Y-70550000D01*
X102532409Y-70550000D01*
X102672292Y-70512518D01*
X102710000Y-70490747D01*
X102710000Y-71550000D01*
X103018559Y-71550000D01*
X103085598Y-71569685D01*
X103131353Y-71622489D01*
X103141297Y-71691647D01*
X103112272Y-71755203D01*
X103106240Y-71761681D01*
X100736638Y-74131284D01*
X98489711Y-76378211D01*
X98433960Y-76433962D01*
X98378209Y-76489712D01*
X98290609Y-76620814D01*
X98290602Y-76620827D01*
X98230264Y-76766498D01*
X98230261Y-76766510D01*
X98199500Y-76921153D01*
X98199500Y-124578846D01*
X98230261Y-124733489D01*
X98230264Y-124733501D01*
X98290602Y-124879172D01*
X98290609Y-124879185D01*
X98378210Y-125010288D01*
X98378213Y-125010292D01*
X102208558Y-128840636D01*
X102242043Y-128901959D01*
X102237059Y-128971651D01*
X102195187Y-129027584D01*
X102129723Y-129052001D01*
X102077544Y-129044499D01*
X101987482Y-129010908D01*
X101987483Y-129010908D01*
X101927883Y-129004501D01*
X101927881Y-129004500D01*
X101927873Y-129004500D01*
X101927864Y-129004500D01*
X100232129Y-129004500D01*
X100232123Y-129004501D01*
X100172516Y-129010908D01*
X100037671Y-129061202D01*
X100037664Y-129061206D01*
X99922455Y-129147452D01*
X99922452Y-129147455D01*
X99836206Y-129262664D01*
X99836202Y-129262671D01*
X99785908Y-129397517D01*
X99779501Y-129457116D01*
X99779501Y-129457123D01*
X99779500Y-129457135D01*
X99779500Y-131152870D01*
X99779501Y-131152876D01*
X99785908Y-131212483D01*
X99836202Y-131347328D01*
X99836206Y-131347335D01*
X99922452Y-131462544D01*
X99922455Y-131462547D01*
X100037664Y-131548793D01*
X100037671Y-131548797D01*
X100172517Y-131599091D01*
X100172516Y-131599091D01*
X100179444Y-131599835D01*
X100232127Y-131605500D01*
X100611248Y-131605499D01*
X100678285Y-131625183D01*
X100724040Y-131677987D01*
X100733984Y-131747146D01*
X100704959Y-131810701D01*
X100649566Y-131847429D01*
X100580780Y-131869779D01*
X100398386Y-131962715D01*
X100232786Y-132083028D01*
X100232782Y-132083032D01*
X100170206Y-132145609D01*
X100108883Y-132179094D01*
X100039191Y-132174110D01*
X99994844Y-132145609D01*
X99136819Y-131287584D01*
X99103334Y-131226261D01*
X99100500Y-131199903D01*
X99100500Y-129579765D01*
X99120185Y-129512726D01*
X99121398Y-129510874D01*
X99209390Y-129379185D01*
X99209390Y-129379184D01*
X99209394Y-129379179D01*
X99269737Y-129233497D01*
X99300500Y-129078842D01*
X99300500Y-128921158D01*
X99300500Y-128921155D01*
X99300499Y-128921153D01*
X99294325Y-128890114D01*
X99269737Y-128766503D01*
X99269735Y-128766498D01*
X99209397Y-128620827D01*
X99209390Y-128620814D01*
X99121789Y-128489711D01*
X99121786Y-128489707D01*
X99010292Y-128378213D01*
X99010288Y-128378210D01*
X98879185Y-128290609D01*
X98879172Y-128290602D01*
X98733501Y-128230264D01*
X98733489Y-128230261D01*
X98578845Y-128199500D01*
X98578842Y-128199500D01*
X98421158Y-128199500D01*
X98421155Y-128199500D01*
X98266510Y-128230261D01*
X98266498Y-128230264D01*
X98120827Y-128290602D01*
X98120814Y-128290609D01*
X97989711Y-128378210D01*
X97989707Y-128378213D01*
X97878213Y-128489707D01*
X97878210Y-128489711D01*
X97790609Y-128620814D01*
X97790602Y-128620827D01*
X97730264Y-128766498D01*
X97730261Y-128766510D01*
X97699500Y-128921153D01*
X89500500Y-128921153D01*
X89500500Y-90837106D01*
X91599500Y-90837106D01*
X91599500Y-91162893D01*
X91635974Y-91486604D01*
X91635976Y-91486620D01*
X91708467Y-91804226D01*
X91708471Y-91804238D01*
X91816066Y-92111725D01*
X91957413Y-92405234D01*
X91957415Y-92405237D01*
X92130739Y-92681081D01*
X92333857Y-92935783D01*
X92564217Y-93166143D01*
X92818919Y-93369261D01*
X93094763Y-93542585D01*
X93388278Y-93683935D01*
X93619217Y-93764744D01*
X93695761Y-93791528D01*
X93695773Y-93791532D01*
X94013383Y-93864024D01*
X94337106Y-93900499D01*
X94337107Y-93900500D01*
X94337111Y-93900500D01*
X94662893Y-93900500D01*
X94662893Y-93900499D01*
X94986617Y-93864024D01*
X95304227Y-93791532D01*
X95611722Y-93683935D01*
X95905237Y-93542585D01*
X96181081Y-93369261D01*
X96435783Y-93166143D01*
X96666143Y-92935783D01*
X96869261Y-92681081D01*
X97042585Y-92405237D01*
X97183935Y-92111722D01*
X97291532Y-91804227D01*
X97364024Y-91486617D01*
X97400500Y-91162889D01*
X97400500Y-90837111D01*
X97364024Y-90513383D01*
X97291532Y-90195773D01*
X97183935Y-89888278D01*
X97042585Y-89594763D01*
X96869261Y-89318919D01*
X96666143Y-89064217D01*
X96435783Y-88833857D01*
X96181081Y-88630739D01*
X95905237Y-88457415D01*
X95905234Y-88457413D01*
X95611725Y-88316066D01*
X95304238Y-88208471D01*
X95304226Y-88208467D01*
X94986620Y-88135976D01*
X94986604Y-88135974D01*
X94662893Y-88099500D01*
X94662889Y-88099500D01*
X94337111Y-88099500D01*
X94337107Y-88099500D01*
X94013395Y-88135974D01*
X94013379Y-88135976D01*
X93695773Y-88208467D01*
X93695761Y-88208471D01*
X93388274Y-88316066D01*
X93094765Y-88457413D01*
X92818920Y-88630738D01*
X92564217Y-88833856D01*
X92333856Y-89064217D01*
X92130738Y-89318920D01*
X91957413Y-89594765D01*
X91816066Y-89888274D01*
X91708471Y-90195761D01*
X91708467Y-90195773D01*
X91635976Y-90513379D01*
X91635974Y-90513395D01*
X91599500Y-90837106D01*
X89500500Y-90837106D01*
X89500500Y-64624500D01*
X89520185Y-64557461D01*
X89572989Y-64511706D01*
X89624500Y-64500500D01*
X188375500Y-64500500D01*
X188442539Y-64520185D01*
G37*
%TD.AperFunction*%
%TD*%
M02*
