%TF.GenerationSoftware,KiCad,Pcbnew,9.0.6*%
%TF.CreationDate,2026-03-18T13:20:19+11:00*%
%TF.ProjectId,Screen_PCB,53637265-656e-45f5-9043-422e6b696361,rev?*%
%TF.SameCoordinates,Original*%
%TF.FileFunction,Soldermask,Bot*%
%TF.FilePolarity,Negative*%
%FSLAX46Y46*%
G04 Gerber Fmt 4.6, Leading zero omitted, Abs format (unit mm)*
G04 Created by KiCad (PCBNEW 9.0.6) date 2026-03-18 13:20:19*
%MOMM*%
%LPD*%
G01*
G04 APERTURE LIST*
G04 Aperture macros list*
%AMRoundRect*
0 Rectangle with rounded corners*
0 $1 Rounding radius*
0 $2 $3 $4 $5 $6 $7 $8 $9 X,Y pos of 4 corners*
0 Add a 4 corners polygon primitive as box body*
4,1,4,$2,$3,$4,$5,$6,$7,$8,$9,$2,$3,0*
0 Add four circle primitives for the rounded corners*
1,1,$1+$1,$2,$3*
1,1,$1+$1,$4,$5*
1,1,$1+$1,$6,$7*
1,1,$1+$1,$8,$9*
0 Add four rect primitives between the rounded corners*
20,1,$1+$1,$2,$3,$4,$5,0*
20,1,$1+$1,$4,$5,$6,$7,0*
20,1,$1+$1,$6,$7,$8,$9,0*
20,1,$1+$1,$8,$9,$2,$3,0*%
G04 Aperture macros list end*
%ADD10C,2.000000*%
%ADD11R,2.000000X2.000000*%
%ADD12C,3.302000*%
%ADD13C,1.498600*%
%ADD14C,1.600000*%
%ADD15R,1.700000X1.700000*%
%ADD16C,1.700000*%
%ADD17RoundRect,0.250000X-0.600000X-0.600000X0.600000X-0.600000X0.600000X0.600000X-0.600000X0.600000X0*%
%ADD18R,2.000000X1.200000*%
%ADD19O,2.000000X1.200000*%
G04 APERTURE END LIST*
D10*
%TO.C,U3*%
X123820000Y-121561880D03*
X123820000Y-124101880D03*
X123820000Y-126641880D03*
X123820000Y-129181880D03*
X123820000Y-131721880D03*
X123820000Y-134261880D03*
D11*
X112620000Y-121561880D03*
D10*
X112620000Y-124101880D03*
X112620000Y-126641880D03*
X112620000Y-129181880D03*
X112620000Y-131721880D03*
X112620000Y-134261880D03*
%TD*%
D12*
%TO.C,J7*%
X186690000Y-68545000D03*
X186690000Y-93535000D03*
D13*
X185420000Y-75500001D03*
X185420000Y-78270001D03*
X185420000Y-81040000D03*
X185420000Y-83810000D03*
X185420000Y-86579999D03*
X187960000Y-76884999D03*
X187960000Y-79654999D03*
X187960000Y-82424999D03*
X187960000Y-85194998D03*
%TD*%
D14*
%TO.C,R3*%
X172700000Y-109000000D03*
X172700000Y-116620000D03*
%TD*%
D15*
%TO.C,J6*%
X104000000Y-100000000D03*
D16*
X104000000Y-97460000D03*
%TD*%
D15*
%TO.C,J1*%
X104500000Y-130000000D03*
D16*
X104500000Y-127460000D03*
X104500000Y-124920000D03*
X104500000Y-122380000D03*
%TD*%
D12*
%TO.C,*%
X92000000Y-136000000D03*
%TD*%
D15*
%TO.C,J5*%
X103885000Y-89500000D03*
D16*
X103885000Y-86960000D03*
%TD*%
D12*
%TO.C,*%
X92000000Y-52900000D03*
%TD*%
%TO.C,*%
X195100000Y-136100000D03*
%TD*%
D17*
%TO.C,J3*%
X121300000Y-62800000D03*
D16*
X123840000Y-62800000D03*
X121300000Y-65340000D03*
X123840000Y-65340000D03*
X121300000Y-67880000D03*
X123840000Y-67880000D03*
X121300000Y-70420000D03*
X123840000Y-70420000D03*
X121300000Y-72960000D03*
X123840000Y-72960000D03*
X121300000Y-75500000D03*
X123840000Y-75500000D03*
X121300000Y-78040000D03*
X123840000Y-78040000D03*
X121300000Y-80580000D03*
X123840000Y-80580000D03*
X121300000Y-83120000D03*
X123840000Y-83120000D03*
X121300000Y-85660000D03*
X123840000Y-85660000D03*
X121300000Y-88200000D03*
X123840000Y-88200000D03*
X121300000Y-90740000D03*
X123840000Y-90740000D03*
X121300000Y-93280000D03*
X123840000Y-93280000D03*
X121300000Y-95820000D03*
X123840000Y-95820000D03*
X121300000Y-98360000D03*
X123840000Y-98360000D03*
X121300000Y-100900000D03*
X123840000Y-100900000D03*
X121300000Y-103440000D03*
X123840000Y-103440000D03*
X121300000Y-105980000D03*
X123840000Y-105980000D03*
X121300000Y-108520000D03*
X123840000Y-108520000D03*
X121300000Y-111060000D03*
X123840000Y-111060000D03*
%TD*%
D14*
%TO.C,R1*%
X166490000Y-79700000D03*
X174110000Y-79700000D03*
%TD*%
D12*
%TO.C,J8*%
X186720000Y-102955001D03*
X186720000Y-127945001D03*
D13*
X185450000Y-109910002D03*
X185450000Y-112680002D03*
X185450000Y-115450001D03*
X185450000Y-118220001D03*
X185450000Y-120990000D03*
X187990000Y-111295000D03*
X187990000Y-114065000D03*
X187990000Y-116835000D03*
X187990000Y-119604999D03*
%TD*%
D15*
%TO.C,Power*%
X137460000Y-52800000D03*
D16*
X140000000Y-52800000D03*
%TD*%
D15*
%TO.C,Alt_Power*%
X153460000Y-52900000D03*
D16*
X156000000Y-52900000D03*
X158540000Y-52900000D03*
%TD*%
D12*
%TO.C,*%
X195100000Y-52900000D03*
%TD*%
D15*
%TO.C,JP2*%
X171000000Y-89900000D03*
D16*
X168460000Y-89900000D03*
%TD*%
D18*
%TO.C,U2*%
X135040000Y-66760000D03*
D19*
X135040000Y-69300000D03*
X135040000Y-71840000D03*
X135040000Y-74380000D03*
X135040000Y-76920000D03*
X135040000Y-79460000D03*
X135040000Y-82000000D03*
X135040000Y-84540000D03*
X135040000Y-87080000D03*
X135040000Y-89620000D03*
X135040000Y-92160000D03*
X135040000Y-94700000D03*
X135040000Y-97240000D03*
X135040000Y-99780000D03*
X135040000Y-102320000D03*
X135040000Y-104860000D03*
X135040000Y-107400000D03*
X135040000Y-109940000D03*
X135040000Y-112480000D03*
X135036320Y-115017280D03*
X135036320Y-117557280D03*
X135036320Y-120097280D03*
X157900000Y-120100000D03*
X157900000Y-117560000D03*
X157900000Y-115020000D03*
X157900000Y-112480000D03*
X157900000Y-109940000D03*
X157900000Y-107400000D03*
X157900000Y-104860000D03*
X157900000Y-102320000D03*
X157900000Y-99780000D03*
X157900000Y-97240000D03*
X157900000Y-94700000D03*
X157900000Y-92160000D03*
X157900000Y-89620000D03*
X157900000Y-87080000D03*
X157900000Y-84540000D03*
X157900000Y-82000000D03*
X157900000Y-79460000D03*
X157900000Y-76920000D03*
X157900000Y-74380000D03*
X157900000Y-71840000D03*
X157900000Y-69300000D03*
X157900000Y-66760000D03*
%TD*%
M02*
