M48
; DRILL file {KiCad 9.0.6} date 2026-03-18T13:20:25+1100
; FORMAT={-:-/ absolute / metric / decimal}
; #@! TF.CreationDate,2026-03-18T13:20:25+11:00
; #@! TF.GenerationSoftware,Kicad,Pcbnew,9.0.6
; #@! TF.FileFunction,Plated,1,2,PTH
FMAT,2
METRIC
; #@! TA.AperFunction,Plated,PTH,ViaDrill
T1C0.300
; #@! TA.AperFunction,Plated,PTH,ComponentDrill
T2C0.800
; #@! TA.AperFunction,Plated,PTH,ComponentDrill
T3C0.991
; #@! TA.AperFunction,Plated,PTH,ComponentDrill
T4C1.000
%
G90
G05
T1
X108.8Y-122.4
X109.0Y-124.8
X114.55Y-68.75
X116.7Y-82.0
X119.6Y-86.5
X122.6Y-79.4
X126.5Y-136.9
X128.4Y-109.6
X131.9Y-111.0
X145.9Y-113.5
X161.1Y-97.0
X161.9Y-99.4
X173.4Y-82.2
X175.0Y-85.1
X175.0Y-103.9
X175.7Y-103.5
T2
X112.62Y-121.562
X112.62Y-124.102
X112.62Y-126.642
X112.62Y-129.182
X112.62Y-131.722
X112.62Y-134.262
X123.82Y-121.562
X123.82Y-124.102
X123.82Y-126.642
X123.82Y-129.182
X123.82Y-131.722
X123.82Y-134.262
X135.036Y-115.017
X135.036Y-117.557
X135.036Y-120.097
X135.04Y-66.76
X135.04Y-69.3
X135.04Y-71.84
X135.04Y-74.38
X135.04Y-76.92
X135.04Y-79.46
X135.04Y-82.0
X135.04Y-84.54
X135.04Y-87.08
X135.04Y-89.62
X135.04Y-92.16
X135.04Y-94.7
X135.04Y-97.24
X135.04Y-99.78
X135.04Y-102.32
X135.04Y-104.86
X135.04Y-107.4
X135.04Y-109.94
X135.04Y-112.48
X157.9Y-66.76
X157.9Y-69.3
X157.9Y-71.84
X157.9Y-74.38
X157.9Y-76.92
X157.9Y-79.46
X157.9Y-82.0
X157.9Y-84.54
X157.9Y-87.08
X157.9Y-89.62
X157.9Y-92.16
X157.9Y-94.7
X157.9Y-97.24
X157.9Y-99.78
X157.9Y-102.32
X157.9Y-104.86
X157.9Y-107.4
X157.9Y-109.94
X157.9Y-112.48
X157.9Y-115.02
X157.9Y-117.56
X157.9Y-120.1
X166.49Y-79.7
X172.7Y-109.0
X172.7Y-116.62
X174.11Y-79.7
T3
X185.42Y-75.5
X185.42Y-78.27
X185.42Y-81.04
X185.42Y-83.81
X185.42Y-86.58
X185.45Y-109.91
X185.45Y-112.68
X185.45Y-115.45
X185.45Y-118.22
X185.45Y-120.99
X187.96Y-76.885
X187.96Y-79.655
X187.96Y-82.425
X187.96Y-85.195
X187.99Y-111.295
X187.99Y-114.065
X187.99Y-116.835
X187.99Y-119.605
T4
X103.885Y-86.96
X103.885Y-89.5
X104.0Y-97.46
X104.0Y-100.0
X104.5Y-122.38
X104.5Y-124.92
X104.5Y-127.46
X104.5Y-130.0
X121.3Y-62.8
X121.3Y-65.34
X121.3Y-67.88
X121.3Y-70.42
X121.3Y-72.96
X121.3Y-75.5
X121.3Y-78.04
X121.3Y-80.58
X121.3Y-83.12
X121.3Y-85.66
X121.3Y-88.2
X121.3Y-90.74
X121.3Y-93.28
X121.3Y-95.82
X121.3Y-98.36
X121.3Y-100.9
X121.3Y-103.44
X121.3Y-105.98
X121.3Y-108.52
X121.3Y-111.06
X123.84Y-62.8
X123.84Y-65.34
X123.84Y-67.88
X123.84Y-70.42
X123.84Y-72.96
X123.84Y-75.5
X123.84Y-78.04
X123.84Y-80.58
X123.84Y-83.12
X123.84Y-85.66
X123.84Y-88.2
X123.84Y-90.74
X123.84Y-93.28
X123.84Y-95.82
X123.84Y-98.36
X123.84Y-100.9
X123.84Y-103.44
X123.84Y-105.98
X123.84Y-108.52
X123.84Y-111.06
X137.46Y-52.8
X140.0Y-52.8
X153.46Y-52.9
X156.0Y-52.9
X158.54Y-52.9
X168.46Y-89.9
X171.0Y-89.9
M30
