M48
; DRILL file {KiCad 9.0.7} date 2026-03-17T22:03:13+1100
; FORMAT={-:-/ absolute / metric / decimal}
; #@! TF.CreationDate,2026-03-17T22:03:13+11:00
; #@! TF.GenerationSoftware,Kicad,Pcbnew,9.0.7
; #@! TF.FileFunction,Plated,1,2,PTH
FMAT,2
METRIC
; #@! TA.AperFunction,Plated,PTH,ViaDrill
T1C0.300
; #@! TA.AperFunction,Plated,PTH,ComponentDrill
T2C0.800
; #@! TA.AperFunction,Plated,PTH,ComponentDrill
T3C0.900
; #@! TA.AperFunction,Plated,PTH,ComponentDrill
T4C0.991
; #@! TA.AperFunction,Plated,PTH,ComponentDrill
T5C1.000
%
G90
G05
T1
X143.51Y-100.33
X148.082Y-139.954
T2
X113.026Y-114.345
X113.026Y-116.885
X113.026Y-119.425
X113.03Y-66.088
X113.03Y-68.628
X113.03Y-71.168
X113.03Y-73.708
X113.03Y-76.248
X113.03Y-78.788
X113.03Y-81.328
X113.03Y-83.868
X113.03Y-86.408
X113.03Y-88.948
X113.03Y-91.488
X113.03Y-94.028
X113.03Y-96.568
X113.03Y-99.108
X113.03Y-101.648
X113.03Y-104.188
X113.03Y-106.728
X113.03Y-109.268
X113.03Y-111.808
X135.89Y-66.088
X135.89Y-68.628
X135.89Y-71.168
X135.89Y-73.708
X135.89Y-76.248
X135.89Y-78.788
X135.89Y-81.328
X135.89Y-83.868
X135.89Y-86.408
X135.89Y-88.948
X135.89Y-91.488
X135.89Y-94.028
X135.89Y-96.568
X135.89Y-99.108
X135.89Y-101.648
X135.89Y-104.188
X135.89Y-106.728
X135.89Y-109.268
X135.89Y-111.808
X135.89Y-114.348
X135.89Y-116.888
X135.89Y-119.428
T3
X99.06Y-76.2
X99.06Y-78.74
X99.06Y-90.17
X99.06Y-92.71
X99.06Y-104.14
X99.06Y-106.68
X99.06Y-114.3
X99.06Y-116.84
X99.06Y-123.19
X99.06Y-125.73
T4
X162.73Y-99.965
X162.73Y-102.735
X162.73Y-105.505
X162.73Y-108.275
X162.73Y-111.045
X165.27Y-101.35
X165.27Y-104.12
X165.27Y-106.89
X165.27Y-109.66
T5
X83.82Y-144.78
X86.36Y-144.78
X87.63Y-62.23
X87.63Y-64.77
X87.63Y-67.31
X87.63Y-74.93
X87.63Y-77.47
X87.63Y-80.01
X87.63Y-87.63
X87.63Y-90.17
X87.63Y-92.71
X87.63Y-100.33
X87.63Y-102.87
X87.63Y-105.41
X87.63Y-113.03
X87.63Y-115.57
X87.63Y-118.11
X87.63Y-125.73
X87.63Y-128.27
X87.63Y-130.81
X88.9Y-144.78
X96.52Y-144.78
X99.06Y-144.78
X101.6Y-144.78
X109.22Y-144.78
X111.76Y-144.78
X114.3Y-144.78
M30
