%TF.GenerationSoftware,KiCad,Pcbnew,10.0.1*%
%TF.CreationDate,2026-04-28T16:25:46+10:00*%
%TF.ProjectId,MotorControllerNode,4d6f746f-7243-46f6-9e74-726f6c6c6572,rev?*%
%TF.SameCoordinates,Original*%
%TF.FileFunction,Copper,L4,Bot*%
%TF.FilePolarity,Positive*%
%FSLAX46Y46*%
G04 Gerber Fmt 4.6, Leading zero omitted, Abs format (unit mm)*
G04 Created by KiCad (PCBNEW 10.0.1) date 2026-04-28 16:25:46*
%MOMM*%
%LPD*%
G01*
G04 APERTURE LIST*
G04 Aperture macros list*
%AMRoundRect*
0 Rectangle with rounded corners*
0 $1 Rounding radius*
0 $2 $3 $4 $5 $6 $7 $8 $9 X,Y pos of 4 corners*
0 Add a 4 corners polygon primitive as box body*
4,1,4,$2,$3,$4,$5,$6,$7,$8,$9,$2,$3,0*
0 Add four circle primitives for the rounded corners*
1,1,$1+$1,$2,$3*
1,1,$1+$1,$4,$5*
1,1,$1+$1,$6,$7*
1,1,$1+$1,$8,$9*
0 Add four rect primitives between the rounded corners*
20,1,$1+$1,$2,$3,$4,$5,0*
20,1,$1+$1,$4,$5,$6,$7,0*
20,1,$1+$1,$6,$7,$8,$9,0*
20,1,$1+$1,$8,$9,$2,$3,0*%
G04 Aperture macros list end*
%TA.AperFunction,ComponentPad*%
%ADD10RoundRect,0.250001X0.949999X-0.949999X0.949999X0.949999X-0.949999X0.949999X-0.949999X-0.949999X0*%
%TD*%
%TA.AperFunction,ComponentPad*%
%ADD11C,2.400000*%
%TD*%
%TA.AperFunction,ComponentPad*%
%ADD12C,1.549400*%
%TD*%
%TA.AperFunction,ComponentPad*%
%ADD13C,1.524000*%
%TD*%
%TA.AperFunction,ComponentPad*%
%ADD14C,1.498600*%
%TD*%
%TA.AperFunction,ComponentPad*%
%ADD15RoundRect,0.250000X0.550000X-0.550000X0.550000X0.550000X-0.550000X0.550000X-0.550000X-0.550000X0*%
%TD*%
%TA.AperFunction,ComponentPad*%
%ADD16C,1.600000*%
%TD*%
%TA.AperFunction,ComponentPad*%
%ADD17R,2.000000X1.200000*%
%TD*%
%TA.AperFunction,ComponentPad*%
%ADD18O,2.000000X1.200000*%
%TD*%
%TA.AperFunction,ComponentPad*%
%ADD19R,1.300000X1.300000*%
%TD*%
%TA.AperFunction,ComponentPad*%
%ADD20C,1.300000*%
%TD*%
%TA.AperFunction,ComponentPad*%
%ADD21C,1.600200*%
%TD*%
%TA.AperFunction,ViaPad*%
%ADD22C,0.600000*%
%TD*%
%TA.AperFunction,Conductor*%
%ADD23C,0.250000*%
%TD*%
G04 APERTURE END LIST*
D10*
%TO.P,J8,1,Pin_1_1*%
%TO.N,Net-(J8-Pin_1)*%
X119142500Y-120240000D03*
D11*
%TO.P,J8,2,Pin_2_2*%
%TO.N,Net-(J8-Pin_2)*%
X119142500Y-115160000D03*
%TD*%
D12*
%TO.P,J9,1,1_1*%
%TO.N,/J2-5*%
X105090601Y-39237550D03*
%TO.P,J9,2,2_2*%
X107380602Y-39237550D03*
%TO.P,J9,3,3_3*%
%TO.N,/J2-6*%
X109670599Y-39237550D03*
%TO.P,J9,4,4_4*%
X111960600Y-39237550D03*
%TO.P,J9,5,5_5*%
%TO.N,/J2-8*%
X114250600Y-39237550D03*
%TO.P,J9,6,6_6*%
X103945599Y-36697550D03*
%TO.P,J9,7,7_7*%
%TO.N,/J2-9*%
X106235600Y-36697550D03*
%TO.P,J9,8,8_8*%
X108525600Y-36697550D03*
%TO.P,J9,9,9_9*%
%TO.N,/J2-10*%
X110815601Y-36697550D03*
%TO.P,J9,10,10_10*%
X113105599Y-36697550D03*
%TO.P,J9,11,11_11*%
%TO.N,GND*%
X105090601Y-34157550D03*
%TO.P,J9,12,12_12*%
X107380602Y-34157550D03*
%TO.P,J9,13,13_13*%
X109670599Y-34157550D03*
%TO.P,J9,14,14_14*%
X111960600Y-34157550D03*
%TO.P,J9,15,15_15*%
%TO.N,unconnected-(J9-Pad15)*%
X114250600Y-34157550D03*
%TD*%
D10*
%TO.P,J6,1,Pin_1_1*%
%TO.N,Net-(J6-Pin_1)*%
X119142500Y-95840000D03*
D11*
%TO.P,J6,2,Pin_2_2*%
%TO.N,Net-(J6-Pin_2)*%
X119142500Y-90760000D03*
%TD*%
D13*
%TO.P,U3,1,1_1*%
%TO.N,+5V*%
X88910000Y-96110000D03*
%TO.P,U3,2,2_2*%
%TO.N,Net-(J6-Pin_1)*%
X96530000Y-96110000D03*
%TO.P,U3,3,3_3*%
%TO.N,Net-(J8-Pin_1)*%
X101610000Y-96110000D03*
%TO.P,U3,4,4_4*%
%TO.N,Net-(J8-Pin_2)*%
X106690000Y-96110000D03*
%TO.P,U3,5,5_5*%
%TO.N,Net-(J7-Pin_2)*%
X106690000Y-88490000D03*
%TO.P,U3,6,6_6*%
%TO.N,Net-(J7-Pin_1)*%
X101610000Y-88490000D03*
%TO.P,U3,7,7_7*%
%TO.N,Net-(J6-Pin_2)*%
X96530000Y-88490000D03*
%TO.P,U3,8,8_8*%
%TO.N,Net-(D1-A)*%
X88910000Y-88490000D03*
%TD*%
D14*
%TO.P,J2,1,1_1*%
%TO.N,/J1-M1-6*%
X111860700Y-52860001D03*
%TO.P,J2,2,2_2*%
%TO.N,/J1-M2-6*%
X111860700Y-55630001D03*
%TO.P,J2,3,3_3*%
%TO.N,/J1-M1-14*%
X111860700Y-58400000D03*
%TO.P,J2,4,4_4*%
%TO.N,/J1-M2-14*%
X111860700Y-61170000D03*
%TO.P,J2,5,5_5*%
%TO.N,GND*%
X111860700Y-63939999D03*
%TO.P,J2,6,6_6*%
X114400700Y-54244999D03*
%TO.P,J2,7,7_7*%
X114400700Y-57014999D03*
%TO.P,J2,8,8_8*%
X114400700Y-59784999D03*
%TO.P,J2,9,9_9*%
%TO.N,unconnected-(J2-Pad9)*%
X114400700Y-62554998D03*
%TD*%
D15*
%TO.P,D1,1,K_1*%
%TO.N,+5V*%
X83500000Y-96310000D03*
D16*
%TO.P,D1,2,A_2*%
%TO.N,Net-(D1-A)*%
X83500000Y-88690000D03*
%TD*%
D17*
%TO.P,U1,1,3V3_1*%
%TO.N,+3V3*%
X45466000Y-41656000D03*
D18*
%TO.P,U1,2,3V3_2*%
X45466000Y-44196000D03*
%TO.P,U1,3,CHIP_PU_3*%
%TO.N,unconnected-(U1-CHIP_PU-Pad3)*%
X45466000Y-46736000D03*
%TO.P,U1,4,GPIO4/ADC1_CH3_4*%
%TO.N,/GPIO4*%
X45466000Y-49276000D03*
%TO.P,U1,5,GPIO5/ADC1_CH4_5*%
%TO.N,/GPIO5*%
X45466000Y-51816000D03*
%TO.P,U1,6,GPIO6/ADC1_CH5_6*%
%TO.N,/GPIO6*%
X45466000Y-54356000D03*
%TO.P,U1,7,GPIO7/ADC1_CH6_7*%
%TO.N,/GPIO7*%
X45466000Y-56896000D03*
%TO.P,U1,8,GPIO15/ADC2_CH4/32K_P_8*%
%TO.N,/GPIO15*%
X45466000Y-59436000D03*
%TO.P,U1,9,GPIO16/ADC2_CH5/32K_N_9*%
%TO.N,/GPIO16*%
X45466000Y-61976000D03*
%TO.P,U1,10,GPIO17/ADC2_CH6_10*%
%TO.N,/GPIO17*%
X45466000Y-64516000D03*
%TO.P,U1,11,GPIO18/ADC2_CH7_11*%
%TO.N,/GPIO18*%
X45466000Y-67056000D03*
%TO.P,U1,12,GPIO8/ADC1_CH7_12*%
%TO.N,/GPIO8*%
X45466000Y-69596000D03*
%TO.P,U1,13,GPIO3/ADC1_CH2_13*%
%TO.N,unconnected-(U1-GPIO3{slash}ADC1_CH2-Pad13)*%
X45466000Y-72136000D03*
%TO.P,U1,14,GPIO46_14*%
%TO.N,unconnected-(U1-GPIO46-Pad14)*%
X45466000Y-74676000D03*
%TO.P,U1,15,GPIO9/ADC1_CH8_15*%
%TO.N,/GPIO9*%
X45466000Y-77216000D03*
%TO.P,U1,16,GPIO10/ADC1_CH9_16*%
%TO.N,/GPIO10*%
X45466000Y-79756000D03*
%TO.P,U1,17,GPIO11/ADC2_CH0_17*%
%TO.N,/GPIO11*%
X45466000Y-82296000D03*
%TO.P,U1,18,GPIO12/ADC2_CH1_18*%
%TO.N,/GPIO12*%
X45466000Y-84836000D03*
%TO.P,U1,19,GPIO13/ADC2_CH2_19*%
%TO.N,/CANRX*%
X45466000Y-87376000D03*
%TO.P,U1,20,GPIO14/ADC2_CH3_20*%
%TO.N,/CANTX*%
X45462320Y-89913280D03*
%TO.P,U1,21,5V_21*%
%TO.N,+5V*%
X45462320Y-92453280D03*
%TO.P,U1,22,GND_22*%
%TO.N,GND*%
X45462320Y-94993280D03*
%TO.P,U1,23,GND_23*%
X68326000Y-94996000D03*
%TO.P,U1,24,GND_24*%
X68326000Y-92456000D03*
%TO.P,U1,25,GPIO19/USB_D-_25*%
%TO.N,unconnected-(U1-GPIO19{slash}USB_D--Pad25)*%
X68326000Y-89916000D03*
%TO.P,U1,26,GPIO20/USB_D+_26*%
%TO.N,unconnected-(U1-GPIO20{slash}USB_D+-Pad26)*%
X68326000Y-87376000D03*
%TO.P,U1,27,GPIO21_27*%
%TO.N,unconnected-(U1-GPIO21-Pad27)*%
X68326000Y-84836000D03*
%TO.P,U1,28,GPIO47_28*%
%TO.N,/GPIO47*%
X68326000Y-82296000D03*
%TO.P,U1,29,GPIO48_29*%
%TO.N,/GPIO48*%
X68326000Y-79756000D03*
%TO.P,U1,30,GPIO45_30*%
%TO.N,unconnected-(U1-GPIO45-Pad30)*%
X68326000Y-77216000D03*
%TO.P,U1,31,GPIO0_31*%
%TO.N,unconnected-(U1-GPIO0-Pad31)*%
X68326000Y-74676000D03*
%TO.P,U1,32,GPIO35_32*%
%TO.N,unconnected-(U1-GPIO35-Pad32)*%
X68326000Y-72136000D03*
%TO.P,U1,33,GPIO36_33*%
%TO.N,unconnected-(U1-GPIO36-Pad33)*%
X68326000Y-69596000D03*
%TO.P,U1,34,GPIO37_34*%
%TO.N,unconnected-(U1-GPIO37-Pad34)*%
X68326000Y-67056000D03*
%TO.P,U1,35,GPIO38_35*%
%TO.N,unconnected-(U1-GPIO38-Pad35)*%
X68326000Y-64516000D03*
%TO.P,U1,36,GPIO39/MTCK_36*%
%TO.N,unconnected-(U1-GPIO39{slash}MTCK-Pad36)*%
X68326000Y-61976000D03*
%TO.P,U1,37,GPIO40/MTDO_37*%
%TO.N,unconnected-(U1-GPIO40{slash}MTDO-Pad37)*%
X68326000Y-59436000D03*
%TO.P,U1,38,GPIO41/MTDI_38*%
%TO.N,unconnected-(U1-GPIO41{slash}MTDI-Pad38)*%
X68326000Y-56896000D03*
%TO.P,U1,39,GPIO42/MTMS_39*%
%TO.N,unconnected-(U1-GPIO42{slash}MTMS-Pad39)*%
X68326000Y-54356000D03*
%TO.P,U1,40,GPIO2/ADC1_CH1_40*%
%TO.N,/DAC_SDA*%
X68326000Y-51816000D03*
%TO.P,U1,41,GPIO1/ADC1_CH0_41*%
%TO.N,/DAC_SCL*%
X68326000Y-49276000D03*
%TO.P,U1,42,GPIO44/U0RXD_42*%
%TO.N,unconnected-(U1-GPIO44{slash}U0RXD-Pad42)*%
X68326000Y-46736000D03*
%TO.P,U1,43,GPIO43/U0TXD_43*%
%TO.N,unconnected-(U1-GPIO43{slash}U0TXD-Pad43)*%
X68326000Y-44196000D03*
%TO.P,U1,44,GND_44*%
%TO.N,GND*%
X68326000Y-41656000D03*
%TD*%
D14*
%TO.P,J5,1,1_1*%
%TO.N,unconnected-(J5-Pad1)*%
X37770000Y-80534999D03*
%TO.P,J5,2,2_2*%
%TO.N,/CANL*%
X37770000Y-77764999D03*
%TO.P,J5,3,3_3*%
%TO.N,GND*%
X37770000Y-74995000D03*
%TO.P,J5,4,4_4*%
%TO.N,unconnected-(J5-Pad4)*%
X37770000Y-72225000D03*
%TO.P,J5,5,5_5*%
%TO.N,unconnected-(J5-Pad5)*%
X37770000Y-69455001D03*
%TO.P,J5,6,6_6*%
%TO.N,unconnected-(J5-Pad6)*%
X35230000Y-79150001D03*
%TO.P,J5,7,7_7*%
%TO.N,/CANH*%
X35230000Y-76380001D03*
%TO.P,J5,8,8_8*%
%TO.N,unconnected-(J5-Pad8)*%
X35230000Y-73610001D03*
%TO.P,J5,9,9_9*%
%TO.N,+5V*%
X35230000Y-70840002D03*
%TD*%
D10*
%TO.P,J7,1,Pin_1_1*%
%TO.N,Net-(J7-Pin_1)*%
X119142500Y-108040000D03*
D11*
%TO.P,J7,2,Pin_2_2*%
%TO.N,Net-(J7-Pin_2)*%
X119142500Y-102960000D03*
%TD*%
D19*
%TO.P,Q1,1,E_1*%
%TO.N,GND*%
X92460000Y-84000000D03*
D20*
%TO.P,Q1,2,B_2*%
%TO.N,Net-(Q1-B)*%
X93730000Y-82730000D03*
%TO.P,Q1,3,C_3*%
%TO.N,Net-(D1-A)*%
X95000000Y-84000000D03*
%TD*%
D21*
%TO.P,J3,1,1_1*%
%TO.N,/A*%
X82780000Y-28500000D03*
%TO.P,J3,2,2_2*%
%TO.N,/B*%
X85320000Y-28500000D03*
%TO.P,J3,3,3_3*%
%TO.N,/Z*%
X87860000Y-28500000D03*
%TO.P,J3,4,4_4*%
%TO.N,GND*%
X90400000Y-28500000D03*
%TD*%
D16*
%TO.P,C1,1*%
%TO.N,GND*%
X35532000Y-97536000D03*
%TO.P,C1,2*%
%TO.N,+5V*%
X32032000Y-97536000D03*
%TD*%
D21*
%TO.P,J4,1,1_1*%
%TO.N,/GPIO10 5V*%
X121500000Y-77260000D03*
%TO.P,J4,2,2_2*%
%TO.N,/GPIO11 5V*%
X121500000Y-79800000D03*
%TO.P,J4,3,3_3*%
%TO.N,/GPIO12 5V*%
X121500000Y-82340000D03*
%TO.P,J4,4,4_4*%
%TO.N,/GPIO48 5V*%
X121500000Y-84880000D03*
%TD*%
D22*
%TO.N,/J2-9*%
X104800000Y-52100000D03*
%TO.N,/J2-10*%
X110600000Y-50200000D03*
%TO.N,GND*%
X73000000Y-59800000D03*
X38600000Y-51400000D03*
X85200000Y-67800000D03*
X34900000Y-56300000D03*
X89300000Y-60700000D03*
X87600000Y-51400000D03*
X76900000Y-51100000D03*
X87700000Y-48300000D03*
X83400000Y-82000000D03*
X82800000Y-50700000D03*
X72300000Y-73825000D03*
X40100000Y-46050000D03*
X87700000Y-49900000D03*
X89200000Y-73500000D03*
%TO.N,+5V*%
X83100000Y-48600000D03*
X86300000Y-73300000D03*
X87500000Y-59400000D03*
X83700000Y-50700000D03*
%TO.N,+3V3*%
X38600000Y-50165000D03*
X75000000Y-45600000D03*
X72850000Y-50825000D03*
X74550000Y-74025000D03*
X74500000Y-59600000D03*
X77400000Y-82000000D03*
X72700000Y-47875000D03*
X76200000Y-67800000D03*
X40100000Y-47600000D03*
%TO.N,/GPIO47*%
X74800000Y-81800000D03*
%TO.N,/GPIO48*%
X74000000Y-81400000D03*
%TO.N,/A*%
X89400000Y-66400000D03*
%TO.N,/B*%
X91200000Y-66400000D03*
%TO.N,/Z*%
X93200000Y-70460466D03*
%TD*%
%TO.N,/J2-9*%
D23*
X104800000Y-52100000D02*
X106235600Y-50664400D01*
X106235600Y-50664400D02*
X106235600Y-36697550D01*
%TO.N,/J2-10*%
X110815601Y-49984399D02*
X110815601Y-36697550D01*
X110600000Y-50200000D02*
X110815601Y-49984399D01*
%TO.N,/GPIO47*%
X74304000Y-82296000D02*
X74800000Y-81800000D01*
X68326000Y-82296000D02*
X74304000Y-82296000D01*
%TO.N,/GPIO48*%
X68326000Y-79756000D02*
X72356000Y-79756000D01*
X72356000Y-79756000D02*
X74000000Y-81400000D01*
%TO.N,/A*%
X90500000Y-36220000D02*
X82780000Y-28500000D01*
X89400000Y-66400000D02*
X90500000Y-65300000D01*
X90500000Y-65300000D02*
X90500000Y-36220000D01*
%TO.N,/B*%
X92200000Y-35380000D02*
X85320000Y-28500000D01*
X91200000Y-66400000D02*
X92200000Y-65400000D01*
X92200000Y-65400000D02*
X92200000Y-35380000D01*
%TO.N,/Z*%
X94100000Y-69560466D02*
X94100000Y-34740000D01*
X94100000Y-34740000D02*
X87860000Y-28500000D01*
X93200000Y-70460466D02*
X94100000Y-69560466D01*
%TD*%
M02*
