M48
; DRILL file KiCad 10.0.1 date 2026-04-28T16:25:48
; FORMAT={-:-/ absolute / metric / decimal}
; #@! TF.CreationDate,2026-04-28T16:25:48+10:00
; #@! TF.GenerationSoftware,Kicad,Pcbnew,10.0.1
; #@! TF.FileFunction,Plated,1,4,PTH
FMAT,2
METRIC
; #@! TA.AperFunction,Plated,PTH,ViaDrill
T1C0.300
; #@! TA.AperFunction,Plated,PTH,ComponentDrill
T2C0.750
; #@! TA.AperFunction,Plated,PTH,ComponentDrill
T3C0.800
; #@! TA.AperFunction,Plated,PTH,ComponentDrill
T4C0.991
; #@! TA.AperFunction,Plated,PTH,ComponentDrill
T5C1.016
; #@! TA.AperFunction,Plated,PTH,ComponentDrill
T6C1.041
; #@! TA.AperFunction,Plated,PTH,ComponentDrill
T7C1.092
; #@! TA.AperFunction,Plated,PTH,ComponentDrill
T8C1.600
%
G90
G05
T1
X34.9Y-56.3
X38.6Y-50.165
X38.6Y-51.4
X40.1Y-46.05
X40.1Y-47.6
X72.3Y-73.825
X72.7Y-47.875
X72.85Y-50.825
X73.0Y-59.8
X74.0Y-81.4
X74.5Y-59.6
X74.55Y-74.025
X74.8Y-81.8
X75.0Y-45.6
X76.2Y-67.8
X76.9Y-51.1
X77.4Y-82.0
X82.8Y-50.7
X83.1Y-48.6
X83.4Y-82.0
X83.7Y-50.7
X85.2Y-67.8
X86.3Y-73.3
X87.5Y-59.4
X87.6Y-51.4
X87.7Y-48.3
X87.7Y-49.9
X89.2Y-73.5
X89.3Y-60.7
X89.4Y-66.4
X91.2Y-66.4
X93.2Y-70.46
X104.8Y-52.1
X110.6Y-50.2
T2
X92.46Y-84.0
X93.73Y-82.73
X95.0Y-84.0
T3
X32.032Y-97.536
X35.532Y-97.536
X45.462Y-89.913
X45.462Y-92.453
X45.462Y-94.993
X45.466Y-41.656
X45.466Y-44.196
X45.466Y-46.736
X45.466Y-49.276
X45.466Y-51.816
X45.466Y-54.356
X45.466Y-56.896
X45.466Y-59.436
X45.466Y-61.976
X45.466Y-64.516
X45.466Y-67.056
X45.466Y-69.596
X45.466Y-72.136
X45.466Y-74.676
X45.466Y-77.216
X45.466Y-79.756
X45.466Y-82.296
X45.466Y-84.836
X45.466Y-87.376
X68.326Y-41.656
X68.326Y-44.196
X68.326Y-46.736
X68.326Y-49.276
X68.326Y-51.816
X68.326Y-54.356
X68.326Y-56.896
X68.326Y-59.436
X68.326Y-61.976
X68.326Y-64.516
X68.326Y-67.056
X68.326Y-69.596
X68.326Y-72.136
X68.326Y-74.676
X68.326Y-77.216
X68.326Y-79.756
X68.326Y-82.296
X68.326Y-84.836
X68.326Y-87.376
X68.326Y-89.916
X68.326Y-92.456
X68.326Y-94.996
X83.5Y-88.69
X83.5Y-96.31
T4
X35.23Y-70.84
X35.23Y-73.61
X35.23Y-76.38
X35.23Y-79.15
X37.77Y-69.455
X37.77Y-72.225
X37.77Y-74.995
X37.77Y-77.765
X37.77Y-80.535
X111.861Y-52.86
X111.861Y-55.63
X111.861Y-58.4
X111.861Y-61.17
X111.861Y-63.94
X114.401Y-54.245
X114.401Y-57.015
X114.401Y-59.785
X114.401Y-62.555
T5
X88.91Y-88.49
X88.91Y-96.11
X96.53Y-88.49
X96.53Y-96.11
X101.61Y-88.49
X101.61Y-96.11
X106.69Y-88.49
X106.69Y-96.11
T6
X103.946Y-36.698
X105.091Y-34.158
X105.091Y-39.238
X106.236Y-36.698
X107.381Y-34.158
X107.381Y-39.238
X108.526Y-36.698
X109.671Y-34.158
X109.671Y-39.238
X110.816Y-36.698
X111.961Y-34.158
X111.961Y-39.238
X113.106Y-36.698
X114.251Y-34.158
X114.251Y-39.238
T7
X82.78Y-28.5
X85.32Y-28.5
X87.86Y-28.5
X90.4Y-28.5
X121.5Y-77.26
X121.5Y-79.8
X121.5Y-82.34
X121.5Y-84.88
T8
X119.142Y-90.76
X119.142Y-95.84
X119.142Y-102.96
X119.142Y-108.04
X119.142Y-115.16
X119.142Y-120.24
M30
