%TF.GenerationSoftware,KiCad,Pcbnew,10.0.1*%
%TF.CreationDate,2026-04-28T23:59:33+10:00*%
%TF.ProjectId,Driver_Control_PCB,44726976-6572-45f4-936f-6e74726f6c5f,rev?*%
%TF.SameCoordinates,Original*%
%TF.FileFunction,Copper,L1,Top*%
%TF.FilePolarity,Positive*%
%FSLAX46Y46*%
G04 Gerber Fmt 4.6, Leading zero omitted, Abs format (unit mm)*
G04 Created by KiCad (PCBNEW 10.0.1) date 2026-04-28 23:59:33*
%MOMM*%
%LPD*%
G01*
G04 APERTURE LIST*
G04 Aperture macros list*
%AMRoundRect*
0 Rectangle with rounded corners*
0 $1 Rounding radius*
0 $2 $3 $4 $5 $6 $7 $8 $9 X,Y pos of 4 corners*
0 Add a 4 corners polygon primitive as box body*
4,1,4,$2,$3,$4,$5,$6,$7,$8,$9,$2,$3,0*
0 Add four circle primitives for the rounded corners*
1,1,$1+$1,$2,$3*
1,1,$1+$1,$4,$5*
1,1,$1+$1,$6,$7*
1,1,$1+$1,$8,$9*
0 Add four rect primitives between the rounded corners*
20,1,$1+$1,$2,$3,$4,$5,0*
20,1,$1+$1,$4,$5,$6,$7,0*
20,1,$1+$1,$6,$7,$8,$9,0*
20,1,$1+$1,$8,$9,$2,$3,0*%
G04 Aperture macros list end*
%TA.AperFunction,ComponentPad*%
%ADD10RoundRect,0.249999X-1.250001X-1.250001X1.250001X-1.250001X1.250001X1.250001X-1.250001X1.250001X0*%
%TD*%
%TA.AperFunction,ComponentPad*%
%ADD11C,3.000000*%
%TD*%
%TA.AperFunction,SMDPad,CuDef*%
%ADD12RoundRect,0.250000X0.262500X0.450000X-0.262500X0.450000X-0.262500X-0.450000X0.262500X-0.450000X0*%
%TD*%
%TA.AperFunction,SMDPad,CuDef*%
%ADD13RoundRect,0.250000X-0.450000X0.262500X-0.450000X-0.262500X0.450000X-0.262500X0.450000X0.262500X0*%
%TD*%
%TA.AperFunction,SMDPad,CuDef*%
%ADD14RoundRect,0.250000X0.450000X-0.262500X0.450000X0.262500X-0.450000X0.262500X-0.450000X-0.262500X0*%
%TD*%
%TA.AperFunction,SMDPad,CuDef*%
%ADD15RoundRect,0.150000X-0.150000X-0.700000X0.150000X-0.700000X0.150000X0.700000X-0.150000X0.700000X0*%
%TD*%
%TA.AperFunction,SMDPad,CuDef*%
%ADD16RoundRect,0.250000X-0.250000X-1.100000X0.250000X-1.100000X0.250000X1.100000X-0.250000X1.100000X0*%
%TD*%
%TA.AperFunction,SMDPad,CuDef*%
%ADD17RoundRect,0.250000X0.250000X0.475000X-0.250000X0.475000X-0.250000X-0.475000X0.250000X-0.475000X0*%
%TD*%
%TA.AperFunction,SMDPad,CuDef*%
%ADD18RoundRect,0.150000X-0.700000X0.150000X-0.700000X-0.150000X0.700000X-0.150000X0.700000X0.150000X0*%
%TD*%
%TA.AperFunction,SMDPad,CuDef*%
%ADD19RoundRect,0.250000X-1.100000X0.250000X-1.100000X-0.250000X1.100000X-0.250000X1.100000X0.250000X0*%
%TD*%
%TA.AperFunction,SMDPad,CuDef*%
%ADD20RoundRect,0.150000X0.150000X0.700000X-0.150000X0.700000X-0.150000X-0.700000X0.150000X-0.700000X0*%
%TD*%
%TA.AperFunction,SMDPad,CuDef*%
%ADD21RoundRect,0.250000X0.250000X1.100000X-0.250000X1.100000X-0.250000X-1.100000X0.250000X-1.100000X0*%
%TD*%
%TA.AperFunction,ComponentPad*%
%ADD22R,1.700000X1.700000*%
%TD*%
%TA.AperFunction,ComponentPad*%
%ADD23C,1.700000*%
%TD*%
%TA.AperFunction,ComponentPad*%
%ADD24C,1.498600*%
%TD*%
%TA.AperFunction,SMDPad,CuDef*%
%ADD25R,0.300000X1.600000*%
%TD*%
%TA.AperFunction,SMDPad,CuDef*%
%ADD26RoundRect,0.250000X-0.475000X0.250000X-0.475000X-0.250000X0.475000X-0.250000X0.475000X0.250000X0*%
%TD*%
%TA.AperFunction,SMDPad,CuDef*%
%ADD27RoundRect,0.250000X-0.262500X-0.450000X0.262500X-0.450000X0.262500X0.450000X-0.262500X0.450000X0*%
%TD*%
%TA.AperFunction,SMDPad,CuDef*%
%ADD28RoundRect,0.150000X-0.825000X-0.150000X0.825000X-0.150000X0.825000X0.150000X-0.825000X0.150000X0*%
%TD*%
%TA.AperFunction,SMDPad,CuDef*%
%ADD29RoundRect,0.250000X0.475000X-0.250000X0.475000X0.250000X-0.475000X0.250000X-0.475000X-0.250000X0*%
%TD*%
%TA.AperFunction,ComponentPad*%
%ADD30R,2.000000X1.200000*%
%TD*%
%TA.AperFunction,ComponentPad*%
%ADD31O,2.000000X1.200000*%
%TD*%
%TA.AperFunction,ViaPad*%
%ADD32C,0.685800*%
%TD*%
%TA.AperFunction,Conductor*%
%ADD33C,0.254000*%
%TD*%
G04 APERTURE END LIST*
D10*
%TO.P,J1,1,Pin_1*%
%TO.N,+5V*%
X222500000Y-30867500D03*
D11*
%TO.P,J1,2,Pin_2*%
%TO.N,GND*%
X227500000Y-30867500D03*
%TO.P,J1,3,Pin_3*%
%TO.N,+3.3V*%
X232500000Y-30867500D03*
%TD*%
D12*
%TO.P,R_term1,1*%
%TO.N,Net-(JP2-B)*%
X253000000Y-67500000D03*
%TO.P,R_term1,2*%
%TO.N,Net-(U2-CANL)*%
X251175000Y-67500000D03*
%TD*%
D13*
%TO.P,R16,1*%
%TO.N,Net-(R_pos2-Pin_4)*%
X243100000Y-110700000D03*
%TO.P,R16,2*%
%TO.N,GND*%
X243100000Y-112525000D03*
%TD*%
%TO.P,R15,1*%
%TO.N,Net-(R_pos2-Pin_3)*%
X240800000Y-110700000D03*
%TO.P,R15,2*%
%TO.N,Net-(R_pos2-Pin_4)*%
X240800000Y-112525000D03*
%TD*%
%TO.P,R2,1*%
%TO.N,+3.3V*%
X247612500Y-110637500D03*
%TO.P,R2,2*%
%TO.N,Net-(R_5Pos1-Pin_2)*%
X247612500Y-112462500D03*
%TD*%
D14*
%TO.P,R22,1*%
%TO.N,Net-(R_BRK1-Pin_2)*%
X214450000Y-112362500D03*
%TO.P,R22,2*%
%TO.N,Net-(U1-GPIO2{slash}ADC1_CH1)*%
X214450000Y-110537500D03*
%TD*%
%TO.P,R23,1*%
%TO.N,Net-(R_THR1-Pin_2)*%
X268450000Y-112275000D03*
%TO.P,R23,2*%
%TO.N,Net-(U1-GPIO1{slash}ADC1_CH0)*%
X268450000Y-110450000D03*
%TD*%
D12*
%TO.P,R19,1*%
%TO.N,Net-(R_pos1-Pin_2)*%
X218312500Y-101000000D03*
%TO.P,R19,2*%
%TO.N,Net-(R_pos1-Pin_3)*%
X216487500Y-101000000D03*
%TD*%
%TO.P,R20,1*%
%TO.N,Net-(R_pos1-Pin_3)*%
X218300000Y-103600000D03*
%TO.P,R20,2*%
%TO.N,Net-(R_pos1-Pin_4)*%
X216475000Y-103600000D03*
%TD*%
D13*
%TO.P,R13,1*%
%TO.N,+3.3V*%
X236300000Y-110700000D03*
%TO.P,R13,2*%
%TO.N,Net-(R_pos2-Pin_2)*%
X236300000Y-112525000D03*
%TD*%
D15*
%TO.P,R_THR1,1,Pin_1*%
%TO.N,GND*%
X265450000Y-114950000D03*
%TO.P,R_THR1,2,Pin_2*%
%TO.N,Net-(R_THR1-Pin_2)*%
X266700000Y-114950000D03*
%TO.P,R_THR1,3,Pin_3*%
%TO.N,+3.3V*%
X267950000Y-114950000D03*
D16*
%TO.P,R_THR1,MP*%
%TO.N,N/C*%
X263600000Y-118150000D03*
X269800000Y-118150000D03*
%TD*%
D17*
%TO.P,C8,1*%
%TO.N,Net-(U1-GPIO1{slash}ADC1_CH0)*%
X266450000Y-112050000D03*
%TO.P,C8,2*%
%TO.N,GND*%
X264550000Y-112050000D03*
%TD*%
D18*
%TO.P,SW_Push4,1,Pin_1*%
%TO.N,Net-(SW_Push4-Pin_1)*%
X214000000Y-70750000D03*
%TO.P,SW_Push4,2,Pin_2*%
%TO.N,GND*%
X214000000Y-72000000D03*
D19*
%TO.P,SW_Push4,MP*%
%TO.N,N/C*%
X210800000Y-68900000D03*
X210800000Y-73850000D03*
%TD*%
D20*
%TO.P,SW_Tog2,1,Pin_1*%
%TO.N,Net-(SW_Tog2-Pin_1)*%
X261775000Y-30350000D03*
%TO.P,SW_Tog2,2,Pin_2*%
%TO.N,GND*%
X260525000Y-30350000D03*
D21*
%TO.P,SW_Tog2,MP*%
%TO.N,N/C*%
X263625000Y-27150000D03*
X258675000Y-27150000D03*
%TD*%
D22*
%TO.P,JP2,1,A*%
%TO.N,Net-(JP2-A)*%
X259800000Y-67500000D03*
D23*
%TO.P,JP2,2,B*%
%TO.N,Net-(JP2-B)*%
X257260000Y-67500000D03*
%TD*%
D10*
%TO.P,J2,1,Pin_1*%
%TO.N,+5V*%
X239000000Y-30867500D03*
D11*
%TO.P,J2,2,Pin_2*%
%TO.N,GND*%
X244000000Y-30867500D03*
%TD*%
D24*
%TO.P,J4,1,1*%
%TO.N,unconnected-(J4-Pad1)*%
X251930000Y-79955001D03*
%TO.P,J4,2,2*%
%TO.N,Net-(U2-CANL)*%
X251930000Y-82725001D03*
%TO.P,J4,3,3*%
%TO.N,GND*%
X251930000Y-85495000D03*
%TO.P,J4,4,4*%
%TO.N,unconnected-(J4-Pad4)*%
X251930000Y-88265000D03*
%TO.P,J4,5,5*%
%TO.N,unconnected-(J4-Pad5)*%
X251930000Y-91034999D03*
%TO.P,J4,6,6*%
%TO.N,unconnected-(J4-Pad6)*%
X254470000Y-81339999D03*
%TO.P,J4,7,7*%
%TO.N,Net-(JP2-A)*%
X254470000Y-84109999D03*
%TO.P,J4,8,8*%
%TO.N,unconnected-(J4-Pad8)*%
X254470000Y-86879999D03*
%TO.P,J4,9,9*%
%TO.N,+5V*%
X254470000Y-89649998D03*
%TD*%
D13*
%TO.P,R17,1*%
%TO.N,Net-(R_5Pos2-Pin_6)*%
X231862500Y-110625000D03*
%TO.P,R17,2*%
%TO.N,GND*%
X231862500Y-112450000D03*
%TD*%
D18*
%TO.P,SW_Push3,1,Pin_1*%
%TO.N,Net-(SW_Push3-Pin_1)*%
X214000000Y-63250000D03*
%TO.P,SW_Push3,2,Pin_2*%
%TO.N,GND*%
X214000000Y-64500000D03*
D19*
%TO.P,SW_Push3,MP*%
%TO.N,N/C*%
X210800000Y-61400000D03*
X210800000Y-66350000D03*
%TD*%
D25*
%TO.P,U3,1,B2*%
%TO.N,Net-(J3-Pin_1)*%
X216525000Y-89800000D03*
%TO.P,U3,2,GND*%
%TO.N,GND*%
X217175000Y-89800000D03*
%TO.P,U3,3,VCCA*%
%TO.N,+3.3V*%
X217825000Y-89800000D03*
%TO.P,U3,4,A2*%
%TO.N,Net-(U1-GPIO18{slash}ADC2_CH7)*%
X218475000Y-89800000D03*
%TO.P,U3,5,A1*%
%TO.N,Net-(U1-GPIO17{slash}ADC2_CH6)*%
X218475000Y-86400000D03*
%TO.P,U3,6,OE*%
%TO.N,+3.3V*%
X217825000Y-86400000D03*
%TO.P,U3,7,VCCB*%
%TO.N,+5V*%
X217175000Y-86400000D03*
%TO.P,U3,8,B1*%
%TO.N,Net-(J3-Pin_2)*%
X216525000Y-86400000D03*
%TD*%
D18*
%TO.P,SW_Push5,1,Pin_1*%
%TO.N,Net-(SW_Push5-Pin_1)*%
X214000000Y-78250000D03*
%TO.P,SW_Push5,2,Pin_2*%
%TO.N,GND*%
X214000000Y-79500000D03*
D19*
%TO.P,SW_Push5,MP*%
%TO.N,N/C*%
X210800000Y-76400000D03*
X210800000Y-81350000D03*
%TD*%
D13*
%TO.P,R7,1*%
%TO.N,+3.3V*%
X219875000Y-110550000D03*
%TO.P,R7,2*%
%TO.N,Net-(R_5Pos2-Pin_2)*%
X219875000Y-112375000D03*
%TD*%
%TO.P,R5,1*%
%TO.N,Net-(R_5Pos1-Pin_4)*%
X255025000Y-110650000D03*
%TO.P,R5,2*%
%TO.N,Net-(R_5Pos1-Pin_5)*%
X255025000Y-112475000D03*
%TD*%
D26*
%TO.P,C6,1*%
%TO.N,GND*%
X218700000Y-82500000D03*
%TO.P,C6,2*%
%TO.N,+3.3V*%
X218700000Y-84400000D03*
%TD*%
D12*
%TO.P,R12,1*%
%TO.N,Net-(R_pos1-Pin_4)*%
X218300000Y-106000000D03*
%TO.P,R12,2*%
%TO.N,GND*%
X216475000Y-106000000D03*
%TD*%
D13*
%TO.P,R4,1*%
%TO.N,Net-(R_5Pos1-Pin_3)*%
X252525000Y-110650000D03*
%TO.P,R4,2*%
%TO.N,Net-(R_5Pos1-Pin_4)*%
X252525000Y-112475000D03*
%TD*%
D27*
%TO.P,R1,1*%
%TO.N,Net-(U2-Rs)*%
X260675000Y-102500000D03*
%TO.P,R1,2*%
%TO.N,GND*%
X262500000Y-102500000D03*
%TD*%
D28*
%TO.P,U2,1,D*%
%TO.N,Net-(U1-GPIO41{slash}MTDI)*%
X253500000Y-102230000D03*
%TO.P,U2,2,GND*%
%TO.N,GND*%
X253500000Y-103500000D03*
%TO.P,U2,3,VCC*%
%TO.N,+3.3V*%
X253500000Y-104770000D03*
%TO.P,U2,4,R*%
%TO.N,Net-(U1-GPIO40{slash}MTDO)*%
X253500000Y-106040000D03*
%TO.P,U2,5,Vref*%
%TO.N,unconnected-(U2-Vref-Pad5)*%
X258450000Y-106040000D03*
%TO.P,U2,6,CANL*%
%TO.N,Net-(U2-CANL)*%
X258450000Y-104770000D03*
%TO.P,U2,7,CANH*%
%TO.N,Net-(JP2-A)*%
X258450000Y-103500000D03*
%TO.P,U2,8,Rs*%
%TO.N,Net-(U2-Rs)*%
X258450000Y-102230000D03*
%TD*%
D17*
%TO.P,C1,1*%
%TO.N,GND*%
X262600000Y-104600000D03*
%TO.P,C1,2*%
%TO.N,+3.3V*%
X260700000Y-104600000D03*
%TD*%
D12*
%TO.P,R18,1*%
%TO.N,+3.3V*%
X218312500Y-98400000D03*
%TO.P,R18,2*%
%TO.N,Net-(R_pos1-Pin_2)*%
X216487500Y-98400000D03*
%TD*%
D13*
%TO.P,R11,1*%
%TO.N,Net-(R_5Pos2-Pin_5)*%
X229462500Y-110625000D03*
%TO.P,R11,2*%
%TO.N,Net-(R_5Pos2-Pin_6)*%
X229462500Y-112450000D03*
%TD*%
D15*
%TO.P,R_5Pos1,1,Pin_1*%
%TO.N,Net-(R_5Pos1-Pin_1)*%
X250675000Y-115050000D03*
%TO.P,R_5Pos1,2,Pin_2*%
%TO.N,Net-(R_5Pos1-Pin_2)*%
X251925000Y-115050000D03*
%TO.P,R_5Pos1,3,Pin_3*%
%TO.N,Net-(R_5Pos1-Pin_3)*%
X253175000Y-115050000D03*
%TO.P,R_5Pos1,4,Pin_4*%
%TO.N,Net-(R_5Pos1-Pin_4)*%
X254425000Y-115050000D03*
%TO.P,R_5Pos1,5,Pin_5*%
%TO.N,Net-(R_5Pos1-Pin_5)*%
X255675000Y-115050000D03*
%TO.P,R_5Pos1,6,Pin_6*%
%TO.N,Net-(R_5Pos1-Pin_6)*%
X256925000Y-115050000D03*
D16*
%TO.P,R_5Pos1,MP*%
%TO.N,N/C*%
X248825000Y-118250000D03*
X258775000Y-118250000D03*
%TD*%
D13*
%TO.P,R6,1*%
%TO.N,Net-(R_5Pos1-Pin_5)*%
X257525000Y-110650000D03*
%TO.P,R6,2*%
%TO.N,Net-(R_5Pos1-Pin_6)*%
X257525000Y-112475000D03*
%TD*%
D17*
%TO.P,C7,1*%
%TO.N,Net-(U1-GPIO2{slash}ADC1_CH1)*%
X212350000Y-112150000D03*
%TO.P,C7,2*%
%TO.N,GND*%
X210450000Y-112150000D03*
%TD*%
D18*
%TO.P,SW_Push1,1,Pin_1*%
%TO.N,Net-(SW_Push1-Pin_1)*%
X214000000Y-48250000D03*
%TO.P,SW_Push1,2,Pin_2*%
%TO.N,GND*%
X214000000Y-49500000D03*
D19*
%TO.P,SW_Push1,MP*%
%TO.N,N/C*%
X210800000Y-46400000D03*
X210800000Y-51350000D03*
%TD*%
D26*
%TO.P,C2,1*%
%TO.N,GND*%
X222500000Y-40100000D03*
%TO.P,C2,2*%
%TO.N,+3.3V*%
X222500000Y-42000000D03*
%TD*%
D29*
%TO.P,C5,1*%
%TO.N,+5V*%
X216500000Y-84400000D03*
%TO.P,C5,2*%
%TO.N,GND*%
X216500000Y-82500000D03*
%TD*%
D13*
%TO.P,R9,1*%
%TO.N,Net-(R_5Pos2-Pin_3)*%
X224687500Y-110625000D03*
%TO.P,R9,2*%
%TO.N,Net-(R_5Pos2-Pin_4)*%
X224687500Y-112450000D03*
%TD*%
D24*
%TO.P,J5,1,1*%
%TO.N,unconnected-(J5-Pad1)*%
X251930000Y-43965001D03*
%TO.P,J5,2,2*%
%TO.N,Net-(U2-CANL)*%
X251930000Y-46735001D03*
%TO.P,J5,3,3*%
%TO.N,GND*%
X251930000Y-49505000D03*
%TO.P,J5,4,4*%
%TO.N,unconnected-(J5-Pad4)*%
X251930000Y-52275000D03*
%TO.P,J5,5,5*%
%TO.N,unconnected-(J5-Pad5)*%
X251930000Y-55044999D03*
%TO.P,J5,6,6*%
%TO.N,unconnected-(J5-Pad6)*%
X254470000Y-45349999D03*
%TO.P,J5,7,7*%
%TO.N,Net-(JP2-A)*%
X254470000Y-48119999D03*
%TO.P,J5,8,8*%
%TO.N,unconnected-(J5-Pad8)*%
X254470000Y-50889999D03*
%TO.P,J5,9,9*%
%TO.N,+5V*%
X254470000Y-53659998D03*
%TD*%
D15*
%TO.P,R_BRK1,1,Pin_1*%
%TO.N,GND*%
X211450000Y-114950000D03*
%TO.P,R_BRK1,2,Pin_2*%
%TO.N,Net-(R_BRK1-Pin_2)*%
X212700000Y-114950000D03*
%TO.P,R_BRK1,3,Pin_3*%
%TO.N,+3.3V*%
X213950000Y-114950000D03*
D16*
%TO.P,R_BRK1,MP*%
%TO.N,N/C*%
X209600000Y-118150000D03*
X215800000Y-118150000D03*
%TD*%
D18*
%TO.P,SW_Push2,1,Pin_1*%
%TO.N,Net-(SW_Push2-Pin_1)*%
X214000000Y-55750000D03*
%TO.P,SW_Push2,2,Pin_2*%
%TO.N,GND*%
X214000000Y-57000000D03*
D19*
%TO.P,SW_Push2,MP*%
%TO.N,N/C*%
X210800000Y-53900000D03*
X210800000Y-58850000D03*
%TD*%
D13*
%TO.P,R14,1*%
%TO.N,Net-(R_pos2-Pin_2)*%
X238600000Y-110700000D03*
%TO.P,R14,2*%
%TO.N,Net-(R_pos2-Pin_3)*%
X238600000Y-112525000D03*
%TD*%
D18*
%TO.P,J3,1,Pin_1*%
%TO.N,Net-(J3-Pin_1)*%
X214000000Y-86250000D03*
%TO.P,J3,2,Pin_2*%
%TO.N,Net-(J3-Pin_2)*%
X214000000Y-87500000D03*
%TO.P,J3,3,Pin_3*%
%TO.N,GND*%
X214000000Y-88750000D03*
%TO.P,J3,4,Pin_4*%
%TO.N,+5V*%
X214000000Y-90000000D03*
D19*
%TO.P,J3,MP*%
%TO.N,N/C*%
X210800000Y-84400000D03*
X210800000Y-91850000D03*
%TD*%
D13*
%TO.P,R3,1*%
%TO.N,Net-(R_5Pos1-Pin_2)*%
X250025000Y-110637500D03*
%TO.P,R3,2*%
%TO.N,Net-(R_5Pos1-Pin_3)*%
X250025000Y-112462500D03*
%TD*%
%TO.P,R10,1*%
%TO.N,Net-(R_5Pos2-Pin_4)*%
X227075000Y-110625000D03*
%TO.P,R10,2*%
%TO.N,Net-(R_5Pos2-Pin_5)*%
X227075000Y-112450000D03*
%TD*%
D15*
%TO.P,R_pos2,1,Pin_1*%
%TO.N,Net-(R_pos2-Pin_1)*%
X237850000Y-115000000D03*
%TO.P,R_pos2,2,Pin_2*%
%TO.N,Net-(R_pos2-Pin_2)*%
X239100000Y-115000000D03*
%TO.P,R_pos2,3,Pin_3*%
%TO.N,Net-(R_pos2-Pin_3)*%
X240350000Y-115000000D03*
%TO.P,R_pos2,4,Pin_4*%
%TO.N,Net-(R_pos2-Pin_4)*%
X241600000Y-115000000D03*
D16*
%TO.P,R_pos2,MP*%
%TO.N,N/C*%
X236000000Y-118200000D03*
X243450000Y-118200000D03*
%TD*%
D15*
%TO.P,R_5Pos2,1,Pin_1*%
%TO.N,Net-(R_5Pos2-Pin_1)*%
X222775000Y-114950000D03*
%TO.P,R_5Pos2,2,Pin_2*%
%TO.N,Net-(R_5Pos2-Pin_2)*%
X224025000Y-114950000D03*
%TO.P,R_5Pos2,3,Pin_3*%
%TO.N,Net-(R_5Pos2-Pin_3)*%
X225275000Y-114950000D03*
%TO.P,R_5Pos2,4,Pin_4*%
%TO.N,Net-(R_5Pos2-Pin_4)*%
X226525000Y-114950000D03*
%TO.P,R_5Pos2,5,Pin_5*%
%TO.N,Net-(R_5Pos2-Pin_5)*%
X227775000Y-114950000D03*
%TO.P,R_5Pos2,6,Pin_6*%
%TO.N,Net-(R_5Pos2-Pin_6)*%
X229025000Y-114950000D03*
D16*
%TO.P,R_5Pos2,MP*%
%TO.N,N/C*%
X220925000Y-118150000D03*
X230875000Y-118150000D03*
%TD*%
D20*
%TO.P,SW_Tog1,1,Pin_1*%
%TO.N,Net-(SW_Tog1-Pin_1)*%
X254125000Y-30350000D03*
%TO.P,SW_Tog1,2,Pin_2*%
%TO.N,GND*%
X252875000Y-30350000D03*
D21*
%TO.P,SW_Tog1,MP*%
%TO.N,N/C*%
X255975000Y-27150000D03*
X251025000Y-27150000D03*
%TD*%
D13*
%TO.P,R8,1*%
%TO.N,Net-(R_5Pos2-Pin_2)*%
X222275000Y-110625000D03*
%TO.P,R8,2*%
%TO.N,Net-(R_5Pos2-Pin_3)*%
X222275000Y-112450000D03*
%TD*%
D26*
%TO.P,C4,1*%
%TO.N,+5V*%
X209990000Y-94600000D03*
%TO.P,C4,2*%
%TO.N,GND*%
X209990000Y-96500000D03*
%TD*%
D13*
%TO.P,R21,1*%
%TO.N,Net-(R_5Pos1-Pin_6)*%
X259925000Y-110637500D03*
%TO.P,R21,2*%
%TO.N,GND*%
X259925000Y-112462500D03*
%TD*%
D18*
%TO.P,R_pos1,1,Pin_1*%
%TO.N,Net-(R_pos1-Pin_1)*%
X213850000Y-100625000D03*
%TO.P,R_pos1,2,Pin_2*%
%TO.N,Net-(R_pos1-Pin_2)*%
X213850000Y-101875000D03*
%TO.P,R_pos1,3,Pin_3*%
%TO.N,Net-(R_pos1-Pin_3)*%
X213850000Y-103125000D03*
%TO.P,R_pos1,4,Pin_4*%
%TO.N,Net-(R_pos1-Pin_4)*%
X213850000Y-104375000D03*
D19*
%TO.P,R_pos1,MP*%
%TO.N,N/C*%
X210650000Y-98775000D03*
X210650000Y-106225000D03*
%TD*%
D26*
%TO.P,C3,1*%
%TO.N,+5V*%
X213000000Y-94600000D03*
%TO.P,C3,2*%
%TO.N,GND*%
X213000000Y-96500000D03*
%TD*%
D30*
%TO.P,U1,1,3V3*%
%TO.N,+3.3V*%
X222640000Y-44500000D03*
D31*
%TO.P,U1,2,3V3*%
X222640000Y-47040000D03*
%TO.P,U1,3,CHIP_PU*%
%TO.N,unconnected-(U1-CHIP_PU-Pad3)*%
X222640000Y-49580000D03*
%TO.P,U1,4,GPIO4/ADC1_CH3*%
%TO.N,Net-(R_pos1-Pin_1)*%
X222640000Y-52120000D03*
%TO.P,U1,5,GPIO5/ADC1_CH4*%
%TO.N,Net-(R_5Pos1-Pin_1)*%
X222640000Y-54660000D03*
%TO.P,U1,6,GPIO6/ADC1_CH5*%
%TO.N,Net-(R_pos2-Pin_1)*%
X222640000Y-57200000D03*
%TO.P,U1,7,GPIO7/ADC1_CH6*%
%TO.N,unconnected-(U1-GPIO7{slash}ADC1_CH6-Pad7)*%
X222640000Y-59740000D03*
%TO.P,U1,8,GPIO15/ADC2_CH4/32K_P*%
%TO.N,Net-(SW_Push1-Pin_1)*%
X222640000Y-62280000D03*
%TO.P,U1,9,GPIO16/ADC2_CH5/32K_N*%
%TO.N,Net-(SW_Push2-Pin_1)*%
X222640000Y-64820000D03*
%TO.P,U1,10,GPIO17/ADC2_CH6*%
%TO.N,Net-(U1-GPIO17{slash}ADC2_CH6)*%
X222640000Y-67360000D03*
%TO.P,U1,11,GPIO18/ADC2_CH7*%
%TO.N,Net-(U1-GPIO18{slash}ADC2_CH7)*%
X222640000Y-69900000D03*
%TO.P,U1,12,GPIO8/ADC1_CH7*%
%TO.N,unconnected-(U1-GPIO8{slash}ADC1_CH7-Pad12)*%
X222640000Y-72440000D03*
%TO.P,U1,13,GPIO3/ADC1_CH2*%
%TO.N,Net-(R_5Pos2-Pin_1)*%
X222640000Y-74980000D03*
%TO.P,U1,14,GPIO46*%
%TO.N,unconnected-(U1-GPIO46-Pad14)*%
X222640000Y-77520000D03*
%TO.P,U1,15,GPIO9/ADC1_CH8*%
%TO.N,unconnected-(U1-GPIO9{slash}ADC1_CH8-Pad15)*%
X222640000Y-80060000D03*
%TO.P,U1,16,GPIO10/ADC1_CH9*%
%TO.N,unconnected-(U1-GPIO10{slash}ADC1_CH9-Pad16)*%
X222640000Y-82600000D03*
%TO.P,U1,17,GPIO11/ADC2_CH0*%
%TO.N,unconnected-(U1-GPIO11{slash}ADC2_CH0-Pad17)*%
X222640000Y-85140000D03*
%TO.P,U1,18,GPIO12/ADC2_CH1*%
%TO.N,Net-(SW_Push3-Pin_1)*%
X222640000Y-87680000D03*
%TO.P,U1,19,GPIO13/ADC2_CH2*%
%TO.N,Net-(SW_Push4-Pin_1)*%
X222640000Y-90220000D03*
%TO.P,U1,20,GPIO14/ADC2_CH3*%
%TO.N,Net-(SW_Push5-Pin_1)*%
X222636320Y-92757280D03*
%TO.P,U1,21,5V*%
%TO.N,+5V*%
X222636320Y-95297280D03*
%TO.P,U1,22,GND*%
%TO.N,GND*%
X222636320Y-97837280D03*
%TO.P,U1,23,GND*%
X245500000Y-97840000D03*
%TO.P,U1,24,GND*%
X245500000Y-95300000D03*
%TO.P,U1,25,GPIO19/USB_D-*%
%TO.N,unconnected-(U1-GPIO19{slash}USB_D--Pad25)*%
X245500000Y-92760000D03*
%TO.P,U1,26,GPIO20/USB_D+*%
%TO.N,unconnected-(U1-GPIO20{slash}USB_D+-Pad26)*%
X245500000Y-90220000D03*
%TO.P,U1,27,GPIO21*%
%TO.N,unconnected-(U1-GPIO21-Pad27)*%
X245500000Y-87680000D03*
%TO.P,U1,28,GPIO47*%
%TO.N,unconnected-(U1-GPIO47-Pad28)*%
X245500000Y-85140000D03*
%TO.P,U1,29,GPIO48*%
%TO.N,unconnected-(U1-GPIO48-Pad29)*%
X245500000Y-82600000D03*
%TO.P,U1,30,GPIO45*%
%TO.N,unconnected-(U1-GPIO45-Pad30)*%
X245500000Y-80060000D03*
%TO.P,U1,31,GPIO0*%
%TO.N,unconnected-(U1-GPIO0-Pad31)*%
X245500000Y-77520000D03*
%TO.P,U1,32,GPIO35*%
%TO.N,Net-(SW_Tog1-Pin_1)*%
X245500000Y-74980000D03*
%TO.P,U1,33,GPIO36*%
%TO.N,Net-(SW_Tog2-Pin_1)*%
X245500000Y-72440000D03*
%TO.P,U1,34,GPIO37*%
%TO.N,unconnected-(U1-GPIO37-Pad34)*%
X245500000Y-69900000D03*
%TO.P,U1,35,GPIO38*%
%TO.N,unconnected-(U1-GPIO38-Pad35)*%
X245500000Y-67360000D03*
%TO.P,U1,36,GPIO39/MTCK*%
%TO.N,unconnected-(U1-GPIO39{slash}MTCK-Pad36)*%
X245500000Y-64820000D03*
%TO.P,U1,37,GPIO40/MTDO*%
%TO.N,Net-(U1-GPIO40{slash}MTDO)*%
X245500000Y-62280000D03*
%TO.P,U1,38,GPIO41/MTDI*%
%TO.N,Net-(U1-GPIO41{slash}MTDI)*%
X245500000Y-59740000D03*
%TO.P,U1,39,GPIO42/MTMS*%
%TO.N,unconnected-(U1-GPIO42{slash}MTMS-Pad39)*%
X245500000Y-57200000D03*
%TO.P,U1,40,GPIO2/ADC1_CH1*%
%TO.N,Net-(U1-GPIO2{slash}ADC1_CH1)*%
X245500000Y-54660000D03*
%TO.P,U1,41,GPIO1/ADC1_CH0*%
%TO.N,Net-(U1-GPIO1{slash}ADC1_CH0)*%
X245500000Y-52120000D03*
%TO.P,U1,42,GPIO44/U0RXD*%
%TO.N,unconnected-(U1-GPIO44{slash}U0RXD-Pad42)*%
X245500000Y-49580000D03*
%TO.P,U1,43,GPIO43/U0TXD*%
%TO.N,unconnected-(U1-GPIO43{slash}U0TXD-Pad43)*%
X245500000Y-47040000D03*
%TO.P,U1,44,GND*%
%TO.N,GND*%
X245500000Y-44500000D03*
%TD*%
D32*
%TO.N,+3.3V*%
X217800000Y-86400000D03*
X219900000Y-110500000D03*
X247600000Y-110600000D03*
X213900000Y-114900000D03*
X260600000Y-104600000D03*
X253500000Y-104800000D03*
X267934573Y-113634573D03*
X236300000Y-110600000D03*
X218300000Y-98400000D03*
X222500000Y-42000000D03*
X218700000Y-84300000D03*
X217800000Y-89700000D03*
%TO.N,GND*%
X216500000Y-106000000D03*
X213900000Y-64500000D03*
X213900000Y-57000000D03*
X213900000Y-79500000D03*
X216500000Y-82400000D03*
X243100000Y-112500000D03*
X260500000Y-30300000D03*
X211400000Y-114900000D03*
X260000000Y-112500000D03*
X214000000Y-88700000D03*
X253500000Y-103500000D03*
X210000000Y-96500000D03*
X262600000Y-104500000D03*
X217205098Y-89100000D03*
X264600000Y-112000000D03*
X213900000Y-49500000D03*
X213900000Y-72000000D03*
X222500000Y-40100000D03*
X252900000Y-30300000D03*
X218700000Y-82400000D03*
X231800000Y-112400000D03*
X213000000Y-96500000D03*
X265400000Y-114900000D03*
X262500000Y-102400000D03*
X210400000Y-112200000D03*
%TO.N,+5V*%
X215396900Y-89700000D03*
X217200000Y-87900000D03*
%TO.N,Net-(R_pos1-Pin_1)*%
X214800000Y-95300000D03*
%TO.N,Net-(U1-GPIO1{slash}ADC1_CH0)*%
X247400000Y-63100000D03*
%TO.N,Net-(U1-GPIO2{slash}ADC1_CH1)*%
X223298100Y-103000000D03*
%TO.N,Net-(J3-Pin_2)*%
X215396900Y-87500000D03*
X215500000Y-85700000D03*
%TO.N,Net-(U1-GPIO18{slash}ADC2_CH7)*%
X220000000Y-86300000D03*
%TO.N,Net-(U1-GPIO17{slash}ADC2_CH6)*%
X219984329Y-85471526D03*
%TD*%
%TO.N,+3.3V*%
D33*
X217825000Y-86400000D02*
X217800000Y-86400000D01*
X218700000Y-84400000D02*
X218700000Y-84300000D01*
X247612500Y-110612500D02*
X247600000Y-110600000D01*
X236300000Y-110700000D02*
X236300000Y-110600000D01*
X218312500Y-98400000D02*
X218300000Y-98400000D01*
X247612500Y-110637500D02*
X247612500Y-110612500D01*
X219875000Y-110550000D02*
X219875000Y-110525000D01*
X253500000Y-104770000D02*
X253500000Y-104800000D01*
X260700000Y-104600000D02*
X260600000Y-104600000D01*
X217825000Y-89800000D02*
X217825000Y-89725000D01*
X213950000Y-114950000D02*
X213900000Y-114900000D01*
X267950000Y-113650000D02*
X267934573Y-113634573D01*
X222500000Y-42000000D02*
X222500000Y-42100000D01*
X217825000Y-89725000D02*
X217800000Y-89700000D01*
X267950000Y-114950000D02*
X267950000Y-113650000D01*
X219875000Y-110525000D02*
X219900000Y-110500000D01*
%TO.N,GND*%
X216475000Y-106000000D02*
X216500000Y-106000000D01*
X214000000Y-49500000D02*
X213900000Y-49500000D01*
X217175000Y-89800000D02*
X217175000Y-89130098D01*
X243100000Y-112525000D02*
X243100000Y-112500000D01*
X262600000Y-104600000D02*
X262600000Y-104500000D01*
X214000000Y-88750000D02*
X214000000Y-88700000D01*
X262500000Y-102500000D02*
X262500000Y-102400000D01*
X260525000Y-30325000D02*
X260500000Y-30300000D01*
X222500000Y-40100000D02*
X222400000Y-40100000D01*
X231862500Y-112450000D02*
X231850000Y-112450000D01*
X214000000Y-79500000D02*
X213900000Y-79500000D01*
X260525000Y-30350000D02*
X260525000Y-30325000D01*
X211450000Y-114950000D02*
X211400000Y-114900000D01*
X210450000Y-112150000D02*
X210400000Y-112200000D01*
X265450000Y-114950000D02*
X265400000Y-114900000D01*
X259962500Y-112462500D02*
X260000000Y-112500000D01*
X214000000Y-57000000D02*
X213900000Y-57000000D01*
X214000000Y-64500000D02*
X213900000Y-64500000D01*
X252875000Y-30350000D02*
X252875000Y-30325000D01*
X231850000Y-112450000D02*
X231800000Y-112400000D01*
X259925000Y-112462500D02*
X259962500Y-112462500D01*
X217175000Y-89130098D02*
X217205098Y-89100000D01*
X252875000Y-30325000D02*
X252900000Y-30300000D01*
X218700000Y-82500000D02*
X218700000Y-82400000D01*
X217200000Y-89800000D02*
X217175000Y-89800000D01*
X216500000Y-82500000D02*
X216500000Y-82400000D01*
X209990000Y-96500000D02*
X210000000Y-96500000D01*
X264550000Y-112050000D02*
X264600000Y-112000000D01*
X214000000Y-72000000D02*
X213900000Y-72000000D01*
%TO.N,Net-(JP2-A)*%
X255611000Y-102365769D02*
X255611001Y-91671064D01*
X259800000Y-78779999D02*
X254470000Y-84109999D01*
X255600000Y-91660063D02*
X255600000Y-85239999D01*
X259800000Y-67500000D02*
X259800000Y-53449999D01*
X258450000Y-103500000D02*
X256745231Y-103500000D01*
X256745231Y-103500000D02*
X255611000Y-102365769D01*
X259800000Y-53449999D02*
X254470000Y-48119999D01*
X255600000Y-85239999D02*
X254470000Y-84109999D01*
X255611001Y-91671064D02*
X255600000Y-91660063D01*
X259800000Y-67500000D02*
X259800000Y-78779999D01*
%TO.N,Net-(U2-CANL)*%
X251175000Y-67500000D02*
X250900000Y-67225000D01*
X252934300Y-89534593D02*
X252934300Y-83729301D01*
X252934300Y-83729301D02*
X251930000Y-82725001D01*
X255229000Y-91829293D02*
X252934300Y-89534593D01*
X250925700Y-67749300D02*
X251175000Y-67500000D01*
X257475001Y-104770000D02*
X255229000Y-102523999D01*
X251930000Y-82725001D02*
X250925700Y-81720701D01*
X258450000Y-104770000D02*
X257475001Y-104770000D01*
X250925700Y-81720701D02*
X250925700Y-67749300D01*
X250900000Y-67225000D02*
X250900000Y-47565001D01*
X250900000Y-47565001D02*
X251730000Y-46735001D01*
X255229000Y-102523999D02*
X255229000Y-91829293D01*
%TO.N,+5V*%
X214000000Y-90000000D02*
X218600000Y-94600000D01*
X213000000Y-94600000D02*
X209990000Y-94600000D01*
X217200000Y-87900000D02*
X217200000Y-86425000D01*
X217175000Y-85075000D02*
X217175000Y-86400000D01*
X214000000Y-90000000D02*
X215096900Y-90000000D01*
X217200000Y-86425000D02*
X217175000Y-86400000D01*
X213000000Y-94600000D02*
X218600000Y-94600000D01*
X218600000Y-94600000D02*
X221939040Y-94600000D01*
X215096900Y-90000000D02*
X215396900Y-89700000D01*
X221939040Y-94600000D02*
X222636320Y-95297280D01*
X216500000Y-84400000D02*
X217175000Y-85075000D01*
%TO.N,Net-(JP2-B)*%
X253000000Y-67500000D02*
X257260000Y-67500000D01*
%TO.N,Net-(R_5Pos1-Pin_2)*%
X247612500Y-112462500D02*
X249437500Y-110637500D01*
X251925000Y-115050000D02*
X251925000Y-114200001D01*
X248750000Y-113600000D02*
X247612500Y-112462500D01*
X251925000Y-114200001D02*
X251324999Y-113600000D01*
X251324999Y-113600000D02*
X248750000Y-113600000D01*
X249437500Y-110637500D02*
X250025000Y-110637500D01*
%TO.N,Net-(R_5Pos1-Pin_3)*%
X250962500Y-112462500D02*
X250025000Y-112462500D01*
X253175000Y-115050000D02*
X253175000Y-114675000D01*
X253175000Y-114675000D02*
X250962500Y-112462500D01*
X251837500Y-110650000D02*
X252525000Y-110650000D01*
X250025000Y-112462500D02*
X251837500Y-110650000D01*
%TO.N,Net-(R_5Pos1-Pin_4)*%
X252525000Y-112475000D02*
X254350000Y-110650000D01*
X254425000Y-114375000D02*
X252525000Y-112475000D01*
X254425000Y-115050000D02*
X254425000Y-114375000D01*
X254350000Y-110650000D02*
X255025000Y-110650000D01*
%TO.N,Net-(R_5Pos1-Pin_5)*%
X255675000Y-115050000D02*
X255675000Y-113125000D01*
X255675000Y-113125000D02*
X255025000Y-112475000D01*
X256850000Y-110650000D02*
X257525000Y-110650000D01*
X255025000Y-112475000D02*
X256850000Y-110650000D01*
%TO.N,Net-(R_5Pos2-Pin_2)*%
X224025000Y-114950000D02*
X224025000Y-114100001D01*
X224025000Y-114100001D02*
X223324999Y-113400000D01*
X219875000Y-112375000D02*
X221625000Y-110625000D01*
X220900000Y-113400000D02*
X219875000Y-112375000D01*
X223324999Y-113400000D02*
X220900000Y-113400000D01*
X221625000Y-110625000D02*
X222275000Y-110625000D01*
%TO.N,Net-(R_5Pos2-Pin_3)*%
X225275000Y-114950000D02*
X225275000Y-114775000D01*
X222950000Y-112450000D02*
X222275000Y-112450000D01*
X224100000Y-110625000D02*
X224687500Y-110625000D01*
X225275000Y-114775000D02*
X222950000Y-112450000D01*
X222275000Y-112450000D02*
X224100000Y-110625000D01*
%TO.N,Net-(R_5Pos2-Pin_4)*%
X226512500Y-110625000D02*
X227075000Y-110625000D01*
X226525000Y-114950000D02*
X226525000Y-114287500D01*
X224687500Y-112450000D02*
X226512500Y-110625000D01*
X226525000Y-114287500D02*
X224687500Y-112450000D01*
%TO.N,Net-(R_5Pos2-Pin_5)*%
X227775000Y-114950000D02*
X227775000Y-113150000D01*
X227075000Y-112450000D02*
X228900000Y-110625000D01*
X228900000Y-110625000D02*
X229462500Y-110625000D01*
X227775000Y-113150000D02*
X227075000Y-112450000D01*
%TO.N,Net-(R_pos1-Pin_3)*%
X216487500Y-101787500D02*
X218300000Y-103600000D01*
X214362500Y-103125000D02*
X213850000Y-103125000D01*
X216487500Y-101000000D02*
X214362500Y-103125000D01*
X216487500Y-101000000D02*
X216487500Y-101787500D01*
%TO.N,Net-(R_pos1-Pin_1)*%
X214800000Y-99675000D02*
X214800000Y-95300000D01*
X213850000Y-100625000D02*
X214800000Y-99675000D01*
%TO.N,Net-(R_pos2-Pin_3)*%
X238600000Y-112525000D02*
X240425000Y-110700000D01*
X240350000Y-114275000D02*
X238600000Y-112525000D01*
X240425000Y-110700000D02*
X240800000Y-110700000D01*
X240350000Y-115000000D02*
X240350000Y-114275000D01*
%TO.N,Net-(R_pos2-Pin_1)*%
X235100000Y-112900000D02*
X233000000Y-110800000D01*
X235100000Y-113500000D02*
X235100000Y-112900000D01*
X236100000Y-113500000D02*
X235100000Y-113500000D01*
X237600000Y-115000000D02*
X236100000Y-113500000D01*
X233000000Y-110800000D02*
X233000000Y-109600000D01*
X229400000Y-109600000D02*
X224300000Y-104500000D01*
X237850000Y-115000000D02*
X237600000Y-115000000D01*
X233000000Y-109600000D02*
X229400000Y-109600000D01*
X224300000Y-58860000D02*
X222640000Y-57200000D01*
X224300000Y-104500000D02*
X224300000Y-58860000D01*
%TO.N,Net-(U2-Rs)*%
X258450000Y-102230000D02*
X260405000Y-102230000D01*
X260405000Y-102230000D02*
X260675000Y-102500000D01*
%TO.N,Net-(R_5Pos1-Pin_1)*%
X247233606Y-113400000D02*
X246500000Y-113400000D01*
X246500000Y-112100000D02*
X243618000Y-109218000D01*
X248883606Y-115050000D02*
X247233606Y-113400000D01*
X224682000Y-56702000D02*
X222640000Y-54660000D01*
X246500000Y-113400000D02*
X246500000Y-112100000D01*
X250675000Y-115050000D02*
X248883606Y-115050000D01*
X224682000Y-104341770D02*
X224682000Y-56702000D01*
X243618000Y-109218000D02*
X229558230Y-109218000D01*
X229558230Y-109218000D02*
X224682000Y-104341770D01*
%TO.N,Net-(R_5Pos2-Pin_1)*%
X223895000Y-76235000D02*
X222640000Y-74980000D01*
X220450000Y-114950000D02*
X218700000Y-113200000D01*
X223895000Y-104505000D02*
X223895000Y-76235000D01*
X222775000Y-114950000D02*
X220450000Y-114950000D01*
X218700000Y-113200000D02*
X218700000Y-109700000D01*
X218700000Y-109700000D02*
X223895000Y-104505000D01*
%TO.N,Net-(R_BRK1-Pin_2)*%
X212700000Y-114950000D02*
X212700000Y-114112500D01*
X212700000Y-114112500D02*
X214450000Y-112362500D01*
%TO.N,Net-(R_THR1-Pin_2)*%
X266700000Y-114950000D02*
X266700000Y-114025000D01*
X266700000Y-114025000D02*
X268450000Y-112275000D01*
%TO.N,Net-(SW_Push1-Pin_1)*%
X214849999Y-48250000D02*
X221385000Y-54785001D01*
X221385000Y-61025000D02*
X222640000Y-62280000D01*
X221385000Y-54785001D02*
X221385000Y-61025000D01*
X214000000Y-48250000D02*
X214849999Y-48250000D01*
%TO.N,Net-(SW_Push2-Pin_1)*%
X221385000Y-62385000D02*
X221385000Y-63565000D01*
X221385000Y-63565000D02*
X222640000Y-64820000D01*
X214750000Y-55750000D02*
X221385000Y-62385000D01*
X214000000Y-55750000D02*
X214750000Y-55750000D01*
%TO.N,Net-(SW_Tog1-Pin_1)*%
X254125000Y-30350000D02*
X254125000Y-32334770D01*
X243862999Y-42596771D02*
X243863000Y-73343000D01*
X254125000Y-32334770D02*
X243862999Y-42596771D01*
X243863000Y-73343000D02*
X245500000Y-74980000D01*
%TO.N,Net-(SW_Tog2-Pin_1)*%
X244245000Y-71185000D02*
X245500000Y-72440000D01*
X252019000Y-34981000D02*
X244245000Y-42755000D01*
X261775000Y-31304439D02*
X258098439Y-34981000D01*
X261775000Y-30350000D02*
X261775000Y-31304439D01*
X244245000Y-42755000D02*
X244245000Y-71185000D01*
X258098439Y-34981000D02*
X252019000Y-34981000D01*
%TO.N,Net-(U1-GPIO1{slash}ADC1_CH0)*%
X267700000Y-109700000D02*
X253900000Y-109700000D01*
X249613000Y-105424336D02*
X249612999Y-105412999D01*
X253900000Y-109700000D02*
X250622001Y-106422001D01*
X249612999Y-105412999D02*
X247400000Y-103200000D01*
X268450000Y-110450000D02*
X267700000Y-109700000D01*
X250622001Y-106422001D02*
X250610664Y-106422000D01*
X247400000Y-103200000D02*
X247400000Y-63100000D01*
X250610664Y-106422000D02*
X249613000Y-105424336D01*
X266450000Y-112050000D02*
X268050000Y-110450000D01*
X268050000Y-110450000D02*
X268450000Y-110450000D01*
%TO.N,Net-(U1-GPIO40{slash}MTDO)*%
X250768894Y-106040000D02*
X249995000Y-105266106D01*
X253500000Y-106040000D02*
X250768894Y-106040000D01*
X247997900Y-103257669D02*
X247997900Y-62778130D01*
X247499770Y-62280000D02*
X245500000Y-62280000D01*
X249995000Y-105254769D02*
X247997900Y-103257669D01*
X247997900Y-62778130D02*
X247499770Y-62280000D01*
X249995000Y-105266106D02*
X249995000Y-105254769D01*
%TO.N,Net-(U1-GPIO2{slash}ADC1_CH1)*%
X212350000Y-112150000D02*
X213962500Y-110537500D01*
X223298100Y-103000000D02*
X223298100Y-103001900D01*
X215762500Y-110537500D02*
X214450000Y-110537500D01*
X223298100Y-103001900D02*
X215762500Y-110537500D01*
X213962500Y-110537500D02*
X214450000Y-110537500D01*
%TO.N,Net-(J3-Pin_2)*%
X214000000Y-87500000D02*
X215396900Y-87500000D01*
X215500000Y-85700000D02*
X215825000Y-85700000D01*
X215825000Y-85700000D02*
X216525000Y-86400000D01*
%TO.N,Net-(J3-Pin_1)*%
X214000000Y-86250000D02*
X215050000Y-86250000D01*
X216525000Y-87725000D02*
X216525000Y-89800000D01*
X215050000Y-86250000D02*
X216525000Y-87725000D01*
%TO.N,Net-(U1-GPIO41{slash}MTDI)*%
X248379900Y-64619670D02*
X248379901Y-62619901D01*
X253500000Y-102230000D02*
X248379900Y-97109900D01*
X248379900Y-97109900D02*
X248379900Y-64619670D01*
X248379901Y-62619901D02*
X245500000Y-59740000D01*
%TO.N,Net-(R_5Pos1-Pin_6)*%
X256925000Y-115050000D02*
X256925000Y-113075000D01*
X256925000Y-113075000D02*
X257525000Y-112475000D01*
X257525000Y-112475000D02*
X259362500Y-110637500D01*
X259362500Y-110637500D02*
X259925000Y-110637500D01*
%TO.N,Net-(R_5Pos2-Pin_6)*%
X229025000Y-114950000D02*
X229025000Y-112887500D01*
X229025000Y-112887500D02*
X229462500Y-112450000D01*
X229462500Y-112450000D02*
X231287500Y-110625000D01*
X231287500Y-110625000D02*
X231862500Y-110625000D01*
%TO.N,Net-(R_pos1-Pin_4)*%
X215700000Y-104375000D02*
X213850000Y-104375000D01*
X216475000Y-103600000D02*
X215700000Y-104375000D01*
X216475000Y-103600000D02*
X216475000Y-104175000D01*
X216475000Y-104175000D02*
X218300000Y-106000000D01*
%TO.N,Net-(R_pos2-Pin_2)*%
X238125000Y-110700000D02*
X238600000Y-110700000D01*
X239100000Y-115000000D02*
X239100000Y-114725000D01*
X236900000Y-112525000D02*
X236300000Y-112525000D01*
X236300000Y-112525000D02*
X238125000Y-110700000D01*
X239100000Y-114725000D02*
X236900000Y-112525000D01*
%TO.N,Net-(R_pos2-Pin_4)*%
X241600000Y-113325000D02*
X240800000Y-112525000D01*
X241600000Y-115000000D02*
X241600000Y-113325000D01*
X240800000Y-112525000D02*
X242625000Y-110700000D01*
X242625000Y-110700000D02*
X243100000Y-110700000D01*
%TO.N,Net-(R_pos1-Pin_2)*%
X213850000Y-101875000D02*
X214178894Y-101875000D01*
X214178894Y-101875000D02*
X216487500Y-99566394D01*
X216487500Y-98400000D02*
X216487500Y-99175000D01*
X216487500Y-99175000D02*
X218312500Y-101000000D01*
X216487500Y-99566394D02*
X216487500Y-98400000D01*
%TO.N,Net-(SW_Push3-Pin_1)*%
X214000000Y-63250000D02*
X214849999Y-63250000D01*
X214849999Y-63250000D02*
X221385000Y-69785001D01*
X221385000Y-86425000D02*
X222640000Y-87680000D01*
X221385000Y-69785001D02*
X221385000Y-86425000D01*
%TO.N,Net-(SW_Push4-Pin_1)*%
X221003000Y-76903001D02*
X221003000Y-88583000D01*
X214000000Y-70750000D02*
X214849999Y-70750000D01*
X221003000Y-88583000D02*
X222640000Y-90220000D01*
X214849999Y-70750000D02*
X221003000Y-76903001D01*
%TO.N,Net-(SW_Push5-Pin_1)*%
X220621000Y-90741960D02*
X222636320Y-92757280D01*
X214000000Y-78250000D02*
X220621000Y-78250000D01*
X220621000Y-78250000D02*
X220621000Y-90741960D01*
%TO.N,Net-(U1-GPIO18{slash}ADC2_CH7)*%
X218475000Y-89800000D02*
X218475000Y-87825000D01*
X218475000Y-87825000D02*
X220000000Y-86300000D01*
%TO.N,Net-(U1-GPIO17{slash}ADC2_CH6)*%
X218475000Y-86400000D02*
X219055855Y-86400000D01*
X219055855Y-86400000D02*
X219984329Y-85471526D01*
%TD*%
M02*
