%TF.GenerationSoftware,KiCad,Pcbnew,10.0.1*%
%TF.CreationDate,2026-04-28T23:59:33+10:00*%
%TF.ProjectId,Driver_Control_PCB,44726976-6572-45f4-936f-6e74726f6c5f,rev?*%
%TF.SameCoordinates,Original*%
%TF.FileFunction,Copper,L3,Inr*%
%TF.FilePolarity,Positive*%
%FSLAX46Y46*%
G04 Gerber Fmt 4.6, Leading zero omitted, Abs format (unit mm)*
G04 Created by KiCad (PCBNEW 10.0.1) date 2026-04-28 23:59:33*
%MOMM*%
%LPD*%
G01*
G04 APERTURE LIST*
G04 Aperture macros list*
%AMRoundRect*
0 Rectangle with rounded corners*
0 $1 Rounding radius*
0 $2 $3 $4 $5 $6 $7 $8 $9 X,Y pos of 4 corners*
0 Add a 4 corners polygon primitive as box body*
4,1,4,$2,$3,$4,$5,$6,$7,$8,$9,$2,$3,0*
0 Add four circle primitives for the rounded corners*
1,1,$1+$1,$2,$3*
1,1,$1+$1,$4,$5*
1,1,$1+$1,$6,$7*
1,1,$1+$1,$8,$9*
0 Add four rect primitives between the rounded corners*
20,1,$1+$1,$2,$3,$4,$5,0*
20,1,$1+$1,$4,$5,$6,$7,0*
20,1,$1+$1,$6,$7,$8,$9,0*
20,1,$1+$1,$8,$9,$2,$3,0*%
G04 Aperture macros list end*
%TA.AperFunction,ComponentPad*%
%ADD10RoundRect,0.249999X-1.250001X-1.250001X1.250001X-1.250001X1.250001X1.250001X-1.250001X1.250001X0*%
%TD*%
%TA.AperFunction,ComponentPad*%
%ADD11C,3.000000*%
%TD*%
%TA.AperFunction,ComponentPad*%
%ADD12R,1.700000X1.700000*%
%TD*%
%TA.AperFunction,ComponentPad*%
%ADD13C,1.700000*%
%TD*%
%TA.AperFunction,ComponentPad*%
%ADD14C,1.498600*%
%TD*%
%TA.AperFunction,ComponentPad*%
%ADD15R,2.000000X1.200000*%
%TD*%
%TA.AperFunction,ComponentPad*%
%ADD16O,2.000000X1.200000*%
%TD*%
%TA.AperFunction,ViaPad*%
%ADD17C,0.685800*%
%TD*%
G04 APERTURE END LIST*
D10*
%TO.N,+5V*%
%TO.C,J1*%
X222500000Y-30867500D03*
D11*
%TO.N,GND*%
X227500000Y-30867500D03*
%TO.N,+3.3V*%
X232500000Y-30867500D03*
%TD*%
D12*
%TO.N,Net-(JP2-A)*%
%TO.C,JP2*%
X259800000Y-67500000D03*
D13*
%TO.N,Net-(JP2-B)*%
X257260000Y-67500000D03*
%TD*%
D10*
%TO.N,+5V*%
%TO.C,J2*%
X239000000Y-30867500D03*
D11*
%TO.N,GND*%
X244000000Y-30867500D03*
%TD*%
D14*
%TO.N,unconnected-(J4-Pad1)*%
%TO.C,J4*%
X251930000Y-79955001D03*
%TO.N,Net-(U2-CANL)*%
X251930000Y-82725001D03*
%TO.N,GND*%
X251930000Y-85495000D03*
%TO.N,unconnected-(J4-Pad4)*%
X251930000Y-88265000D03*
%TO.N,unconnected-(J4-Pad5)*%
X251930000Y-91034999D03*
%TO.N,unconnected-(J4-Pad6)*%
X254470000Y-81339999D03*
%TO.N,Net-(JP2-A)*%
X254470000Y-84109999D03*
%TO.N,unconnected-(J4-Pad8)*%
X254470000Y-86879999D03*
%TO.N,+5V*%
X254470000Y-89649998D03*
%TD*%
%TO.N,unconnected-(J5-Pad1)*%
%TO.C,J5*%
X251930000Y-43965001D03*
%TO.N,Net-(U2-CANL)*%
X251930000Y-46735001D03*
%TO.N,GND*%
X251930000Y-49505000D03*
%TO.N,unconnected-(J5-Pad4)*%
X251930000Y-52275000D03*
%TO.N,unconnected-(J5-Pad5)*%
X251930000Y-55044999D03*
%TO.N,unconnected-(J5-Pad6)*%
X254470000Y-45349999D03*
%TO.N,Net-(JP2-A)*%
X254470000Y-48119999D03*
%TO.N,unconnected-(J5-Pad8)*%
X254470000Y-50889999D03*
%TO.N,+5V*%
X254470000Y-53659998D03*
%TD*%
D15*
%TO.N,+3.3V*%
%TO.C,U1*%
X222640000Y-44500000D03*
D16*
X222640000Y-47040000D03*
%TO.N,unconnected-(U1-CHIP_PU-Pad3)*%
X222640000Y-49580000D03*
%TO.N,Net-(R_pos1-Pin_1)*%
X222640000Y-52120000D03*
%TO.N,Net-(R_5Pos1-Pin_1)*%
X222640000Y-54660000D03*
%TO.N,Net-(R_pos2-Pin_1)*%
X222640000Y-57200000D03*
%TO.N,unconnected-(U1-GPIO7{slash}ADC1_CH6-Pad7)*%
X222640000Y-59740000D03*
%TO.N,Net-(SW_Push1-Pin_1)*%
X222640000Y-62280000D03*
%TO.N,Net-(SW_Push2-Pin_1)*%
X222640000Y-64820000D03*
%TO.N,Net-(U1-GPIO17{slash}ADC2_CH6)*%
X222640000Y-67360000D03*
%TO.N,Net-(U1-GPIO18{slash}ADC2_CH7)*%
X222640000Y-69900000D03*
%TO.N,unconnected-(U1-GPIO8{slash}ADC1_CH7-Pad12)*%
X222640000Y-72440000D03*
%TO.N,Net-(R_5Pos2-Pin_1)*%
X222640000Y-74980000D03*
%TO.N,unconnected-(U1-GPIO46-Pad14)*%
X222640000Y-77520000D03*
%TO.N,unconnected-(U1-GPIO9{slash}ADC1_CH8-Pad15)*%
X222640000Y-80060000D03*
%TO.N,unconnected-(U1-GPIO10{slash}ADC1_CH9-Pad16)*%
X222640000Y-82600000D03*
%TO.N,unconnected-(U1-GPIO11{slash}ADC2_CH0-Pad17)*%
X222640000Y-85140000D03*
%TO.N,Net-(SW_Push3-Pin_1)*%
X222640000Y-87680000D03*
%TO.N,Net-(SW_Push4-Pin_1)*%
X222640000Y-90220000D03*
%TO.N,Net-(SW_Push5-Pin_1)*%
X222636320Y-92757280D03*
%TO.N,+5V*%
X222636320Y-95297280D03*
%TO.N,GND*%
X222636320Y-97837280D03*
X245500000Y-97840000D03*
X245500000Y-95300000D03*
%TO.N,unconnected-(U1-GPIO19{slash}USB_D--Pad25)*%
X245500000Y-92760000D03*
%TO.N,unconnected-(U1-GPIO20{slash}USB_D+-Pad26)*%
X245500000Y-90220000D03*
%TO.N,unconnected-(U1-GPIO21-Pad27)*%
X245500000Y-87680000D03*
%TO.N,unconnected-(U1-GPIO47-Pad28)*%
X245500000Y-85140000D03*
%TO.N,unconnected-(U1-GPIO48-Pad29)*%
X245500000Y-82600000D03*
%TO.N,unconnected-(U1-GPIO45-Pad30)*%
X245500000Y-80060000D03*
%TO.N,unconnected-(U1-GPIO0-Pad31)*%
X245500000Y-77520000D03*
%TO.N,Net-(SW_Tog1-Pin_1)*%
X245500000Y-74980000D03*
%TO.N,Net-(SW_Tog2-Pin_1)*%
X245500000Y-72440000D03*
%TO.N,unconnected-(U1-GPIO37-Pad34)*%
X245500000Y-69900000D03*
%TO.N,unconnected-(U1-GPIO38-Pad35)*%
X245500000Y-67360000D03*
%TO.N,unconnected-(U1-GPIO39{slash}MTCK-Pad36)*%
X245500000Y-64820000D03*
%TO.N,Net-(U1-GPIO40{slash}MTDO)*%
X245500000Y-62280000D03*
%TO.N,Net-(U1-GPIO41{slash}MTDI)*%
X245500000Y-59740000D03*
%TO.N,unconnected-(U1-GPIO42{slash}MTMS-Pad39)*%
X245500000Y-57200000D03*
%TO.N,Net-(U1-GPIO2{slash}ADC1_CH1)*%
X245500000Y-54660000D03*
%TO.N,Net-(U1-GPIO1{slash}ADC1_CH0)*%
X245500000Y-52120000D03*
%TO.N,unconnected-(U1-GPIO44{slash}U0RXD-Pad42)*%
X245500000Y-49580000D03*
%TO.N,unconnected-(U1-GPIO43{slash}U0TXD-Pad43)*%
X245500000Y-47040000D03*
%TO.N,GND*%
X245500000Y-44500000D03*
%TD*%
D17*
%TO.N,+3.3V*%
X217800000Y-86400000D03*
X219900000Y-110500000D03*
X247600000Y-110600000D03*
X213900000Y-114900000D03*
X260600000Y-104600000D03*
X253500000Y-104800000D03*
X267934573Y-113634573D03*
X236300000Y-110600000D03*
X218300000Y-98400000D03*
X222500000Y-42000000D03*
X218700000Y-84300000D03*
X217800000Y-89700000D03*
%TO.N,GND*%
X216500000Y-106000000D03*
X213900000Y-64500000D03*
X213900000Y-57000000D03*
X213900000Y-79500000D03*
X216500000Y-82400000D03*
X243100000Y-112500000D03*
X260500000Y-30300000D03*
X211400000Y-114900000D03*
X260000000Y-112500000D03*
X214000000Y-88700000D03*
X253500000Y-103500000D03*
X210000000Y-96500000D03*
X262600000Y-104500000D03*
X217205098Y-89100000D03*
X264600000Y-112000000D03*
X213900000Y-49500000D03*
X213900000Y-72000000D03*
X222500000Y-40100000D03*
X252900000Y-30300000D03*
X218700000Y-82400000D03*
X231800000Y-112400000D03*
X213000000Y-96500000D03*
X265400000Y-114900000D03*
X262500000Y-102400000D03*
X210400000Y-112200000D03*
%TO.N,+5V*%
X215396900Y-89700000D03*
X217200000Y-87900000D03*
%TO.N,Net-(R_pos1-Pin_1)*%
X214800000Y-95300000D03*
%TO.N,Net-(U1-GPIO1{slash}ADC1_CH0)*%
X247400000Y-63100000D03*
%TO.N,Net-(U1-GPIO2{slash}ADC1_CH1)*%
X223298100Y-103000000D03*
%TO.N,Net-(J3-Pin_2)*%
X215396900Y-87500000D03*
X215500000Y-85700000D03*
%TO.N,Net-(U1-GPIO18{slash}ADC2_CH7)*%
X220000000Y-86300000D03*
%TO.N,Net-(U1-GPIO17{slash}ADC2_CH6)*%
X219984329Y-85471526D03*
%TD*%
%TA.AperFunction,Conductor*%
%TO.N,+3.3V*%
G36*
X271042539Y-24520185D02*
G01*
X271088294Y-24572989D01*
X271099500Y-24624500D01*
X271099500Y-120975500D01*
X271079815Y-121042539D01*
X271027011Y-121088294D01*
X270975500Y-121099500D01*
X207924500Y-121099500D01*
X207857461Y-121079815D01*
X207811706Y-121027011D01*
X207800500Y-120975500D01*
X207800500Y-114816927D01*
X210556600Y-114816927D01*
X210556600Y-114983072D01*
X210589009Y-115146003D01*
X210589012Y-115146015D01*
X210652584Y-115299493D01*
X210652591Y-115299506D01*
X210744887Y-115437635D01*
X210744890Y-115437639D01*
X210862360Y-115555109D01*
X210862364Y-115555112D01*
X211000493Y-115647408D01*
X211000506Y-115647415D01*
X211153984Y-115710987D01*
X211153989Y-115710989D01*
X211316927Y-115743399D01*
X211316931Y-115743400D01*
X211316932Y-115743400D01*
X211483069Y-115743400D01*
X211483070Y-115743399D01*
X211646011Y-115710989D01*
X211799500Y-115647412D01*
X211937636Y-115555112D01*
X212055112Y-115437636D01*
X212147412Y-115299500D01*
X212210989Y-115146011D01*
X212243400Y-114983068D01*
X212243400Y-114816932D01*
X212243399Y-114816927D01*
X264556600Y-114816927D01*
X264556600Y-114983072D01*
X264589009Y-115146003D01*
X264589012Y-115146015D01*
X264652584Y-115299493D01*
X264652591Y-115299506D01*
X264744887Y-115437635D01*
X264744890Y-115437639D01*
X264862360Y-115555109D01*
X264862364Y-115555112D01*
X265000493Y-115647408D01*
X265000506Y-115647415D01*
X265153984Y-115710987D01*
X265153989Y-115710989D01*
X265316927Y-115743399D01*
X265316931Y-115743400D01*
X265316932Y-115743400D01*
X265483069Y-115743400D01*
X265483070Y-115743399D01*
X265646011Y-115710989D01*
X265799500Y-115647412D01*
X265937636Y-115555112D01*
X266055112Y-115437636D01*
X266147412Y-115299500D01*
X266210989Y-115146011D01*
X266243400Y-114983068D01*
X266243400Y-114816932D01*
X266210989Y-114653989D01*
X266210987Y-114653984D01*
X266147415Y-114500506D01*
X266147408Y-114500493D01*
X266055112Y-114362364D01*
X266055109Y-114362360D01*
X265937639Y-114244890D01*
X265937635Y-114244887D01*
X265799506Y-114152591D01*
X265799493Y-114152584D01*
X265646015Y-114089012D01*
X265646003Y-114089009D01*
X265483072Y-114056600D01*
X265483068Y-114056600D01*
X265316932Y-114056600D01*
X265316927Y-114056600D01*
X265153996Y-114089009D01*
X265153984Y-114089012D01*
X265000506Y-114152584D01*
X265000493Y-114152591D01*
X264862364Y-114244887D01*
X264862360Y-114244890D01*
X264744890Y-114362360D01*
X264744887Y-114362364D01*
X264652591Y-114500493D01*
X264652584Y-114500506D01*
X264589012Y-114653984D01*
X264589009Y-114653996D01*
X264556600Y-114816927D01*
X212243399Y-114816927D01*
X212210989Y-114653989D01*
X212210987Y-114653984D01*
X212147415Y-114500506D01*
X212147408Y-114500493D01*
X212055112Y-114362364D01*
X212055109Y-114362360D01*
X211937639Y-114244890D01*
X211937635Y-114244887D01*
X211799506Y-114152591D01*
X211799493Y-114152584D01*
X211646015Y-114089012D01*
X211646003Y-114089009D01*
X211483072Y-114056600D01*
X211483068Y-114056600D01*
X211316932Y-114056600D01*
X211316927Y-114056600D01*
X211153996Y-114089009D01*
X211153984Y-114089012D01*
X211000506Y-114152584D01*
X211000493Y-114152591D01*
X210862364Y-114244887D01*
X210862360Y-114244890D01*
X210744890Y-114362360D01*
X210744887Y-114362364D01*
X210652591Y-114500493D01*
X210652584Y-114500506D01*
X210589012Y-114653984D01*
X210589009Y-114653996D01*
X210556600Y-114816927D01*
X207800500Y-114816927D01*
X207800500Y-112116927D01*
X209556600Y-112116927D01*
X209556600Y-112283072D01*
X209589009Y-112446003D01*
X209589012Y-112446015D01*
X209652584Y-112599493D01*
X209652591Y-112599506D01*
X209744887Y-112737635D01*
X209744890Y-112737639D01*
X209862360Y-112855109D01*
X209862364Y-112855112D01*
X210000493Y-112947408D01*
X210000506Y-112947415D01*
X210153984Y-113010987D01*
X210153989Y-113010989D01*
X210316927Y-113043399D01*
X210316931Y-113043400D01*
X210316932Y-113043400D01*
X210483069Y-113043400D01*
X210483070Y-113043399D01*
X210646011Y-113010989D01*
X210799500Y-112947412D01*
X210937636Y-112855112D01*
X211055112Y-112737636D01*
X211147412Y-112599500D01*
X211210989Y-112446011D01*
X211236665Y-112316927D01*
X230956600Y-112316927D01*
X230956600Y-112483072D01*
X230989009Y-112646003D01*
X230989012Y-112646015D01*
X231052584Y-112799493D01*
X231052591Y-112799506D01*
X231144887Y-112937635D01*
X231144890Y-112937639D01*
X231262360Y-113055109D01*
X231262364Y-113055112D01*
X231400493Y-113147408D01*
X231400506Y-113147415D01*
X231553984Y-113210987D01*
X231553989Y-113210989D01*
X231716927Y-113243399D01*
X231716931Y-113243400D01*
X231716932Y-113243400D01*
X231883069Y-113243400D01*
X231883070Y-113243399D01*
X232046011Y-113210989D01*
X232164721Y-113161817D01*
X232199493Y-113147415D01*
X232199493Y-113147414D01*
X232199500Y-113147412D01*
X232337636Y-113055112D01*
X232455112Y-112937636D01*
X232547412Y-112799500D01*
X232610989Y-112646011D01*
X232643400Y-112483068D01*
X232643400Y-112416927D01*
X242256600Y-112416927D01*
X242256600Y-112583072D01*
X242289009Y-112746003D01*
X242289012Y-112746015D01*
X242352584Y-112899493D01*
X242352591Y-112899506D01*
X242444887Y-113037635D01*
X242444890Y-113037639D01*
X242562360Y-113155109D01*
X242562364Y-113155112D01*
X242700493Y-113247408D01*
X242700506Y-113247415D01*
X242853984Y-113310987D01*
X242853989Y-113310989D01*
X243016927Y-113343399D01*
X243016931Y-113343400D01*
X243016932Y-113343400D01*
X243183069Y-113343400D01*
X243183070Y-113343399D01*
X243346011Y-113310989D01*
X243499500Y-113247412D01*
X243637636Y-113155112D01*
X243755112Y-113037636D01*
X243847412Y-112899500D01*
X243910989Y-112746011D01*
X243943400Y-112583068D01*
X243943400Y-112416932D01*
X243943399Y-112416927D01*
X259156600Y-112416927D01*
X259156600Y-112583072D01*
X259189009Y-112746003D01*
X259189012Y-112746015D01*
X259252584Y-112899493D01*
X259252591Y-112899506D01*
X259344887Y-113037635D01*
X259344890Y-113037639D01*
X259462360Y-113155109D01*
X259462364Y-113155112D01*
X259600493Y-113247408D01*
X259600506Y-113247415D01*
X259753984Y-113310987D01*
X259753989Y-113310989D01*
X259916927Y-113343399D01*
X259916931Y-113343400D01*
X259916932Y-113343400D01*
X260083069Y-113343400D01*
X260083070Y-113343399D01*
X260246011Y-113310989D01*
X260399500Y-113247412D01*
X260537636Y-113155112D01*
X260655112Y-113037636D01*
X260747412Y-112899500D01*
X260810989Y-112746011D01*
X260843400Y-112583068D01*
X260843400Y-112416932D01*
X260810989Y-112253989D01*
X260807686Y-112246015D01*
X260747415Y-112100506D01*
X260747408Y-112100493D01*
X260666717Y-111979731D01*
X260666716Y-111979730D01*
X260655114Y-111962366D01*
X260655109Y-111962360D01*
X260609676Y-111916927D01*
X263756600Y-111916927D01*
X263756600Y-112083072D01*
X263789009Y-112246003D01*
X263789012Y-112246015D01*
X263852584Y-112399493D01*
X263852591Y-112399506D01*
X263944887Y-112537635D01*
X263944890Y-112537639D01*
X264062360Y-112655109D01*
X264062364Y-112655112D01*
X264200493Y-112747408D01*
X264200506Y-112747415D01*
X264326235Y-112799493D01*
X264353989Y-112810989D01*
X264516927Y-112843399D01*
X264516931Y-112843400D01*
X264516932Y-112843400D01*
X264683069Y-112843400D01*
X264683070Y-112843399D01*
X264846011Y-112810989D01*
X264999500Y-112747412D01*
X265137636Y-112655112D01*
X265255112Y-112537636D01*
X265347412Y-112399500D01*
X265410989Y-112246011D01*
X265443400Y-112083068D01*
X265443400Y-111916932D01*
X265410989Y-111753989D01*
X265384075Y-111689012D01*
X265347415Y-111600506D01*
X265347408Y-111600493D01*
X265255112Y-111462364D01*
X265255109Y-111462360D01*
X265137639Y-111344890D01*
X265137635Y-111344887D01*
X264999506Y-111252591D01*
X264999493Y-111252584D01*
X264846015Y-111189012D01*
X264846003Y-111189009D01*
X264683072Y-111156600D01*
X264683068Y-111156600D01*
X264516932Y-111156600D01*
X264516927Y-111156600D01*
X264353996Y-111189009D01*
X264353984Y-111189012D01*
X264200506Y-111252584D01*
X264200493Y-111252591D01*
X264062364Y-111344887D01*
X264062360Y-111344890D01*
X263944890Y-111462360D01*
X263944887Y-111462364D01*
X263852591Y-111600493D01*
X263852584Y-111600506D01*
X263789012Y-111753984D01*
X263789009Y-111753996D01*
X263756600Y-111916927D01*
X260609676Y-111916927D01*
X260537639Y-111844890D01*
X260537635Y-111844887D01*
X260399506Y-111752591D01*
X260399493Y-111752584D01*
X260246015Y-111689012D01*
X260246003Y-111689009D01*
X260083072Y-111656600D01*
X260083068Y-111656600D01*
X259916932Y-111656600D01*
X259916927Y-111656600D01*
X259753996Y-111689009D01*
X259753984Y-111689012D01*
X259600506Y-111752584D01*
X259600493Y-111752591D01*
X259462364Y-111844887D01*
X259462360Y-111844890D01*
X259344890Y-111962360D01*
X259344887Y-111962364D01*
X259252591Y-112100493D01*
X259252584Y-112100506D01*
X259189012Y-112253984D01*
X259189009Y-112253996D01*
X259156600Y-112416927D01*
X243943399Y-112416927D01*
X243910989Y-112253989D01*
X243907686Y-112246015D01*
X243847415Y-112100506D01*
X243847408Y-112100493D01*
X243755112Y-111962364D01*
X243755109Y-111962360D01*
X243637639Y-111844890D01*
X243637635Y-111844887D01*
X243499506Y-111752591D01*
X243499493Y-111752584D01*
X243346015Y-111689012D01*
X243346003Y-111689009D01*
X243183072Y-111656600D01*
X243183068Y-111656600D01*
X243016932Y-111656600D01*
X243016927Y-111656600D01*
X242853996Y-111689009D01*
X242853984Y-111689012D01*
X242700506Y-111752584D01*
X242700493Y-111752591D01*
X242562364Y-111844887D01*
X242562360Y-111844890D01*
X242444890Y-111962360D01*
X242444887Y-111962364D01*
X242352591Y-112100493D01*
X242352584Y-112100506D01*
X242289012Y-112253984D01*
X242289009Y-112253996D01*
X242256600Y-112416927D01*
X232643400Y-112416927D01*
X232643400Y-112316932D01*
X232610989Y-112153989D01*
X232595639Y-112116931D01*
X232547415Y-112000506D01*
X232547408Y-112000493D01*
X232455112Y-111862364D01*
X232455109Y-111862360D01*
X232337639Y-111744890D01*
X232337635Y-111744887D01*
X232199506Y-111652591D01*
X232199493Y-111652584D01*
X232046015Y-111589012D01*
X232046003Y-111589009D01*
X231883072Y-111556600D01*
X231883068Y-111556600D01*
X231716932Y-111556600D01*
X231716927Y-111556600D01*
X231553996Y-111589009D01*
X231553984Y-111589012D01*
X231400506Y-111652584D01*
X231400493Y-111652591D01*
X231262364Y-111744887D01*
X231262360Y-111744890D01*
X231144890Y-111862360D01*
X231144887Y-111862364D01*
X231052591Y-112000493D01*
X231052584Y-112000506D01*
X230989012Y-112153984D01*
X230989009Y-112153996D01*
X230956600Y-112316927D01*
X211236665Y-112316927D01*
X211243400Y-112283068D01*
X211243400Y-112116932D01*
X211210989Y-111953989D01*
X211195639Y-111916931D01*
X211147415Y-111800506D01*
X211147408Y-111800493D01*
X211055112Y-111662364D01*
X211055109Y-111662360D01*
X210937639Y-111544890D01*
X210937635Y-111544887D01*
X210799506Y-111452591D01*
X210799493Y-111452584D01*
X210646015Y-111389012D01*
X210646003Y-111389009D01*
X210483072Y-111356600D01*
X210483068Y-111356600D01*
X210316932Y-111356600D01*
X210316927Y-111356600D01*
X210153996Y-111389009D01*
X210153984Y-111389012D01*
X210000506Y-111452584D01*
X210000493Y-111452591D01*
X209862364Y-111544887D01*
X209862360Y-111544890D01*
X209744890Y-111662360D01*
X209744887Y-111662364D01*
X209652591Y-111800493D01*
X209652584Y-111800506D01*
X209589012Y-111953984D01*
X209589009Y-111953996D01*
X209556600Y-112116927D01*
X207800500Y-112116927D01*
X207800500Y-105916927D01*
X215656600Y-105916927D01*
X215656600Y-106083072D01*
X215689009Y-106246003D01*
X215689012Y-106246015D01*
X215752584Y-106399493D01*
X215752591Y-106399506D01*
X215844887Y-106537635D01*
X215844890Y-106537639D01*
X215962360Y-106655109D01*
X215962364Y-106655112D01*
X216100493Y-106747408D01*
X216100506Y-106747415D01*
X216253984Y-106810987D01*
X216253989Y-106810989D01*
X216416927Y-106843399D01*
X216416931Y-106843400D01*
X216416932Y-106843400D01*
X216583069Y-106843400D01*
X216583070Y-106843399D01*
X216746011Y-106810989D01*
X216899500Y-106747412D01*
X217037636Y-106655112D01*
X217155112Y-106537636D01*
X217247412Y-106399500D01*
X217310989Y-106246011D01*
X217343400Y-106083068D01*
X217343400Y-105916932D01*
X217310989Y-105753989D01*
X217310987Y-105753984D01*
X217247415Y-105600506D01*
X217247408Y-105600493D01*
X217155112Y-105462364D01*
X217155109Y-105462360D01*
X217037639Y-105344890D01*
X217037635Y-105344887D01*
X216899506Y-105252591D01*
X216899493Y-105252584D01*
X216746015Y-105189012D01*
X216746003Y-105189009D01*
X216583072Y-105156600D01*
X216583068Y-105156600D01*
X216416932Y-105156600D01*
X216416927Y-105156600D01*
X216253996Y-105189009D01*
X216253984Y-105189012D01*
X216100506Y-105252584D01*
X216100493Y-105252591D01*
X215962364Y-105344887D01*
X215962360Y-105344890D01*
X215844890Y-105462360D01*
X215844887Y-105462364D01*
X215752591Y-105600493D01*
X215752584Y-105600506D01*
X215689012Y-105753984D01*
X215689009Y-105753996D01*
X215656600Y-105916927D01*
X207800500Y-105916927D01*
X207800500Y-104416927D01*
X261756600Y-104416927D01*
X261756600Y-104583072D01*
X261789009Y-104746003D01*
X261789012Y-104746015D01*
X261852584Y-104899493D01*
X261852591Y-104899506D01*
X261944887Y-105037635D01*
X261944890Y-105037639D01*
X262062360Y-105155109D01*
X262062364Y-105155112D01*
X262200493Y-105247408D01*
X262200506Y-105247415D01*
X262353984Y-105310987D01*
X262353989Y-105310989D01*
X262516927Y-105343399D01*
X262516931Y-105343400D01*
X262516932Y-105343400D01*
X262683069Y-105343400D01*
X262683070Y-105343399D01*
X262846011Y-105310989D01*
X262999500Y-105247412D01*
X263137636Y-105155112D01*
X263255112Y-105037636D01*
X263347412Y-104899500D01*
X263410989Y-104746011D01*
X263443400Y-104583068D01*
X263443400Y-104416932D01*
X263410989Y-104253989D01*
X263401519Y-104231127D01*
X263347415Y-104100506D01*
X263347408Y-104100493D01*
X263302786Y-104033712D01*
X263259461Y-103968872D01*
X266099500Y-103968872D01*
X266099500Y-104231127D01*
X266110015Y-104310989D01*
X266133730Y-104491116D01*
X266198831Y-104734076D01*
X266201602Y-104744418D01*
X266201605Y-104744428D01*
X266301953Y-104986690D01*
X266301958Y-104986700D01*
X266433075Y-105213803D01*
X266592718Y-105421851D01*
X266592726Y-105421860D01*
X266778140Y-105607274D01*
X266778148Y-105607281D01*
X266986196Y-105766924D01*
X267213299Y-105898041D01*
X267213309Y-105898046D01*
X267455571Y-105998394D01*
X267455581Y-105998398D01*
X267708884Y-106066270D01*
X267968880Y-106100500D01*
X267968887Y-106100500D01*
X268231113Y-106100500D01*
X268231120Y-106100500D01*
X268491116Y-106066270D01*
X268744419Y-105998398D01*
X268986697Y-105898043D01*
X269213803Y-105766924D01*
X269421851Y-105607282D01*
X269421855Y-105607277D01*
X269421860Y-105607274D01*
X269607274Y-105421860D01*
X269607277Y-105421855D01*
X269607282Y-105421851D01*
X269766924Y-105213803D01*
X269898043Y-104986697D01*
X269998398Y-104744419D01*
X270066270Y-104491116D01*
X270100500Y-104231120D01*
X270100500Y-103968880D01*
X270066270Y-103708884D01*
X269998398Y-103455581D01*
X269975171Y-103399506D01*
X269898046Y-103213309D01*
X269898041Y-103213299D01*
X269766924Y-102986196D01*
X269607281Y-102778148D01*
X269607274Y-102778140D01*
X269421860Y-102592726D01*
X269421851Y-102592718D01*
X269213803Y-102433075D01*
X268986700Y-102301958D01*
X268986690Y-102301953D01*
X268744428Y-102201605D01*
X268744421Y-102201603D01*
X268744419Y-102201602D01*
X268491116Y-102133730D01*
X268433339Y-102126123D01*
X268231127Y-102099500D01*
X268231120Y-102099500D01*
X267968880Y-102099500D01*
X267968872Y-102099500D01*
X267737772Y-102129926D01*
X267708884Y-102133730D01*
X267502568Y-102189012D01*
X267455581Y-102201602D01*
X267455571Y-102201605D01*
X267213309Y-102301953D01*
X267213299Y-102301958D01*
X266986196Y-102433075D01*
X266778148Y-102592718D01*
X266592718Y-102778148D01*
X266433075Y-102986196D01*
X266301958Y-103213299D01*
X266301953Y-103213309D01*
X266201605Y-103455571D01*
X266201602Y-103455581D01*
X266139056Y-103689009D01*
X266133730Y-103708885D01*
X266099500Y-103968872D01*
X263259461Y-103968872D01*
X263255112Y-103962364D01*
X263255109Y-103962360D01*
X263137639Y-103844890D01*
X263137635Y-103844887D01*
X262999506Y-103752591D01*
X262999493Y-103752584D01*
X262846015Y-103689012D01*
X262846003Y-103689009D01*
X262683072Y-103656600D01*
X262683068Y-103656600D01*
X262516932Y-103656600D01*
X262516927Y-103656600D01*
X262353996Y-103689009D01*
X262353984Y-103689012D01*
X262200506Y-103752584D01*
X262200493Y-103752591D01*
X262062364Y-103844887D01*
X262062360Y-103844890D01*
X261944890Y-103962360D01*
X261944887Y-103962364D01*
X261852591Y-104100493D01*
X261852584Y-104100506D01*
X261789012Y-104253984D01*
X261789009Y-104253996D01*
X261756600Y-104416927D01*
X207800500Y-104416927D01*
X207800500Y-102916927D01*
X222454700Y-102916927D01*
X222454700Y-103083072D01*
X222487109Y-103246003D01*
X222487112Y-103246015D01*
X222550684Y-103399493D01*
X222550691Y-103399506D01*
X222642987Y-103537635D01*
X222642990Y-103537639D01*
X222760460Y-103655109D01*
X222760464Y-103655112D01*
X222898593Y-103747408D01*
X222898606Y-103747415D01*
X223049363Y-103809860D01*
X223052089Y-103810989D01*
X223215027Y-103843399D01*
X223215031Y-103843400D01*
X223215032Y-103843400D01*
X223381169Y-103843400D01*
X223381170Y-103843399D01*
X223544111Y-103810989D01*
X223697600Y-103747412D01*
X223835736Y-103655112D01*
X223953212Y-103537636D01*
X224033868Y-103416927D01*
X252656600Y-103416927D01*
X252656600Y-103583072D01*
X252689009Y-103746003D01*
X252689012Y-103746015D01*
X252752584Y-103899493D01*
X252752591Y-103899506D01*
X252844887Y-104037635D01*
X252844890Y-104037639D01*
X252962360Y-104155109D01*
X252962364Y-104155112D01*
X253100493Y-104247408D01*
X253100506Y-104247415D01*
X253253984Y-104310987D01*
X253253989Y-104310989D01*
X253416927Y-104343399D01*
X253416931Y-104343400D01*
X253416932Y-104343400D01*
X253583069Y-104343400D01*
X253583070Y-104343399D01*
X253746011Y-104310989D01*
X253764163Y-104303470D01*
X253781525Y-104296279D01*
X253899493Y-104247415D01*
X253899493Y-104247414D01*
X253899500Y-104247412D01*
X254037636Y-104155112D01*
X254155112Y-104037636D01*
X254247412Y-103899500D01*
X254310989Y-103746011D01*
X254343400Y-103583068D01*
X254343400Y-103416932D01*
X254310989Y-103253989D01*
X254307686Y-103246015D01*
X254247415Y-103100506D01*
X254247408Y-103100493D01*
X254155112Y-102962364D01*
X254155109Y-102962360D01*
X254037639Y-102844890D01*
X254037635Y-102844887D01*
X253899506Y-102752591D01*
X253899493Y-102752584D01*
X253746015Y-102689012D01*
X253746003Y-102689009D01*
X253583072Y-102656600D01*
X253583068Y-102656600D01*
X253416932Y-102656600D01*
X253416927Y-102656600D01*
X253253996Y-102689009D01*
X253253984Y-102689012D01*
X253100506Y-102752584D01*
X253100493Y-102752591D01*
X252962364Y-102844887D01*
X252962360Y-102844890D01*
X252844890Y-102962360D01*
X252844887Y-102962364D01*
X252752591Y-103100493D01*
X252752584Y-103100506D01*
X252689012Y-103253984D01*
X252689009Y-103253996D01*
X252656600Y-103416927D01*
X224033868Y-103416927D01*
X224045512Y-103399500D01*
X224053596Y-103379983D01*
X224060471Y-103363387D01*
X224060471Y-103363385D01*
X224109089Y-103246011D01*
X224141500Y-103083068D01*
X224141500Y-102916932D01*
X224109089Y-102753989D01*
X224082175Y-102689012D01*
X224045515Y-102600506D01*
X224045508Y-102600493D01*
X223953212Y-102462364D01*
X223953209Y-102462360D01*
X223835739Y-102344890D01*
X223835735Y-102344887D01*
X223793890Y-102316927D01*
X261656600Y-102316927D01*
X261656600Y-102483072D01*
X261689009Y-102646003D01*
X261689012Y-102646015D01*
X261752584Y-102799493D01*
X261752591Y-102799506D01*
X261844887Y-102937635D01*
X261844890Y-102937639D01*
X261962360Y-103055109D01*
X261962364Y-103055112D01*
X262100493Y-103147408D01*
X262100506Y-103147415D01*
X262253984Y-103210987D01*
X262253989Y-103210989D01*
X262416927Y-103243399D01*
X262416931Y-103243400D01*
X262416932Y-103243400D01*
X262583069Y-103243400D01*
X262583070Y-103243399D01*
X262746011Y-103210989D01*
X262899500Y-103147412D01*
X263037636Y-103055112D01*
X263155112Y-102937636D01*
X263247412Y-102799500D01*
X263310989Y-102646011D01*
X263343400Y-102483068D01*
X263343400Y-102316932D01*
X263310989Y-102153989D01*
X263310987Y-102153984D01*
X263247415Y-102000506D01*
X263247408Y-102000493D01*
X263155112Y-101862364D01*
X263155109Y-101862360D01*
X263037639Y-101744890D01*
X263037635Y-101744887D01*
X262899506Y-101652591D01*
X262899493Y-101652584D01*
X262746015Y-101589012D01*
X262746003Y-101589009D01*
X262583072Y-101556600D01*
X262583068Y-101556600D01*
X262416932Y-101556600D01*
X262416927Y-101556600D01*
X262253996Y-101589009D01*
X262253984Y-101589012D01*
X262100506Y-101652584D01*
X262100493Y-101652591D01*
X261962364Y-101744887D01*
X261962360Y-101744890D01*
X261844890Y-101862360D01*
X261844887Y-101862364D01*
X261752591Y-102000493D01*
X261752584Y-102000506D01*
X261689012Y-102153984D01*
X261689009Y-102153996D01*
X261656600Y-102316927D01*
X223793890Y-102316927D01*
X223697606Y-102252591D01*
X223697593Y-102252584D01*
X223544115Y-102189012D01*
X223544103Y-102189009D01*
X223381172Y-102156600D01*
X223381168Y-102156600D01*
X223215032Y-102156600D01*
X223215027Y-102156600D01*
X223052096Y-102189009D01*
X223052084Y-102189012D01*
X222898606Y-102252584D01*
X222898593Y-102252591D01*
X222760464Y-102344887D01*
X222760460Y-102344890D01*
X222642990Y-102462360D01*
X222642987Y-102462364D01*
X222550691Y-102600493D01*
X222550684Y-102600506D01*
X222487112Y-102753984D01*
X222487109Y-102753996D01*
X222454700Y-102916927D01*
X207800500Y-102916927D01*
X207800500Y-97750669D01*
X221135820Y-97750669D01*
X221135820Y-97923891D01*
X221162918Y-98094981D01*
X221216447Y-98259725D01*
X221295088Y-98414068D01*
X221396906Y-98554208D01*
X221519392Y-98676694D01*
X221659532Y-98778512D01*
X221813875Y-98857153D01*
X221978619Y-98910682D01*
X222149709Y-98937780D01*
X222149710Y-98937780D01*
X223122930Y-98937780D01*
X223122931Y-98937780D01*
X223294021Y-98910682D01*
X223458765Y-98857153D01*
X223613108Y-98778512D01*
X223753248Y-98676694D01*
X223875734Y-98554208D01*
X223977552Y-98414068D01*
X224056193Y-98259725D01*
X224109722Y-98094981D01*
X224136820Y-97923891D01*
X224136820Y-97753389D01*
X243999500Y-97753389D01*
X243999500Y-97926610D01*
X244026166Y-98094977D01*
X244026598Y-98097701D01*
X244080127Y-98262445D01*
X244158768Y-98416788D01*
X244260586Y-98556928D01*
X244383072Y-98679414D01*
X244523212Y-98781232D01*
X244677555Y-98859873D01*
X244842299Y-98913402D01*
X245013389Y-98940500D01*
X245013390Y-98940500D01*
X245986610Y-98940500D01*
X245986611Y-98940500D01*
X246157701Y-98913402D01*
X246322445Y-98859873D01*
X246476788Y-98781232D01*
X246616928Y-98679414D01*
X246739414Y-98556928D01*
X246841232Y-98416788D01*
X246919873Y-98262445D01*
X246973402Y-98097701D01*
X247000500Y-97926611D01*
X247000500Y-97865375D01*
X251298500Y-97865375D01*
X251298500Y-98114624D01*
X251298501Y-98114641D01*
X251317601Y-98259725D01*
X251331035Y-98361760D01*
X251383331Y-98556930D01*
X251395549Y-98602529D01*
X251490931Y-98832804D01*
X251490938Y-98832819D01*
X251615567Y-99048683D01*
X251767307Y-99246434D01*
X251767313Y-99246441D01*
X251943558Y-99422686D01*
X251943565Y-99422692D01*
X252141316Y-99574432D01*
X252357180Y-99699061D01*
X252357195Y-99699068D01*
X252456435Y-99740174D01*
X252587471Y-99794451D01*
X252828240Y-99858965D01*
X253075369Y-99891500D01*
X253075376Y-99891500D01*
X253324624Y-99891500D01*
X253324631Y-99891500D01*
X253571760Y-99858965D01*
X253812529Y-99794451D01*
X254042816Y-99699063D01*
X254258684Y-99574432D01*
X254456436Y-99422691D01*
X254632691Y-99246436D01*
X254784432Y-99048684D01*
X254909063Y-98832816D01*
X255004451Y-98602529D01*
X255068965Y-98361760D01*
X255101500Y-98114631D01*
X255101500Y-97865369D01*
X255068965Y-97618240D01*
X255004451Y-97377471D01*
X254909063Y-97147184D01*
X254895140Y-97123069D01*
X254784432Y-96931316D01*
X254632692Y-96733565D01*
X254632686Y-96733558D01*
X254456441Y-96557313D01*
X254456434Y-96557307D01*
X254258683Y-96405567D01*
X254042819Y-96280938D01*
X254042804Y-96280931D01*
X253812529Y-96185549D01*
X253571756Y-96121034D01*
X253324641Y-96088501D01*
X253324636Y-96088500D01*
X253324631Y-96088500D01*
X253075369Y-96088500D01*
X253075363Y-96088500D01*
X253075358Y-96088501D01*
X252828243Y-96121034D01*
X252587470Y-96185549D01*
X252357195Y-96280931D01*
X252357180Y-96280938D01*
X252141316Y-96405567D01*
X251943565Y-96557307D01*
X251943558Y-96557313D01*
X251767313Y-96733558D01*
X251767307Y-96733565D01*
X251615567Y-96931316D01*
X251490938Y-97147180D01*
X251490931Y-97147195D01*
X251395549Y-97377470D01*
X251331034Y-97618243D01*
X251298501Y-97865358D01*
X251298500Y-97865375D01*
X247000500Y-97865375D01*
X247000500Y-97753389D01*
X246973402Y-97582299D01*
X246919873Y-97417555D01*
X246841232Y-97263212D01*
X246739414Y-97123072D01*
X246616928Y-97000586D01*
X246476788Y-96898768D01*
X246322445Y-96820127D01*
X246157701Y-96766598D01*
X246157699Y-96766597D01*
X246157698Y-96766597D01*
X246026271Y-96745781D01*
X245986611Y-96739500D01*
X245013389Y-96739500D01*
X244973728Y-96745781D01*
X244842302Y-96766597D01*
X244677552Y-96820128D01*
X244523211Y-96898768D01*
X244443256Y-96956859D01*
X244383072Y-97000586D01*
X244383070Y-97000588D01*
X244383069Y-97000588D01*
X244260588Y-97123069D01*
X244260588Y-97123070D01*
X244260586Y-97123072D01*
X244243068Y-97147184D01*
X244158768Y-97263211D01*
X244080128Y-97417552D01*
X244026597Y-97582302D01*
X243999500Y-97753389D01*
X224136820Y-97753389D01*
X224136820Y-97750669D01*
X224109722Y-97579579D01*
X224056193Y-97414835D01*
X223977552Y-97260492D01*
X223875734Y-97120352D01*
X223753248Y-96997866D01*
X223613108Y-96896048D01*
X223458765Y-96817407D01*
X223294021Y-96763878D01*
X223294019Y-96763877D01*
X223294018Y-96763877D01*
X223140104Y-96739500D01*
X223122931Y-96736780D01*
X222149709Y-96736780D01*
X222132536Y-96739500D01*
X221978622Y-96763877D01*
X221813872Y-96817408D01*
X221659531Y-96896048D01*
X221654772Y-96899506D01*
X221519392Y-96997866D01*
X221519390Y-96997868D01*
X221519389Y-96997868D01*
X221396908Y-97120349D01*
X221396908Y-97120350D01*
X221396906Y-97120352D01*
X221353179Y-97180536D01*
X221295088Y-97260491D01*
X221216448Y-97414832D01*
X221162917Y-97579582D01*
X221156794Y-97618243D01*
X221135820Y-97750669D01*
X207800500Y-97750669D01*
X207800500Y-96416927D01*
X209156600Y-96416927D01*
X209156600Y-96583072D01*
X209189009Y-96746003D01*
X209189012Y-96746015D01*
X209252584Y-96899493D01*
X209252591Y-96899506D01*
X209344887Y-97037635D01*
X209344890Y-97037639D01*
X209462360Y-97155109D01*
X209462364Y-97155112D01*
X209600493Y-97247408D01*
X209600506Y-97247415D01*
X209753984Y-97310987D01*
X209753989Y-97310989D01*
X209916927Y-97343399D01*
X209916931Y-97343400D01*
X209916932Y-97343400D01*
X210083069Y-97343400D01*
X210083070Y-97343399D01*
X210246011Y-97310989D01*
X210399500Y-97247412D01*
X210537636Y-97155112D01*
X210655112Y-97037636D01*
X210747412Y-96899500D01*
X210810989Y-96746011D01*
X210843400Y-96583068D01*
X210843400Y-96416932D01*
X210843399Y-96416927D01*
X212156600Y-96416927D01*
X212156600Y-96583072D01*
X212189009Y-96746003D01*
X212189012Y-96746015D01*
X212252584Y-96899493D01*
X212252591Y-96899506D01*
X212344887Y-97037635D01*
X212344890Y-97037639D01*
X212462360Y-97155109D01*
X212462364Y-97155112D01*
X212600493Y-97247408D01*
X212600506Y-97247415D01*
X212753984Y-97310987D01*
X212753989Y-97310989D01*
X212916927Y-97343399D01*
X212916931Y-97343400D01*
X212916932Y-97343400D01*
X213083069Y-97343400D01*
X213083070Y-97343399D01*
X213246011Y-97310989D01*
X213399500Y-97247412D01*
X213537636Y-97155112D01*
X213655112Y-97037636D01*
X213747412Y-96899500D01*
X213810989Y-96746011D01*
X213843400Y-96583068D01*
X213843400Y-96416932D01*
X213810989Y-96253989D01*
X213805705Y-96241232D01*
X213747415Y-96100506D01*
X213747408Y-96100493D01*
X213655112Y-95962364D01*
X213655109Y-95962360D01*
X213537639Y-95844890D01*
X213537635Y-95844887D01*
X213399506Y-95752591D01*
X213399493Y-95752584D01*
X213246015Y-95689012D01*
X213246003Y-95689009D01*
X213083072Y-95656600D01*
X213083068Y-95656600D01*
X212916932Y-95656600D01*
X212916927Y-95656600D01*
X212753996Y-95689009D01*
X212753984Y-95689012D01*
X212600506Y-95752584D01*
X212600493Y-95752591D01*
X212462364Y-95844887D01*
X212462360Y-95844890D01*
X212344890Y-95962360D01*
X212344887Y-95962364D01*
X212252591Y-96100493D01*
X212252584Y-96100506D01*
X212189012Y-96253984D01*
X212189009Y-96253996D01*
X212156600Y-96416927D01*
X210843399Y-96416927D01*
X210810989Y-96253989D01*
X210805705Y-96241232D01*
X210747415Y-96100506D01*
X210747408Y-96100493D01*
X210655112Y-95962364D01*
X210655109Y-95962360D01*
X210537639Y-95844890D01*
X210537635Y-95844887D01*
X210399506Y-95752591D01*
X210399493Y-95752584D01*
X210246015Y-95689012D01*
X210246003Y-95689009D01*
X210083072Y-95656600D01*
X210083068Y-95656600D01*
X209916932Y-95656600D01*
X209916927Y-95656600D01*
X209753996Y-95689009D01*
X209753984Y-95689012D01*
X209600506Y-95752584D01*
X209600493Y-95752591D01*
X209462364Y-95844887D01*
X209462360Y-95844890D01*
X209344890Y-95962360D01*
X209344887Y-95962364D01*
X209252591Y-96100493D01*
X209252584Y-96100506D01*
X209189012Y-96253984D01*
X209189009Y-96253996D01*
X209156600Y-96416927D01*
X207800500Y-96416927D01*
X207800500Y-95216927D01*
X213956600Y-95216927D01*
X213956600Y-95383072D01*
X213989009Y-95546003D01*
X213989012Y-95546015D01*
X214052584Y-95699493D01*
X214052591Y-95699506D01*
X214144887Y-95837635D01*
X214144890Y-95837639D01*
X214262360Y-95955109D01*
X214262364Y-95955112D01*
X214400493Y-96047408D01*
X214400506Y-96047415D01*
X214553984Y-96110987D01*
X214553989Y-96110989D01*
X214696878Y-96139411D01*
X214716927Y-96143399D01*
X214716931Y-96143400D01*
X214716932Y-96143400D01*
X214883069Y-96143400D01*
X214883070Y-96143399D01*
X215046011Y-96110989D01*
X215199500Y-96047412D01*
X215337636Y-95955112D01*
X215455112Y-95837636D01*
X215547412Y-95699500D01*
X215551758Y-95689009D01*
X215606147Y-95557701D01*
X215610989Y-95546011D01*
X215643400Y-95383068D01*
X215643400Y-95216932D01*
X215642695Y-95213389D01*
X215642154Y-95210669D01*
X221135820Y-95210669D01*
X221135820Y-95383891D01*
X221162918Y-95554981D01*
X221216447Y-95719725D01*
X221295088Y-95874068D01*
X221396906Y-96014208D01*
X221519392Y-96136694D01*
X221659532Y-96238512D01*
X221813875Y-96317153D01*
X221978619Y-96370682D01*
X222149709Y-96397780D01*
X222149710Y-96397780D01*
X223122930Y-96397780D01*
X223122931Y-96397780D01*
X223294021Y-96370682D01*
X223458765Y-96317153D01*
X223613108Y-96238512D01*
X223753248Y-96136694D01*
X223875734Y-96014208D01*
X223977552Y-95874068D01*
X224056193Y-95719725D01*
X224109722Y-95554981D01*
X224136820Y-95383891D01*
X224136820Y-95213389D01*
X243999500Y-95213389D01*
X243999500Y-95386610D01*
X244026166Y-95554977D01*
X244026598Y-95557701D01*
X244080127Y-95722445D01*
X244158768Y-95876788D01*
X244260586Y-96016928D01*
X244383072Y-96139414D01*
X244523212Y-96241232D01*
X244677555Y-96319873D01*
X244842299Y-96373402D01*
X245013389Y-96400500D01*
X245013390Y-96400500D01*
X245986610Y-96400500D01*
X245986611Y-96400500D01*
X246157701Y-96373402D01*
X246322445Y-96319873D01*
X246476788Y-96241232D01*
X246616928Y-96139414D01*
X246739414Y-96016928D01*
X246841232Y-95876788D01*
X246919873Y-95722445D01*
X246973402Y-95557701D01*
X247000500Y-95386611D01*
X247000500Y-95213389D01*
X246973402Y-95042299D01*
X246919873Y-94877555D01*
X246841232Y-94723212D01*
X246739414Y-94583072D01*
X246616928Y-94460586D01*
X246476788Y-94358768D01*
X246322445Y-94280127D01*
X246157701Y-94226598D01*
X246157699Y-94226597D01*
X246157698Y-94226597D01*
X246026271Y-94205781D01*
X245986611Y-94199500D01*
X245013389Y-94199500D01*
X244973728Y-94205781D01*
X244842302Y-94226597D01*
X244677552Y-94280128D01*
X244523211Y-94358768D01*
X244443256Y-94416859D01*
X244383072Y-94460586D01*
X244383070Y-94460588D01*
X244383069Y-94460588D01*
X244260588Y-94583069D01*
X244260588Y-94583070D01*
X244260586Y-94583072D01*
X244216859Y-94643256D01*
X244158768Y-94723211D01*
X244080128Y-94877552D01*
X244026597Y-95042302D01*
X243999500Y-95213389D01*
X224136820Y-95213389D01*
X224136820Y-95210669D01*
X224109722Y-95039579D01*
X224056193Y-94874835D01*
X223977552Y-94720492D01*
X223875734Y-94580352D01*
X223753248Y-94457866D01*
X223613108Y-94356048D01*
X223458765Y-94277407D01*
X223294021Y-94223878D01*
X223294019Y-94223877D01*
X223294018Y-94223877D01*
X223140104Y-94199500D01*
X223122931Y-94196780D01*
X222149709Y-94196780D01*
X222132536Y-94199500D01*
X221978622Y-94223877D01*
X221813872Y-94277408D01*
X221659531Y-94356048D01*
X221579576Y-94414139D01*
X221519392Y-94457866D01*
X221519390Y-94457868D01*
X221519389Y-94457868D01*
X221396908Y-94580349D01*
X221396908Y-94580350D01*
X221396906Y-94580352D01*
X221394930Y-94583072D01*
X221295088Y-94720491D01*
X221216448Y-94874832D01*
X221162917Y-95039582D01*
X221135820Y-95210669D01*
X215642154Y-95210669D01*
X215610990Y-95053996D01*
X215610989Y-95053989D01*
X215606147Y-95042299D01*
X215547415Y-94900506D01*
X215547408Y-94900493D01*
X215455112Y-94762364D01*
X215455109Y-94762360D01*
X215337639Y-94644890D01*
X215337635Y-94644887D01*
X215199506Y-94552591D01*
X215199493Y-94552584D01*
X215046015Y-94489012D01*
X215046003Y-94489009D01*
X214883072Y-94456600D01*
X214883068Y-94456600D01*
X214716932Y-94456600D01*
X214716927Y-94456600D01*
X214553996Y-94489009D01*
X214553984Y-94489012D01*
X214400506Y-94552584D01*
X214400493Y-94552591D01*
X214262364Y-94644887D01*
X214262360Y-94644890D01*
X214144890Y-94762360D01*
X214144887Y-94762364D01*
X214052591Y-94900493D01*
X214052584Y-94900506D01*
X213989012Y-95053984D01*
X213989009Y-95053996D01*
X213956600Y-95216927D01*
X207800500Y-95216927D01*
X207800500Y-92670669D01*
X221135820Y-92670669D01*
X221135820Y-92843891D01*
X221162918Y-93014981D01*
X221216447Y-93179725D01*
X221295088Y-93334068D01*
X221396906Y-93474208D01*
X221519392Y-93596694D01*
X221659532Y-93698512D01*
X221813875Y-93777153D01*
X221978619Y-93830682D01*
X222149709Y-93857780D01*
X222149710Y-93857780D01*
X223122930Y-93857780D01*
X223122931Y-93857780D01*
X223294021Y-93830682D01*
X223458765Y-93777153D01*
X223613108Y-93698512D01*
X223753248Y-93596694D01*
X223875734Y-93474208D01*
X223977552Y-93334068D01*
X224056193Y-93179725D01*
X224109722Y-93014981D01*
X224136820Y-92843891D01*
X224136820Y-92673389D01*
X243999500Y-92673389D01*
X243999500Y-92846610D01*
X244026166Y-93014977D01*
X244026598Y-93017701D01*
X244080127Y-93182445D01*
X244158768Y-93336788D01*
X244260586Y-93476928D01*
X244383072Y-93599414D01*
X244523212Y-93701232D01*
X244677555Y-93779873D01*
X244842299Y-93833402D01*
X245013389Y-93860500D01*
X245013390Y-93860500D01*
X245986610Y-93860500D01*
X245986611Y-93860500D01*
X246157701Y-93833402D01*
X246322445Y-93779873D01*
X246476788Y-93701232D01*
X246616928Y-93599414D01*
X246739414Y-93476928D01*
X246841232Y-93336788D01*
X246919873Y-93182445D01*
X246973402Y-93017701D01*
X247000500Y-92846611D01*
X247000500Y-92673389D01*
X246973402Y-92502299D01*
X246919873Y-92337555D01*
X246841232Y-92183212D01*
X246739414Y-92043072D01*
X246616928Y-91920586D01*
X246476788Y-91818768D01*
X246322445Y-91740127D01*
X246157701Y-91686598D01*
X246157699Y-91686597D01*
X246157698Y-91686597D01*
X246026271Y-91665781D01*
X245986611Y-91659500D01*
X245013389Y-91659500D01*
X244973728Y-91665781D01*
X244842302Y-91686597D01*
X244677552Y-91740128D01*
X244523211Y-91818768D01*
X244481338Y-91849191D01*
X244383072Y-91920586D01*
X244383070Y-91920588D01*
X244383069Y-91920588D01*
X244260588Y-92043069D01*
X244260588Y-92043070D01*
X244260586Y-92043072D01*
X244216859Y-92103256D01*
X244158768Y-92183211D01*
X244080128Y-92337552D01*
X244026597Y-92502302D01*
X243999500Y-92673389D01*
X224136820Y-92673389D01*
X224136820Y-92670669D01*
X224109722Y-92499579D01*
X224056193Y-92334835D01*
X223977552Y-92180492D01*
X223875734Y-92040352D01*
X223753248Y-91917866D01*
X223613108Y-91816048D01*
X223458765Y-91737407D01*
X223294021Y-91683878D01*
X223294019Y-91683877D01*
X223294018Y-91683877D01*
X223140104Y-91659500D01*
X223122931Y-91656780D01*
X222149709Y-91656780D01*
X222132536Y-91659500D01*
X221978622Y-91683877D01*
X221813872Y-91737408D01*
X221659531Y-91816048D01*
X221579576Y-91874139D01*
X221519392Y-91917866D01*
X221519390Y-91917868D01*
X221519389Y-91917868D01*
X221396908Y-92040349D01*
X221396908Y-92040350D01*
X221396906Y-92040352D01*
X221394930Y-92043072D01*
X221295088Y-92180491D01*
X221216448Y-92334832D01*
X221162917Y-92499582D01*
X221135820Y-92670669D01*
X207800500Y-92670669D01*
X207800500Y-88616927D01*
X213156600Y-88616927D01*
X213156600Y-88783072D01*
X213189009Y-88946003D01*
X213189012Y-88946015D01*
X213252584Y-89099493D01*
X213252591Y-89099506D01*
X213344887Y-89237635D01*
X213344890Y-89237639D01*
X213462360Y-89355109D01*
X213462364Y-89355112D01*
X213600493Y-89447408D01*
X213600506Y-89447415D01*
X213739064Y-89504807D01*
X213753989Y-89510989D01*
X213916927Y-89543399D01*
X213916931Y-89543400D01*
X213916932Y-89543400D01*
X214083069Y-89543400D01*
X214083070Y-89543399D01*
X214246011Y-89510989D01*
X214389747Y-89451451D01*
X214459214Y-89443983D01*
X214521694Y-89475258D01*
X214557346Y-89535347D01*
X214558816Y-89590201D01*
X214553500Y-89616930D01*
X214553500Y-89783072D01*
X214585909Y-89946003D01*
X214585912Y-89946015D01*
X214649484Y-90099493D01*
X214649491Y-90099506D01*
X214741787Y-90237635D01*
X214741790Y-90237639D01*
X214859260Y-90355109D01*
X214859264Y-90355112D01*
X214997393Y-90447408D01*
X214997406Y-90447415D01*
X215070524Y-90477701D01*
X215150889Y-90510989D01*
X215313827Y-90543399D01*
X215313831Y-90543400D01*
X215313832Y-90543400D01*
X215479969Y-90543400D01*
X215479970Y-90543399D01*
X215642911Y-90510989D01*
X215796400Y-90447412D01*
X215934536Y-90355112D01*
X216052012Y-90237636D01*
X216121668Y-90133389D01*
X221139500Y-90133389D01*
X221139500Y-90306610D01*
X221164457Y-90464188D01*
X221166598Y-90477701D01*
X221220127Y-90642445D01*
X221298768Y-90796788D01*
X221400586Y-90936928D01*
X221523072Y-91059414D01*
X221663212Y-91161232D01*
X221817555Y-91239873D01*
X221982299Y-91293402D01*
X222153389Y-91320500D01*
X222153390Y-91320500D01*
X223126610Y-91320500D01*
X223126611Y-91320500D01*
X223297701Y-91293402D01*
X223462445Y-91239873D01*
X223616788Y-91161232D01*
X223756928Y-91059414D01*
X223879414Y-90936928D01*
X223981232Y-90796788D01*
X224059873Y-90642445D01*
X224113402Y-90477701D01*
X224140500Y-90306611D01*
X224140500Y-90133389D01*
X243999500Y-90133389D01*
X243999500Y-90306610D01*
X244024457Y-90464188D01*
X244026598Y-90477701D01*
X244080127Y-90642445D01*
X244158768Y-90796788D01*
X244260586Y-90936928D01*
X244383072Y-91059414D01*
X244523212Y-91161232D01*
X244677555Y-91239873D01*
X244842299Y-91293402D01*
X245013389Y-91320500D01*
X245013390Y-91320500D01*
X245986610Y-91320500D01*
X245986611Y-91320500D01*
X246157701Y-91293402D01*
X246322445Y-91239873D01*
X246476788Y-91161232D01*
X246616928Y-91059414D01*
X246739414Y-90936928D01*
X246739629Y-90936632D01*
X250680200Y-90936632D01*
X250680200Y-91133365D01*
X250710973Y-91327661D01*
X250771766Y-91514760D01*
X250857936Y-91683877D01*
X250861075Y-91690037D01*
X250976706Y-91849189D01*
X251115810Y-91988293D01*
X251274962Y-92103924D01*
X251357774Y-92146119D01*
X251450238Y-92193232D01*
X251450240Y-92193232D01*
X251450243Y-92193234D01*
X251550530Y-92225819D01*
X251637337Y-92254025D01*
X251831634Y-92284799D01*
X251831639Y-92284799D01*
X252028366Y-92284799D01*
X252222662Y-92254025D01*
X252409757Y-92193234D01*
X252585038Y-92103924D01*
X252744190Y-91988293D01*
X252883294Y-91849189D01*
X252998925Y-91690037D01*
X253088235Y-91514756D01*
X253149026Y-91327661D01*
X253162930Y-91239873D01*
X253179800Y-91133365D01*
X253179800Y-90936632D01*
X253149026Y-90742336D01*
X253088233Y-90555237D01*
X252998924Y-90379960D01*
X252980871Y-90355112D01*
X252883294Y-90220809D01*
X252744190Y-90081705D01*
X252585038Y-89966074D01*
X252545670Y-89946015D01*
X252409761Y-89876765D01*
X252222662Y-89815972D01*
X252028366Y-89785199D01*
X252028361Y-89785199D01*
X251831639Y-89785199D01*
X251831634Y-89785199D01*
X251637337Y-89815972D01*
X251450238Y-89876765D01*
X251274961Y-89966074D01*
X251184159Y-90032046D01*
X251115810Y-90081705D01*
X251115808Y-90081707D01*
X251115807Y-90081707D01*
X250976708Y-90220806D01*
X250976708Y-90220807D01*
X250976706Y-90220809D01*
X250927047Y-90289158D01*
X250861075Y-90379960D01*
X250771766Y-90555237D01*
X250710973Y-90742336D01*
X250680200Y-90936632D01*
X246739629Y-90936632D01*
X246841232Y-90796788D01*
X246919873Y-90642445D01*
X246973402Y-90477701D01*
X247000500Y-90306611D01*
X247000500Y-90133389D01*
X246973402Y-89962299D01*
X246919873Y-89797555D01*
X246841232Y-89643212D01*
X246774694Y-89551631D01*
X253220200Y-89551631D01*
X253220200Y-89748364D01*
X253250973Y-89942660D01*
X253311766Y-90129759D01*
X253401075Y-90305036D01*
X253516706Y-90464188D01*
X253655810Y-90603292D01*
X253814962Y-90718923D01*
X253860913Y-90742336D01*
X253990238Y-90808231D01*
X253990240Y-90808231D01*
X253990243Y-90808233D01*
X254090530Y-90840818D01*
X254177337Y-90869024D01*
X254371634Y-90899798D01*
X254371639Y-90899798D01*
X254568366Y-90899798D01*
X254762662Y-90869024D01*
X254793882Y-90858880D01*
X254949757Y-90808233D01*
X255125038Y-90718923D01*
X255284190Y-90603292D01*
X255423294Y-90464188D01*
X255538925Y-90305036D01*
X255628235Y-90129755D01*
X255689026Y-89942660D01*
X255694042Y-89910989D01*
X255719800Y-89748364D01*
X255719800Y-89551631D01*
X255689026Y-89357335D01*
X255637946Y-89200128D01*
X255628235Y-89170241D01*
X255628233Y-89170238D01*
X255628233Y-89170236D01*
X255581120Y-89077772D01*
X255538925Y-88994960D01*
X255423294Y-88835808D01*
X255284190Y-88696704D01*
X255125038Y-88581073D01*
X255093642Y-88565076D01*
X254949761Y-88491764D01*
X254762662Y-88430971D01*
X254568366Y-88400198D01*
X254568361Y-88400198D01*
X254371639Y-88400198D01*
X254371634Y-88400198D01*
X254177337Y-88430971D01*
X253990238Y-88491764D01*
X253814961Y-88581073D01*
X253765606Y-88616932D01*
X253655810Y-88696704D01*
X253655808Y-88696706D01*
X253655807Y-88696706D01*
X253516708Y-88835805D01*
X253516708Y-88835806D01*
X253516706Y-88835808D01*
X253478053Y-88889009D01*
X253401075Y-88994959D01*
X253311766Y-89170236D01*
X253250973Y-89357335D01*
X253220200Y-89551631D01*
X246774694Y-89551631D01*
X246739414Y-89503072D01*
X246616928Y-89380586D01*
X246476788Y-89278768D01*
X246322445Y-89200127D01*
X246157701Y-89146598D01*
X246157699Y-89146597D01*
X246157698Y-89146597D01*
X246026271Y-89125781D01*
X245986611Y-89119500D01*
X245013389Y-89119500D01*
X244973728Y-89125781D01*
X244842302Y-89146597D01*
X244677552Y-89200128D01*
X244523211Y-89278768D01*
X244447295Y-89333925D01*
X244383072Y-89380586D01*
X244383070Y-89380588D01*
X244383069Y-89380588D01*
X244260588Y-89503069D01*
X244260588Y-89503070D01*
X244260586Y-89503072D01*
X244242257Y-89528300D01*
X244158768Y-89643211D01*
X244080128Y-89797552D01*
X244026597Y-89962302D01*
X243999500Y-90133389D01*
X224140500Y-90133389D01*
X224113402Y-89962299D01*
X224059873Y-89797555D01*
X223981232Y-89643212D01*
X223879414Y-89503072D01*
X223756928Y-89380586D01*
X223616788Y-89278768D01*
X223462445Y-89200127D01*
X223297701Y-89146598D01*
X223297699Y-89146597D01*
X223297698Y-89146597D01*
X223166271Y-89125781D01*
X223126611Y-89119500D01*
X222153389Y-89119500D01*
X222113728Y-89125781D01*
X221982302Y-89146597D01*
X221817552Y-89200128D01*
X221663211Y-89278768D01*
X221587295Y-89333925D01*
X221523072Y-89380586D01*
X221523070Y-89380588D01*
X221523069Y-89380588D01*
X221400588Y-89503069D01*
X221400588Y-89503070D01*
X221400586Y-89503072D01*
X221382257Y-89528300D01*
X221298768Y-89643211D01*
X221220128Y-89797552D01*
X221166597Y-89962302D01*
X221139500Y-90133389D01*
X216121668Y-90133389D01*
X216144312Y-90099500D01*
X216144316Y-90099491D01*
X216151950Y-90081063D01*
X216207887Y-89946015D01*
X216207889Y-89946011D01*
X216240300Y-89783068D01*
X216240300Y-89616932D01*
X216236512Y-89597889D01*
X216242738Y-89528300D01*
X216285600Y-89473122D01*
X216351489Y-89449876D01*
X216419486Y-89465942D01*
X216461231Y-89504807D01*
X216549985Y-89637635D01*
X216549988Y-89637639D01*
X216667458Y-89755109D01*
X216667462Y-89755112D01*
X216805591Y-89847408D01*
X216805604Y-89847415D01*
X216959082Y-89910987D01*
X216959087Y-89910989D01*
X217118310Y-89942660D01*
X217122025Y-89943399D01*
X217122029Y-89943400D01*
X217122030Y-89943400D01*
X217288167Y-89943400D01*
X217288168Y-89943399D01*
X217451109Y-89910989D01*
X217604598Y-89847412D01*
X217742734Y-89755112D01*
X217860210Y-89637636D01*
X217952510Y-89499500D01*
X218016087Y-89346011D01*
X218048498Y-89183068D01*
X218048498Y-89016932D01*
X218016087Y-88853989D01*
X218008556Y-88835808D01*
X217952513Y-88700506D01*
X217952511Y-88700502D01*
X217952510Y-88700500D01*
X217862021Y-88565075D01*
X217841144Y-88498399D01*
X217859628Y-88431019D01*
X217862022Y-88427294D01*
X217882311Y-88396930D01*
X217947412Y-88299500D01*
X218010989Y-88146011D01*
X218043400Y-87983068D01*
X218043400Y-87816932D01*
X218010989Y-87653989D01*
X217985888Y-87593389D01*
X221139500Y-87593389D01*
X221139500Y-87766610D01*
X221164030Y-87921491D01*
X221166598Y-87937701D01*
X221220127Y-88102445D01*
X221298768Y-88256788D01*
X221400586Y-88396928D01*
X221523072Y-88519414D01*
X221663212Y-88621232D01*
X221817555Y-88699873D01*
X221982299Y-88753402D01*
X222153389Y-88780500D01*
X222153390Y-88780500D01*
X223126610Y-88780500D01*
X223126611Y-88780500D01*
X223297701Y-88753402D01*
X223462445Y-88699873D01*
X223616788Y-88621232D01*
X223756928Y-88519414D01*
X223879414Y-88396928D01*
X223981232Y-88256788D01*
X224059873Y-88102445D01*
X224113402Y-87937701D01*
X224140500Y-87766611D01*
X224140500Y-87593389D01*
X243999500Y-87593389D01*
X243999500Y-87766610D01*
X244024030Y-87921491D01*
X244026598Y-87937701D01*
X244080127Y-88102445D01*
X244158768Y-88256788D01*
X244260586Y-88396928D01*
X244383072Y-88519414D01*
X244523212Y-88621232D01*
X244677555Y-88699873D01*
X244842299Y-88753402D01*
X245013389Y-88780500D01*
X245013390Y-88780500D01*
X245986610Y-88780500D01*
X245986611Y-88780500D01*
X246157701Y-88753402D01*
X246322445Y-88699873D01*
X246476788Y-88621232D01*
X246616928Y-88519414D01*
X246739414Y-88396928D01*
X246841232Y-88256788D01*
X246887168Y-88166633D01*
X250680200Y-88166633D01*
X250680200Y-88363366D01*
X250710973Y-88557662D01*
X250771766Y-88744761D01*
X250832854Y-88864651D01*
X250861075Y-88920038D01*
X250976706Y-89079190D01*
X251115810Y-89218294D01*
X251274962Y-89333925D01*
X251316538Y-89355109D01*
X251450238Y-89423233D01*
X251450240Y-89423233D01*
X251450243Y-89423235D01*
X251537086Y-89451452D01*
X251637337Y-89484026D01*
X251831634Y-89514800D01*
X251831639Y-89514800D01*
X252028366Y-89514800D01*
X252222662Y-89484026D01*
X252256221Y-89473122D01*
X252409757Y-89423235D01*
X252585038Y-89333925D01*
X252744190Y-89218294D01*
X252883294Y-89079190D01*
X252998925Y-88920038D01*
X253088235Y-88744757D01*
X253149026Y-88557662D01*
X253157755Y-88502549D01*
X253179800Y-88363366D01*
X253179800Y-88166633D01*
X253149026Y-87972337D01*
X253088233Y-87785238D01*
X253021357Y-87653988D01*
X252998925Y-87609962D01*
X252883294Y-87450810D01*
X252744190Y-87311706D01*
X252585038Y-87196075D01*
X252409761Y-87106766D01*
X252222662Y-87045973D01*
X252028366Y-87015200D01*
X252028361Y-87015200D01*
X251831639Y-87015200D01*
X251831634Y-87015200D01*
X251637337Y-87045973D01*
X251450238Y-87106766D01*
X251274961Y-87196075D01*
X251207778Y-87244887D01*
X251115810Y-87311706D01*
X251115808Y-87311708D01*
X251115807Y-87311708D01*
X250976708Y-87450807D01*
X250976708Y-87450808D01*
X250976706Y-87450810D01*
X250940609Y-87500493D01*
X250861075Y-87609961D01*
X250771766Y-87785238D01*
X250710973Y-87972337D01*
X250680200Y-88166633D01*
X246887168Y-88166633D01*
X246919873Y-88102445D01*
X246973402Y-87937701D01*
X247000500Y-87766611D01*
X247000500Y-87593389D01*
X246973402Y-87422299D01*
X246919873Y-87257555D01*
X246841232Y-87103212D01*
X246739414Y-86963072D01*
X246616928Y-86840586D01*
X246535785Y-86781632D01*
X253220200Y-86781632D01*
X253220200Y-86978365D01*
X253250973Y-87172661D01*
X253311766Y-87359760D01*
X253384173Y-87501865D01*
X253401075Y-87535037D01*
X253516706Y-87694189D01*
X253655810Y-87833293D01*
X253814962Y-87948924D01*
X253881985Y-87983074D01*
X253990238Y-88038232D01*
X253990240Y-88038232D01*
X253990243Y-88038234D01*
X254090530Y-88070819D01*
X254177337Y-88099025D01*
X254371634Y-88129799D01*
X254371639Y-88129799D01*
X254568366Y-88129799D01*
X254762662Y-88099025D01*
X254949757Y-88038234D01*
X255125038Y-87948924D01*
X255284190Y-87833293D01*
X255423294Y-87694189D01*
X255538925Y-87535037D01*
X255628235Y-87359756D01*
X255689026Y-87172661D01*
X255692206Y-87152584D01*
X255719800Y-86978365D01*
X255719800Y-86781632D01*
X255689026Y-86587336D01*
X255628233Y-86400237D01*
X255581120Y-86307773D01*
X255538925Y-86224961D01*
X255423294Y-86065809D01*
X255284190Y-85926705D01*
X255125038Y-85811074D01*
X254949761Y-85721765D01*
X254762662Y-85660972D01*
X254568366Y-85630199D01*
X254568361Y-85630199D01*
X254371639Y-85630199D01*
X254371634Y-85630199D01*
X254177337Y-85660972D01*
X253990238Y-85721765D01*
X253814961Y-85811074D01*
X253732445Y-85871026D01*
X253655810Y-85926705D01*
X253655808Y-85926707D01*
X253655807Y-85926707D01*
X253516708Y-86065806D01*
X253516708Y-86065807D01*
X253516706Y-86065809D01*
X253505501Y-86081232D01*
X253401075Y-86224960D01*
X253311766Y-86400237D01*
X253250973Y-86587336D01*
X253220200Y-86781632D01*
X246535785Y-86781632D01*
X246476788Y-86738768D01*
X246322445Y-86660127D01*
X246157701Y-86606598D01*
X246157699Y-86606597D01*
X246157698Y-86606597D01*
X246026271Y-86585781D01*
X245986611Y-86579500D01*
X245013389Y-86579500D01*
X244973728Y-86585781D01*
X244842302Y-86606597D01*
X244677552Y-86660128D01*
X244523211Y-86738768D01*
X244443256Y-86796859D01*
X244383072Y-86840586D01*
X244383070Y-86840588D01*
X244383069Y-86840588D01*
X244260588Y-86963069D01*
X244260588Y-86963070D01*
X244260586Y-86963072D01*
X244249479Y-86978360D01*
X244158768Y-87103211D01*
X244080128Y-87257552D01*
X244026597Y-87422302D01*
X243999500Y-87593389D01*
X224140500Y-87593389D01*
X224113402Y-87422299D01*
X224059873Y-87257555D01*
X223981232Y-87103212D01*
X223879414Y-86963072D01*
X223756928Y-86840586D01*
X223616788Y-86738768D01*
X223462445Y-86660127D01*
X223297701Y-86606598D01*
X223297699Y-86606597D01*
X223297698Y-86606597D01*
X223166271Y-86585781D01*
X223126611Y-86579500D01*
X222153389Y-86579500D01*
X222113728Y-86585781D01*
X221982302Y-86606597D01*
X221817552Y-86660128D01*
X221663211Y-86738768D01*
X221583256Y-86796859D01*
X221523072Y-86840586D01*
X221523070Y-86840588D01*
X221523069Y-86840588D01*
X221400588Y-86963069D01*
X221400588Y-86963070D01*
X221400586Y-86963072D01*
X221389479Y-86978360D01*
X221298768Y-87103211D01*
X221220128Y-87257552D01*
X221166597Y-87422302D01*
X221139500Y-87593389D01*
X217985888Y-87593389D01*
X217960468Y-87532020D01*
X217947415Y-87500506D01*
X217947408Y-87500493D01*
X217855112Y-87362364D01*
X217855109Y-87362360D01*
X217737639Y-87244890D01*
X217737635Y-87244887D01*
X217599506Y-87152591D01*
X217599493Y-87152584D01*
X217446015Y-87089012D01*
X217446003Y-87089009D01*
X217283072Y-87056600D01*
X217283068Y-87056600D01*
X217116932Y-87056600D01*
X217116927Y-87056600D01*
X216953996Y-87089009D01*
X216953984Y-87089012D01*
X216800506Y-87152584D01*
X216800493Y-87152591D01*
X216662364Y-87244887D01*
X216662360Y-87244890D01*
X216544890Y-87362360D01*
X216467281Y-87478509D01*
X216413668Y-87523313D01*
X216344343Y-87532020D01*
X216281316Y-87501865D01*
X216244597Y-87442421D01*
X216240775Y-87421764D01*
X216240300Y-87416940D01*
X216240300Y-87416932D01*
X216207889Y-87253989D01*
X216204119Y-87244887D01*
X216144315Y-87100506D01*
X216144308Y-87100493D01*
X216052012Y-86962364D01*
X216052009Y-86962360D01*
X215934539Y-86844890D01*
X215934535Y-86844887D01*
X215796406Y-86752591D01*
X215796396Y-86752586D01*
X215756144Y-86735913D01*
X215701741Y-86692072D01*
X215679676Y-86625777D01*
X215696955Y-86558078D01*
X215748093Y-86510468D01*
X215756136Y-86506795D01*
X215899500Y-86447412D01*
X216037636Y-86355112D01*
X216155112Y-86237636D01*
X216247412Y-86099500D01*
X216310989Y-85946011D01*
X216343400Y-85783068D01*
X216343400Y-85616932D01*
X216310989Y-85453989D01*
X216283843Y-85388453D01*
X219140929Y-85388453D01*
X219140929Y-85554598D01*
X219173338Y-85717529D01*
X219173341Y-85717541D01*
X219231201Y-85857228D01*
X219238670Y-85926697D01*
X219231201Y-85952132D01*
X219189012Y-86053984D01*
X219189009Y-86053996D01*
X219156600Y-86216927D01*
X219156600Y-86383072D01*
X219189009Y-86546003D01*
X219189012Y-86546015D01*
X219252584Y-86699493D01*
X219252591Y-86699506D01*
X219344887Y-86837635D01*
X219344890Y-86837639D01*
X219462360Y-86955109D01*
X219462364Y-86955112D01*
X219600493Y-87047408D01*
X219600506Y-87047415D01*
X219753984Y-87110987D01*
X219753989Y-87110989D01*
X219916927Y-87143399D01*
X219916931Y-87143400D01*
X219916932Y-87143400D01*
X220083069Y-87143400D01*
X220083070Y-87143399D01*
X220246011Y-87110989D01*
X220399500Y-87047412D01*
X220537636Y-86955112D01*
X220655112Y-86837636D01*
X220747412Y-86699500D01*
X220810989Y-86546011D01*
X220843400Y-86383068D01*
X220843400Y-86216932D01*
X220810989Y-86053989D01*
X220753126Y-85914296D01*
X220745658Y-85844830D01*
X220753124Y-85819401D01*
X220795318Y-85717537D01*
X220827729Y-85554594D01*
X220827729Y-85388458D01*
X220795318Y-85225515D01*
X220785718Y-85202338D01*
X220741659Y-85095969D01*
X220731744Y-85072032D01*
X220731737Y-85072019D01*
X220719289Y-85053389D01*
X221139500Y-85053389D01*
X221139500Y-85226610D01*
X221166429Y-85396639D01*
X221166598Y-85397701D01*
X221220127Y-85562445D01*
X221298768Y-85716788D01*
X221400586Y-85856928D01*
X221523072Y-85979414D01*
X221663212Y-86081232D01*
X221817555Y-86159873D01*
X221982299Y-86213402D01*
X222153389Y-86240500D01*
X222153390Y-86240500D01*
X223126610Y-86240500D01*
X223126611Y-86240500D01*
X223297701Y-86213402D01*
X223462445Y-86159873D01*
X223616788Y-86081232D01*
X223756928Y-85979414D01*
X223879414Y-85856928D01*
X223981232Y-85716788D01*
X224059873Y-85562445D01*
X224113402Y-85397701D01*
X224140500Y-85226611D01*
X224140500Y-85053389D01*
X243999500Y-85053389D01*
X243999500Y-85226610D01*
X244026429Y-85396639D01*
X244026598Y-85397701D01*
X244080127Y-85562445D01*
X244158768Y-85716788D01*
X244260586Y-85856928D01*
X244383072Y-85979414D01*
X244523212Y-86081232D01*
X244677555Y-86159873D01*
X244842299Y-86213402D01*
X245013389Y-86240500D01*
X245013390Y-86240500D01*
X245986610Y-86240500D01*
X245986611Y-86240500D01*
X246157701Y-86213402D01*
X246322445Y-86159873D01*
X246476788Y-86081232D01*
X246616928Y-85979414D01*
X246739414Y-85856928D01*
X246841232Y-85716788D01*
X246919873Y-85562445D01*
X246973402Y-85397701D01*
X246973571Y-85396633D01*
X250680200Y-85396633D01*
X250680200Y-85593366D01*
X250710973Y-85787662D01*
X250771766Y-85974761D01*
X250861075Y-86150038D01*
X250976706Y-86309190D01*
X251115810Y-86448294D01*
X251274962Y-86563925D01*
X251305530Y-86579500D01*
X251450238Y-86653233D01*
X251450240Y-86653233D01*
X251450243Y-86653235D01*
X251550530Y-86685820D01*
X251637337Y-86714026D01*
X251831634Y-86744800D01*
X251831639Y-86744800D01*
X252028366Y-86744800D01*
X252222662Y-86714026D01*
X252409757Y-86653235D01*
X252585038Y-86563925D01*
X252744190Y-86448294D01*
X252883294Y-86309190D01*
X252998925Y-86150038D01*
X253088235Y-85974757D01*
X253149026Y-85787662D01*
X253160134Y-85717529D01*
X253179800Y-85593366D01*
X253179800Y-85396633D01*
X253149026Y-85202337D01*
X253120820Y-85115530D01*
X253088235Y-85015243D01*
X253088233Y-85015240D01*
X253088233Y-85015238D01*
X253023917Y-84889012D01*
X252998925Y-84839962D01*
X252883294Y-84680810D01*
X252744190Y-84541706D01*
X252585038Y-84426075D01*
X252579138Y-84423069D01*
X252409761Y-84336766D01*
X252222662Y-84275973D01*
X252028366Y-84245200D01*
X252028361Y-84245200D01*
X251831639Y-84245200D01*
X251831634Y-84245200D01*
X251637337Y-84275973D01*
X251450238Y-84336766D01*
X251274961Y-84426075D01*
X251184159Y-84492047D01*
X251115810Y-84541706D01*
X251115808Y-84541708D01*
X251115807Y-84541708D01*
X250976708Y-84680807D01*
X250976708Y-84680808D01*
X250976706Y-84680810D01*
X250950009Y-84717555D01*
X250861075Y-84839961D01*
X250771766Y-85015238D01*
X250710973Y-85202337D01*
X250680200Y-85396633D01*
X246973571Y-85396633D01*
X247000500Y-85226611D01*
X247000500Y-85053389D01*
X246973402Y-84882299D01*
X246919873Y-84717555D01*
X246841232Y-84563212D01*
X246739414Y-84423072D01*
X246616928Y-84300586D01*
X246476788Y-84198768D01*
X246322445Y-84120127D01*
X246157701Y-84066598D01*
X246157699Y-84066597D01*
X246157698Y-84066597D01*
X246026271Y-84045781D01*
X245986611Y-84039500D01*
X245013389Y-84039500D01*
X244973728Y-84045781D01*
X244842302Y-84066597D01*
X244677552Y-84120128D01*
X244523211Y-84198768D01*
X244459304Y-84245200D01*
X244383072Y-84300586D01*
X244383070Y-84300588D01*
X244383069Y-84300588D01*
X244260588Y-84423069D01*
X244260588Y-84423070D01*
X244260586Y-84423072D01*
X244216859Y-84483256D01*
X244158768Y-84563211D01*
X244080128Y-84717552D01*
X244026597Y-84882302D01*
X243999500Y-85053389D01*
X224140500Y-85053389D01*
X224113402Y-84882299D01*
X224059873Y-84717555D01*
X223981232Y-84563212D01*
X223879414Y-84423072D01*
X223756928Y-84300586D01*
X223616788Y-84198768D01*
X223462445Y-84120127D01*
X223297701Y-84066598D01*
X223297699Y-84066597D01*
X223297698Y-84066597D01*
X223166271Y-84045781D01*
X223126611Y-84039500D01*
X222153389Y-84039500D01*
X222113728Y-84045781D01*
X221982302Y-84066597D01*
X221817552Y-84120128D01*
X221663211Y-84198768D01*
X221599304Y-84245200D01*
X221523072Y-84300586D01*
X221523070Y-84300588D01*
X221523069Y-84300588D01*
X221400588Y-84423069D01*
X221400588Y-84423070D01*
X221400586Y-84423072D01*
X221356859Y-84483256D01*
X221298768Y-84563211D01*
X221220128Y-84717552D01*
X221166597Y-84882302D01*
X221139500Y-85053389D01*
X220719289Y-85053389D01*
X220639441Y-84933890D01*
X220639438Y-84933886D01*
X220521968Y-84816416D01*
X220521964Y-84816413D01*
X220383835Y-84724117D01*
X220383822Y-84724110D01*
X220230344Y-84660538D01*
X220230332Y-84660535D01*
X220067401Y-84628126D01*
X220067397Y-84628126D01*
X219901261Y-84628126D01*
X219901256Y-84628126D01*
X219738325Y-84660535D01*
X219738313Y-84660538D01*
X219584835Y-84724110D01*
X219584822Y-84724117D01*
X219446693Y-84816413D01*
X219446689Y-84816416D01*
X219329219Y-84933886D01*
X219329216Y-84933890D01*
X219236920Y-85072019D01*
X219236913Y-85072032D01*
X219173341Y-85225510D01*
X219173338Y-85225522D01*
X219140929Y-85388453D01*
X216283843Y-85388453D01*
X216270778Y-85356912D01*
X216247415Y-85300506D01*
X216247408Y-85300493D01*
X216155112Y-85162364D01*
X216155109Y-85162360D01*
X216037639Y-85044890D01*
X216037635Y-85044887D01*
X215899506Y-84952591D01*
X215899493Y-84952584D01*
X215746015Y-84889012D01*
X215746003Y-84889009D01*
X215583072Y-84856600D01*
X215583068Y-84856600D01*
X215416932Y-84856600D01*
X215416927Y-84856600D01*
X215253996Y-84889009D01*
X215253984Y-84889012D01*
X215100506Y-84952584D01*
X215100493Y-84952591D01*
X214962364Y-85044887D01*
X214962360Y-85044890D01*
X214844890Y-85162360D01*
X214844887Y-85162364D01*
X214752591Y-85300493D01*
X214752584Y-85300506D01*
X214689012Y-85453984D01*
X214689009Y-85453996D01*
X214656600Y-85616927D01*
X214656600Y-85783072D01*
X214689009Y-85946003D01*
X214689012Y-85946015D01*
X214752584Y-86099493D01*
X214752591Y-86099506D01*
X214844887Y-86237635D01*
X214844890Y-86237639D01*
X214962360Y-86355109D01*
X214962364Y-86355112D01*
X215100493Y-86447408D01*
X215100506Y-86447415D01*
X215140754Y-86464086D01*
X215195158Y-86507926D01*
X215217223Y-86574220D01*
X215199944Y-86641920D01*
X215148807Y-86689531D01*
X215140755Y-86693208D01*
X214997403Y-86752586D01*
X214997393Y-86752591D01*
X214859264Y-86844887D01*
X214859260Y-86844890D01*
X214741790Y-86962360D01*
X214741787Y-86962364D01*
X214649491Y-87100493D01*
X214649484Y-87100506D01*
X214585912Y-87253984D01*
X214585909Y-87253996D01*
X214553500Y-87416927D01*
X214553500Y-87583072D01*
X214585909Y-87746003D01*
X214585912Y-87746015D01*
X214619128Y-87826205D01*
X214626597Y-87895674D01*
X214595322Y-87958153D01*
X214535233Y-87993805D01*
X214465408Y-87991311D01*
X214435677Y-87976760D01*
X214399504Y-87952590D01*
X214399493Y-87952584D01*
X214246015Y-87889012D01*
X214246003Y-87889009D01*
X214083072Y-87856600D01*
X214083068Y-87856600D01*
X213916932Y-87856600D01*
X213916927Y-87856600D01*
X213753996Y-87889009D01*
X213753984Y-87889012D01*
X213600506Y-87952584D01*
X213600493Y-87952591D01*
X213462364Y-88044887D01*
X213462360Y-88044890D01*
X213344890Y-88162360D01*
X213344887Y-88162364D01*
X213252591Y-88300493D01*
X213252584Y-88300506D01*
X213189012Y-88453984D01*
X213189009Y-88453996D01*
X213156600Y-88616927D01*
X207800500Y-88616927D01*
X207800500Y-84011632D01*
X253220200Y-84011632D01*
X253220200Y-84208365D01*
X253250973Y-84402661D01*
X253311766Y-84589760D01*
X253380225Y-84724117D01*
X253401075Y-84765037D01*
X253516706Y-84924189D01*
X253655810Y-85063293D01*
X253814962Y-85178924D01*
X253860913Y-85202337D01*
X253990238Y-85268232D01*
X253990240Y-85268232D01*
X253990243Y-85268234D01*
X254089526Y-85300493D01*
X254177337Y-85329025D01*
X254371634Y-85359799D01*
X254371639Y-85359799D01*
X254568366Y-85359799D01*
X254762662Y-85329025D01*
X254949757Y-85268234D01*
X255125038Y-85178924D01*
X255284190Y-85063293D01*
X255423294Y-84924189D01*
X255538925Y-84765037D01*
X255628235Y-84589756D01*
X255689026Y-84402661D01*
X255705193Y-84300586D01*
X255719800Y-84208365D01*
X255719800Y-84011632D01*
X255689026Y-83817336D01*
X255643847Y-83678292D01*
X255628235Y-83630242D01*
X255628233Y-83630239D01*
X255628233Y-83630237D01*
X255538924Y-83454960D01*
X255527627Y-83439411D01*
X255423294Y-83295809D01*
X255284190Y-83156705D01*
X255125038Y-83041074D01*
X254949761Y-82951765D01*
X254762662Y-82890972D01*
X254568366Y-82860199D01*
X254568361Y-82860199D01*
X254371639Y-82860199D01*
X254371634Y-82860199D01*
X254177337Y-82890972D01*
X253990238Y-82951765D01*
X253814961Y-83041074D01*
X253795640Y-83055112D01*
X253655810Y-83156705D01*
X253655808Y-83156707D01*
X253655807Y-83156707D01*
X253516708Y-83295806D01*
X253516708Y-83295807D01*
X253516706Y-83295809D01*
X253501361Y-83316930D01*
X253401075Y-83454960D01*
X253311766Y-83630237D01*
X253250973Y-83817336D01*
X253220200Y-84011632D01*
X207800500Y-84011632D01*
X207800500Y-82316927D01*
X215656600Y-82316927D01*
X215656600Y-82483072D01*
X215689009Y-82646003D01*
X215689012Y-82646015D01*
X215752584Y-82799493D01*
X215752591Y-82799506D01*
X215844887Y-82937635D01*
X215844890Y-82937639D01*
X215962360Y-83055109D01*
X215962364Y-83055112D01*
X216100493Y-83147408D01*
X216100506Y-83147415D01*
X216253984Y-83210987D01*
X216253989Y-83210989D01*
X216416927Y-83243399D01*
X216416931Y-83243400D01*
X216416932Y-83243400D01*
X216583069Y-83243400D01*
X216583070Y-83243399D01*
X216746011Y-83210989D01*
X216899500Y-83147412D01*
X217037636Y-83055112D01*
X217155112Y-82937636D01*
X217247412Y-82799500D01*
X217310989Y-82646011D01*
X217343400Y-82483068D01*
X217343400Y-82316932D01*
X217343399Y-82316927D01*
X217856600Y-82316927D01*
X217856600Y-82483072D01*
X217889009Y-82646003D01*
X217889012Y-82646015D01*
X217952584Y-82799493D01*
X217952591Y-82799506D01*
X218044887Y-82937635D01*
X218044890Y-82937639D01*
X218162360Y-83055109D01*
X218162364Y-83055112D01*
X218300493Y-83147408D01*
X218300506Y-83147415D01*
X218453984Y-83210987D01*
X218453989Y-83210989D01*
X218616927Y-83243399D01*
X218616931Y-83243400D01*
X218616932Y-83243400D01*
X218783069Y-83243400D01*
X218783070Y-83243399D01*
X218946011Y-83210989D01*
X219099500Y-83147412D01*
X219237636Y-83055112D01*
X219355112Y-82937636D01*
X219447412Y-82799500D01*
X219510989Y-82646011D01*
X219537369Y-82513389D01*
X221139500Y-82513389D01*
X221139500Y-82686611D01*
X221166598Y-82857701D01*
X221220127Y-83022445D01*
X221298768Y-83176788D01*
X221400586Y-83316928D01*
X221523072Y-83439414D01*
X221663212Y-83541232D01*
X221817555Y-83619873D01*
X221982299Y-83673402D01*
X222153389Y-83700500D01*
X222153390Y-83700500D01*
X223126610Y-83700500D01*
X223126611Y-83700500D01*
X223297701Y-83673402D01*
X223462445Y-83619873D01*
X223616788Y-83541232D01*
X223756928Y-83439414D01*
X223879414Y-83316928D01*
X223981232Y-83176788D01*
X224059873Y-83022445D01*
X224113402Y-82857701D01*
X224140500Y-82686611D01*
X224140500Y-82513389D01*
X243999500Y-82513389D01*
X243999500Y-82686611D01*
X244026598Y-82857701D01*
X244080127Y-83022445D01*
X244158768Y-83176788D01*
X244260586Y-83316928D01*
X244383072Y-83439414D01*
X244523212Y-83541232D01*
X244677555Y-83619873D01*
X244842299Y-83673402D01*
X245013389Y-83700500D01*
X245013390Y-83700500D01*
X245986610Y-83700500D01*
X245986611Y-83700500D01*
X246157701Y-83673402D01*
X246322445Y-83619873D01*
X246476788Y-83541232D01*
X246616928Y-83439414D01*
X246739414Y-83316928D01*
X246841232Y-83176788D01*
X246919873Y-83022445D01*
X246973402Y-82857701D01*
X247000500Y-82686611D01*
X247000500Y-82626634D01*
X250680200Y-82626634D01*
X250680200Y-82823367D01*
X250710973Y-83017663D01*
X250771766Y-83204762D01*
X250828918Y-83316928D01*
X250861075Y-83380039D01*
X250976706Y-83539191D01*
X251115810Y-83678295D01*
X251274962Y-83793926D01*
X251320907Y-83817336D01*
X251450238Y-83883234D01*
X251450240Y-83883234D01*
X251450243Y-83883236D01*
X251550530Y-83915821D01*
X251637337Y-83944027D01*
X251831634Y-83974801D01*
X251831639Y-83974801D01*
X252028366Y-83974801D01*
X252222662Y-83944027D01*
X252409757Y-83883236D01*
X252585038Y-83793926D01*
X252744190Y-83678295D01*
X252883294Y-83539191D01*
X252998925Y-83380039D01*
X253088235Y-83204758D01*
X253149026Y-83017663D01*
X253159463Y-82951765D01*
X253179800Y-82823367D01*
X253179800Y-82626634D01*
X253149026Y-82432338D01*
X253111528Y-82316932D01*
X253088235Y-82245244D01*
X253088233Y-82245241D01*
X253088233Y-82245239D01*
X252998924Y-82069962D01*
X252964958Y-82023212D01*
X252883294Y-81910811D01*
X252744190Y-81771707D01*
X252585038Y-81656076D01*
X252578185Y-81652584D01*
X252409761Y-81566767D01*
X252222662Y-81505974D01*
X252028366Y-81475201D01*
X252028361Y-81475201D01*
X251831639Y-81475201D01*
X251831634Y-81475201D01*
X251637337Y-81505974D01*
X251450238Y-81566767D01*
X251274961Y-81656076D01*
X251184159Y-81722048D01*
X251115810Y-81771707D01*
X251115808Y-81771709D01*
X251115807Y-81771709D01*
X250976708Y-81910808D01*
X250976708Y-81910809D01*
X250976706Y-81910811D01*
X250927047Y-81979160D01*
X250861075Y-82069962D01*
X250771766Y-82245239D01*
X250710973Y-82432338D01*
X250680200Y-82626634D01*
X247000500Y-82626634D01*
X247000500Y-82513389D01*
X246973402Y-82342299D01*
X246919873Y-82177555D01*
X246841232Y-82023212D01*
X246739414Y-81883072D01*
X246616928Y-81760586D01*
X246476788Y-81658768D01*
X246322445Y-81580127D01*
X246157701Y-81526598D01*
X246157699Y-81526597D01*
X246157698Y-81526597D01*
X246026271Y-81505781D01*
X245986611Y-81499500D01*
X245013389Y-81499500D01*
X244973728Y-81505781D01*
X244842302Y-81526597D01*
X244677552Y-81580128D01*
X244523211Y-81658768D01*
X244443256Y-81716859D01*
X244383072Y-81760586D01*
X244383070Y-81760588D01*
X244383069Y-81760588D01*
X244260588Y-81883069D01*
X244260588Y-81883070D01*
X244260586Y-81883072D01*
X244216859Y-81943256D01*
X244158768Y-82023211D01*
X244080128Y-82177552D01*
X244026597Y-82342302D01*
X244012337Y-82432338D01*
X243999500Y-82513389D01*
X224140500Y-82513389D01*
X224113402Y-82342299D01*
X224059873Y-82177555D01*
X223981232Y-82023212D01*
X223879414Y-81883072D01*
X223756928Y-81760586D01*
X223616788Y-81658768D01*
X223462445Y-81580127D01*
X223297701Y-81526598D01*
X223297699Y-81526597D01*
X223297698Y-81526597D01*
X223166271Y-81505781D01*
X223126611Y-81499500D01*
X222153389Y-81499500D01*
X222113728Y-81505781D01*
X221982302Y-81526597D01*
X221817552Y-81580128D01*
X221663211Y-81658768D01*
X221583256Y-81716859D01*
X221523072Y-81760586D01*
X221523070Y-81760588D01*
X221523069Y-81760588D01*
X221400588Y-81883069D01*
X221400588Y-81883070D01*
X221400586Y-81883072D01*
X221356859Y-81943256D01*
X221298768Y-82023211D01*
X221220128Y-82177552D01*
X221166597Y-82342302D01*
X221152337Y-82432338D01*
X221139500Y-82513389D01*
X219537369Y-82513389D01*
X219543400Y-82483068D01*
X219543400Y-82316932D01*
X219510989Y-82153989D01*
X219510987Y-82153984D01*
X219447415Y-82000506D01*
X219447408Y-82000493D01*
X219355112Y-81862364D01*
X219355109Y-81862360D01*
X219237639Y-81744890D01*
X219237635Y-81744887D01*
X219099506Y-81652591D01*
X219099493Y-81652584D01*
X218946015Y-81589012D01*
X218946003Y-81589009D01*
X218783072Y-81556600D01*
X218783068Y-81556600D01*
X218616932Y-81556600D01*
X218616927Y-81556600D01*
X218453996Y-81589009D01*
X218453984Y-81589012D01*
X218300506Y-81652584D01*
X218300493Y-81652591D01*
X218162364Y-81744887D01*
X218162360Y-81744890D01*
X218044890Y-81862360D01*
X218044887Y-81862364D01*
X217952591Y-82000493D01*
X217952584Y-82000506D01*
X217889012Y-82153984D01*
X217889009Y-82153996D01*
X217856600Y-82316927D01*
X217343399Y-82316927D01*
X217310989Y-82153989D01*
X217310987Y-82153984D01*
X217247415Y-82000506D01*
X217247408Y-82000493D01*
X217155112Y-81862364D01*
X217155109Y-81862360D01*
X217037639Y-81744890D01*
X217037635Y-81744887D01*
X216899506Y-81652591D01*
X216899493Y-81652584D01*
X216746015Y-81589012D01*
X216746003Y-81589009D01*
X216583072Y-81556600D01*
X216583068Y-81556600D01*
X216416932Y-81556600D01*
X216416927Y-81556600D01*
X216253996Y-81589009D01*
X216253984Y-81589012D01*
X216100506Y-81652584D01*
X216100493Y-81652591D01*
X215962364Y-81744887D01*
X215962360Y-81744890D01*
X215844890Y-81862360D01*
X215844887Y-81862364D01*
X215752591Y-82000493D01*
X215752584Y-82000506D01*
X215689012Y-82153984D01*
X215689009Y-82153996D01*
X215656600Y-82316927D01*
X207800500Y-82316927D01*
X207800500Y-81241632D01*
X253220200Y-81241632D01*
X253220200Y-81438365D01*
X253250973Y-81632661D01*
X253311766Y-81819760D01*
X253401075Y-81995037D01*
X253516706Y-82154189D01*
X253655810Y-82293293D01*
X253814962Y-82408924D01*
X253860915Y-82432338D01*
X253990238Y-82498232D01*
X253990240Y-82498232D01*
X253990243Y-82498234D01*
X254090530Y-82530819D01*
X254177337Y-82559025D01*
X254371634Y-82589799D01*
X254371639Y-82589799D01*
X254568366Y-82589799D01*
X254762662Y-82559025D01*
X254949757Y-82498234D01*
X255125038Y-82408924D01*
X255284190Y-82293293D01*
X255423294Y-82154189D01*
X255538925Y-81995037D01*
X255628235Y-81819756D01*
X255689026Y-81632661D01*
X255695939Y-81589012D01*
X255719800Y-81438365D01*
X255719800Y-81241632D01*
X255689026Y-81047336D01*
X255628233Y-80860237D01*
X255538924Y-80684960D01*
X255503925Y-80636788D01*
X255423294Y-80525809D01*
X255284190Y-80386705D01*
X255125038Y-80271074D01*
X254949761Y-80181765D01*
X254762662Y-80120972D01*
X254568366Y-80090199D01*
X254568361Y-80090199D01*
X254371639Y-80090199D01*
X254371634Y-80090199D01*
X254177337Y-80120972D01*
X253990238Y-80181765D01*
X253814961Y-80271074D01*
X253724159Y-80337046D01*
X253655810Y-80386705D01*
X253655808Y-80386707D01*
X253655807Y-80386707D01*
X253516708Y-80525806D01*
X253516708Y-80525807D01*
X253516706Y-80525809D01*
X253467047Y-80594158D01*
X253401075Y-80684960D01*
X253311766Y-80860237D01*
X253250973Y-81047336D01*
X253220200Y-81241632D01*
X207800500Y-81241632D01*
X207800500Y-79416927D01*
X213056600Y-79416927D01*
X213056600Y-79583072D01*
X213089009Y-79746003D01*
X213089012Y-79746015D01*
X213152584Y-79899493D01*
X213152591Y-79899506D01*
X213244887Y-80037635D01*
X213244890Y-80037639D01*
X213362360Y-80155109D01*
X213362364Y-80155112D01*
X213500493Y-80247408D01*
X213500506Y-80247415D01*
X213653984Y-80310987D01*
X213653989Y-80310989D01*
X213816927Y-80343399D01*
X213816931Y-80343400D01*
X213816932Y-80343400D01*
X213983069Y-80343400D01*
X213983070Y-80343399D01*
X214146011Y-80310989D01*
X214299500Y-80247412D01*
X214437636Y-80155112D01*
X214555112Y-80037636D01*
X214598041Y-79973389D01*
X221139500Y-79973389D01*
X221139500Y-80146611D01*
X221145068Y-80181764D01*
X221165534Y-80310987D01*
X221166598Y-80317701D01*
X221220127Y-80482445D01*
X221298768Y-80636788D01*
X221400586Y-80776928D01*
X221523072Y-80899414D01*
X221663212Y-81001232D01*
X221817555Y-81079873D01*
X221982299Y-81133402D01*
X222153389Y-81160500D01*
X222153390Y-81160500D01*
X223126610Y-81160500D01*
X223126611Y-81160500D01*
X223297701Y-81133402D01*
X223462445Y-81079873D01*
X223616788Y-81001232D01*
X223756928Y-80899414D01*
X223879414Y-80776928D01*
X223981232Y-80636788D01*
X224059873Y-80482445D01*
X224113402Y-80317701D01*
X224140500Y-80146611D01*
X224140500Y-79973389D01*
X243999500Y-79973389D01*
X243999500Y-80146611D01*
X244005068Y-80181764D01*
X244025534Y-80310987D01*
X244026598Y-80317701D01*
X244080127Y-80482445D01*
X244158768Y-80636788D01*
X244260586Y-80776928D01*
X244383072Y-80899414D01*
X244523212Y-81001232D01*
X244677555Y-81079873D01*
X244842299Y-81133402D01*
X245013389Y-81160500D01*
X245013390Y-81160500D01*
X245986610Y-81160500D01*
X245986611Y-81160500D01*
X246157701Y-81133402D01*
X246322445Y-81079873D01*
X246476788Y-81001232D01*
X246616928Y-80899414D01*
X246739414Y-80776928D01*
X246841232Y-80636788D01*
X246919873Y-80482445D01*
X246973402Y-80317701D01*
X247000500Y-80146611D01*
X247000500Y-79973389D01*
X246982008Y-79856634D01*
X250680200Y-79856634D01*
X250680200Y-80053367D01*
X250710973Y-80247663D01*
X250771766Y-80434762D01*
X250861075Y-80610039D01*
X250976706Y-80769191D01*
X251115810Y-80908295D01*
X251274962Y-81023926D01*
X251320907Y-81047336D01*
X251450238Y-81113234D01*
X251450240Y-81113234D01*
X251450243Y-81113236D01*
X251550530Y-81145821D01*
X251637337Y-81174027D01*
X251831634Y-81204801D01*
X251831639Y-81204801D01*
X252028366Y-81204801D01*
X252222662Y-81174027D01*
X252409757Y-81113236D01*
X252585038Y-81023926D01*
X252744190Y-80908295D01*
X252883294Y-80769191D01*
X252998925Y-80610039D01*
X253088235Y-80434758D01*
X253149026Y-80247663D01*
X253159463Y-80181765D01*
X253179800Y-80053367D01*
X253179800Y-79856634D01*
X253149026Y-79662338D01*
X253090824Y-79483212D01*
X253088235Y-79475244D01*
X253088233Y-79475241D01*
X253088233Y-79475239D01*
X253020889Y-79343070D01*
X252998925Y-79299963D01*
X252883294Y-79140811D01*
X252744190Y-79001707D01*
X252585038Y-78886076D01*
X252409761Y-78796767D01*
X252222662Y-78735974D01*
X252028366Y-78705201D01*
X252028361Y-78705201D01*
X251831639Y-78705201D01*
X251831634Y-78705201D01*
X251637337Y-78735974D01*
X251450238Y-78796767D01*
X251274961Y-78886076D01*
X251184159Y-78952048D01*
X251115810Y-79001707D01*
X251115808Y-79001709D01*
X251115807Y-79001709D01*
X250976708Y-79140808D01*
X250976708Y-79140809D01*
X250976706Y-79140811D01*
X250927047Y-79209160D01*
X250861075Y-79299962D01*
X250771766Y-79475239D01*
X250710973Y-79662338D01*
X250680200Y-79856634D01*
X246982008Y-79856634D01*
X246973402Y-79802299D01*
X246919873Y-79637555D01*
X246841232Y-79483212D01*
X246739414Y-79343072D01*
X246616928Y-79220586D01*
X246476788Y-79118768D01*
X246322447Y-79040128D01*
X246322446Y-79040127D01*
X246322445Y-79040127D01*
X246157701Y-78986598D01*
X246157699Y-78986597D01*
X246157698Y-78986597D01*
X246026271Y-78965781D01*
X245986611Y-78959500D01*
X245013389Y-78959500D01*
X244973728Y-78965781D01*
X244842302Y-78986597D01*
X244677552Y-79040128D01*
X244523211Y-79118768D01*
X244443256Y-79176859D01*
X244383072Y-79220586D01*
X244383070Y-79220588D01*
X244383069Y-79220588D01*
X244260588Y-79343069D01*
X244260588Y-79343070D01*
X244260586Y-79343072D01*
X244216859Y-79403256D01*
X244158768Y-79483211D01*
X244080128Y-79637552D01*
X244026597Y-79802302D01*
X244011202Y-79899506D01*
X243999500Y-79973389D01*
X224140500Y-79973389D01*
X224113402Y-79802299D01*
X224059873Y-79637555D01*
X223981232Y-79483212D01*
X223879414Y-79343072D01*
X223756928Y-79220586D01*
X223616788Y-79118768D01*
X223462447Y-79040128D01*
X223462446Y-79040127D01*
X223462445Y-79040127D01*
X223297701Y-78986598D01*
X223297699Y-78986597D01*
X223297698Y-78986597D01*
X223166271Y-78965781D01*
X223126611Y-78959500D01*
X222153389Y-78959500D01*
X222113728Y-78965781D01*
X221982302Y-78986597D01*
X221817552Y-79040128D01*
X221663211Y-79118768D01*
X221583256Y-79176859D01*
X221523072Y-79220586D01*
X221523070Y-79220588D01*
X221523069Y-79220588D01*
X221400588Y-79343069D01*
X221400588Y-79343070D01*
X221400586Y-79343072D01*
X221356859Y-79403256D01*
X221298768Y-79483211D01*
X221220128Y-79637552D01*
X221166597Y-79802302D01*
X221151202Y-79899506D01*
X221139500Y-79973389D01*
X214598041Y-79973389D01*
X214647412Y-79899500D01*
X214710989Y-79746011D01*
X214743400Y-79583068D01*
X214743400Y-79416932D01*
X214710989Y-79253989D01*
X214697153Y-79220586D01*
X214647415Y-79100506D01*
X214647408Y-79100493D01*
X214555112Y-78962364D01*
X214555109Y-78962360D01*
X214437639Y-78844890D01*
X214437635Y-78844887D01*
X214299506Y-78752591D01*
X214299493Y-78752584D01*
X214146015Y-78689012D01*
X214146003Y-78689009D01*
X213983072Y-78656600D01*
X213983068Y-78656600D01*
X213816932Y-78656600D01*
X213816927Y-78656600D01*
X213653996Y-78689009D01*
X213653984Y-78689012D01*
X213500506Y-78752584D01*
X213500493Y-78752591D01*
X213362364Y-78844887D01*
X213362360Y-78844890D01*
X213244890Y-78962360D01*
X213244887Y-78962364D01*
X213152591Y-79100493D01*
X213152584Y-79100506D01*
X213089012Y-79253984D01*
X213089009Y-79253996D01*
X213056600Y-79416927D01*
X207800500Y-79416927D01*
X207800500Y-77433389D01*
X221139500Y-77433389D01*
X221139500Y-77606611D01*
X221166598Y-77777701D01*
X221220127Y-77942445D01*
X221298768Y-78096788D01*
X221400586Y-78236928D01*
X221523072Y-78359414D01*
X221663212Y-78461232D01*
X221817555Y-78539873D01*
X221982299Y-78593402D01*
X222153389Y-78620500D01*
X222153390Y-78620500D01*
X223126610Y-78620500D01*
X223126611Y-78620500D01*
X223297701Y-78593402D01*
X223462445Y-78539873D01*
X223616788Y-78461232D01*
X223756928Y-78359414D01*
X223879414Y-78236928D01*
X223981232Y-78096788D01*
X224059873Y-77942445D01*
X224113402Y-77777701D01*
X224140500Y-77606611D01*
X224140500Y-77433389D01*
X243999500Y-77433389D01*
X243999500Y-77606611D01*
X244026598Y-77777701D01*
X244080127Y-77942445D01*
X244158768Y-78096788D01*
X244260586Y-78236928D01*
X244383072Y-78359414D01*
X244523212Y-78461232D01*
X244677555Y-78539873D01*
X244842299Y-78593402D01*
X245013389Y-78620500D01*
X245013390Y-78620500D01*
X245986610Y-78620500D01*
X245986611Y-78620500D01*
X246157701Y-78593402D01*
X246322445Y-78539873D01*
X246476788Y-78461232D01*
X246616928Y-78359414D01*
X246739414Y-78236928D01*
X246841232Y-78096788D01*
X246919873Y-77942445D01*
X246973402Y-77777701D01*
X247000500Y-77606611D01*
X247000500Y-77433389D01*
X246973402Y-77262299D01*
X246919873Y-77097555D01*
X246841232Y-76943212D01*
X246739414Y-76803072D01*
X246616928Y-76680586D01*
X246476788Y-76578768D01*
X246322445Y-76500127D01*
X246157701Y-76446598D01*
X246157699Y-76446597D01*
X246157698Y-76446597D01*
X246026271Y-76425781D01*
X245986611Y-76419500D01*
X245013389Y-76419500D01*
X244973728Y-76425781D01*
X244842302Y-76446597D01*
X244677552Y-76500128D01*
X244523211Y-76578768D01*
X244443256Y-76636859D01*
X244383072Y-76680586D01*
X244383070Y-76680588D01*
X244383069Y-76680588D01*
X244260588Y-76803069D01*
X244260588Y-76803070D01*
X244260586Y-76803072D01*
X244216859Y-76863256D01*
X244158768Y-76943211D01*
X244080128Y-77097552D01*
X244026597Y-77262302D01*
X243999500Y-77433389D01*
X224140500Y-77433389D01*
X224113402Y-77262299D01*
X224059873Y-77097555D01*
X223981232Y-76943212D01*
X223879414Y-76803072D01*
X223756928Y-76680586D01*
X223616788Y-76578768D01*
X223462445Y-76500127D01*
X223297701Y-76446598D01*
X223297699Y-76446597D01*
X223297698Y-76446597D01*
X223166271Y-76425781D01*
X223126611Y-76419500D01*
X222153389Y-76419500D01*
X222113728Y-76425781D01*
X221982302Y-76446597D01*
X221817552Y-76500128D01*
X221663211Y-76578768D01*
X221583256Y-76636859D01*
X221523072Y-76680586D01*
X221523070Y-76680588D01*
X221523069Y-76680588D01*
X221400588Y-76803069D01*
X221400588Y-76803070D01*
X221400586Y-76803072D01*
X221356859Y-76863256D01*
X221298768Y-76943211D01*
X221220128Y-77097552D01*
X221166597Y-77262302D01*
X221139500Y-77433389D01*
X207800500Y-77433389D01*
X207800500Y-74893389D01*
X221139500Y-74893389D01*
X221139500Y-75066611D01*
X221166598Y-75237701D01*
X221220127Y-75402445D01*
X221298768Y-75556788D01*
X221400586Y-75696928D01*
X221523072Y-75819414D01*
X221663212Y-75921232D01*
X221817555Y-75999873D01*
X221982299Y-76053402D01*
X222153389Y-76080500D01*
X222153390Y-76080500D01*
X223126610Y-76080500D01*
X223126611Y-76080500D01*
X223297701Y-76053402D01*
X223462445Y-75999873D01*
X223616788Y-75921232D01*
X223756928Y-75819414D01*
X223879414Y-75696928D01*
X223981232Y-75556788D01*
X224059873Y-75402445D01*
X224113402Y-75237701D01*
X224140500Y-75066611D01*
X224140500Y-74893389D01*
X243999500Y-74893389D01*
X243999500Y-75066611D01*
X244026598Y-75237701D01*
X244080127Y-75402445D01*
X244158768Y-75556788D01*
X244260586Y-75696928D01*
X244383072Y-75819414D01*
X244523212Y-75921232D01*
X244677555Y-75999873D01*
X244842299Y-76053402D01*
X245013389Y-76080500D01*
X245013390Y-76080500D01*
X245986610Y-76080500D01*
X245986611Y-76080500D01*
X246157701Y-76053402D01*
X246322445Y-75999873D01*
X246476788Y-75921232D01*
X246616928Y-75819414D01*
X246739414Y-75696928D01*
X246841232Y-75556788D01*
X246919873Y-75402445D01*
X246973402Y-75237701D01*
X247000500Y-75066611D01*
X247000500Y-74893389D01*
X246973402Y-74722299D01*
X246919873Y-74557555D01*
X246841232Y-74403212D01*
X246739414Y-74263072D01*
X246616928Y-74140586D01*
X246476788Y-74038768D01*
X246322445Y-73960127D01*
X246157701Y-73906598D01*
X246157699Y-73906597D01*
X246157698Y-73906597D01*
X246026271Y-73885781D01*
X245986611Y-73879500D01*
X245013389Y-73879500D01*
X244973728Y-73885781D01*
X244842302Y-73906597D01*
X244677552Y-73960128D01*
X244523211Y-74038768D01*
X244443256Y-74096859D01*
X244383072Y-74140586D01*
X244383070Y-74140588D01*
X244383069Y-74140588D01*
X244260588Y-74263069D01*
X244260588Y-74263070D01*
X244260586Y-74263072D01*
X244216859Y-74323256D01*
X244158768Y-74403211D01*
X244080128Y-74557552D01*
X244026597Y-74722302D01*
X244013586Y-74804451D01*
X243999500Y-74893389D01*
X224140500Y-74893389D01*
X224113402Y-74722299D01*
X224059873Y-74557555D01*
X223981232Y-74403212D01*
X223879414Y-74263072D01*
X223756928Y-74140586D01*
X223616788Y-74038768D01*
X223462445Y-73960127D01*
X223297701Y-73906598D01*
X223297699Y-73906597D01*
X223297698Y-73906597D01*
X223166271Y-73885781D01*
X223126611Y-73879500D01*
X222153389Y-73879500D01*
X222113728Y-73885781D01*
X221982302Y-73906597D01*
X221817552Y-73960128D01*
X221663211Y-74038768D01*
X221583256Y-74096859D01*
X221523072Y-74140586D01*
X221523070Y-74140588D01*
X221523069Y-74140588D01*
X221400588Y-74263069D01*
X221400588Y-74263070D01*
X221400586Y-74263072D01*
X221356859Y-74323256D01*
X221298768Y-74403211D01*
X221220128Y-74557552D01*
X221166597Y-74722302D01*
X221153586Y-74804451D01*
X221139500Y-74893389D01*
X207800500Y-74893389D01*
X207800500Y-71916927D01*
X213056600Y-71916927D01*
X213056600Y-72083072D01*
X213089009Y-72246003D01*
X213089012Y-72246015D01*
X213152584Y-72399493D01*
X213152591Y-72399506D01*
X213244887Y-72537635D01*
X213244890Y-72537639D01*
X213362360Y-72655109D01*
X213362364Y-72655112D01*
X213500493Y-72747408D01*
X213500506Y-72747415D01*
X213653984Y-72810987D01*
X213653989Y-72810989D01*
X213764587Y-72832988D01*
X213816927Y-72843399D01*
X213816931Y-72843400D01*
X213816932Y-72843400D01*
X213983069Y-72843400D01*
X213983070Y-72843399D01*
X214146011Y-72810989D01*
X214299500Y-72747412D01*
X214437636Y-72655112D01*
X214555112Y-72537636D01*
X214647412Y-72399500D01*
X214666512Y-72353389D01*
X221139500Y-72353389D01*
X221139500Y-72526610D01*
X221166597Y-72697697D01*
X221166597Y-72697699D01*
X221166598Y-72697701D01*
X221220127Y-72862445D01*
X221298768Y-73016788D01*
X221400586Y-73156928D01*
X221523072Y-73279414D01*
X221663212Y-73381232D01*
X221817555Y-73459873D01*
X221982299Y-73513402D01*
X222153389Y-73540500D01*
X222153390Y-73540500D01*
X223126610Y-73540500D01*
X223126611Y-73540500D01*
X223297701Y-73513402D01*
X223462445Y-73459873D01*
X223616788Y-73381232D01*
X223756928Y-73279414D01*
X223879414Y-73156928D01*
X223981232Y-73016788D01*
X224059873Y-72862445D01*
X224113402Y-72697701D01*
X224140500Y-72526611D01*
X224140500Y-72353389D01*
X243999500Y-72353389D01*
X243999500Y-72526610D01*
X244026597Y-72697697D01*
X244026597Y-72697699D01*
X244026598Y-72697701D01*
X244080127Y-72862445D01*
X244158768Y-73016788D01*
X244260586Y-73156928D01*
X244383072Y-73279414D01*
X244523212Y-73381232D01*
X244677555Y-73459873D01*
X244842299Y-73513402D01*
X245013389Y-73540500D01*
X245013390Y-73540500D01*
X245986610Y-73540500D01*
X245986611Y-73540500D01*
X246157701Y-73513402D01*
X246322445Y-73459873D01*
X246476788Y-73381232D01*
X246616928Y-73279414D01*
X246739414Y-73156928D01*
X246841232Y-73016788D01*
X246913285Y-72875375D01*
X251298500Y-72875375D01*
X251298500Y-73124624D01*
X251298501Y-73124641D01*
X251331034Y-73371756D01*
X251395549Y-73612529D01*
X251490931Y-73842804D01*
X251490938Y-73842819D01*
X251615567Y-74058683D01*
X251767307Y-74256434D01*
X251767313Y-74256441D01*
X251943558Y-74432686D01*
X251943565Y-74432692D01*
X252141316Y-74584432D01*
X252357180Y-74709061D01*
X252357195Y-74709068D01*
X252456435Y-74750174D01*
X252587471Y-74804451D01*
X252828240Y-74868965D01*
X253075369Y-74901500D01*
X253075376Y-74901500D01*
X253324624Y-74901500D01*
X253324631Y-74901500D01*
X253571760Y-74868965D01*
X253812529Y-74804451D01*
X254042816Y-74709063D01*
X254258684Y-74584432D01*
X254456436Y-74432691D01*
X254632691Y-74256436D01*
X254784432Y-74058684D01*
X254909063Y-73842816D01*
X255004451Y-73612529D01*
X255068965Y-73371760D01*
X255101500Y-73124631D01*
X255101500Y-72875369D01*
X255068965Y-72628240D01*
X255004451Y-72387471D01*
X254945853Y-72246003D01*
X254909068Y-72157195D01*
X254909061Y-72157180D01*
X254784432Y-71941316D01*
X254632692Y-71743565D01*
X254632686Y-71743558D01*
X254456441Y-71567313D01*
X254456434Y-71567307D01*
X254258683Y-71415567D01*
X254042819Y-71290938D01*
X254042804Y-71290931D01*
X253812529Y-71195549D01*
X253571756Y-71131034D01*
X253324641Y-71098501D01*
X253324636Y-71098500D01*
X253324631Y-71098500D01*
X253075369Y-71098500D01*
X253075363Y-71098500D01*
X253075358Y-71098501D01*
X252828243Y-71131034D01*
X252587470Y-71195549D01*
X252357195Y-71290931D01*
X252357180Y-71290938D01*
X252141316Y-71415567D01*
X251943565Y-71567307D01*
X251943558Y-71567313D01*
X251767313Y-71743558D01*
X251767307Y-71743565D01*
X251615567Y-71941316D01*
X251490938Y-72157180D01*
X251490931Y-72157195D01*
X251395549Y-72387470D01*
X251331034Y-72628243D01*
X251298501Y-72875358D01*
X251298500Y-72875375D01*
X246913285Y-72875375D01*
X246919873Y-72862445D01*
X246973402Y-72697701D01*
X247000500Y-72526611D01*
X247000500Y-72353389D01*
X246973402Y-72182299D01*
X246919873Y-72017555D01*
X246841232Y-71863212D01*
X246739414Y-71723072D01*
X246616928Y-71600586D01*
X246476788Y-71498768D01*
X246322445Y-71420127D01*
X246157701Y-71366598D01*
X246157699Y-71366597D01*
X246157698Y-71366597D01*
X246020623Y-71344887D01*
X245986611Y-71339500D01*
X245013389Y-71339500D01*
X244979377Y-71344887D01*
X244842302Y-71366597D01*
X244677552Y-71420128D01*
X244523211Y-71498768D01*
X244443256Y-71556859D01*
X244383072Y-71600586D01*
X244383070Y-71600588D01*
X244383069Y-71600588D01*
X244260588Y-71723069D01*
X244260588Y-71723070D01*
X244260586Y-71723072D01*
X244216859Y-71783256D01*
X244158768Y-71863211D01*
X244080128Y-72017552D01*
X244026597Y-72182302D01*
X243999500Y-72353389D01*
X224140500Y-72353389D01*
X224113402Y-72182299D01*
X224059873Y-72017555D01*
X223981232Y-71863212D01*
X223879414Y-71723072D01*
X223756928Y-71600586D01*
X223616788Y-71498768D01*
X223462445Y-71420127D01*
X223297701Y-71366598D01*
X223297699Y-71366597D01*
X223297698Y-71366597D01*
X223160623Y-71344887D01*
X223126611Y-71339500D01*
X222153389Y-71339500D01*
X222119377Y-71344887D01*
X221982302Y-71366597D01*
X221817552Y-71420128D01*
X221663211Y-71498768D01*
X221583256Y-71556859D01*
X221523072Y-71600586D01*
X221523070Y-71600588D01*
X221523069Y-71600588D01*
X221400588Y-71723069D01*
X221400588Y-71723070D01*
X221400586Y-71723072D01*
X221356859Y-71783256D01*
X221298768Y-71863211D01*
X221220128Y-72017552D01*
X221166597Y-72182302D01*
X221139500Y-72353389D01*
X214666512Y-72353389D01*
X214710989Y-72246011D01*
X214743400Y-72083068D01*
X214743400Y-71916932D01*
X214710989Y-71753989D01*
X214698182Y-71723069D01*
X214647415Y-71600506D01*
X214647408Y-71600493D01*
X214555112Y-71462364D01*
X214555109Y-71462360D01*
X214437639Y-71344890D01*
X214437635Y-71344887D01*
X214299506Y-71252591D01*
X214299493Y-71252584D01*
X214146015Y-71189012D01*
X214146003Y-71189009D01*
X213983072Y-71156600D01*
X213983068Y-71156600D01*
X213816932Y-71156600D01*
X213816927Y-71156600D01*
X213653996Y-71189009D01*
X213653984Y-71189012D01*
X213500506Y-71252584D01*
X213500493Y-71252591D01*
X213362364Y-71344887D01*
X213362360Y-71344890D01*
X213244890Y-71462360D01*
X213244887Y-71462364D01*
X213152591Y-71600493D01*
X213152584Y-71600506D01*
X213089012Y-71753984D01*
X213089009Y-71753996D01*
X213056600Y-71916927D01*
X207800500Y-71916927D01*
X207800500Y-69813389D01*
X221139500Y-69813389D01*
X221139500Y-69986611D01*
X221166598Y-70157701D01*
X221220127Y-70322445D01*
X221298768Y-70476788D01*
X221400586Y-70616928D01*
X221523072Y-70739414D01*
X221663212Y-70841232D01*
X221817555Y-70919873D01*
X221982299Y-70973402D01*
X222153389Y-71000500D01*
X222153390Y-71000500D01*
X223126610Y-71000500D01*
X223126611Y-71000500D01*
X223297701Y-70973402D01*
X223462445Y-70919873D01*
X223616788Y-70841232D01*
X223756928Y-70739414D01*
X223879414Y-70616928D01*
X223981232Y-70476788D01*
X224059873Y-70322445D01*
X224113402Y-70157701D01*
X224140500Y-69986611D01*
X224140500Y-69813389D01*
X243999500Y-69813389D01*
X243999500Y-69986611D01*
X244026598Y-70157701D01*
X244080127Y-70322445D01*
X244158768Y-70476788D01*
X244260586Y-70616928D01*
X244383072Y-70739414D01*
X244523212Y-70841232D01*
X244677555Y-70919873D01*
X244842299Y-70973402D01*
X245013389Y-71000500D01*
X245013390Y-71000500D01*
X245986610Y-71000500D01*
X245986611Y-71000500D01*
X246157701Y-70973402D01*
X246322445Y-70919873D01*
X246476788Y-70841232D01*
X246616928Y-70739414D01*
X246739414Y-70616928D01*
X246841232Y-70476788D01*
X246919873Y-70322445D01*
X246973402Y-70157701D01*
X247000500Y-69986611D01*
X247000500Y-69813389D01*
X246973402Y-69642299D01*
X246919873Y-69477555D01*
X246841232Y-69323212D01*
X246739414Y-69183072D01*
X246616928Y-69060586D01*
X246476788Y-68958768D01*
X246322445Y-68880127D01*
X246157701Y-68826598D01*
X246157699Y-68826597D01*
X246157698Y-68826597D01*
X246026271Y-68805781D01*
X245986611Y-68799500D01*
X245013389Y-68799500D01*
X244973728Y-68805781D01*
X244842302Y-68826597D01*
X244677552Y-68880128D01*
X244523211Y-68958768D01*
X244443256Y-69016859D01*
X244383072Y-69060586D01*
X244383070Y-69060588D01*
X244383069Y-69060588D01*
X244260588Y-69183069D01*
X244260588Y-69183070D01*
X244260586Y-69183072D01*
X244216859Y-69243256D01*
X244158768Y-69323211D01*
X244080128Y-69477552D01*
X244026597Y-69642302D01*
X243999500Y-69813389D01*
X224140500Y-69813389D01*
X224113402Y-69642299D01*
X224059873Y-69477555D01*
X223981232Y-69323212D01*
X223879414Y-69183072D01*
X223756928Y-69060586D01*
X223616788Y-68958768D01*
X223462445Y-68880127D01*
X223297701Y-68826598D01*
X223297699Y-68826597D01*
X223297698Y-68826597D01*
X223166271Y-68805781D01*
X223126611Y-68799500D01*
X222153389Y-68799500D01*
X222113728Y-68805781D01*
X221982302Y-68826597D01*
X221817552Y-68880128D01*
X221663211Y-68958768D01*
X221583256Y-69016859D01*
X221523072Y-69060586D01*
X221523070Y-69060588D01*
X221523069Y-69060588D01*
X221400588Y-69183069D01*
X221400588Y-69183070D01*
X221400586Y-69183072D01*
X221356859Y-69243256D01*
X221298768Y-69323211D01*
X221220128Y-69477552D01*
X221166597Y-69642302D01*
X221139500Y-69813389D01*
X207800500Y-69813389D01*
X207800500Y-67273389D01*
X221139500Y-67273389D01*
X221139500Y-67446611D01*
X221166598Y-67617701D01*
X221220127Y-67782445D01*
X221298768Y-67936788D01*
X221400586Y-68076928D01*
X221523072Y-68199414D01*
X221663212Y-68301232D01*
X221817555Y-68379873D01*
X221982299Y-68433402D01*
X222153389Y-68460500D01*
X222153390Y-68460500D01*
X223126610Y-68460500D01*
X223126611Y-68460500D01*
X223297701Y-68433402D01*
X223462445Y-68379873D01*
X223616788Y-68301232D01*
X223756928Y-68199414D01*
X223879414Y-68076928D01*
X223981232Y-67936788D01*
X224059873Y-67782445D01*
X224113402Y-67617701D01*
X224140500Y-67446611D01*
X224140500Y-67273389D01*
X243999500Y-67273389D01*
X243999500Y-67446611D01*
X244026598Y-67617701D01*
X244080127Y-67782445D01*
X244158768Y-67936788D01*
X244260586Y-68076928D01*
X244383072Y-68199414D01*
X244523212Y-68301232D01*
X244677555Y-68379873D01*
X244842299Y-68433402D01*
X245013389Y-68460500D01*
X245013390Y-68460500D01*
X245986610Y-68460500D01*
X245986611Y-68460500D01*
X246157701Y-68433402D01*
X246322445Y-68379873D01*
X246476788Y-68301232D01*
X246616928Y-68199414D01*
X246739414Y-68076928D01*
X246841232Y-67936788D01*
X246919873Y-67782445D01*
X246973402Y-67617701D01*
X247000500Y-67446611D01*
X247000500Y-67393713D01*
X255909500Y-67393713D01*
X255909500Y-67606286D01*
X255942753Y-67816239D01*
X256008444Y-68018414D01*
X256104951Y-68207820D01*
X256229890Y-68379786D01*
X256380213Y-68530109D01*
X256552179Y-68655048D01*
X256552181Y-68655049D01*
X256552184Y-68655051D01*
X256741588Y-68751557D01*
X256943757Y-68817246D01*
X257153713Y-68850500D01*
X257153714Y-68850500D01*
X257366286Y-68850500D01*
X257366287Y-68850500D01*
X257576243Y-68817246D01*
X257778412Y-68751557D01*
X257967816Y-68655051D01*
X258139792Y-68530104D01*
X258253329Y-68416566D01*
X258314648Y-68383084D01*
X258384340Y-68388068D01*
X258440274Y-68429939D01*
X258457189Y-68460917D01*
X258506202Y-68592328D01*
X258506206Y-68592335D01*
X258592452Y-68707544D01*
X258592455Y-68707547D01*
X258707664Y-68793793D01*
X258707671Y-68793797D01*
X258842517Y-68844091D01*
X258842516Y-68844091D01*
X258849444Y-68844835D01*
X258902127Y-68850500D01*
X260697872Y-68850499D01*
X260757483Y-68844091D01*
X260892331Y-68793796D01*
X261007546Y-68707546D01*
X261093796Y-68592331D01*
X261144091Y-68457483D01*
X261150500Y-68397873D01*
X261150499Y-66602128D01*
X261144091Y-66542517D01*
X261142810Y-66539083D01*
X261093797Y-66407671D01*
X261093793Y-66407664D01*
X261007547Y-66292455D01*
X261007544Y-66292452D01*
X260892335Y-66206206D01*
X260892328Y-66206202D01*
X260757482Y-66155908D01*
X260757483Y-66155908D01*
X260697883Y-66149501D01*
X260697881Y-66149500D01*
X260697873Y-66149500D01*
X260697864Y-66149500D01*
X258902129Y-66149500D01*
X258902123Y-66149501D01*
X258842516Y-66155908D01*
X258707671Y-66206202D01*
X258707664Y-66206206D01*
X258592455Y-66292452D01*
X258592452Y-66292455D01*
X258506206Y-66407664D01*
X258506203Y-66407669D01*
X258457189Y-66539083D01*
X258415317Y-66595016D01*
X258349853Y-66619433D01*
X258281580Y-66604581D01*
X258253326Y-66583430D01*
X258139786Y-66469890D01*
X257967820Y-66344951D01*
X257778414Y-66248444D01*
X257778413Y-66248443D01*
X257778412Y-66248443D01*
X257576243Y-66182754D01*
X257576241Y-66182753D01*
X257576240Y-66182753D01*
X257414957Y-66157208D01*
X257366287Y-66149500D01*
X257153713Y-66149500D01*
X257105042Y-66157208D01*
X256943760Y-66182753D01*
X256741585Y-66248444D01*
X256552179Y-66344951D01*
X256380213Y-66469890D01*
X256229890Y-66620213D01*
X256104951Y-66792179D01*
X256008444Y-66981585D01*
X255942753Y-67183760D01*
X255909500Y-67393713D01*
X247000500Y-67393713D01*
X247000500Y-67273389D01*
X246973402Y-67102299D01*
X246919873Y-66937555D01*
X246841232Y-66783212D01*
X246739414Y-66643072D01*
X246616928Y-66520586D01*
X246476788Y-66418768D01*
X246322445Y-66340127D01*
X246157701Y-66286598D01*
X246157699Y-66286597D01*
X246157698Y-66286597D01*
X246026271Y-66265781D01*
X245986611Y-66259500D01*
X245013389Y-66259500D01*
X244973728Y-66265781D01*
X244842302Y-66286597D01*
X244677552Y-66340128D01*
X244523211Y-66418768D01*
X244443256Y-66476859D01*
X244383072Y-66520586D01*
X244383070Y-66520588D01*
X244383069Y-66520588D01*
X244260588Y-66643069D01*
X244260588Y-66643070D01*
X244260586Y-66643072D01*
X244216859Y-66703256D01*
X244158768Y-66783211D01*
X244080128Y-66937552D01*
X244026597Y-67102302D01*
X244013696Y-67183757D01*
X243999500Y-67273389D01*
X224140500Y-67273389D01*
X224113402Y-67102299D01*
X224059873Y-66937555D01*
X223981232Y-66783212D01*
X223879414Y-66643072D01*
X223756928Y-66520586D01*
X223616788Y-66418768D01*
X223462445Y-66340127D01*
X223297701Y-66286598D01*
X223297699Y-66286597D01*
X223297698Y-66286597D01*
X223166271Y-66265781D01*
X223126611Y-66259500D01*
X222153389Y-66259500D01*
X222113728Y-66265781D01*
X221982302Y-66286597D01*
X221817552Y-66340128D01*
X221663211Y-66418768D01*
X221583256Y-66476859D01*
X221523072Y-66520586D01*
X221523070Y-66520588D01*
X221523069Y-66520588D01*
X221400588Y-66643069D01*
X221400588Y-66643070D01*
X221400586Y-66643072D01*
X221356859Y-66703256D01*
X221298768Y-66783211D01*
X221220128Y-66937552D01*
X221166597Y-67102302D01*
X221153696Y-67183757D01*
X221139500Y-67273389D01*
X207800500Y-67273389D01*
X207800500Y-64416927D01*
X213056600Y-64416927D01*
X213056600Y-64583072D01*
X213089009Y-64746003D01*
X213089012Y-64746015D01*
X213152584Y-64899493D01*
X213152591Y-64899506D01*
X213244887Y-65037635D01*
X213244890Y-65037639D01*
X213362360Y-65155109D01*
X213362364Y-65155112D01*
X213500493Y-65247408D01*
X213500506Y-65247415D01*
X213653984Y-65310987D01*
X213653989Y-65310989D01*
X213816927Y-65343399D01*
X213816931Y-65343400D01*
X213816932Y-65343400D01*
X213983069Y-65343400D01*
X213983070Y-65343399D01*
X214146011Y-65310989D01*
X214299500Y-65247412D01*
X214437636Y-65155112D01*
X214555112Y-65037636D01*
X214647412Y-64899500D01*
X214710989Y-64746011D01*
X214713500Y-64733389D01*
X221139500Y-64733389D01*
X221139500Y-64906611D01*
X221166598Y-65077701D01*
X221220127Y-65242445D01*
X221298768Y-65396788D01*
X221400586Y-65536928D01*
X221523072Y-65659414D01*
X221663212Y-65761232D01*
X221817555Y-65839873D01*
X221982299Y-65893402D01*
X222153389Y-65920500D01*
X222153390Y-65920500D01*
X223126610Y-65920500D01*
X223126611Y-65920500D01*
X223297701Y-65893402D01*
X223462445Y-65839873D01*
X223616788Y-65761232D01*
X223756928Y-65659414D01*
X223879414Y-65536928D01*
X223981232Y-65396788D01*
X224059873Y-65242445D01*
X224113402Y-65077701D01*
X224140500Y-64906611D01*
X224140500Y-64733389D01*
X243999500Y-64733389D01*
X243999500Y-64906611D01*
X244026598Y-65077701D01*
X244080127Y-65242445D01*
X244158768Y-65396788D01*
X244260586Y-65536928D01*
X244383072Y-65659414D01*
X244523212Y-65761232D01*
X244677555Y-65839873D01*
X244842299Y-65893402D01*
X245013389Y-65920500D01*
X245013390Y-65920500D01*
X245986610Y-65920500D01*
X245986611Y-65920500D01*
X246157701Y-65893402D01*
X246322445Y-65839873D01*
X246476788Y-65761232D01*
X246616928Y-65659414D01*
X246739414Y-65536928D01*
X246841232Y-65396788D01*
X246919873Y-65242445D01*
X246973402Y-65077701D01*
X247000500Y-64906611D01*
X247000500Y-64733389D01*
X246973402Y-64562299D01*
X246919873Y-64397555D01*
X246841232Y-64243212D01*
X246739414Y-64103072D01*
X246616928Y-63980586D01*
X246476788Y-63878768D01*
X246322445Y-63800127D01*
X246157701Y-63746598D01*
X246157699Y-63746597D01*
X246157698Y-63746597D01*
X246026271Y-63725781D01*
X245986611Y-63719500D01*
X245013389Y-63719500D01*
X244973728Y-63725781D01*
X244842302Y-63746597D01*
X244677552Y-63800128D01*
X244523211Y-63878768D01*
X244478862Y-63910990D01*
X244383072Y-63980586D01*
X244383070Y-63980588D01*
X244383069Y-63980588D01*
X244260588Y-64103069D01*
X244260588Y-64103070D01*
X244260586Y-64103072D01*
X244216859Y-64163256D01*
X244158768Y-64243211D01*
X244080128Y-64397552D01*
X244026597Y-64562302D01*
X244004103Y-64704326D01*
X243999500Y-64733389D01*
X224140500Y-64733389D01*
X224113402Y-64562299D01*
X224059873Y-64397555D01*
X223981232Y-64243212D01*
X223879414Y-64103072D01*
X223756928Y-63980586D01*
X223616788Y-63878768D01*
X223462445Y-63800127D01*
X223297701Y-63746598D01*
X223297699Y-63746597D01*
X223297698Y-63746597D01*
X223166271Y-63725781D01*
X223126611Y-63719500D01*
X222153389Y-63719500D01*
X222113728Y-63725781D01*
X221982302Y-63746597D01*
X221817552Y-63800128D01*
X221663211Y-63878768D01*
X221618862Y-63910990D01*
X221523072Y-63980586D01*
X221523070Y-63980588D01*
X221523069Y-63980588D01*
X221400588Y-64103069D01*
X221400588Y-64103070D01*
X221400586Y-64103072D01*
X221356859Y-64163256D01*
X221298768Y-64243211D01*
X221220128Y-64397552D01*
X221166597Y-64562302D01*
X221144103Y-64704326D01*
X221139500Y-64733389D01*
X214713500Y-64733389D01*
X214743400Y-64583068D01*
X214743400Y-64416932D01*
X214710989Y-64253989D01*
X214706525Y-64243211D01*
X214647415Y-64100506D01*
X214647408Y-64100493D01*
X214555112Y-63962364D01*
X214555109Y-63962360D01*
X214437639Y-63844890D01*
X214437635Y-63844887D01*
X214299506Y-63752591D01*
X214299493Y-63752584D01*
X214146015Y-63689012D01*
X214146003Y-63689009D01*
X213983072Y-63656600D01*
X213983068Y-63656600D01*
X213816932Y-63656600D01*
X213816927Y-63656600D01*
X213653996Y-63689009D01*
X213653984Y-63689012D01*
X213500506Y-63752584D01*
X213500493Y-63752591D01*
X213362364Y-63844887D01*
X213362360Y-63844890D01*
X213244890Y-63962360D01*
X213244887Y-63962364D01*
X213152591Y-64100493D01*
X213152584Y-64100506D01*
X213089012Y-64253984D01*
X213089009Y-64253996D01*
X213056600Y-64416927D01*
X207800500Y-64416927D01*
X207800500Y-62193389D01*
X221139500Y-62193389D01*
X221139500Y-62366611D01*
X221166598Y-62537701D01*
X221190911Y-62612529D01*
X221220128Y-62702447D01*
X221297339Y-62853984D01*
X221298768Y-62856788D01*
X221400586Y-62996928D01*
X221523072Y-63119414D01*
X221663212Y-63221232D01*
X221817555Y-63299873D01*
X221982299Y-63353402D01*
X222153389Y-63380500D01*
X222153390Y-63380500D01*
X223126610Y-63380500D01*
X223126611Y-63380500D01*
X223297701Y-63353402D01*
X223462445Y-63299873D01*
X223616788Y-63221232D01*
X223756928Y-63119414D01*
X223879414Y-62996928D01*
X223981232Y-62856788D01*
X224059873Y-62702445D01*
X224113402Y-62537701D01*
X224140500Y-62366611D01*
X224140500Y-62193389D01*
X243999500Y-62193389D01*
X243999500Y-62366611D01*
X244026598Y-62537701D01*
X244050911Y-62612529D01*
X244080128Y-62702447D01*
X244157339Y-62853984D01*
X244158768Y-62856788D01*
X244260586Y-62996928D01*
X244383072Y-63119414D01*
X244523212Y-63221232D01*
X244677555Y-63299873D01*
X244842299Y-63353402D01*
X245013389Y-63380500D01*
X245013390Y-63380500D01*
X245986610Y-63380500D01*
X245986611Y-63380500D01*
X246157701Y-63353402D01*
X246322445Y-63299873D01*
X246410192Y-63255163D01*
X246478861Y-63242267D01*
X246543601Y-63268543D01*
X246583859Y-63325649D01*
X246588103Y-63341450D01*
X246589009Y-63346003D01*
X246589012Y-63346015D01*
X246652584Y-63499493D01*
X246652591Y-63499506D01*
X246744887Y-63637635D01*
X246744890Y-63637639D01*
X246862360Y-63755109D01*
X246862364Y-63755112D01*
X247000493Y-63847408D01*
X247000506Y-63847415D01*
X247131080Y-63901500D01*
X247153989Y-63910989D01*
X247316927Y-63943399D01*
X247316931Y-63943400D01*
X247316932Y-63943400D01*
X247483069Y-63943400D01*
X247483070Y-63943399D01*
X247646011Y-63910989D01*
X247799500Y-63847412D01*
X247937636Y-63755112D01*
X248055112Y-63637636D01*
X248147412Y-63499500D01*
X248210989Y-63346011D01*
X248243400Y-63183068D01*
X248243400Y-63016932D01*
X248210989Y-62853989D01*
X248206356Y-62842804D01*
X248147415Y-62700506D01*
X248147408Y-62700493D01*
X248055112Y-62562364D01*
X248055109Y-62562360D01*
X247937639Y-62444890D01*
X247937635Y-62444887D01*
X247799506Y-62352591D01*
X247799493Y-62352584D01*
X247646015Y-62289012D01*
X247646003Y-62289009D01*
X247483072Y-62256600D01*
X247483068Y-62256600D01*
X247316932Y-62256600D01*
X247316927Y-62256600D01*
X247148014Y-62290199D01*
X247147543Y-62287833D01*
X247088312Y-62288357D01*
X247029203Y-62251104D01*
X246999721Y-62188473D01*
X246973403Y-62022304D01*
X246973402Y-62022302D01*
X246973402Y-62022299D01*
X246925663Y-61875375D01*
X251298500Y-61875375D01*
X251298500Y-62124624D01*
X251298501Y-62124641D01*
X251331034Y-62371756D01*
X251395549Y-62612529D01*
X251490931Y-62842804D01*
X251490938Y-62842819D01*
X251615567Y-63058683D01*
X251767307Y-63256434D01*
X251767313Y-63256441D01*
X251943558Y-63432686D01*
X251943565Y-63432692D01*
X252141316Y-63584432D01*
X252357180Y-63709061D01*
X252357195Y-63709068D01*
X252456435Y-63750174D01*
X252587471Y-63804451D01*
X252828240Y-63868965D01*
X253075369Y-63901500D01*
X253075376Y-63901500D01*
X253324624Y-63901500D01*
X253324631Y-63901500D01*
X253571760Y-63868965D01*
X253812529Y-63804451D01*
X254042816Y-63709063D01*
X254258684Y-63584432D01*
X254456436Y-63432691D01*
X254632691Y-63256436D01*
X254784432Y-63058684D01*
X254909063Y-62842816D01*
X255004451Y-62612529D01*
X255068965Y-62371760D01*
X255101500Y-62124631D01*
X255101500Y-61875369D01*
X255068965Y-61628240D01*
X255004451Y-61387471D01*
X254909063Y-61157184D01*
X254784432Y-60941316D01*
X254686280Y-60813402D01*
X254632692Y-60743565D01*
X254632686Y-60743558D01*
X254456441Y-60567313D01*
X254456434Y-60567307D01*
X254258683Y-60415567D01*
X254042819Y-60290938D01*
X254042804Y-60290931D01*
X253812529Y-60195549D01*
X253571756Y-60131034D01*
X253324641Y-60098501D01*
X253324636Y-60098500D01*
X253324631Y-60098500D01*
X253075369Y-60098500D01*
X253075363Y-60098500D01*
X253075358Y-60098501D01*
X252828243Y-60131034D01*
X252587470Y-60195549D01*
X252357195Y-60290931D01*
X252357180Y-60290938D01*
X252141316Y-60415567D01*
X251943565Y-60567307D01*
X251943558Y-60567313D01*
X251767313Y-60743558D01*
X251767307Y-60743565D01*
X251615567Y-60941316D01*
X251490938Y-61157180D01*
X251490931Y-61157195D01*
X251395549Y-61387470D01*
X251331034Y-61628243D01*
X251298501Y-61875358D01*
X251298500Y-61875375D01*
X246925663Y-61875375D01*
X246919873Y-61857555D01*
X246841232Y-61703212D01*
X246739414Y-61563072D01*
X246616928Y-61440586D01*
X246476788Y-61338768D01*
X246322445Y-61260127D01*
X246157701Y-61206598D01*
X246157699Y-61206597D01*
X246157698Y-61206597D01*
X246026271Y-61185781D01*
X245986611Y-61179500D01*
X245013389Y-61179500D01*
X244973728Y-61185781D01*
X244842302Y-61206597D01*
X244677552Y-61260128D01*
X244523211Y-61338768D01*
X244456180Y-61387470D01*
X244383072Y-61440586D01*
X244383070Y-61440588D01*
X244383069Y-61440588D01*
X244260588Y-61563069D01*
X244260588Y-61563070D01*
X244260586Y-61563072D01*
X244216859Y-61623256D01*
X244158768Y-61703211D01*
X244080128Y-61857552D01*
X244026597Y-62022302D01*
X244000279Y-62188473D01*
X243999500Y-62193389D01*
X224140500Y-62193389D01*
X224113402Y-62022299D01*
X224059873Y-61857555D01*
X223981232Y-61703212D01*
X223879414Y-61563072D01*
X223756928Y-61440586D01*
X223616788Y-61338768D01*
X223462445Y-61260127D01*
X223297701Y-61206598D01*
X223297699Y-61206597D01*
X223297698Y-61206597D01*
X223166271Y-61185781D01*
X223126611Y-61179500D01*
X222153389Y-61179500D01*
X222113728Y-61185781D01*
X221982302Y-61206597D01*
X221817552Y-61260128D01*
X221663211Y-61338768D01*
X221596180Y-61387470D01*
X221523072Y-61440586D01*
X221523070Y-61440588D01*
X221523069Y-61440588D01*
X221400588Y-61563069D01*
X221400588Y-61563070D01*
X221400586Y-61563072D01*
X221356859Y-61623256D01*
X221298768Y-61703211D01*
X221220128Y-61857552D01*
X221166597Y-62022302D01*
X221140279Y-62188473D01*
X221139500Y-62193389D01*
X207800500Y-62193389D01*
X207800500Y-59653389D01*
X221139500Y-59653389D01*
X221139500Y-59826611D01*
X221166598Y-59997701D01*
X221220127Y-60162445D01*
X221298768Y-60316788D01*
X221400586Y-60456928D01*
X221523072Y-60579414D01*
X221663212Y-60681232D01*
X221817555Y-60759873D01*
X221982299Y-60813402D01*
X222153389Y-60840500D01*
X222153390Y-60840500D01*
X223126610Y-60840500D01*
X223126611Y-60840500D01*
X223297701Y-60813402D01*
X223462445Y-60759873D01*
X223616788Y-60681232D01*
X223756928Y-60579414D01*
X223879414Y-60456928D01*
X223981232Y-60316788D01*
X224059873Y-60162445D01*
X224113402Y-59997701D01*
X224140500Y-59826611D01*
X224140500Y-59653389D01*
X243999500Y-59653389D01*
X243999500Y-59826611D01*
X244026598Y-59997701D01*
X244080127Y-60162445D01*
X244158768Y-60316788D01*
X244260586Y-60456928D01*
X244383072Y-60579414D01*
X244523212Y-60681232D01*
X244677555Y-60759873D01*
X244842299Y-60813402D01*
X245013389Y-60840500D01*
X245013390Y-60840500D01*
X245986610Y-60840500D01*
X245986611Y-60840500D01*
X246157701Y-60813402D01*
X246322445Y-60759873D01*
X246476788Y-60681232D01*
X246616928Y-60579414D01*
X246739414Y-60456928D01*
X246841232Y-60316788D01*
X246919873Y-60162445D01*
X246973402Y-59997701D01*
X247000500Y-59826611D01*
X247000500Y-59653389D01*
X246973402Y-59482299D01*
X246919873Y-59317555D01*
X246841232Y-59163212D01*
X246739414Y-59023072D01*
X246616928Y-58900586D01*
X246476788Y-58798768D01*
X246322445Y-58720127D01*
X246157701Y-58666598D01*
X246157699Y-58666597D01*
X246157698Y-58666597D01*
X246026271Y-58645781D01*
X245986611Y-58639500D01*
X245013389Y-58639500D01*
X244973728Y-58645781D01*
X244842302Y-58666597D01*
X244677552Y-58720128D01*
X244523211Y-58798768D01*
X244443256Y-58856859D01*
X244383072Y-58900586D01*
X244383070Y-58900588D01*
X244383069Y-58900588D01*
X244260588Y-59023069D01*
X244260588Y-59023070D01*
X244260586Y-59023072D01*
X244216859Y-59083256D01*
X244158768Y-59163211D01*
X244080128Y-59317552D01*
X244026597Y-59482302D01*
X243999500Y-59653389D01*
X224140500Y-59653389D01*
X224113402Y-59482299D01*
X224059873Y-59317555D01*
X223981232Y-59163212D01*
X223879414Y-59023072D01*
X223756928Y-58900586D01*
X223616788Y-58798768D01*
X223462445Y-58720127D01*
X223297701Y-58666598D01*
X223297699Y-58666597D01*
X223297698Y-58666597D01*
X223166271Y-58645781D01*
X223126611Y-58639500D01*
X222153389Y-58639500D01*
X222113728Y-58645781D01*
X221982302Y-58666597D01*
X221817552Y-58720128D01*
X221663211Y-58798768D01*
X221583256Y-58856859D01*
X221523072Y-58900586D01*
X221523070Y-58900588D01*
X221523069Y-58900588D01*
X221400588Y-59023069D01*
X221400588Y-59023070D01*
X221400586Y-59023072D01*
X221356859Y-59083256D01*
X221298768Y-59163211D01*
X221220128Y-59317552D01*
X221166597Y-59482302D01*
X221139500Y-59653389D01*
X207800500Y-59653389D01*
X207800500Y-56916927D01*
X213056600Y-56916927D01*
X213056600Y-57083072D01*
X213089009Y-57246003D01*
X213089012Y-57246015D01*
X213152584Y-57399493D01*
X213152591Y-57399506D01*
X213244887Y-57537635D01*
X213244890Y-57537639D01*
X213362360Y-57655109D01*
X213362364Y-57655112D01*
X213500493Y-57747408D01*
X213500506Y-57747415D01*
X213653984Y-57810987D01*
X213653989Y-57810989D01*
X213816927Y-57843399D01*
X213816931Y-57843400D01*
X213816932Y-57843400D01*
X213983069Y-57843400D01*
X213983070Y-57843399D01*
X214146011Y-57810989D01*
X214299500Y-57747412D01*
X214437636Y-57655112D01*
X214555112Y-57537636D01*
X214647412Y-57399500D01*
X214710989Y-57246011D01*
X214737369Y-57113389D01*
X221139500Y-57113389D01*
X221139500Y-57286611D01*
X221166598Y-57457701D01*
X221220127Y-57622445D01*
X221298768Y-57776788D01*
X221400586Y-57916928D01*
X221523072Y-58039414D01*
X221663212Y-58141232D01*
X221817555Y-58219873D01*
X221982299Y-58273402D01*
X222153389Y-58300500D01*
X222153390Y-58300500D01*
X223126610Y-58300500D01*
X223126611Y-58300500D01*
X223297701Y-58273402D01*
X223462445Y-58219873D01*
X223616788Y-58141232D01*
X223756928Y-58039414D01*
X223879414Y-57916928D01*
X223981232Y-57776788D01*
X224059873Y-57622445D01*
X224113402Y-57457701D01*
X224140500Y-57286611D01*
X224140500Y-57113389D01*
X243999500Y-57113389D01*
X243999500Y-57286611D01*
X244026598Y-57457701D01*
X244080127Y-57622445D01*
X244158768Y-57776788D01*
X244260586Y-57916928D01*
X244383072Y-58039414D01*
X244523212Y-58141232D01*
X244677555Y-58219873D01*
X244842299Y-58273402D01*
X245013389Y-58300500D01*
X245013390Y-58300500D01*
X245986610Y-58300500D01*
X245986611Y-58300500D01*
X246157701Y-58273402D01*
X246322445Y-58219873D01*
X246476788Y-58141232D01*
X246616928Y-58039414D01*
X246739414Y-57916928D01*
X246841232Y-57776788D01*
X246919873Y-57622445D01*
X246973402Y-57457701D01*
X247000500Y-57286611D01*
X247000500Y-57113389D01*
X246973402Y-56942299D01*
X246919873Y-56777555D01*
X246841232Y-56623212D01*
X246739414Y-56483072D01*
X246616928Y-56360586D01*
X246476788Y-56258768D01*
X246322445Y-56180127D01*
X246157701Y-56126598D01*
X246157699Y-56126597D01*
X246157698Y-56126597D01*
X246026271Y-56105781D01*
X245986611Y-56099500D01*
X245013389Y-56099500D01*
X244973728Y-56105781D01*
X244842302Y-56126597D01*
X244677552Y-56180128D01*
X244523211Y-56258768D01*
X244443256Y-56316859D01*
X244383072Y-56360586D01*
X244383070Y-56360588D01*
X244383069Y-56360588D01*
X244260588Y-56483069D01*
X244260588Y-56483070D01*
X244260586Y-56483072D01*
X244216859Y-56543256D01*
X244158768Y-56623211D01*
X244080128Y-56777552D01*
X244026597Y-56942302D01*
X244004303Y-57083064D01*
X243999500Y-57113389D01*
X224140500Y-57113389D01*
X224113402Y-56942299D01*
X224059873Y-56777555D01*
X223981232Y-56623212D01*
X223879414Y-56483072D01*
X223756928Y-56360586D01*
X223616788Y-56258768D01*
X223462445Y-56180127D01*
X223297701Y-56126598D01*
X223297699Y-56126597D01*
X223297698Y-56126597D01*
X223166271Y-56105781D01*
X223126611Y-56099500D01*
X222153389Y-56099500D01*
X222113728Y-56105781D01*
X221982302Y-56126597D01*
X221817552Y-56180128D01*
X221663211Y-56258768D01*
X221583256Y-56316859D01*
X221523072Y-56360586D01*
X221523070Y-56360588D01*
X221523069Y-56360588D01*
X221400588Y-56483069D01*
X221400588Y-56483070D01*
X221400586Y-56483072D01*
X221356859Y-56543256D01*
X221298768Y-56623211D01*
X221220128Y-56777552D01*
X221166597Y-56942302D01*
X221144303Y-57083064D01*
X221139500Y-57113389D01*
X214737369Y-57113389D01*
X214743400Y-57083068D01*
X214743400Y-56916932D01*
X214710989Y-56753989D01*
X214656820Y-56623212D01*
X214647415Y-56600506D01*
X214647408Y-56600493D01*
X214555112Y-56462364D01*
X214555109Y-56462360D01*
X214437639Y-56344890D01*
X214437635Y-56344887D01*
X214299506Y-56252591D01*
X214299493Y-56252584D01*
X214146015Y-56189012D01*
X214146003Y-56189009D01*
X213983072Y-56156600D01*
X213983068Y-56156600D01*
X213816932Y-56156600D01*
X213816927Y-56156600D01*
X213653996Y-56189009D01*
X213653984Y-56189012D01*
X213500506Y-56252584D01*
X213500493Y-56252591D01*
X213362364Y-56344887D01*
X213362360Y-56344890D01*
X213244890Y-56462360D01*
X213244887Y-56462364D01*
X213152591Y-56600493D01*
X213152584Y-56600506D01*
X213089012Y-56753984D01*
X213089009Y-56753996D01*
X213056600Y-56916927D01*
X207800500Y-56916927D01*
X207800500Y-54573389D01*
X221139500Y-54573389D01*
X221139500Y-54746611D01*
X221166598Y-54917701D01*
X221220127Y-55082445D01*
X221298768Y-55236788D01*
X221400586Y-55376928D01*
X221523072Y-55499414D01*
X221663212Y-55601232D01*
X221817555Y-55679873D01*
X221982299Y-55733402D01*
X222153389Y-55760500D01*
X222153390Y-55760500D01*
X223126610Y-55760500D01*
X223126611Y-55760500D01*
X223297701Y-55733402D01*
X223462445Y-55679873D01*
X223616788Y-55601232D01*
X223756928Y-55499414D01*
X223879414Y-55376928D01*
X223981232Y-55236788D01*
X224059873Y-55082445D01*
X224113402Y-54917701D01*
X224140500Y-54746611D01*
X224140500Y-54573389D01*
X243999500Y-54573389D01*
X243999500Y-54746611D01*
X244026598Y-54917701D01*
X244080127Y-55082445D01*
X244158768Y-55236788D01*
X244260586Y-55376928D01*
X244383072Y-55499414D01*
X244523212Y-55601232D01*
X244677555Y-55679873D01*
X244842299Y-55733402D01*
X245013389Y-55760500D01*
X245013390Y-55760500D01*
X245986610Y-55760500D01*
X245986611Y-55760500D01*
X246157701Y-55733402D01*
X246322445Y-55679873D01*
X246476788Y-55601232D01*
X246616928Y-55499414D01*
X246739414Y-55376928D01*
X246841232Y-55236788D01*
X246919873Y-55082445D01*
X246964002Y-54946632D01*
X250680200Y-54946632D01*
X250680200Y-55143365D01*
X250710973Y-55337661D01*
X250771766Y-55524760D01*
X250810731Y-55601232D01*
X250861075Y-55700037D01*
X250976706Y-55859189D01*
X251115810Y-55998293D01*
X251274962Y-56113924D01*
X251357774Y-56156119D01*
X251450238Y-56203232D01*
X251450240Y-56203232D01*
X251450243Y-56203234D01*
X251550530Y-56235819D01*
X251637337Y-56264025D01*
X251831634Y-56294799D01*
X251831639Y-56294799D01*
X252028366Y-56294799D01*
X252222662Y-56264025D01*
X252257861Y-56252588D01*
X252409757Y-56203234D01*
X252585038Y-56113924D01*
X252744190Y-55998293D01*
X252883294Y-55859189D01*
X252998925Y-55700037D01*
X253088235Y-55524756D01*
X253149026Y-55337661D01*
X253165003Y-55236788D01*
X253179800Y-55143365D01*
X253179800Y-54946632D01*
X253149026Y-54752336D01*
X253088233Y-54565237D01*
X253005213Y-54402302D01*
X252998925Y-54389961D01*
X252883294Y-54230809D01*
X252744190Y-54091705D01*
X252585038Y-53976074D01*
X252409761Y-53886765D01*
X252222662Y-53825972D01*
X252028366Y-53795199D01*
X252028361Y-53795199D01*
X251831639Y-53795199D01*
X251831634Y-53795199D01*
X251637337Y-53825972D01*
X251450238Y-53886765D01*
X251274961Y-53976074D01*
X251184159Y-54042046D01*
X251115810Y-54091705D01*
X251115808Y-54091707D01*
X251115807Y-54091707D01*
X250976708Y-54230806D01*
X250976708Y-54230807D01*
X250976706Y-54230809D01*
X250971807Y-54237552D01*
X250861075Y-54389960D01*
X250771766Y-54565237D01*
X250710973Y-54752336D01*
X250680200Y-54946632D01*
X246964002Y-54946632D01*
X246973402Y-54917701D01*
X247000500Y-54746611D01*
X247000500Y-54573389D01*
X246973402Y-54402299D01*
X246919873Y-54237555D01*
X246841232Y-54083212D01*
X246739414Y-53943072D01*
X246616928Y-53820586D01*
X246476788Y-53718768D01*
X246322445Y-53640127D01*
X246157701Y-53586598D01*
X246157699Y-53586597D01*
X246157698Y-53586597D01*
X246000103Y-53561637D01*
X246000065Y-53561631D01*
X253220200Y-53561631D01*
X253220200Y-53758364D01*
X253250973Y-53952660D01*
X253311766Y-54139759D01*
X253401075Y-54315036D01*
X253516706Y-54474188D01*
X253655810Y-54613292D01*
X253814962Y-54728923D01*
X253849675Y-54746610D01*
X253990238Y-54818231D01*
X253990240Y-54818231D01*
X253990243Y-54818233D01*
X254090530Y-54850818D01*
X254177337Y-54879024D01*
X254371634Y-54909798D01*
X254371639Y-54909798D01*
X254568366Y-54909798D01*
X254762662Y-54879024D01*
X254949757Y-54818233D01*
X255125038Y-54728923D01*
X255284190Y-54613292D01*
X255423294Y-54474188D01*
X255538925Y-54315036D01*
X255628235Y-54139755D01*
X255689026Y-53952660D01*
X255699463Y-53886764D01*
X255719800Y-53758364D01*
X255719800Y-53561631D01*
X255689026Y-53367335D01*
X255628233Y-53180236D01*
X255538924Y-53004959D01*
X255423294Y-52845808D01*
X255284190Y-52706704D01*
X255125038Y-52591073D01*
X254949761Y-52501764D01*
X254762662Y-52440971D01*
X254568366Y-52410198D01*
X254568361Y-52410198D01*
X254371639Y-52410198D01*
X254371634Y-52410198D01*
X254177337Y-52440971D01*
X253990238Y-52501764D01*
X253814961Y-52591073D01*
X253724159Y-52657045D01*
X253655810Y-52706704D01*
X253655808Y-52706706D01*
X253655807Y-52706706D01*
X253516708Y-52845805D01*
X253516708Y-52845806D01*
X253516706Y-52845808D01*
X253467047Y-52914157D01*
X253401075Y-53004959D01*
X253311766Y-53180236D01*
X253250973Y-53367335D01*
X253220200Y-53561631D01*
X246000065Y-53561631D01*
X245986611Y-53559500D01*
X245013389Y-53559500D01*
X244999897Y-53561637D01*
X244842302Y-53586597D01*
X244677552Y-53640128D01*
X244523211Y-53718768D01*
X244468720Y-53758359D01*
X244383072Y-53820586D01*
X244383070Y-53820588D01*
X244383069Y-53820588D01*
X244260588Y-53943069D01*
X244260588Y-53943070D01*
X244260586Y-53943072D01*
X244253620Y-53952660D01*
X244158768Y-54083211D01*
X244080128Y-54237552D01*
X244026597Y-54402302D01*
X244000791Y-54565237D01*
X243999500Y-54573389D01*
X224140500Y-54573389D01*
X224113402Y-54402299D01*
X224059873Y-54237555D01*
X223981232Y-54083212D01*
X223879414Y-53943072D01*
X223756928Y-53820586D01*
X223616788Y-53718768D01*
X223462445Y-53640127D01*
X223297701Y-53586598D01*
X223297699Y-53586597D01*
X223297698Y-53586597D01*
X223140103Y-53561637D01*
X223126611Y-53559500D01*
X222153389Y-53559500D01*
X222139897Y-53561637D01*
X221982302Y-53586597D01*
X221817552Y-53640128D01*
X221663211Y-53718768D01*
X221608720Y-53758359D01*
X221523072Y-53820586D01*
X221523070Y-53820588D01*
X221523069Y-53820588D01*
X221400588Y-53943069D01*
X221400588Y-53943070D01*
X221400586Y-53943072D01*
X221393620Y-53952660D01*
X221298768Y-54083211D01*
X221220128Y-54237552D01*
X221166597Y-54402302D01*
X221140791Y-54565237D01*
X221139500Y-54573389D01*
X207800500Y-54573389D01*
X207800500Y-52033389D01*
X221139500Y-52033389D01*
X221139500Y-52206610D01*
X221165910Y-52373361D01*
X221166598Y-52377701D01*
X221220127Y-52542445D01*
X221298768Y-52696788D01*
X221400586Y-52836928D01*
X221523072Y-52959414D01*
X221663212Y-53061232D01*
X221817555Y-53139873D01*
X221982299Y-53193402D01*
X222153389Y-53220500D01*
X222153390Y-53220500D01*
X223126610Y-53220500D01*
X223126611Y-53220500D01*
X223297701Y-53193402D01*
X223462445Y-53139873D01*
X223616788Y-53061232D01*
X223756928Y-52959414D01*
X223879414Y-52836928D01*
X223981232Y-52696788D01*
X224059873Y-52542445D01*
X224113402Y-52377701D01*
X224140500Y-52206611D01*
X224140500Y-52033389D01*
X243999500Y-52033389D01*
X243999500Y-52206610D01*
X244025910Y-52373361D01*
X244026598Y-52377701D01*
X244080127Y-52542445D01*
X244158768Y-52696788D01*
X244260586Y-52836928D01*
X244383072Y-52959414D01*
X244523212Y-53061232D01*
X244677555Y-53139873D01*
X244842299Y-53193402D01*
X245013389Y-53220500D01*
X245013390Y-53220500D01*
X245986610Y-53220500D01*
X245986611Y-53220500D01*
X246157701Y-53193402D01*
X246322445Y-53139873D01*
X246476788Y-53061232D01*
X246616928Y-52959414D01*
X246739414Y-52836928D01*
X246841232Y-52696788D01*
X246919873Y-52542445D01*
X246973402Y-52377701D01*
X247000500Y-52206611D01*
X247000500Y-52176633D01*
X250680200Y-52176633D01*
X250680200Y-52373366D01*
X250710973Y-52567662D01*
X250771766Y-52754761D01*
X250861075Y-52930038D01*
X250976706Y-53089190D01*
X251115810Y-53228294D01*
X251274962Y-53343925D01*
X251320907Y-53367335D01*
X251450238Y-53433233D01*
X251450240Y-53433233D01*
X251450243Y-53433235D01*
X251550530Y-53465820D01*
X251637337Y-53494026D01*
X251831634Y-53524800D01*
X251831639Y-53524800D01*
X252028366Y-53524800D01*
X252222662Y-53494026D01*
X252409757Y-53433235D01*
X252585038Y-53343925D01*
X252744190Y-53228294D01*
X252883294Y-53089190D01*
X252998925Y-52930038D01*
X253088235Y-52754757D01*
X253149026Y-52567662D01*
X253159463Y-52501764D01*
X253179800Y-52373366D01*
X253179800Y-52176633D01*
X253149026Y-51982337D01*
X253088233Y-51795238D01*
X252998924Y-51619961D01*
X252883294Y-51460810D01*
X252744190Y-51321706D01*
X252585038Y-51206075D01*
X252409761Y-51116766D01*
X252222662Y-51055973D01*
X252028366Y-51025200D01*
X252028361Y-51025200D01*
X251831639Y-51025200D01*
X251831634Y-51025200D01*
X251637337Y-51055973D01*
X251450238Y-51116766D01*
X251274961Y-51206075D01*
X251184159Y-51272047D01*
X251115810Y-51321706D01*
X251115808Y-51321708D01*
X251115807Y-51321708D01*
X250976708Y-51460807D01*
X250976708Y-51460808D01*
X250976706Y-51460810D01*
X250927047Y-51529159D01*
X250861075Y-51619961D01*
X250771766Y-51795238D01*
X250710973Y-51982337D01*
X250680200Y-52176633D01*
X247000500Y-52176633D01*
X247000500Y-52033389D01*
X246973402Y-51862299D01*
X246919873Y-51697555D01*
X246841232Y-51543212D01*
X246739414Y-51403072D01*
X246616928Y-51280586D01*
X246476788Y-51178768D01*
X246322445Y-51100127D01*
X246157701Y-51046598D01*
X246157699Y-51046597D01*
X246157698Y-51046597D01*
X246022599Y-51025200D01*
X245986611Y-51019500D01*
X245013389Y-51019500D01*
X244977401Y-51025200D01*
X244842302Y-51046597D01*
X244677552Y-51100128D01*
X244523211Y-51178768D01*
X244485627Y-51206075D01*
X244383072Y-51280586D01*
X244383070Y-51280588D01*
X244383069Y-51280588D01*
X244260588Y-51403069D01*
X244260588Y-51403070D01*
X244260586Y-51403072D01*
X244218639Y-51460807D01*
X244158768Y-51543211D01*
X244080128Y-51697552D01*
X244026597Y-51862302D01*
X243999500Y-52033389D01*
X224140500Y-52033389D01*
X224113402Y-51862299D01*
X224059873Y-51697555D01*
X223981232Y-51543212D01*
X223879414Y-51403072D01*
X223756928Y-51280586D01*
X223616788Y-51178768D01*
X223462445Y-51100127D01*
X223297701Y-51046598D01*
X223297699Y-51046597D01*
X223297698Y-51046597D01*
X223162599Y-51025200D01*
X223126611Y-51019500D01*
X222153389Y-51019500D01*
X222117401Y-51025200D01*
X221982302Y-51046597D01*
X221817552Y-51100128D01*
X221663211Y-51178768D01*
X221625627Y-51206075D01*
X221523072Y-51280586D01*
X221523070Y-51280588D01*
X221523069Y-51280588D01*
X221400588Y-51403069D01*
X221400588Y-51403070D01*
X221400586Y-51403072D01*
X221358639Y-51460807D01*
X221298768Y-51543211D01*
X221220128Y-51697552D01*
X221166597Y-51862302D01*
X221139500Y-52033389D01*
X207800500Y-52033389D01*
X207800500Y-50791632D01*
X253220200Y-50791632D01*
X253220200Y-50988365D01*
X253250973Y-51182661D01*
X253311766Y-51369760D01*
X253358158Y-51460808D01*
X253401075Y-51545037D01*
X253516706Y-51704189D01*
X253655810Y-51843293D01*
X253814962Y-51958924D01*
X253860913Y-51982337D01*
X253990238Y-52048232D01*
X253990240Y-52048232D01*
X253990243Y-52048234D01*
X254090530Y-52080819D01*
X254177337Y-52109025D01*
X254371634Y-52139799D01*
X254371639Y-52139799D01*
X254568366Y-52139799D01*
X254762662Y-52109025D01*
X254949757Y-52048234D01*
X255125038Y-51958924D01*
X255284190Y-51843293D01*
X255423294Y-51704189D01*
X255538925Y-51545037D01*
X255628235Y-51369756D01*
X255689026Y-51182661D01*
X255702098Y-51100127D01*
X255719800Y-50988365D01*
X255719800Y-50791632D01*
X255689026Y-50597336D01*
X255628233Y-50410237D01*
X255570499Y-50296928D01*
X255538925Y-50234961D01*
X255423294Y-50075809D01*
X255284190Y-49936705D01*
X255125038Y-49821074D01*
X254949761Y-49731765D01*
X254762662Y-49670972D01*
X254568366Y-49640199D01*
X254568361Y-49640199D01*
X254371639Y-49640199D01*
X254371634Y-49640199D01*
X254177337Y-49670972D01*
X253990238Y-49731765D01*
X253814961Y-49821074D01*
X253724159Y-49887046D01*
X253655810Y-49936705D01*
X253655808Y-49936707D01*
X253655807Y-49936707D01*
X253516708Y-50075806D01*
X253516708Y-50075807D01*
X253516706Y-50075809D01*
X253467047Y-50144158D01*
X253401075Y-50234960D01*
X253311766Y-50410237D01*
X253250973Y-50597336D01*
X253220200Y-50791632D01*
X207800500Y-50791632D01*
X207800500Y-49416927D01*
X213056600Y-49416927D01*
X213056600Y-49583072D01*
X213089009Y-49746003D01*
X213089012Y-49746015D01*
X213152584Y-49899493D01*
X213152591Y-49899506D01*
X213244887Y-50037635D01*
X213244890Y-50037639D01*
X213362360Y-50155109D01*
X213362364Y-50155112D01*
X213500493Y-50247408D01*
X213500506Y-50247415D01*
X213620045Y-50296929D01*
X213653989Y-50310989D01*
X213816927Y-50343399D01*
X213816931Y-50343400D01*
X213816932Y-50343400D01*
X213983069Y-50343400D01*
X213983070Y-50343399D01*
X214146011Y-50310989D01*
X214299500Y-50247412D01*
X214437636Y-50155112D01*
X214555112Y-50037636D01*
X214647412Y-49899500D01*
X214710989Y-49746011D01*
X214743400Y-49583068D01*
X214743400Y-49493389D01*
X221139500Y-49493389D01*
X221139500Y-49666610D01*
X221163964Y-49821074D01*
X221166598Y-49837701D01*
X221220127Y-50002445D01*
X221298768Y-50156788D01*
X221400586Y-50296928D01*
X221523072Y-50419414D01*
X221663212Y-50521232D01*
X221817555Y-50599873D01*
X221982299Y-50653402D01*
X222153389Y-50680500D01*
X222153390Y-50680500D01*
X223126610Y-50680500D01*
X223126611Y-50680500D01*
X223297701Y-50653402D01*
X223462445Y-50599873D01*
X223616788Y-50521232D01*
X223756928Y-50419414D01*
X223879414Y-50296928D01*
X223981232Y-50156788D01*
X224059873Y-50002445D01*
X224113402Y-49837701D01*
X224140500Y-49666611D01*
X224140500Y-49493389D01*
X243999500Y-49493389D01*
X243999500Y-49666610D01*
X244023964Y-49821074D01*
X244026598Y-49837701D01*
X244080127Y-50002445D01*
X244158768Y-50156788D01*
X244260586Y-50296928D01*
X244383072Y-50419414D01*
X244523212Y-50521232D01*
X244677555Y-50599873D01*
X244842299Y-50653402D01*
X245013389Y-50680500D01*
X245013390Y-50680500D01*
X245986610Y-50680500D01*
X245986611Y-50680500D01*
X246157701Y-50653402D01*
X246322445Y-50599873D01*
X246476788Y-50521232D01*
X246616928Y-50419414D01*
X246739414Y-50296928D01*
X246841232Y-50156788D01*
X246919873Y-50002445D01*
X246973402Y-49837701D01*
X247000500Y-49666611D01*
X247000500Y-49493389D01*
X246988390Y-49416932D01*
X246986759Y-49406633D01*
X250680200Y-49406633D01*
X250680200Y-49603366D01*
X250710973Y-49797662D01*
X250771766Y-49984761D01*
X250818157Y-50075807D01*
X250861075Y-50160038D01*
X250976706Y-50319190D01*
X251115810Y-50458294D01*
X251274962Y-50573925D01*
X251320909Y-50597336D01*
X251450238Y-50663233D01*
X251450240Y-50663233D01*
X251450243Y-50663235D01*
X251550530Y-50695820D01*
X251637337Y-50724026D01*
X251831634Y-50754800D01*
X251831639Y-50754800D01*
X252028366Y-50754800D01*
X252222662Y-50724026D01*
X252409757Y-50663235D01*
X252585038Y-50573925D01*
X252744190Y-50458294D01*
X252883294Y-50319190D01*
X252998925Y-50160038D01*
X253088235Y-49984757D01*
X253149026Y-49797662D01*
X253159463Y-49731764D01*
X253179800Y-49603366D01*
X253179800Y-49406633D01*
X253149026Y-49212337D01*
X253112689Y-49100506D01*
X253088235Y-49025243D01*
X253088233Y-49025240D01*
X253088233Y-49025238D01*
X253041120Y-48932774D01*
X252998925Y-48849962D01*
X252883294Y-48690810D01*
X252744190Y-48551706D01*
X252585038Y-48436075D01*
X252409761Y-48346766D01*
X252222662Y-48285973D01*
X252028366Y-48255200D01*
X252028361Y-48255200D01*
X251831639Y-48255200D01*
X251831634Y-48255200D01*
X251637337Y-48285973D01*
X251450238Y-48346766D01*
X251274961Y-48436075D01*
X251184159Y-48502047D01*
X251115810Y-48551706D01*
X251115808Y-48551708D01*
X251115807Y-48551708D01*
X250976708Y-48690807D01*
X250976708Y-48690808D01*
X250976706Y-48690810D01*
X250940542Y-48740586D01*
X250861075Y-48849961D01*
X250771766Y-49025238D01*
X250710973Y-49212337D01*
X250680200Y-49406633D01*
X246986759Y-49406633D01*
X246973402Y-49322302D01*
X246973402Y-49322299D01*
X246919873Y-49157555D01*
X246841232Y-49003212D01*
X246739414Y-48863072D01*
X246616928Y-48740586D01*
X246476788Y-48638768D01*
X246322445Y-48560127D01*
X246157701Y-48506598D01*
X246157699Y-48506597D01*
X246157698Y-48506597D01*
X246026271Y-48485781D01*
X245986611Y-48479500D01*
X245013389Y-48479500D01*
X244973728Y-48485781D01*
X244842302Y-48506597D01*
X244677552Y-48560128D01*
X244523211Y-48638768D01*
X244443256Y-48696859D01*
X244383072Y-48740586D01*
X244383070Y-48740588D01*
X244383069Y-48740588D01*
X244260588Y-48863069D01*
X244260588Y-48863070D01*
X244260586Y-48863072D01*
X244216859Y-48923256D01*
X244158768Y-49003211D01*
X244080128Y-49157552D01*
X244026597Y-49322302D01*
X243999500Y-49493389D01*
X224140500Y-49493389D01*
X224113402Y-49322299D01*
X224059873Y-49157555D01*
X223981232Y-49003212D01*
X223879414Y-48863072D01*
X223756928Y-48740586D01*
X223616788Y-48638768D01*
X223462445Y-48560127D01*
X223297701Y-48506598D01*
X223297699Y-48506597D01*
X223297698Y-48506597D01*
X223166271Y-48485781D01*
X223126611Y-48479500D01*
X222153389Y-48479500D01*
X222113728Y-48485781D01*
X221982302Y-48506597D01*
X221817552Y-48560128D01*
X221663211Y-48638768D01*
X221583256Y-48696859D01*
X221523072Y-48740586D01*
X221523070Y-48740588D01*
X221523069Y-48740588D01*
X221400588Y-48863069D01*
X221400588Y-48863070D01*
X221400586Y-48863072D01*
X221356859Y-48923256D01*
X221298768Y-49003211D01*
X221220128Y-49157552D01*
X221166597Y-49322302D01*
X221139500Y-49493389D01*
X214743400Y-49493389D01*
X214743400Y-49416932D01*
X214710989Y-49253989D01*
X214693736Y-49212337D01*
X214647415Y-49100506D01*
X214647408Y-49100493D01*
X214555112Y-48962364D01*
X214555109Y-48962360D01*
X214437639Y-48844890D01*
X214437635Y-48844887D01*
X214299506Y-48752591D01*
X214299493Y-48752584D01*
X214146015Y-48689012D01*
X214146003Y-48689009D01*
X213983072Y-48656600D01*
X213983068Y-48656600D01*
X213816932Y-48656600D01*
X213816927Y-48656600D01*
X213653996Y-48689009D01*
X213653984Y-48689012D01*
X213500506Y-48752584D01*
X213500493Y-48752591D01*
X213362364Y-48844887D01*
X213362360Y-48844890D01*
X213244890Y-48962360D01*
X213244887Y-48962364D01*
X213152591Y-49100493D01*
X213152584Y-49100506D01*
X213089012Y-49253984D01*
X213089009Y-49253996D01*
X213056600Y-49416927D01*
X207800500Y-49416927D01*
X207800500Y-46789999D01*
X221165884Y-46789999D01*
X221165885Y-46790000D01*
X222324314Y-46790000D01*
X222319920Y-46794394D01*
X222267259Y-46885606D01*
X222240000Y-46987339D01*
X222240000Y-47092661D01*
X222267259Y-47194394D01*
X222319920Y-47285606D01*
X222324314Y-47290000D01*
X221165885Y-47290000D01*
X221167085Y-47297584D01*
X221220591Y-47462255D01*
X221299195Y-47616524D01*
X221400967Y-47756602D01*
X221523397Y-47879032D01*
X221663475Y-47980804D01*
X221817742Y-48059408D01*
X221982415Y-48112914D01*
X222153429Y-48140000D01*
X222390000Y-48140000D01*
X222390000Y-47355686D01*
X222394394Y-47360080D01*
X222485606Y-47412741D01*
X222587339Y-47440000D01*
X222692661Y-47440000D01*
X222794394Y-47412741D01*
X222885606Y-47360080D01*
X222890000Y-47355686D01*
X222890000Y-48140000D01*
X223126571Y-48140000D01*
X223297584Y-48112914D01*
X223462257Y-48059408D01*
X223616524Y-47980804D01*
X223756602Y-47879032D01*
X223879032Y-47756602D01*
X223980804Y-47616524D01*
X224059408Y-47462255D01*
X224112914Y-47297584D01*
X224114115Y-47290000D01*
X222955686Y-47290000D01*
X222960080Y-47285606D01*
X223012741Y-47194394D01*
X223040000Y-47092661D01*
X223040000Y-46987339D01*
X223030903Y-46953389D01*
X243999500Y-46953389D01*
X243999500Y-47126611D01*
X244026598Y-47297701D01*
X244080127Y-47462445D01*
X244158768Y-47616788D01*
X244260586Y-47756928D01*
X244383072Y-47879414D01*
X244523212Y-47981232D01*
X244677555Y-48059873D01*
X244842299Y-48113402D01*
X245013389Y-48140500D01*
X245013390Y-48140500D01*
X245986610Y-48140500D01*
X245986611Y-48140500D01*
X246157701Y-48113402D01*
X246322445Y-48059873D01*
X246397498Y-48021632D01*
X253220200Y-48021632D01*
X253220200Y-48218365D01*
X253250973Y-48412661D01*
X253311766Y-48599760D01*
X253358158Y-48690808D01*
X253401075Y-48775037D01*
X253516706Y-48934189D01*
X253655810Y-49073293D01*
X253814962Y-49188924D01*
X253860913Y-49212337D01*
X253990238Y-49278232D01*
X253990240Y-49278232D01*
X253990243Y-49278234D01*
X254090530Y-49310819D01*
X254177337Y-49339025D01*
X254371634Y-49369799D01*
X254371639Y-49369799D01*
X254568366Y-49369799D01*
X254762662Y-49339025D01*
X254949757Y-49278234D01*
X255125038Y-49188924D01*
X255284190Y-49073293D01*
X255423294Y-48934189D01*
X255538925Y-48775037D01*
X255628235Y-48599756D01*
X255689026Y-48412661D01*
X255699463Y-48346765D01*
X255719800Y-48218365D01*
X255719800Y-48021632D01*
X255689026Y-47827336D01*
X255628233Y-47640237D01*
X255538924Y-47464960D01*
X255536959Y-47462255D01*
X255423294Y-47305809D01*
X255284190Y-47166705D01*
X255125038Y-47051074D01*
X254949761Y-46961765D01*
X254762662Y-46900972D01*
X254568366Y-46870199D01*
X254568361Y-46870199D01*
X254371639Y-46870199D01*
X254371634Y-46870199D01*
X254177337Y-46900972D01*
X253990238Y-46961765D01*
X253814961Y-47051074D01*
X253724159Y-47117046D01*
X253655810Y-47166705D01*
X253655808Y-47166707D01*
X253655807Y-47166707D01*
X253516708Y-47305806D01*
X253516708Y-47305807D01*
X253516706Y-47305809D01*
X253477276Y-47360080D01*
X253401075Y-47464960D01*
X253311766Y-47640237D01*
X253250973Y-47827336D01*
X253220200Y-48021632D01*
X246397498Y-48021632D01*
X246476788Y-47981232D01*
X246616928Y-47879414D01*
X246739414Y-47756928D01*
X246841232Y-47616788D01*
X246919873Y-47462445D01*
X246973402Y-47297701D01*
X247000500Y-47126611D01*
X247000500Y-46953389D01*
X246973402Y-46782299D01*
X246926072Y-46636634D01*
X250680200Y-46636634D01*
X250680200Y-46833367D01*
X250710973Y-47027663D01*
X250771766Y-47214762D01*
X250845810Y-47360080D01*
X250861075Y-47390039D01*
X250976706Y-47549191D01*
X251115810Y-47688295D01*
X251274962Y-47803926D01*
X251320907Y-47827336D01*
X251450238Y-47893234D01*
X251450240Y-47893234D01*
X251450243Y-47893236D01*
X251550530Y-47925821D01*
X251637337Y-47954027D01*
X251831634Y-47984801D01*
X251831639Y-47984801D01*
X252028366Y-47984801D01*
X252222662Y-47954027D01*
X252409757Y-47893236D01*
X252585038Y-47803926D01*
X252744190Y-47688295D01*
X252883294Y-47549191D01*
X252998925Y-47390039D01*
X253088235Y-47214758D01*
X253149026Y-47027663D01*
X253159463Y-46961765D01*
X253179800Y-46833367D01*
X253179800Y-46636634D01*
X253149026Y-46442338D01*
X253088233Y-46255239D01*
X253008724Y-46099195D01*
X252998925Y-46079963D01*
X252883294Y-45920811D01*
X252744190Y-45781707D01*
X252585038Y-45666076D01*
X252409761Y-45576767D01*
X252222662Y-45515974D01*
X252028366Y-45485201D01*
X252028361Y-45485201D01*
X251831639Y-45485201D01*
X251831634Y-45485201D01*
X251637337Y-45515974D01*
X251450238Y-45576767D01*
X251274961Y-45666076D01*
X251184159Y-45732048D01*
X251115810Y-45781707D01*
X251115808Y-45781709D01*
X251115807Y-45781709D01*
X250976708Y-45920808D01*
X250976708Y-45920809D01*
X250976706Y-45920811D01*
X250943440Y-45966598D01*
X250861075Y-46079962D01*
X250771766Y-46255239D01*
X250710973Y-46442338D01*
X250680200Y-46636634D01*
X246926072Y-46636634D01*
X246919873Y-46617555D01*
X246841232Y-46463212D01*
X246739414Y-46323072D01*
X246616928Y-46200586D01*
X246476788Y-46098768D01*
X246322445Y-46020127D01*
X246157701Y-45966598D01*
X246157699Y-45966597D01*
X246157698Y-45966597D01*
X246026271Y-45945781D01*
X245986611Y-45939500D01*
X245013389Y-45939500D01*
X244973728Y-45945781D01*
X244842302Y-45966597D01*
X244677552Y-46020128D01*
X244523211Y-46098768D01*
X244443256Y-46156859D01*
X244383072Y-46200586D01*
X244383070Y-46200588D01*
X244383069Y-46200588D01*
X244260588Y-46323069D01*
X244260588Y-46323070D01*
X244260586Y-46323072D01*
X244260350Y-46323397D01*
X244158768Y-46463211D01*
X244080128Y-46617552D01*
X244026597Y-46782302D01*
X244012676Y-46870199D01*
X243999500Y-46953389D01*
X223030903Y-46953389D01*
X223012741Y-46885606D01*
X222960080Y-46794394D01*
X222955686Y-46790000D01*
X224114115Y-46790000D01*
X224114115Y-46789999D01*
X224112914Y-46782415D01*
X224059408Y-46617744D01*
X223980804Y-46463475D01*
X223879032Y-46323397D01*
X223756602Y-46200967D01*
X223616524Y-46099195D01*
X223462257Y-46020591D01*
X223297584Y-45967085D01*
X223126571Y-45940000D01*
X222890000Y-45940000D01*
X222890000Y-46724314D01*
X222885606Y-46719920D01*
X222794394Y-46667259D01*
X222692661Y-46640000D01*
X222587339Y-46640000D01*
X222485606Y-46667259D01*
X222394394Y-46719920D01*
X222390000Y-46724314D01*
X222390000Y-45940000D01*
X222153429Y-45940000D01*
X221982415Y-45967085D01*
X221817742Y-46020591D01*
X221663475Y-46099195D01*
X221523397Y-46200967D01*
X221400967Y-46323397D01*
X221299195Y-46463475D01*
X221220591Y-46617744D01*
X221167085Y-46782415D01*
X221165884Y-46789999D01*
X207800500Y-46789999D01*
X207800500Y-43852155D01*
X221140000Y-43852155D01*
X221140000Y-44250000D01*
X222324314Y-44250000D01*
X222319920Y-44254394D01*
X222267259Y-44345606D01*
X222240000Y-44447339D01*
X222240000Y-44552661D01*
X222267259Y-44654394D01*
X222319920Y-44745606D01*
X222324314Y-44750000D01*
X221140000Y-44750000D01*
X221140000Y-45147844D01*
X221146401Y-45207372D01*
X221146403Y-45207379D01*
X221196645Y-45342086D01*
X221196649Y-45342093D01*
X221282809Y-45457187D01*
X221282812Y-45457190D01*
X221397906Y-45543350D01*
X221397913Y-45543354D01*
X221532620Y-45593596D01*
X221532627Y-45593598D01*
X221592155Y-45599999D01*
X221592172Y-45600000D01*
X222390000Y-45600000D01*
X222390000Y-44815686D01*
X222394394Y-44820080D01*
X222485606Y-44872741D01*
X222587339Y-44900000D01*
X222692661Y-44900000D01*
X222794394Y-44872741D01*
X222885606Y-44820080D01*
X222890000Y-44815686D01*
X222890000Y-45600000D01*
X223687828Y-45600000D01*
X223687844Y-45599999D01*
X223747372Y-45593598D01*
X223747379Y-45593596D01*
X223882086Y-45543354D01*
X223882093Y-45543350D01*
X223997187Y-45457190D01*
X223997190Y-45457187D01*
X224083350Y-45342093D01*
X224083354Y-45342086D01*
X224133596Y-45207379D01*
X224133598Y-45207372D01*
X224139999Y-45147844D01*
X224140000Y-45147827D01*
X224140000Y-44750000D01*
X222955686Y-44750000D01*
X222960080Y-44745606D01*
X223012741Y-44654394D01*
X223040000Y-44552661D01*
X223040000Y-44447339D01*
X223030903Y-44413389D01*
X243999500Y-44413389D01*
X243999500Y-44586611D01*
X244026598Y-44757701D01*
X244080127Y-44922445D01*
X244158768Y-45076788D01*
X244260586Y-45216928D01*
X244383072Y-45339414D01*
X244523212Y-45441232D01*
X244677555Y-45519873D01*
X244842299Y-45573402D01*
X245013389Y-45600500D01*
X245013390Y-45600500D01*
X245986610Y-45600500D01*
X245986611Y-45600500D01*
X246157701Y-45573402D01*
X246322445Y-45519873D01*
X246476788Y-45441232D01*
X246616928Y-45339414D01*
X246704710Y-45251632D01*
X253220200Y-45251632D01*
X253220200Y-45448365D01*
X253250973Y-45642661D01*
X253311766Y-45829760D01*
X253401075Y-46005037D01*
X253516706Y-46164189D01*
X253655810Y-46303293D01*
X253814962Y-46418924D01*
X253860915Y-46442338D01*
X253990238Y-46508232D01*
X253990240Y-46508232D01*
X253990243Y-46508234D01*
X254090530Y-46540819D01*
X254177337Y-46569025D01*
X254371634Y-46599799D01*
X254371639Y-46599799D01*
X254568366Y-46599799D01*
X254762662Y-46569025D01*
X254949757Y-46508234D01*
X255125038Y-46418924D01*
X255284190Y-46303293D01*
X255423294Y-46164189D01*
X255538925Y-46005037D01*
X255628235Y-45829756D01*
X255689026Y-45642661D01*
X255696797Y-45593596D01*
X255719800Y-45448365D01*
X255719800Y-45251632D01*
X255689026Y-45057336D01*
X255628233Y-44870237D01*
X255581120Y-44777773D01*
X255538925Y-44694961D01*
X255423294Y-44535809D01*
X255284190Y-44396705D01*
X255125038Y-44281074D01*
X254949761Y-44191765D01*
X254762662Y-44130972D01*
X254568366Y-44100199D01*
X254568361Y-44100199D01*
X254371639Y-44100199D01*
X254371634Y-44100199D01*
X254177337Y-44130972D01*
X253990238Y-44191765D01*
X253814961Y-44281074D01*
X253726142Y-44345606D01*
X253655810Y-44396705D01*
X253655808Y-44396707D01*
X253655807Y-44396707D01*
X253516708Y-44535806D01*
X253516708Y-44535807D01*
X253516706Y-44535809D01*
X253479797Y-44586610D01*
X253401075Y-44694960D01*
X253311766Y-44870237D01*
X253250973Y-45057336D01*
X253220200Y-45251632D01*
X246704710Y-45251632D01*
X246739414Y-45216928D01*
X246841232Y-45076788D01*
X246919873Y-44922445D01*
X246973402Y-44757701D01*
X247000500Y-44586611D01*
X247000500Y-44413389D01*
X246973402Y-44242299D01*
X246919873Y-44077555D01*
X246841232Y-43923212D01*
X246800126Y-43866634D01*
X250680200Y-43866634D01*
X250680200Y-44063367D01*
X250710973Y-44257663D01*
X250771766Y-44444762D01*
X250861075Y-44620039D01*
X250976706Y-44779191D01*
X251115810Y-44918295D01*
X251274962Y-45033926D01*
X251320907Y-45057336D01*
X251450238Y-45123234D01*
X251450240Y-45123234D01*
X251450243Y-45123236D01*
X251550530Y-45155821D01*
X251637337Y-45184027D01*
X251831634Y-45214801D01*
X251831639Y-45214801D01*
X252028366Y-45214801D01*
X252222662Y-45184027D01*
X252409757Y-45123236D01*
X252585038Y-45033926D01*
X252744190Y-44918295D01*
X252883294Y-44779191D01*
X252998925Y-44620039D01*
X253088235Y-44444758D01*
X253149026Y-44257663D01*
X253159463Y-44191765D01*
X253179800Y-44063367D01*
X253179800Y-43866634D01*
X253149026Y-43672338D01*
X253088233Y-43485239D01*
X252998924Y-43309962D01*
X252883294Y-43150811D01*
X252744190Y-43011707D01*
X252585038Y-42896076D01*
X252409761Y-42806767D01*
X252222662Y-42745974D01*
X252028366Y-42715201D01*
X252028361Y-42715201D01*
X251831639Y-42715201D01*
X251831634Y-42715201D01*
X251637337Y-42745974D01*
X251450238Y-42806767D01*
X251274961Y-42896076D01*
X251184159Y-42962048D01*
X251115810Y-43011707D01*
X251115808Y-43011709D01*
X251115807Y-43011709D01*
X250976708Y-43150808D01*
X250976708Y-43150809D01*
X250976706Y-43150811D01*
X250927047Y-43219160D01*
X250861075Y-43309962D01*
X250771766Y-43485239D01*
X250710973Y-43672338D01*
X250680200Y-43866634D01*
X246800126Y-43866634D01*
X246739414Y-43783072D01*
X246616928Y-43660586D01*
X246476788Y-43558768D01*
X246322445Y-43480127D01*
X246157701Y-43426598D01*
X246157699Y-43426597D01*
X246157698Y-43426597D01*
X246026271Y-43405781D01*
X245986611Y-43399500D01*
X245013389Y-43399500D01*
X244973728Y-43405781D01*
X244842302Y-43426597D01*
X244677552Y-43480128D01*
X244523211Y-43558768D01*
X244443256Y-43616859D01*
X244383072Y-43660586D01*
X244383070Y-43660588D01*
X244383069Y-43660588D01*
X244260588Y-43783069D01*
X244260588Y-43783070D01*
X244260586Y-43783072D01*
X244253649Y-43792620D01*
X244158768Y-43923211D01*
X244080128Y-44077552D01*
X244026597Y-44242302D01*
X244010236Y-44345606D01*
X243999500Y-44413389D01*
X223030903Y-44413389D01*
X223012741Y-44345606D01*
X222960080Y-44254394D01*
X222955686Y-44250000D01*
X224140000Y-44250000D01*
X224140000Y-43852172D01*
X224139999Y-43852155D01*
X224133598Y-43792627D01*
X224133596Y-43792620D01*
X224083354Y-43657913D01*
X224083350Y-43657906D01*
X223997190Y-43542812D01*
X223997187Y-43542809D01*
X223882093Y-43456649D01*
X223882086Y-43456645D01*
X223747379Y-43406403D01*
X223747372Y-43406401D01*
X223687844Y-43400000D01*
X222890000Y-43400000D01*
X222890000Y-44184314D01*
X222885606Y-44179920D01*
X222794394Y-44127259D01*
X222692661Y-44100000D01*
X222587339Y-44100000D01*
X222485606Y-44127259D01*
X222394394Y-44179920D01*
X222390000Y-44184314D01*
X222390000Y-43400000D01*
X221592155Y-43400000D01*
X221532627Y-43406401D01*
X221532620Y-43406403D01*
X221397913Y-43456645D01*
X221397906Y-43456649D01*
X221282812Y-43542809D01*
X221282809Y-43542812D01*
X221196649Y-43657906D01*
X221196645Y-43657913D01*
X221146403Y-43792620D01*
X221146401Y-43792627D01*
X221140000Y-43852155D01*
X207800500Y-43852155D01*
X207800500Y-40016927D01*
X221656600Y-40016927D01*
X221656600Y-40183072D01*
X221689009Y-40346003D01*
X221689012Y-40346015D01*
X221752584Y-40499493D01*
X221752591Y-40499506D01*
X221844887Y-40637635D01*
X221844890Y-40637639D01*
X221962360Y-40755109D01*
X221962364Y-40755112D01*
X222100493Y-40847408D01*
X222100506Y-40847415D01*
X222253984Y-40910987D01*
X222253989Y-40910989D01*
X222416927Y-40943399D01*
X222416931Y-40943400D01*
X222416932Y-40943400D01*
X222583069Y-40943400D01*
X222583070Y-40943399D01*
X222746011Y-40910989D01*
X222899500Y-40847412D01*
X223037636Y-40755112D01*
X223155112Y-40637636D01*
X223247412Y-40499500D01*
X223310989Y-40346011D01*
X223343400Y-40183068D01*
X223343400Y-40016932D01*
X223310989Y-39853989D01*
X223310987Y-39853984D01*
X223247415Y-39700506D01*
X223247408Y-39700493D01*
X223155112Y-39562364D01*
X223155109Y-39562360D01*
X223037639Y-39444890D01*
X223037635Y-39444887D01*
X222899506Y-39352591D01*
X222899493Y-39352584D01*
X222746015Y-39289012D01*
X222746003Y-39289009D01*
X222583072Y-39256600D01*
X222583068Y-39256600D01*
X222416932Y-39256600D01*
X222416927Y-39256600D01*
X222253996Y-39289009D01*
X222253984Y-39289012D01*
X222100506Y-39352584D01*
X222100493Y-39352591D01*
X221962364Y-39444887D01*
X221962360Y-39444890D01*
X221844890Y-39562360D01*
X221844887Y-39562364D01*
X221752591Y-39700493D01*
X221752584Y-39700506D01*
X221689012Y-39853984D01*
X221689009Y-39853996D01*
X221656600Y-40016927D01*
X207800500Y-40016927D01*
X207800500Y-36885375D01*
X251298500Y-36885375D01*
X251298500Y-37134624D01*
X251298501Y-37134641D01*
X251331034Y-37381756D01*
X251395549Y-37622529D01*
X251490931Y-37852804D01*
X251490938Y-37852819D01*
X251615567Y-38068683D01*
X251767307Y-38266434D01*
X251767313Y-38266441D01*
X251943558Y-38442686D01*
X251943565Y-38442692D01*
X252141316Y-38594432D01*
X252357180Y-38719061D01*
X252357195Y-38719068D01*
X252456435Y-38760174D01*
X252587471Y-38814451D01*
X252828240Y-38878965D01*
X253075369Y-38911500D01*
X253075376Y-38911500D01*
X253324624Y-38911500D01*
X253324631Y-38911500D01*
X253571760Y-38878965D01*
X253812529Y-38814451D01*
X254042816Y-38719063D01*
X254258684Y-38594432D01*
X254456436Y-38442691D01*
X254632691Y-38266436D01*
X254784432Y-38068684D01*
X254909063Y-37852816D01*
X255004451Y-37622529D01*
X255068965Y-37381760D01*
X255101500Y-37134631D01*
X255101500Y-36885369D01*
X255068965Y-36638240D01*
X255004451Y-36397471D01*
X254909063Y-36167184D01*
X254784432Y-35951316D01*
X254632691Y-35753564D01*
X254632686Y-35753558D01*
X254456441Y-35577313D01*
X254456434Y-35577307D01*
X254258683Y-35425567D01*
X254042819Y-35300938D01*
X254042804Y-35300931D01*
X253812529Y-35205549D01*
X253571756Y-35141034D01*
X253324641Y-35108501D01*
X253324636Y-35108500D01*
X253324631Y-35108500D01*
X253075369Y-35108500D01*
X253075363Y-35108500D01*
X253075358Y-35108501D01*
X252828243Y-35141034D01*
X252587470Y-35205549D01*
X252357195Y-35300931D01*
X252357180Y-35300938D01*
X252141316Y-35425567D01*
X251943565Y-35577307D01*
X251943558Y-35577313D01*
X251767313Y-35753558D01*
X251767307Y-35753565D01*
X251615567Y-35951316D01*
X251490938Y-36167180D01*
X251490931Y-36167195D01*
X251395549Y-36397470D01*
X251331034Y-36638243D01*
X251298501Y-36885358D01*
X251298500Y-36885375D01*
X207800500Y-36885375D01*
X207800500Y-29567482D01*
X220499500Y-29567482D01*
X220499500Y-32167517D01*
X220510000Y-32270296D01*
X220565185Y-32436832D01*
X220565187Y-32436837D01*
X220571714Y-32447419D01*
X220657288Y-32586156D01*
X220781344Y-32710212D01*
X220930665Y-32802314D01*
X221097202Y-32857499D01*
X221199990Y-32868000D01*
X221199995Y-32868000D01*
X223800005Y-32868000D01*
X223800010Y-32868000D01*
X223902798Y-32857499D01*
X224069335Y-32802314D01*
X224218656Y-32710212D01*
X224342712Y-32586156D01*
X224434814Y-32436835D01*
X224489999Y-32270298D01*
X224500500Y-32167510D01*
X224500500Y-30736372D01*
X225499500Y-30736372D01*
X225499500Y-30998627D01*
X225514294Y-31110989D01*
X225533730Y-31258616D01*
X225601558Y-31511755D01*
X225601602Y-31511918D01*
X225601605Y-31511928D01*
X225701953Y-31754190D01*
X225701958Y-31754200D01*
X225833075Y-31981303D01*
X225992718Y-32189351D01*
X225992726Y-32189360D01*
X226178140Y-32374774D01*
X226178148Y-32374781D01*
X226386196Y-32534424D01*
X226613299Y-32665541D01*
X226613309Y-32665546D01*
X226855571Y-32765894D01*
X226855581Y-32765898D01*
X227108884Y-32833770D01*
X227357188Y-32866460D01*
X227365074Y-32867499D01*
X227368880Y-32868000D01*
X227368887Y-32868000D01*
X227631113Y-32868000D01*
X227631120Y-32868000D01*
X227891116Y-32833770D01*
X228144419Y-32765898D01*
X228386697Y-32665543D01*
X228613803Y-32534424D01*
X228821851Y-32374782D01*
X228821855Y-32374777D01*
X228821860Y-32374774D01*
X229007274Y-32189360D01*
X229007277Y-32189355D01*
X229007282Y-32189351D01*
X229166924Y-31981303D01*
X229298043Y-31754197D01*
X229398398Y-31511919D01*
X229466270Y-31258616D01*
X229500500Y-30998620D01*
X229500500Y-30736405D01*
X230500000Y-30736405D01*
X230500000Y-30998594D01*
X230534220Y-31258509D01*
X230534222Y-31258520D01*
X230602075Y-31511755D01*
X230702404Y-31753971D01*
X230702409Y-31753982D01*
X230833488Y-31981016D01*
X230833494Y-31981024D01*
X230920080Y-32093865D01*
X231898958Y-31114987D01*
X231923978Y-31175390D01*
X231995112Y-31281851D01*
X232085649Y-31372388D01*
X232192110Y-31443522D01*
X232252511Y-31468541D01*
X231273633Y-32447417D01*
X231273633Y-32447418D01*
X231386475Y-32534005D01*
X231386483Y-32534011D01*
X231613517Y-32665090D01*
X231613528Y-32665095D01*
X231855744Y-32765424D01*
X232108979Y-32833277D01*
X232108990Y-32833279D01*
X232368905Y-32867499D01*
X232368920Y-32867500D01*
X232631080Y-32867500D01*
X232631094Y-32867499D01*
X232891009Y-32833279D01*
X232891020Y-32833277D01*
X233144255Y-32765424D01*
X233386471Y-32665095D01*
X233386482Y-32665090D01*
X233613516Y-32534011D01*
X233613534Y-32533999D01*
X233726365Y-32447419D01*
X233726365Y-32447417D01*
X232747488Y-31468541D01*
X232807890Y-31443522D01*
X232914351Y-31372388D01*
X233004888Y-31281851D01*
X233076022Y-31175390D01*
X233101041Y-31114989D01*
X234079917Y-32093865D01*
X234079919Y-32093865D01*
X234166499Y-31981034D01*
X234166511Y-31981016D01*
X234297590Y-31753982D01*
X234297595Y-31753971D01*
X234397924Y-31511755D01*
X234465777Y-31258520D01*
X234465779Y-31258509D01*
X234499999Y-30998594D01*
X234500000Y-30998580D01*
X234500000Y-30736419D01*
X234499999Y-30736405D01*
X234465779Y-30476490D01*
X234465777Y-30476479D01*
X234397924Y-30223244D01*
X234297595Y-29981028D01*
X234297590Y-29981017D01*
X234166511Y-29753983D01*
X234166505Y-29753975D01*
X234079918Y-29641133D01*
X234079917Y-29641133D01*
X233101040Y-30620009D01*
X233076022Y-30559610D01*
X233004888Y-30453149D01*
X232914351Y-30362612D01*
X232807890Y-30291478D01*
X232747487Y-30266457D01*
X233446463Y-29567482D01*
X236999500Y-29567482D01*
X236999500Y-32167517D01*
X237010000Y-32270296D01*
X237065185Y-32436832D01*
X237065187Y-32436837D01*
X237071714Y-32447419D01*
X237157288Y-32586156D01*
X237281344Y-32710212D01*
X237430665Y-32802314D01*
X237597202Y-32857499D01*
X237699990Y-32868000D01*
X237699995Y-32868000D01*
X240300005Y-32868000D01*
X240300010Y-32868000D01*
X240402798Y-32857499D01*
X240569335Y-32802314D01*
X240718656Y-32710212D01*
X240842712Y-32586156D01*
X240934814Y-32436835D01*
X240989999Y-32270298D01*
X241000500Y-32167510D01*
X241000500Y-30736372D01*
X241999500Y-30736372D01*
X241999500Y-30998627D01*
X242014294Y-31110989D01*
X242033730Y-31258616D01*
X242101558Y-31511755D01*
X242101602Y-31511918D01*
X242101605Y-31511928D01*
X242201953Y-31754190D01*
X242201958Y-31754200D01*
X242333075Y-31981303D01*
X242492718Y-32189351D01*
X242492726Y-32189360D01*
X242678140Y-32374774D01*
X242678148Y-32374781D01*
X242886196Y-32534424D01*
X243113299Y-32665541D01*
X243113309Y-32665546D01*
X243355571Y-32765894D01*
X243355581Y-32765898D01*
X243608884Y-32833770D01*
X243857188Y-32866460D01*
X243865074Y-32867499D01*
X243868880Y-32868000D01*
X243868887Y-32868000D01*
X244131113Y-32868000D01*
X244131120Y-32868000D01*
X244391116Y-32833770D01*
X244644419Y-32765898D01*
X244886697Y-32665543D01*
X245113803Y-32534424D01*
X245321851Y-32374782D01*
X245321855Y-32374777D01*
X245321860Y-32374774D01*
X245507274Y-32189360D01*
X245507277Y-32189355D01*
X245507282Y-32189351D01*
X245666924Y-31981303D01*
X245798043Y-31754197D01*
X245898398Y-31511919D01*
X245966270Y-31258616D01*
X246000500Y-30998620D01*
X246000500Y-30736380D01*
X245966270Y-30476384D01*
X245898398Y-30223081D01*
X245895849Y-30216927D01*
X252056600Y-30216927D01*
X252056600Y-30383072D01*
X252089009Y-30546003D01*
X252089012Y-30546015D01*
X252152584Y-30699493D01*
X252152591Y-30699506D01*
X252244887Y-30837635D01*
X252244890Y-30837639D01*
X252362360Y-30955109D01*
X252362364Y-30955112D01*
X252500493Y-31047408D01*
X252500506Y-31047415D01*
X252653984Y-31110987D01*
X252653989Y-31110989D01*
X252816927Y-31143399D01*
X252816931Y-31143400D01*
X252816932Y-31143400D01*
X252983069Y-31143400D01*
X252983070Y-31143399D01*
X253146011Y-31110989D01*
X253299500Y-31047412D01*
X253437636Y-30955112D01*
X253555112Y-30837636D01*
X253647412Y-30699500D01*
X253710989Y-30546011D01*
X253743400Y-30383068D01*
X253743400Y-30216932D01*
X253743399Y-30216927D01*
X259656600Y-30216927D01*
X259656600Y-30383072D01*
X259689009Y-30546003D01*
X259689012Y-30546015D01*
X259752584Y-30699493D01*
X259752591Y-30699506D01*
X259844887Y-30837635D01*
X259844890Y-30837639D01*
X259962360Y-30955109D01*
X259962364Y-30955112D01*
X260100493Y-31047408D01*
X260100506Y-31047415D01*
X260253984Y-31110987D01*
X260253989Y-31110989D01*
X260416927Y-31143399D01*
X260416931Y-31143400D01*
X260416932Y-31143400D01*
X260583069Y-31143400D01*
X260583070Y-31143399D01*
X260746011Y-31110989D01*
X260899500Y-31047412D01*
X261037636Y-30955112D01*
X261155112Y-30837636D01*
X261247412Y-30699500D01*
X261310989Y-30546011D01*
X261343400Y-30383068D01*
X261343400Y-30216932D01*
X261310989Y-30053989D01*
X261280677Y-29980809D01*
X261247415Y-29900506D01*
X261247408Y-29900493D01*
X261155112Y-29762364D01*
X261155109Y-29762360D01*
X261037639Y-29644890D01*
X261037635Y-29644887D01*
X260899506Y-29552591D01*
X260899493Y-29552584D01*
X260746015Y-29489012D01*
X260746003Y-29489009D01*
X260583072Y-29456600D01*
X260583068Y-29456600D01*
X260416932Y-29456600D01*
X260416927Y-29456600D01*
X260253996Y-29489009D01*
X260253984Y-29489012D01*
X260100506Y-29552584D01*
X260100493Y-29552591D01*
X259962364Y-29644887D01*
X259962360Y-29644890D01*
X259844890Y-29762360D01*
X259844887Y-29762364D01*
X259752591Y-29900493D01*
X259752584Y-29900506D01*
X259689012Y-30053984D01*
X259689009Y-30053996D01*
X259656600Y-30216927D01*
X253743399Y-30216927D01*
X253710989Y-30053989D01*
X253680677Y-29980809D01*
X253647415Y-29900506D01*
X253647408Y-29900493D01*
X253555112Y-29762364D01*
X253555109Y-29762360D01*
X253437639Y-29644890D01*
X253437635Y-29644887D01*
X253299506Y-29552591D01*
X253299493Y-29552584D01*
X253146015Y-29489012D01*
X253146003Y-29489009D01*
X252983072Y-29456600D01*
X252983068Y-29456600D01*
X252816932Y-29456600D01*
X252816927Y-29456600D01*
X252653996Y-29489009D01*
X252653984Y-29489012D01*
X252500506Y-29552584D01*
X252500493Y-29552591D01*
X252362364Y-29644887D01*
X252362360Y-29644890D01*
X252244890Y-29762360D01*
X252244887Y-29762364D01*
X252152591Y-29900493D01*
X252152584Y-29900506D01*
X252089012Y-30053984D01*
X252089009Y-30053996D01*
X252056600Y-30216927D01*
X245895849Y-30216927D01*
X245828356Y-30053984D01*
X245798046Y-29980809D01*
X245798041Y-29980799D01*
X245666924Y-29753696D01*
X245512609Y-29552591D01*
X245507282Y-29545649D01*
X245507281Y-29545648D01*
X245507274Y-29545640D01*
X245321860Y-29360226D01*
X245321851Y-29360218D01*
X245113803Y-29200575D01*
X244886700Y-29069458D01*
X244886690Y-29069453D01*
X244644428Y-28969105D01*
X244644421Y-28969103D01*
X244644419Y-28969102D01*
X244391116Y-28901230D01*
X244333339Y-28893623D01*
X244131127Y-28867000D01*
X244131120Y-28867000D01*
X243868880Y-28867000D01*
X243868872Y-28867000D01*
X243637772Y-28897426D01*
X243608884Y-28901230D01*
X243355581Y-28969102D01*
X243355571Y-28969105D01*
X243113309Y-29069453D01*
X243113299Y-29069458D01*
X242886196Y-29200575D01*
X242678148Y-29360218D01*
X242492718Y-29545648D01*
X242333075Y-29753696D01*
X242201958Y-29980799D01*
X242201953Y-29980809D01*
X242101605Y-30223071D01*
X242101603Y-30223078D01*
X242101602Y-30223081D01*
X242033730Y-30476384D01*
X242033716Y-30476490D01*
X241999500Y-30736372D01*
X241000500Y-30736372D01*
X241000500Y-29567490D01*
X240989999Y-29464702D01*
X240934814Y-29298165D01*
X240842712Y-29148844D01*
X240718656Y-29024788D01*
X240569335Y-28932686D01*
X240402798Y-28877501D01*
X240402796Y-28877500D01*
X240300017Y-28867000D01*
X240300010Y-28867000D01*
X237699990Y-28867000D01*
X237699982Y-28867000D01*
X237597203Y-28877500D01*
X237597202Y-28877501D01*
X237525593Y-28901230D01*
X237430667Y-28932685D01*
X237430662Y-28932687D01*
X237281342Y-29024789D01*
X237157289Y-29148842D01*
X237065187Y-29298162D01*
X237065186Y-29298165D01*
X237010001Y-29464702D01*
X237010001Y-29464703D01*
X237010000Y-29464703D01*
X236999500Y-29567482D01*
X233446463Y-29567482D01*
X233726365Y-29287580D01*
X233613524Y-29200994D01*
X233613516Y-29200988D01*
X233386482Y-29069909D01*
X233386471Y-29069904D01*
X233144255Y-28969575D01*
X232891020Y-28901722D01*
X232891009Y-28901720D01*
X232631094Y-28867500D01*
X232368905Y-28867500D01*
X232108990Y-28901720D01*
X232108979Y-28901722D01*
X231855744Y-28969575D01*
X231613528Y-29069904D01*
X231613517Y-29069909D01*
X231386471Y-29200996D01*
X231273633Y-29287579D01*
X231273633Y-29287580D01*
X232252511Y-30266458D01*
X232192110Y-30291478D01*
X232085649Y-30362612D01*
X231995112Y-30453149D01*
X231923978Y-30559610D01*
X231898958Y-30620011D01*
X230920080Y-29641133D01*
X230920079Y-29641133D01*
X230833496Y-29753971D01*
X230702409Y-29981017D01*
X230702404Y-29981028D01*
X230602075Y-30223244D01*
X230534222Y-30476479D01*
X230534220Y-30476490D01*
X230500000Y-30736405D01*
X229500500Y-30736405D01*
X229500500Y-30736380D01*
X229466270Y-30476384D01*
X229398398Y-30223081D01*
X229328356Y-30053984D01*
X229298046Y-29980809D01*
X229298041Y-29980799D01*
X229166924Y-29753696D01*
X229012609Y-29552591D01*
X229007282Y-29545649D01*
X229007281Y-29545648D01*
X229007274Y-29545640D01*
X228821860Y-29360226D01*
X228821851Y-29360218D01*
X228613803Y-29200575D01*
X228386700Y-29069458D01*
X228386690Y-29069453D01*
X228144428Y-28969105D01*
X228144421Y-28969103D01*
X228144419Y-28969102D01*
X227891116Y-28901230D01*
X227833339Y-28893623D01*
X227631127Y-28867000D01*
X227631120Y-28867000D01*
X227368880Y-28867000D01*
X227368872Y-28867000D01*
X227137772Y-28897426D01*
X227108884Y-28901230D01*
X226855581Y-28969102D01*
X226855571Y-28969105D01*
X226613309Y-29069453D01*
X226613299Y-29069458D01*
X226386196Y-29200575D01*
X226178148Y-29360218D01*
X225992718Y-29545648D01*
X225833075Y-29753696D01*
X225701958Y-29980799D01*
X225701953Y-29980809D01*
X225601605Y-30223071D01*
X225601603Y-30223078D01*
X225601602Y-30223081D01*
X225533730Y-30476384D01*
X225533716Y-30476490D01*
X225499500Y-30736372D01*
X224500500Y-30736372D01*
X224500500Y-29567490D01*
X224489999Y-29464702D01*
X224434814Y-29298165D01*
X224342712Y-29148844D01*
X224218656Y-29024788D01*
X224069335Y-28932686D01*
X223902798Y-28877501D01*
X223902796Y-28877500D01*
X223800017Y-28867000D01*
X223800010Y-28867000D01*
X221199990Y-28867000D01*
X221199982Y-28867000D01*
X221097203Y-28877500D01*
X221097202Y-28877501D01*
X221025593Y-28901230D01*
X220930667Y-28932685D01*
X220930662Y-28932687D01*
X220781342Y-29024789D01*
X220657289Y-29148842D01*
X220565187Y-29298162D01*
X220565186Y-29298165D01*
X220510001Y-29464702D01*
X220510001Y-29464703D01*
X220510000Y-29464703D01*
X220499500Y-29567482D01*
X207800500Y-29567482D01*
X207800500Y-27368872D01*
X208799500Y-27368872D01*
X208799500Y-27631127D01*
X208820436Y-27790140D01*
X208833730Y-27891116D01*
X208855178Y-27971161D01*
X208901602Y-28144418D01*
X208901605Y-28144428D01*
X209001953Y-28386690D01*
X209001958Y-28386700D01*
X209133075Y-28613803D01*
X209292718Y-28821851D01*
X209292726Y-28821860D01*
X209478140Y-29007274D01*
X209478148Y-29007281D01*
X209478149Y-29007282D01*
X209526554Y-29044424D01*
X209686196Y-29166924D01*
X209913299Y-29298041D01*
X209913309Y-29298046D01*
X210155571Y-29398394D01*
X210155581Y-29398398D01*
X210408884Y-29466270D01*
X210668880Y-29500500D01*
X210668887Y-29500500D01*
X210931113Y-29500500D01*
X210931120Y-29500500D01*
X211191116Y-29466270D01*
X211444419Y-29398398D01*
X211686398Y-29298167D01*
X211686690Y-29298046D01*
X211686691Y-29298045D01*
X211686697Y-29298043D01*
X211913803Y-29166924D01*
X212121851Y-29007282D01*
X212121855Y-29007277D01*
X212121860Y-29007274D01*
X212307274Y-28821860D01*
X212307277Y-28821855D01*
X212307282Y-28821851D01*
X212466924Y-28613803D01*
X212598043Y-28386697D01*
X212698398Y-28144419D01*
X212766270Y-27891116D01*
X212800500Y-27631120D01*
X212800500Y-27368880D01*
X212800499Y-27368872D01*
X266099500Y-27368872D01*
X266099500Y-27631127D01*
X266120436Y-27790140D01*
X266133730Y-27891116D01*
X266155178Y-27971161D01*
X266201602Y-28144418D01*
X266201605Y-28144428D01*
X266301953Y-28386690D01*
X266301958Y-28386700D01*
X266433075Y-28613803D01*
X266592718Y-28821851D01*
X266592726Y-28821860D01*
X266778140Y-29007274D01*
X266778148Y-29007281D01*
X266778149Y-29007282D01*
X266826554Y-29044424D01*
X266986196Y-29166924D01*
X267213299Y-29298041D01*
X267213309Y-29298046D01*
X267455571Y-29398394D01*
X267455581Y-29398398D01*
X267708884Y-29466270D01*
X267968880Y-29500500D01*
X267968887Y-29500500D01*
X268231113Y-29500500D01*
X268231120Y-29500500D01*
X268491116Y-29466270D01*
X268744419Y-29398398D01*
X268986398Y-29298167D01*
X268986690Y-29298046D01*
X268986691Y-29298045D01*
X268986697Y-29298043D01*
X269213803Y-29166924D01*
X269421851Y-29007282D01*
X269421855Y-29007277D01*
X269421860Y-29007274D01*
X269607274Y-28821860D01*
X269607277Y-28821855D01*
X269607282Y-28821851D01*
X269766924Y-28613803D01*
X269898043Y-28386697D01*
X269998398Y-28144419D01*
X270066270Y-27891116D01*
X270100500Y-27631120D01*
X270100500Y-27368880D01*
X270066270Y-27108884D01*
X269998398Y-26855581D01*
X269900204Y-26618520D01*
X269898046Y-26613309D01*
X269898041Y-26613299D01*
X269766924Y-26386196D01*
X269607281Y-26178148D01*
X269607274Y-26178140D01*
X269421860Y-25992726D01*
X269421851Y-25992718D01*
X269213803Y-25833075D01*
X268986700Y-25701958D01*
X268986690Y-25701953D01*
X268744428Y-25601605D01*
X268744421Y-25601603D01*
X268744419Y-25601602D01*
X268491116Y-25533730D01*
X268433339Y-25526123D01*
X268231127Y-25499500D01*
X268231120Y-25499500D01*
X267968880Y-25499500D01*
X267968872Y-25499500D01*
X267737772Y-25529926D01*
X267708884Y-25533730D01*
X267455581Y-25601602D01*
X267455571Y-25601605D01*
X267213309Y-25701953D01*
X267213299Y-25701958D01*
X266986196Y-25833075D01*
X266778148Y-25992718D01*
X266592718Y-26178148D01*
X266433075Y-26386196D01*
X266301958Y-26613299D01*
X266301953Y-26613309D01*
X266201605Y-26855571D01*
X266201602Y-26855581D01*
X266133730Y-27108885D01*
X266099500Y-27368872D01*
X212800499Y-27368872D01*
X212766270Y-27108884D01*
X212698398Y-26855581D01*
X212600204Y-26618520D01*
X212598046Y-26613309D01*
X212598041Y-26613299D01*
X212466924Y-26386196D01*
X212307281Y-26178148D01*
X212307274Y-26178140D01*
X212121860Y-25992726D01*
X212121851Y-25992718D01*
X211913803Y-25833075D01*
X211686700Y-25701958D01*
X211686690Y-25701953D01*
X211444428Y-25601605D01*
X211444421Y-25601603D01*
X211444419Y-25601602D01*
X211191116Y-25533730D01*
X211133339Y-25526123D01*
X210931127Y-25499500D01*
X210931120Y-25499500D01*
X210668880Y-25499500D01*
X210668872Y-25499500D01*
X210437772Y-25529926D01*
X210408884Y-25533730D01*
X210155581Y-25601602D01*
X210155571Y-25601605D01*
X209913309Y-25701953D01*
X209913299Y-25701958D01*
X209686196Y-25833075D01*
X209478148Y-25992718D01*
X209292718Y-26178148D01*
X209133075Y-26386196D01*
X209001958Y-26613299D01*
X209001953Y-26613309D01*
X208901605Y-26855571D01*
X208901602Y-26855581D01*
X208833730Y-27108885D01*
X208799500Y-27368872D01*
X207800500Y-27368872D01*
X207800500Y-24624500D01*
X207820185Y-24557461D01*
X207872989Y-24511706D01*
X207924500Y-24500500D01*
X270975500Y-24500500D01*
X271042539Y-24520185D01*
G37*
%TD.AperFunction*%
%TD*%
M02*
