M48
; DRILL file {KiCad 9.0.6} date 2026-03-18T13:22:47+1100
; FORMAT={-:-/ absolute / metric / decimal}
; #@! TF.CreationDate,2026-03-18T13:22:47+11:00
; #@! TF.GenerationSoftware,Kicad,Pcbnew,9.0.6
; #@! TF.FileFunction,Plated,1,4,PTH
FMAT,2
METRIC
; #@! TA.AperFunction,Plated,PTH,ViaDrill
T1C0.300
; #@! TA.AperFunction,Plated,PTH,ComponentDrill
T2C0.800
; #@! TA.AperFunction,Plated,PTH,ComponentDrill
T3C0.991
; #@! TA.AperFunction,Plated,PTH,ComponentDrill
T4C1.000
%
G90
G05
T1
X111.5Y-78.8
X116.8Y-117.3
X120.6Y-64.6
X122.1Y-62.0
X141.7Y-72.9
X145.3Y-53.2
X145.7Y-121.9
X151.0Y-93.8
X155.4Y-82.0
X155.6Y-105.7
X156.1Y-76.8
X158.1Y-102.1
X166.4Y-65.3
X170.2Y-71.1
X170.222Y-85.778
X172.213Y-86.741
T2
X82.5Y-109.3
X82.5Y-116.92
X88.0Y-109.27
X88.0Y-116.89
X93.6Y-109.27
X93.6Y-116.89
X99.6Y-109.19
X99.6Y-116.81
X105.5Y-109.18
X105.5Y-116.8
X106.89Y-74.5
X106.9Y-68.5
X106.99Y-56.5
X106.99Y-62.5
X111.5Y-109.28
X111.5Y-116.9
X114.51Y-74.5
X114.52Y-68.5
X114.61Y-56.5
X114.61Y-62.5
X121.5Y-123.28
X121.5Y-130.9
X127.5Y-123.28
X127.5Y-130.9
X128.136Y-97.597
X128.136Y-100.137
X128.136Y-102.677
X128.14Y-49.34
X128.14Y-51.88
X128.14Y-54.42
X128.14Y-56.96
X128.14Y-59.5
X128.14Y-62.04
X128.14Y-64.58
X128.14Y-67.12
X128.14Y-69.66
X128.14Y-72.2
X128.14Y-74.74
X128.14Y-77.28
X128.14Y-79.82
X128.14Y-82.36
X128.14Y-84.9
X128.14Y-87.44
X128.14Y-89.98
X128.14Y-92.52
X128.14Y-95.06
X133.5Y-123.38
X133.5Y-131.0
X139.5Y-123.38
X139.5Y-131.0
X151.0Y-49.34
X151.0Y-51.88
X151.0Y-54.42
X151.0Y-56.96
X151.0Y-59.5
X151.0Y-62.04
X151.0Y-64.58
X151.0Y-67.12
X151.0Y-69.66
X151.0Y-72.2
X151.0Y-74.74
X151.0Y-77.28
X151.0Y-79.82
X151.0Y-82.36
X151.0Y-84.9
X151.0Y-87.44
X151.0Y-89.98
X151.0Y-92.52
X151.0Y-95.06
X151.0Y-97.6
X151.0Y-100.14
X151.0Y-102.68
X157.5Y-122.99
X157.5Y-130.61
X159.189Y-62.155
X163.31Y-122.895
X163.31Y-130.515
X165.399Y-90.635
X165.399Y-98.255
X166.809Y-62.155
X169.31Y-122.895
X169.31Y-130.515
X175.31Y-122.895
X175.31Y-130.515
X181.31Y-122.895
X181.31Y-130.515
X187.41Y-122.895
X187.41Y-130.515
T3
X196.161Y-58.875
X196.161Y-61.645
X196.161Y-64.415
X196.161Y-67.185
X196.161Y-69.955
X196.231Y-93.815
X196.231Y-96.585
X196.231Y-99.355
X196.231Y-102.125
X196.231Y-104.895
X198.701Y-60.26
X198.701Y-63.03
X198.701Y-65.8
X198.701Y-68.57
X198.771Y-95.2
X198.771Y-97.97
X198.771Y-100.74
X198.771Y-103.51
T4
X91.26Y-44.5
X93.34Y-123.7
X93.8Y-44.5
X95.88Y-123.7
X98.42Y-123.7
X98.9Y-66.58
X98.9Y-69.12
X98.9Y-71.66
X98.9Y-74.2
X100.96Y-123.7
X103.36Y-44.5
X103.5Y-123.7
X105.9Y-44.5
X106.04Y-123.7
X114.2Y-88.22
X114.2Y-90.76
X114.2Y-93.3
X121.86Y-36.4
X124.4Y-36.4
X126.94Y-36.4
X127.88Y-136.3
X130.42Y-136.3
X132.96Y-136.3
X135.5Y-136.3
X136.36Y-36.3
X138.9Y-36.3
X154.66Y-41.2
X157.2Y-41.2
X161.659Y-72.355
X164.199Y-72.355
X164.66Y-41.2
X167.2Y-41.2
X167.25Y-136.315
X169.79Y-136.315
X172.33Y-136.315
X174.87Y-136.315
X177.41Y-136.315
X179.95Y-136.315
X197.0Y-129.46
X197.0Y-132.0
X197.0Y-134.54
M30
