%TF.GenerationSoftware,KiCad,Pcbnew,9.0.6*%
%TF.CreationDate,2026-03-18T13:22:40+11:00*%
%TF.ProjectId,Driver_Control_PCB,44726976-6572-45f4-936f-6e74726f6c5f,rev?*%
%TF.SameCoordinates,Original*%
%TF.FileFunction,Soldermask,Bot*%
%TF.FilePolarity,Negative*%
%FSLAX46Y46*%
G04 Gerber Fmt 4.6, Leading zero omitted, Abs format (unit mm)*
G04 Created by KiCad (PCBNEW 9.0.6) date 2026-03-18 13:22:40*
%MOMM*%
%LPD*%
G01*
G04 APERTURE LIST*
%ADD10C,1.600000*%
%ADD11R,1.700000X1.700000*%
%ADD12C,1.700000*%
%ADD13C,3.302000*%
%ADD14C,1.498600*%
%ADD15R,2.000000X1.200000*%
%ADD16O,2.000000X1.200000*%
G04 APERTURE END LIST*
D10*
%TO.C,R20*%
X127500000Y-123280000D03*
X127500000Y-130900000D03*
%TD*%
D11*
%TO.C,JP2*%
X164199300Y-72355001D03*
D12*
X161659300Y-72355001D03*
%TD*%
D11*
%TO.C,J1*%
X126940000Y-36400000D03*
D12*
X124400000Y-36400000D03*
X121860000Y-36400000D03*
%TD*%
D13*
%TO.C,J8*%
X197500700Y-86860001D03*
X197500700Y-111850001D03*
D14*
X196230700Y-93815002D03*
X196230700Y-96585002D03*
X196230700Y-99355001D03*
X196230700Y-102125001D03*
X196230700Y-104895000D03*
X198770700Y-95200000D03*
X198770700Y-97970000D03*
X198770700Y-100740000D03*
X198770700Y-103509999D03*
%TD*%
D10*
%TO.C,R1*%
X165399300Y-90635001D03*
X165399300Y-98255001D03*
%TD*%
%TO.C,R8*%
X181310000Y-130515000D03*
X181310000Y-122895000D03*
%TD*%
%TO.C,R16*%
X114610000Y-56500000D03*
X106990000Y-56500000D03*
%TD*%
%TO.C,R6*%
X88000000Y-109270000D03*
X88000000Y-116890000D03*
%TD*%
D11*
%TO.C,SW_Push1*%
X154660000Y-41200000D03*
D12*
X157200000Y-41200000D03*
%TD*%
D11*
%TO.C,SW_Tog1*%
X91260000Y-44500000D03*
D12*
X93800000Y-44500000D03*
%TD*%
D10*
%TO.C,R3*%
X105500000Y-109180000D03*
X105500000Y-116800000D03*
%TD*%
%TO.C,R19*%
X133500000Y-123380000D03*
X133500000Y-131000000D03*
%TD*%
D13*
%TO.C,*%
X206100000Y-30900000D03*
%TD*%
D11*
%TO.C,R_5Pos1*%
X106040000Y-123700000D03*
D12*
X103500000Y-123700000D03*
X100960000Y-123700000D03*
X98420000Y-123700000D03*
X95880000Y-123700000D03*
X93340000Y-123700000D03*
%TD*%
D10*
%TO.C,R7*%
X187410000Y-130515000D03*
X187410000Y-122895000D03*
%TD*%
D11*
%TO.C,SW_Tog2*%
X103360000Y-44500000D03*
D12*
X105900000Y-44500000D03*
%TD*%
D10*
%TO.C,R5*%
X93600000Y-109270000D03*
X93600000Y-116890000D03*
%TD*%
D15*
%TO.C,U1*%
X128140000Y-49340000D03*
D16*
X128140000Y-51880000D03*
X128140000Y-54420000D03*
X128140000Y-56960000D03*
X128140000Y-59500000D03*
X128140000Y-62040000D03*
X128140000Y-64580000D03*
X128140000Y-67120000D03*
X128140000Y-69660000D03*
X128140000Y-72200000D03*
X128140000Y-74740000D03*
X128140000Y-77280000D03*
X128140000Y-79820000D03*
X128140000Y-82360000D03*
X128140000Y-84900000D03*
X128140000Y-87440000D03*
X128140000Y-89980000D03*
X128140000Y-92520000D03*
X128140000Y-95060000D03*
X128136320Y-97597280D03*
X128136320Y-100137280D03*
X128136320Y-102677280D03*
X151000000Y-102680000D03*
X151000000Y-100140000D03*
X151000000Y-97600000D03*
X151000000Y-95060000D03*
X151000000Y-92520000D03*
X151000000Y-89980000D03*
X151000000Y-87440000D03*
X151000000Y-84900000D03*
X151000000Y-82360000D03*
X151000000Y-79820000D03*
X151000000Y-77280000D03*
X151000000Y-74740000D03*
X151000000Y-72200000D03*
X151000000Y-69660000D03*
X151000000Y-67120000D03*
X151000000Y-64580000D03*
X151000000Y-62040000D03*
X151000000Y-59500000D03*
X151000000Y-56960000D03*
X151000000Y-54420000D03*
X151000000Y-51880000D03*
X151000000Y-49340000D03*
%TD*%
D10*
%TO.C,R13*%
X114510000Y-74500000D03*
X106890000Y-74500000D03*
%TD*%
D11*
%TO.C,R_THR1*%
X197000000Y-129460000D03*
D12*
X197000000Y-132000000D03*
X197000000Y-134540000D03*
%TD*%
D10*
%TO.C,R14*%
X114520000Y-68500000D03*
X106900000Y-68500000D03*
%TD*%
%TO.C,R15*%
X114610000Y-62500000D03*
X106990000Y-62500000D03*
%TD*%
D13*
%TO.C,*%
X79900000Y-145100000D03*
%TD*%
D11*
%TO.C,R_pos2*%
X98900000Y-74200000D03*
D12*
X98900000Y-71660000D03*
X98900000Y-69120000D03*
X98900000Y-66580000D03*
%TD*%
D11*
%TO.C,SW_Push2*%
X164660000Y-41200000D03*
D12*
X167200000Y-41200000D03*
%TD*%
D11*
%TO.C,R_5Pos2*%
X179950000Y-136315000D03*
D12*
X177410000Y-136315000D03*
X174870000Y-136315000D03*
X172330000Y-136315000D03*
X169790000Y-136315000D03*
X167250000Y-136315000D03*
%TD*%
D13*
%TO.C,*%
X80000000Y-30900000D03*
%TD*%
D11*
%TO.C,R_BRK1*%
X114200000Y-93300000D03*
D12*
X114200000Y-90760000D03*
X114200000Y-88220000D03*
%TD*%
D10*
%TO.C,R18*%
X139500000Y-123380000D03*
X139500000Y-131000000D03*
%TD*%
%TO.C,R2*%
X111500000Y-109280000D03*
X111500000Y-116900000D03*
%TD*%
%TO.C,R12*%
X121500000Y-123280000D03*
X121500000Y-130900000D03*
%TD*%
D13*
%TO.C,*%
X206100000Y-145100000D03*
%TD*%
D10*
%TO.C,R9*%
X175310000Y-130515000D03*
X175310000Y-122895000D03*
%TD*%
D13*
%TO.C,J7*%
X197430700Y-51920002D03*
X197430700Y-76910002D03*
D14*
X196160700Y-58875003D03*
X196160700Y-61645003D03*
X196160700Y-64415002D03*
X196160700Y-67185002D03*
X196160700Y-69955001D03*
X198700700Y-60260001D03*
X198700700Y-63030001D03*
X198700700Y-65800001D03*
X198700700Y-68570000D03*
%TD*%
D10*
%TO.C,R21*%
X82500000Y-109300000D03*
X82500000Y-116920000D03*
%TD*%
D11*
%TO.C,J2*%
X136360000Y-36300000D03*
D12*
X138900000Y-36300000D03*
%TD*%
D10*
%TO.C,R11*%
X163310000Y-130515000D03*
X163310000Y-122895000D03*
%TD*%
%TO.C,R_term1*%
X159189300Y-62155001D03*
X166809300Y-62155001D03*
%TD*%
%TO.C,R4*%
X99600000Y-109190000D03*
X99600000Y-116810000D03*
%TD*%
D11*
%TO.C,R_pos1*%
X135500000Y-136300000D03*
D12*
X132960000Y-136300000D03*
X130420000Y-136300000D03*
X127880000Y-136300000D03*
%TD*%
D10*
%TO.C,R17*%
X157500000Y-130610000D03*
X157500000Y-122990000D03*
%TD*%
%TO.C,R10*%
X169310000Y-130515000D03*
X169310000Y-122895000D03*
%TD*%
M02*
