M48
; DRILL file KiCad 10.0.1 date 2026-04-28T16:46:53
; FORMAT={-:-/ absolute / metric / decimal}
; #@! TF.CreationDate,2026-04-28T16:46:53+10:00
; #@! TF.GenerationSoftware,Kicad,Pcbnew,10.0.1
; #@! TF.FileFunction,Plated,1,2,PTH
FMAT,2
METRIC
; #@! TA.AperFunction,Plated,PTH,ViaDrill
T1C0.300
; #@! TA.AperFunction,Plated,PTH,ComponentDrill
T2C0.800
; #@! TA.AperFunction,Plated,PTH,ComponentDrill
T3C0.900
; #@! TA.AperFunction,Plated,PTH,ComponentDrill
T4C0.991
; #@! TA.AperFunction,Plated,PTH,ComponentDrill
T5C1.100
%
G90
G05
T1
X34.9Y-56.3
X38.5Y-51.5
X40.5Y-46.0
X60.5Y-50.5
X65.5Y-50.5
T2
X32.032Y-97.536
X35.532Y-97.536
X50.066Y-106.365
X50.066Y-108.905
X50.066Y-111.445
X50.07Y-58.108
X50.07Y-60.648
X50.07Y-63.188
X50.07Y-65.728
X50.07Y-68.268
X50.07Y-70.808
X50.07Y-73.348
X50.07Y-75.888
X50.07Y-78.428
X50.07Y-80.968
X50.07Y-83.508
X50.07Y-86.048
X50.07Y-88.588
X50.07Y-91.128
X50.07Y-93.668
X50.07Y-96.208
X50.07Y-98.748
X50.07Y-101.288
X50.07Y-103.828
X72.93Y-58.108
X72.93Y-60.648
X72.93Y-63.188
X72.93Y-65.728
X72.93Y-68.268
X72.93Y-70.808
X72.93Y-73.348
X72.93Y-75.888
X72.93Y-78.428
X72.93Y-80.968
X72.93Y-83.508
X72.93Y-86.048
X72.93Y-88.588
X72.93Y-91.128
X72.93Y-93.668
X72.93Y-96.208
X72.93Y-98.748
X72.93Y-101.288
X72.93Y-103.828
X72.93Y-106.368
X72.93Y-108.908
X72.93Y-111.448
T3
X60.46Y-37.73
X60.46Y-40.27
X65.46Y-37.73
X65.46Y-40.27
T4
X35.23Y-70.84
X35.23Y-73.61
X35.23Y-76.38
X35.23Y-79.15
X37.77Y-69.455
X37.77Y-72.225
X37.77Y-74.995
X37.77Y-77.765
X37.77Y-80.535
T5
X60.42Y-30.5
X65.5Y-30.5
M30
