%TF.GenerationSoftware,KiCad,Pcbnew,10.0.1*%
%TF.CreationDate,2026-04-28T16:46:44+10:00*%
%TF.ProjectId,Autostop_Detector,4175746f-7374-46f7-905f-446574656374,rev?*%
%TF.SameCoordinates,Original*%
%TF.FileFunction,Copper,L1,Top*%
%TF.FilePolarity,Positive*%
%FSLAX46Y46*%
G04 Gerber Fmt 4.6, Leading zero omitted, Abs format (unit mm)*
G04 Created by KiCad (PCBNEW 10.0.1) date 2026-04-28 16:46:44*
%MOMM*%
%LPD*%
G01*
G04 APERTURE LIST*
G04 Aperture macros list*
%AMRoundRect*
0 Rectangle with rounded corners*
0 $1 Rounding radius*
0 $2 $3 $4 $5 $6 $7 $8 $9 X,Y pos of 4 corners*
0 Add a 4 corners polygon primitive as box body*
4,1,4,$2,$3,$4,$5,$6,$7,$8,$9,$2,$3,0*
0 Add four circle primitives for the rounded corners*
1,1,$1+$1,$2,$3*
1,1,$1+$1,$4,$5*
1,1,$1+$1,$6,$7*
1,1,$1+$1,$8,$9*
0 Add four rect primitives between the rounded corners*
20,1,$1+$1,$2,$3,$4,$5,0*
20,1,$1+$1,$4,$5,$6,$7,0*
20,1,$1+$1,$6,$7,$8,$9,0*
20,1,$1+$1,$8,$9,$2,$3,0*%
G04 Aperture macros list end*
%TA.AperFunction,SMDPad,CuDef*%
%ADD10R,0.980000X0.870000*%
%TD*%
%TA.AperFunction,SMDPad,CuDef*%
%ADD11RoundRect,0.200000X0.200000X0.275000X-0.200000X0.275000X-0.200000X-0.275000X0.200000X-0.275000X0*%
%TD*%
%TA.AperFunction,ComponentPad*%
%ADD12R,1.800000X1.800000*%
%TD*%
%TA.AperFunction,ComponentPad*%
%ADD13C,1.800000*%
%TD*%
%TA.AperFunction,ComponentPad*%
%ADD14R,1.650000X1.650000*%
%TD*%
%TA.AperFunction,ComponentPad*%
%ADD15C,1.650000*%
%TD*%
%TA.AperFunction,ComponentPad*%
%ADD16R,2.000000X1.200000*%
%TD*%
%TA.AperFunction,ComponentPad*%
%ADD17O,2.000000X1.200000*%
%TD*%
%TA.AperFunction,SMDPad,CuDef*%
%ADD18RoundRect,0.150000X0.825000X0.150000X-0.825000X0.150000X-0.825000X-0.150000X0.825000X-0.150000X0*%
%TD*%
%TA.AperFunction,ComponentPad*%
%ADD19C,1.600000*%
%TD*%
%TA.AperFunction,SMDPad,CuDef*%
%ADD20R,0.600000X0.560000*%
%TD*%
%TA.AperFunction,SMDPad,CuDef*%
%ADD21RoundRect,0.225000X-0.250000X0.225000X-0.250000X-0.225000X0.250000X-0.225000X0.250000X0.225000X0*%
%TD*%
%TA.AperFunction,ComponentPad*%
%ADD22C,1.498600*%
%TD*%
%TA.AperFunction,ViaPad*%
%ADD23C,0.600000*%
%TD*%
%TA.AperFunction,Conductor*%
%ADD24C,0.500000*%
%TD*%
%TA.AperFunction,Conductor*%
%ADD25C,0.250000*%
%TD*%
%TA.AperFunction,Conductor*%
%ADD26C,0.127000*%
%TD*%
G04 APERTURE END LIST*
D10*
%TO.P,R3,1*%
%TO.N,GND*%
X60500000Y-48280000D03*
%TO.P,R3,2*%
%TO.N,Net-(U1-GPIO2{slash}ADC1_CH1)*%
X60500000Y-46720000D03*
%TD*%
D11*
%TO.P,R4,1*%
%TO.N,GND*%
X33750000Y-56300000D03*
%TO.P,R4,2*%
%TO.N,Net-(U2-Rs)*%
X32100000Y-56300000D03*
%TD*%
D10*
%TO.P,R1,1*%
%TO.N,GND*%
X65500000Y-48280000D03*
%TO.P,R1,2*%
%TO.N,Net-(U1-GPIO1{slash}ADC1_CH0)*%
X65500000Y-46720000D03*
%TD*%
D12*
%TO.P,D2,1,K_1*%
%TO.N,Net-(D2-K)*%
X60460000Y-40270000D03*
D13*
%TO.P,D2,2,A_2*%
%TO.N,Net-(D2-A)*%
X60460000Y-37730000D03*
%TD*%
D14*
%TO.P,P1,1,1_1*%
%TO.N,Net-(D1-A)*%
X65500000Y-30500000D03*
D15*
%TO.P,P1,2,2_2*%
%TO.N,Net-(D2-A)*%
X60420000Y-30500000D03*
%TD*%
D16*
%TO.P,U1,1,3V3_1*%
%TO.N,+3V3*%
X50070000Y-58107920D03*
D17*
%TO.P,U1,2,3V3_2*%
X50070000Y-60647920D03*
%TO.P,U1,3,CHIP_PU_3*%
%TO.N,unconnected-(U1-CHIP_PU-Pad3)*%
X50070000Y-63187920D03*
%TO.P,U1,4,GPIO4/ADC1_CH3_4*%
%TO.N,unconnected-(U1-GPIO4{slash}ADC1_CH3-Pad4)*%
X50070000Y-65727920D03*
%TO.P,U1,5,GPIO5/ADC1_CH4_5*%
%TO.N,unconnected-(U1-GPIO5{slash}ADC1_CH4-Pad5)*%
X50070000Y-68267920D03*
%TO.P,U1,6,GPIO6/ADC1_CH5_6*%
%TO.N,unconnected-(U1-GPIO6{slash}ADC1_CH5-Pad6)*%
X50070000Y-70807920D03*
%TO.P,U1,7,GPIO7/ADC1_CH6_7*%
%TO.N,unconnected-(U1-GPIO7{slash}ADC1_CH6-Pad7)*%
X50070000Y-73347920D03*
%TO.P,U1,8,GPIO15/ADC2_CH4/32K_P_8*%
%TO.N,unconnected-(U1-GPIO15{slash}ADC2_CH4{slash}32K_P-Pad8)*%
X50070000Y-75887920D03*
%TO.P,U1,9,GPIO16/ADC2_CH5/32K_N_9*%
%TO.N,unconnected-(U1-GPIO16{slash}ADC2_CH5{slash}32K_N-Pad9)*%
X50070000Y-78427920D03*
%TO.P,U1,10,GPIO17/ADC2_CH6_10*%
%TO.N,unconnected-(U1-GPIO17{slash}ADC2_CH6-Pad10)*%
X50070000Y-80967920D03*
%TO.P,U1,11,GPIO18/ADC2_CH7_11*%
%TO.N,unconnected-(U1-GPIO18{slash}ADC2_CH7-Pad11)*%
X50070000Y-83507920D03*
%TO.P,U1,12,GPIO8/ADC1_CH7_12*%
%TO.N,unconnected-(U1-GPIO8{slash}ADC1_CH7-Pad12)*%
X50070000Y-86047920D03*
%TO.P,U1,13,GPIO3/ADC1_CH2_13*%
%TO.N,unconnected-(U1-GPIO3{slash}ADC1_CH2-Pad13)*%
X50070000Y-88587920D03*
%TO.P,U1,14,GPIO46_14*%
%TO.N,unconnected-(U1-GPIO46-Pad14)*%
X50070000Y-91127920D03*
%TO.P,U1,15,GPIO9/ADC1_CH8_15*%
%TO.N,unconnected-(U1-GPIO9{slash}ADC1_CH8-Pad15)*%
X50070000Y-93667920D03*
%TO.P,U1,16,GPIO10/ADC1_CH9_16*%
%TO.N,unconnected-(U1-GPIO10{slash}ADC1_CH9-Pad16)*%
X50070000Y-96207920D03*
%TO.P,U1,17,GPIO11/ADC2_CH0_17*%
%TO.N,unconnected-(U1-GPIO11{slash}ADC2_CH0-Pad17)*%
X50070000Y-98747920D03*
%TO.P,U1,18,GPIO12/ADC2_CH1_18*%
%TO.N,unconnected-(U1-GPIO12{slash}ADC2_CH1-Pad18)*%
X50070000Y-101287920D03*
%TO.P,U1,19,GPIO13/ADC2_CH2_19*%
%TO.N,/CANRX*%
X50070000Y-103827920D03*
%TO.P,U1,20,GPIO14/ADC2_CH3_20*%
%TO.N,/CANTX*%
X50066320Y-106365200D03*
%TO.P,U1,21,5V_21*%
%TO.N,+5V*%
X50066320Y-108905200D03*
%TO.P,U1,22,GND_22*%
%TO.N,GND*%
X50066320Y-111445200D03*
%TO.P,U1,23,GND_23*%
X72930000Y-111447920D03*
%TO.P,U1,24,GND_24*%
X72930000Y-108907920D03*
%TO.P,U1,25,GPIO19/USB_D-_25*%
%TO.N,unconnected-(U1-GPIO19{slash}USB_D--Pad25)*%
X72930000Y-106367920D03*
%TO.P,U1,26,GPIO20/USB_D+_26*%
%TO.N,unconnected-(U1-GPIO20{slash}USB_D+-Pad26)*%
X72930000Y-103827920D03*
%TO.P,U1,27,GPIO21_27*%
%TO.N,unconnected-(U1-GPIO21-Pad27)*%
X72930000Y-101287920D03*
%TO.P,U1,28,GPIO47_28*%
%TO.N,unconnected-(U1-GPIO47-Pad28)*%
X72930000Y-98747920D03*
%TO.P,U1,29,GPIO48_29*%
%TO.N,unconnected-(U1-GPIO48-Pad29)*%
X72930000Y-96207920D03*
%TO.P,U1,30,GPIO45_30*%
%TO.N,unconnected-(U1-GPIO45-Pad30)*%
X72930000Y-93667920D03*
%TO.P,U1,31,GPIO0_31*%
%TO.N,unconnected-(U1-GPIO0-Pad31)*%
X72930000Y-91127920D03*
%TO.P,U1,32,GPIO35_32*%
%TO.N,unconnected-(U1-GPIO35-Pad32)*%
X72930000Y-88587920D03*
%TO.P,U1,33,GPIO36_33*%
%TO.N,unconnected-(U1-GPIO36-Pad33)*%
X72930000Y-86047920D03*
%TO.P,U1,34,GPIO37_34*%
%TO.N,unconnected-(U1-GPIO37-Pad34)*%
X72930000Y-83507920D03*
%TO.P,U1,35,GPIO38_35*%
%TO.N,unconnected-(U1-GPIO38-Pad35)*%
X72930000Y-80967920D03*
%TO.P,U1,36,GPIO39/MTCK_36*%
%TO.N,unconnected-(U1-GPIO39{slash}MTCK-Pad36)*%
X72930000Y-78427920D03*
%TO.P,U1,37,GPIO40/MTDO_37*%
%TO.N,unconnected-(U1-GPIO40{slash}MTDO-Pad37)*%
X72930000Y-75887920D03*
%TO.P,U1,38,GPIO41/MTDI_38*%
%TO.N,unconnected-(U1-GPIO41{slash}MTDI-Pad38)*%
X72930000Y-73347920D03*
%TO.P,U1,39,GPIO42/MTMS_39*%
%TO.N,unconnected-(U1-GPIO42{slash}MTMS-Pad39)*%
X72930000Y-70807920D03*
%TO.P,U1,40,GPIO2/ADC1_CH1_40*%
%TO.N,Net-(U1-GPIO2{slash}ADC1_CH1)*%
X72930000Y-68267920D03*
%TO.P,U1,41,GPIO1/ADC1_CH0_41*%
%TO.N,Net-(U1-GPIO1{slash}ADC1_CH0)*%
X72930000Y-65727920D03*
%TO.P,U1,42,GPIO44/U0RXD_42*%
%TO.N,unconnected-(U1-GPIO44{slash}U0RXD-Pad42)*%
X72930000Y-63187920D03*
%TO.P,U1,43,GPIO43/U0TXD_43*%
%TO.N,unconnected-(U1-GPIO43{slash}U0TXD-Pad43)*%
X72930000Y-60647920D03*
%TO.P,U1,44,GND_44*%
%TO.N,GND*%
X72930000Y-58107920D03*
%TD*%
D18*
%TO.P,U2,1,D_1*%
%TO.N,/CANTX*%
X36511000Y-52705000D03*
%TO.P,U2,2,GND_2*%
%TO.N,GND*%
X36511000Y-51435000D03*
%TO.P,U2,3,VCC_3*%
%TO.N,+3V3*%
X36511000Y-50165000D03*
%TO.P,U2,4,R_4*%
%TO.N,/CANRX*%
X36511000Y-48895000D03*
%TO.P,U2,5,Vref_5*%
%TO.N,unconnected-(U2-Vref-Pad5)*%
X31561000Y-48895000D03*
%TO.P,U2,6,CANL_6*%
%TO.N,/CANL*%
X31561000Y-50165000D03*
%TO.P,U2,7,CANH_7*%
%TO.N,/CANH*%
X31561000Y-51435000D03*
%TO.P,U2,8,Rs_8*%
%TO.N,Net-(U2-Rs)*%
X31561000Y-52705000D03*
%TD*%
D19*
%TO.P,C1,1*%
%TO.N,GND*%
X35532000Y-97536000D03*
%TO.P,C1,2*%
%TO.N,+5V*%
X32032000Y-97536000D03*
%TD*%
D12*
%TO.P,D1,1,K_1*%
%TO.N,Net-(D1-K)*%
X65460000Y-40270000D03*
D13*
%TO.P,D1,2,A_2*%
%TO.N,Net-(D1-A)*%
X65460000Y-37730000D03*
%TD*%
D20*
%TO.P,R2,1*%
%TO.N,Net-(U1-GPIO1{slash}ADC1_CH0)*%
X65500000Y-44435000D03*
%TO.P,R2,2*%
%TO.N,Net-(D1-K)*%
X65500000Y-43565000D03*
%TD*%
%TO.P,R5,1*%
%TO.N,Net-(U1-GPIO2{slash}ADC1_CH1)*%
X60500000Y-44435000D03*
%TO.P,R5,2*%
%TO.N,Net-(D2-K)*%
X60500000Y-43565000D03*
%TD*%
D21*
%TO.P,C9,1*%
%TO.N,GND*%
X38800000Y-46050000D03*
%TO.P,C9,2*%
%TO.N,+3V3*%
X38800000Y-47600000D03*
%TD*%
D22*
%TO.P,J5,1,1_1*%
%TO.N,unconnected-(J5-Pad1)*%
X37770000Y-80534999D03*
%TO.P,J5,2,2_2*%
%TO.N,/CANL*%
X37770000Y-77764999D03*
%TO.P,J5,3,3_3*%
%TO.N,GND*%
X37770000Y-74995000D03*
%TO.P,J5,4,4_4*%
%TO.N,unconnected-(J5-Pad4)*%
X37770000Y-72225000D03*
%TO.P,J5,5,5_5*%
%TO.N,unconnected-(J5-Pad5)*%
X37770000Y-69455001D03*
%TO.P,J5,6,6_6*%
%TO.N,unconnected-(J5-Pad6)*%
X35230000Y-79150001D03*
%TO.P,J5,7,7_7*%
%TO.N,/CANH*%
X35230000Y-76380001D03*
%TO.P,J5,8,8_8*%
%TO.N,unconnected-(J5-Pad8)*%
X35230000Y-73610001D03*
%TO.P,J5,9,9_9*%
%TO.N,+5V*%
X35230000Y-70840002D03*
%TD*%
D23*
%TO.N,GND*%
X38500000Y-51500000D03*
X40500000Y-46000000D03*
X34900000Y-56300000D03*
X65500000Y-50500000D03*
X60500000Y-50500000D03*
%TD*%
%TO.N,+3V3*%
D24*
X50070000Y-58107920D02*
X50070000Y-60647920D01*
%TO.N,GND*%
D25*
X38435000Y-51435000D02*
X38500000Y-51500000D01*
X36511000Y-51435000D02*
X38435000Y-51435000D01*
D24*
X40450000Y-46050000D02*
X40500000Y-46000000D01*
X38800000Y-46050000D02*
X40450000Y-46050000D01*
%TO.N,+5V*%
X43401200Y-108905200D02*
X50066320Y-108905200D01*
X32032000Y-97536000D02*
X43401200Y-108905200D01*
%TO.N,+3V3*%
X39562080Y-47600000D02*
X50070000Y-58107920D01*
X38800000Y-47600000D02*
X39562080Y-47600000D01*
X35990776Y-47600000D02*
X38800000Y-47600000D01*
X35159000Y-49267448D02*
X35159000Y-48431776D01*
X36056552Y-50165000D02*
X35159000Y-49267448D01*
X35159000Y-48431776D02*
X35990776Y-47600000D01*
X36511000Y-50165000D02*
X36056552Y-50165000D01*
%TO.N,+5V*%
X32032000Y-74038002D02*
X32032000Y-97536000D01*
X35230000Y-70840002D02*
X32032000Y-74038002D01*
%TO.N,/CANH*%
D25*
X35230000Y-77439671D02*
X35230000Y-76380001D01*
X36556628Y-78766299D02*
X35230000Y-77439671D01*
X38184753Y-78766299D02*
X36556628Y-78766299D01*
X39377000Y-60843842D02*
X39377000Y-77574052D01*
X38033159Y-59500000D02*
X39377000Y-60843842D01*
X30334000Y-58334000D02*
X31500000Y-59500000D01*
X30334000Y-52384330D02*
X30334000Y-58334000D01*
X39377000Y-77574052D02*
X38184753Y-78766299D01*
X31283330Y-51435000D02*
X30334000Y-52384330D01*
X31561000Y-51435000D02*
X31283330Y-51435000D01*
X31500000Y-59500000D02*
X38033159Y-59500000D01*
%TO.N,/CANL*%
X39000000Y-61000000D02*
X39000000Y-76534999D01*
X29957000Y-58490158D02*
X31343842Y-59877000D01*
X29957000Y-51491330D02*
X29957000Y-58490158D01*
X31343842Y-59877000D02*
X37877000Y-59877000D01*
X31283330Y-50165000D02*
X29957000Y-51491330D01*
X31561000Y-50165000D02*
X31283330Y-50165000D01*
X37877000Y-59877000D02*
X39000000Y-61000000D01*
X39000000Y-76534999D02*
X37770000Y-77764999D01*
%TO.N,GND*%
D26*
X60500000Y-48280000D02*
X60500000Y-50500000D01*
D24*
X33725000Y-56300000D02*
X34900000Y-56300000D01*
D25*
X65500000Y-48280000D02*
X65500000Y-50500000D01*
%TO.N,Net-(U1-GPIO2{slash}ADC1_CH1)*%
X63000000Y-48500000D02*
X63000000Y-58337920D01*
X60500000Y-44435000D02*
X60500000Y-46720000D01*
X61220000Y-46720000D02*
X63000000Y-48500000D01*
X60500000Y-46720000D02*
X61220000Y-46720000D01*
X63000000Y-58337920D02*
X72930000Y-68267920D01*
%TO.N,Net-(U2-Rs)*%
X31561000Y-52705000D02*
X32075000Y-53219000D01*
X32075000Y-53219000D02*
X32075000Y-56300000D01*
%TO.N,Net-(U1-GPIO1{slash}ADC1_CH0)*%
X65500000Y-46720000D02*
X69000000Y-50220000D01*
X69000000Y-61797920D02*
X72930000Y-65727920D01*
X69000000Y-50220000D02*
X69000000Y-61797920D01*
X65500000Y-44435000D02*
X65500000Y-46720000D01*
%TO.N,Net-(D2-K)*%
X60460000Y-40270000D02*
X60460000Y-43525000D01*
X60460000Y-43525000D02*
X60500000Y-43565000D01*
%TO.N,Net-(D2-A)*%
X60420000Y-37690000D02*
X60460000Y-37730000D01*
X60420000Y-30500000D02*
X60420000Y-37690000D01*
%TO.N,Net-(D1-A)*%
X65500000Y-37690000D02*
X65460000Y-37730000D01*
X65500000Y-30500000D02*
X65500000Y-37690000D01*
%TO.N,/CANRX*%
X39895000Y-48895000D02*
X41300000Y-50300000D01*
X41300000Y-50300000D02*
X41300000Y-52709001D01*
X44140000Y-55549001D02*
X44140000Y-97897920D01*
X44140000Y-97897920D02*
X50070000Y-103827920D01*
X41300000Y-52709001D02*
X44140000Y-55549001D01*
X36511000Y-48895000D02*
X39895000Y-48895000D01*
%TO.N,/CANTX*%
X36511000Y-52705000D02*
X42100000Y-58294000D01*
X42100000Y-58294000D02*
X42100000Y-98398880D01*
X42100000Y-98398880D02*
X50066320Y-106365200D01*
%TO.N,Net-(D1-K)*%
X65460000Y-43525000D02*
X65500000Y-43565000D01*
X65460000Y-40270000D02*
X65460000Y-43525000D01*
%TD*%
%TA.AperFunction,Conductor*%
%TO.N,+3V3*%
G36*
X50321348Y-59451347D02*
G01*
X50323332Y-59453991D01*
X50665636Y-60077706D01*
X50666612Y-60086607D01*
X50663387Y-60091865D01*
X50078008Y-60641402D01*
X50069631Y-60644566D01*
X50061992Y-60641402D01*
X49476612Y-60091865D01*
X49472926Y-60083704D01*
X49474362Y-60077709D01*
X49816668Y-59453990D01*
X49823653Y-59448387D01*
X49826925Y-59447920D01*
X50313075Y-59447920D01*
X50321348Y-59451347D01*
G37*
%TD.AperFunction*%
%TD*%
%TA.AperFunction,Conductor*%
%TO.N,+5V*%
G36*
X32742339Y-97169577D02*
G01*
X32742653Y-97170218D01*
X33334097Y-98480500D01*
X33334377Y-98489451D01*
X33331706Y-98493587D01*
X32989587Y-98835706D01*
X32981314Y-98839133D01*
X32976500Y-98838097D01*
X31666218Y-98246653D01*
X31660088Y-98240126D01*
X31660368Y-98231175D01*
X31660675Y-98230547D01*
X32026880Y-97535772D01*
X32031772Y-97530880D01*
X32726535Y-97164681D01*
X32735450Y-97163856D01*
X32742339Y-97169577D01*
G37*
%TD.AperFunction*%
%TD*%
%TA.AperFunction,Conductor*%
%TO.N,+3V3*%
G36*
X35729413Y-49483044D02*
G01*
X36130805Y-49822683D01*
X36177683Y-49862349D01*
X36181606Y-49869027D01*
X36280195Y-50371095D01*
X36278426Y-50379873D01*
X36270968Y-50384830D01*
X36264063Y-50384085D01*
X35539020Y-50070020D01*
X35534105Y-50066021D01*
X35373312Y-49837693D01*
X35371350Y-49828955D01*
X35374603Y-49822685D01*
X35713585Y-49483703D01*
X35721857Y-49480277D01*
X35729413Y-49483044D01*
G37*
%TD.AperFunction*%
%TD*%
%TA.AperFunction,Conductor*%
%TO.N,+5V*%
G36*
X32282188Y-95943279D02*
G01*
X32284859Y-95947415D01*
X32793154Y-97292138D01*
X32792874Y-97301089D01*
X32786347Y-97307219D01*
X32785671Y-97307451D01*
X32035461Y-97539780D01*
X32028539Y-97539780D01*
X31278328Y-97307451D01*
X31271439Y-97301730D01*
X31270613Y-97292814D01*
X31270839Y-97292154D01*
X31779141Y-95947414D01*
X31785271Y-95940888D01*
X31790085Y-95939852D01*
X32273915Y-95939852D01*
X32282188Y-95943279D01*
G37*
%TD.AperFunction*%
%TD*%
%TA.AperFunction,Conductor*%
%TO.N,+5V*%
G36*
X34579532Y-70492259D02*
G01*
X34580058Y-70492519D01*
X35230051Y-70835054D01*
X35234947Y-70839950D01*
X35577482Y-71489943D01*
X35578307Y-71498860D01*
X35572586Y-71505749D01*
X35572060Y-71506009D01*
X34357075Y-72070450D01*
X34348129Y-72070828D01*
X34343873Y-72068112D01*
X34001889Y-71726128D01*
X33998462Y-71717855D01*
X33999551Y-71712926D01*
X34095678Y-71506009D01*
X34563993Y-70497939D01*
X34570586Y-70491881D01*
X34579532Y-70492259D01*
G37*
%TD.AperFunction*%
%TD*%
%TA.AperFunction,Conductor*%
%TO.N,/CANH*%
G36*
X31413982Y-51305015D02*
G01*
X31416842Y-51305566D01*
X31417267Y-51306193D01*
X31418049Y-51306474D01*
X31418051Y-51306476D01*
X31418269Y-51306674D01*
X31421864Y-51312980D01*
X31421924Y-51313272D01*
X31422156Y-51316033D01*
X31407906Y-51726019D01*
X31406861Y-51730463D01*
X31405475Y-51733506D01*
X31400453Y-51738915D01*
X30869320Y-52030180D01*
X30864968Y-52031551D01*
X30862256Y-52031848D01*
X30855024Y-52030287D01*
X30854648Y-52030064D01*
X30853754Y-52029370D01*
X30853659Y-52029343D01*
X30853614Y-52029262D01*
X30852339Y-52028272D01*
X30685651Y-51861584D01*
X30684009Y-51859522D01*
X30682636Y-51857330D01*
X30681495Y-51854948D01*
X30623344Y-51687040D01*
X30622721Y-51682518D01*
X30622848Y-51680378D01*
X30626298Y-51672754D01*
X30627221Y-51671841D01*
X30630450Y-51669582D01*
X31403416Y-51304642D01*
X31407838Y-51303537D01*
X31409621Y-51303451D01*
X31413982Y-51305015D01*
G37*
%TD.AperFunction*%
%TD*%
%TA.AperFunction,Conductor*%
%TO.N,/CANL*%
G36*
X31421092Y-50039236D02*
G01*
X31422205Y-50044637D01*
X31407826Y-50458347D01*
X31404114Y-50466497D01*
X31401759Y-50468200D01*
X30867280Y-50761300D01*
X30858378Y-50762273D01*
X30853381Y-50759314D01*
X30684712Y-50590645D01*
X30681930Y-50586203D01*
X30622583Y-50414843D01*
X30623114Y-50405905D01*
X30628642Y-50400436D01*
X31405518Y-50033650D01*
X31414461Y-50033218D01*
X31421092Y-50039236D01*
G37*
%TD.AperFunction*%
%TD*%
M02*
